<?xml version="1.0" encoding="UTF-8"?>
<svg id="Layer_1" xmlns="http://www.w3.org/2000/svg" version="1.1" viewBox="0 0 500 500">
  <!-- Generator: Adobe Illustrator 29.8.1, SVG Export Plug-In . SVG Version: 2.1.1 Build 2)  -->
  <defs>
    <style>
      .st0, .st1 {
        opacity: .1;
      }

      .st0, .st2, .st3 {
        isolation: isolate;
      }

      .st4 {
        fill: #ffbeb3;
      }

      .st5 {
        fill: #ff98b9;
      }

      .st6 {
        fill: #ebebeb;
      }

      .st7 {
        fill: #dbdbdb;
      }

      .st8 {
        fill: #eb9481;
      }

      .st9 {
        fill: #37474f;
      }

      .st10 {
        fill: #263238;
      }

      .st11 {
        fill: #c7c7c7;
      }

      .st12 {
        fill: #a6a6a6;
      }

      .st13, .st2, .st3 {
        fill: #fff;
      }

      .st14 {
        fill: #455a64;
      }

      .st2 {
        opacity: .7;
      }

      .st15 {
        fill: #00b67a;
      }

      .st3 {
        opacity: .5;
      }
    </style>
  </defs>
  <g id="freepik--background-complete--inject-3">
    <rect class="st6" x="331.74" y="298.61" width="88.24" height="122.11"/>
    <rect class="st7" x="327.47" y="294.08" width="96.79" height="4.53"/>
    <rect class="st6" x="424.26" y="294.08" width="30.44" height="4.53"/>
    <rect class="st7" x="419.98" y="298.61" width="29.9" height="122.11"/>
    <path class="st11" d="M410.5,355.14h-69.27v-39.14h69.27v39.14ZM341.5,354.89h68.77v-38.66h-68.79l.02,38.66h0Z"/>
    <rect class="st11" x="366.2" y="327.43" width="13.48" height="7.75"/>
    <path class="st11" d="M383.79,334.72h-13.73v-6.83h13.73v6.83ZM370.31,334.47h13.23v-6.33h-13.23v6.33Z"/>
    <path class="st11" d="M410.5,404.3h-69.27v-39.16h69.27v39.16ZM341.5,404.05h68.77v-38.66h-68.79l.02,38.66h0Z"/>
    <rect class="st11" x="366.2" y="376.59" width="13.48" height="7.75"/>
    <path class="st11" d="M383.79,383.88h-13.73v-6.83h13.73v6.83ZM370.31,383.63h13.23v-6.33h-13.23v6.33Z"/>
    <rect class="st11" x="84.9" width="1" height="92.13"/>
    <polygon class="st6" points="117.39 122.97 114.81 128.62 55.97 128.62 53.4 122.97 78.46 105.63 92.33 105.63 117.39 122.97"/>
    <polygon class="st7" points="94.07 88.92 92.33 105.63 78.46 105.63 76.72 88.92 94.07 88.92"/>
    <polygon class="st7" points="117.38 122.97 114.81 128.63 55.97 128.63 53.4 122.97 117.38 122.97"/>
  </g>
  <g>
    <g id="freepik--background-complete--inject-2">
      <path class="st6" d="M406.62,92.28c-1.72,11.6-12.52,19.61-24.13,17.89-11.6-1.72-19.61-12.52-17.89-24.13,1.55-10.41,10.48-18.12,21.01-18.12v21.23l21.01,3.12h0Z"/>
      <path class="st7" d="M411.17,84.84c0,1.04-.08,2.09-.23,3.12l-21-3.12v-21.23c11.72,0,21.22,9.48,21.23,21.2v.04h0Z"/>
      <rect class="st11" x="387.92" y="96.71" width="22.58" height=".59"/>
      <path class="st11" d="M412.08,98.89c-1.04,0-1.89-.84-1.89-1.88s.84-1.89,1.88-1.89,1.89.84,1.89,1.88h0c0,1.04-.83,1.88-1.87,1.88h-.01ZM412.08,95.72c-.71,0-1.29.57-1.3,1.28,0,.71.57,1.29,1.28,1.3.71,0,1.29-.57,1.3-1.28h0c0-.72-.57-1.29-1.28-1.29h0Z"/>
      <rect class="st11" x="417.82" y="95.81" width="17.54" height=".79"/>
      <rect class="st11" x="417.82" y="97.4" width="9.93" height=".79"/>
      <rect class="st6" x="198.91" y="137.46" width="5.6" height="39.86"/>
      <rect class="st6" x="208.54" y="147.12" width="5.6" height="30.21"/>
      <rect class="st6" x="218.17" y="162.22" width="5.6" height="15.11"/>
      <rect class="st6" x="227.79" y="153.59" width="5.6" height="23.73"/>
      <rect class="st6" x="237.42" y="144.53" width="5.6" height="32.8"/>
      <rect class="st6" x="247.05" y="139.21" width="5.6" height="38.13"/>
      <path class="st6" d="M195.66,132.4l.07,11.23.04,11.23.04,22.46-.14-.14h15.45l15.45.03,15.45.03,15.45.08-15.45.08-15.45.04-15.45.03h-15.58v-.14l.04-22.46v-11.23l.1-11.25h-.02Z"/>
      <path class="st6" d="M194.42,134.64c.4-.11.82-.16,1.24-.15.42,0,.83.04,1.24.15-.4.11-.82.17-1.24.16-.42,0-.83-.05-1.24-.16Z"/>
      <path class="st6" d="M194.42,138.06c.4-.11.82-.17,1.24-.16.42,0,.83.05,1.24.16-.4.11-.82.17-1.24.16-.42,0-.83-.05-1.24-.16Z"/>
      <path class="st6" d="M194.42,141.48c.4-.11.82-.17,1.24-.16.42,0,.83.05,1.24.16-.4.11-.82.17-1.24.16-.42,0-.83-.05-1.24-.16Z"/>
      <path class="st6" d="M194.42,144.9c.4-.11.82-.17,1.24-.16.42,0,.83.05,1.24.16-.4.11-.82.17-1.24.15-.42,0-.83-.04-1.24-.15Z"/>
      <path class="st6" d="M194.42,148.3c.4-.11.82-.17,1.24-.16.42,0,.83.05,1.24.16-.4.11-.82.16-1.24.15-.42,0-.83-.05-1.24-.15Z"/>
      <path class="st6" d="M194.42,151.72c.4-.11.82-.16,1.24-.15.42,0,.83.04,1.24.15-.4.11-.82.17-1.24.16-.42,0-.83-.05-1.24-.16Z"/>
      <path class="st6" d="M194.42,155.14c.4-.11.82-.17,1.24-.16.42,0,.83.05,1.24.16-.4.11-.82.17-1.24.16-.42,0-.83-.05-1.24-.16Z"/>
      <path class="st6" d="M194.42,158.55c.4-.11.82-.17,1.24-.16.42,0,.83.05,1.24.16-.4.11-.82.17-1.24.16-.42,0-.83-.05-1.24-.16Z"/>
      <path class="st6" d="M194.42,161.96c.4-.11.82-.17,1.24-.16.42,0,.83.05,1.24.16-.4.11-.82.17-1.24.15-.42,0-.83-.04-1.24-.15Z"/>
      <path class="st6" d="M194.42,165.39c.4-.11.82-.17,1.24-.16.42,0,.83.05,1.24.16-.4.11-.82.17-1.24.15-.42,0-.83-.05-1.24-.15Z"/>
      <path class="st6" d="M194.42,168.8c.4-.11.82-.16,1.24-.15.42,0,.83.04,1.24.15-.4.12-.82.17-1.24.16-.42,0-.83-.05-1.24-.16Z"/>
      <path class="st6" d="M194.42,172.21c.4-.11.82-.17,1.24-.16.42,0,.83.05,1.24.16-.4.11-.82.17-1.24.16-.42,0-.83-.05-1.24-.16Z"/>
    </g>
    <g id="freepik--chart-2--inject-2">
      <rect class="st15" x="190.55" y="200.29" width="32.49" height="70.03"/>
      <rect class="st2" x="190.55" y="200.29" width="32.49" height="70.03"/>
      <rect class="st3" x="213.41" y="200.29" width="9.63" height="70.03"/>
      <rect class="st15" x="233.79" y="147.2" width="32.48" height="123.11"/>
      <rect class="st2" x="233.79" y="147.2" width="32.48" height="123.11"/>
      <rect class="st3" x="256.65" y="147.2" width="9.63" height="123.11"/>
      <rect class="st15" x="277.03" y="187.21" width="32.49" height="83.1"/>
      <rect class="st2" x="277.03" y="187.21" width="32.49" height="83.1"/>
      <rect class="st3" x="299.89" y="187.21" width="9.63" height="83.1"/>
      <rect class="st15" x="320.27" y="119.32" width="32.49" height="150.99"/>
      <rect class="st2" x="320.27" y="119.32" width="32.49" height="150.99"/>
      <rect class="st3" x="343.13" y="119.32" width="9.63" height="150.99"/>
      <rect class="st15" x="363.51" y="143.61" width="32.48" height="126.7"/>
      <rect class="st2" x="363.51" y="143.61" width="32.48" height="126.7"/>
      <rect class="st3" x="386.37" y="143.61" width="9.63" height="126.7"/>
      <rect class="st15" x="406.75" y="97.8" width="32.49" height="172.51"/>
      <rect class="st2" x="406.75" y="97.8" width="32.49" height="172.51"/>
      <rect class="st3" x="429.61" y="97.8" width="9.63" height="172.51"/>
    </g>
    <g id="freepik--Arrow--inject-2">
      <polygon class="st15" points="237.06 126.92 253.86 126.92 289.27 182.8 272.46 182.8 237.06 126.92"/>
      <polygon class="st0" points="237.06 126.92 253.86 126.92 289.27 182.8 272.46 182.8 237.06 126.92"/>
      <polygon class="st15" points="327.82 95.42 344.63 95.42 380.03 151.3 363.23 151.3 327.82 95.42"/>
      <polygon class="st0" points="327.82 95.42 344.63 95.42 380.03 151.3 363.23 151.3 327.82 95.42"/>
      <polygon class="st15" points="253.85 126.92 237.03 126.92 190.55 200.29 207.36 200.29 253.85 126.92"/>
      <polygon class="st15" points="344.66 95.42 327.85 95.42 272.49 182.8 289.29 182.8 344.66 95.42"/>
      <polygon class="st15" points="435.31 63.91 418.5 63.91 363.14 151.3 379.95 151.3 435.31 63.91"/>
      <polygon class="st15" points="414.6 63.91 439.29 63.91 432.95 52.24 414.6 63.91"/>
    </g>
    <g id="freepik--Table--inject-2">
      <polygon class="st10" points="439.29 270.32 408.19 270.46 377.09 270.51 314.89 270.61 252.69 270.51 221.59 270.46 190.5 270.32 221.59 270.17 252.69 270.11 314.89 270.02 377.09 270.12 408.19 270.17 439.29 270.32"/>
    </g>
    <g id="freepik--chart-1--inject-2">
      <rect class="st10" x="199.51" y="42.32" width=".59" height="27.46"/>
      <path class="st10" d="M199.81,42.62c-1.23,0-2.23-.98-2.23-2.21s.98-2.23,2.21-2.23,2.23.98,2.23,2.21h0c0,1.23-.99,2.22-2.21,2.23ZM199.81,38.77c-.9,0-1.63.72-1.64,1.62,0,.9.72,1.63,1.62,1.64.9,0,1.63-.72,1.64-1.62h0c0-.9-.72-1.63-1.62-1.64Z"/>
      <rect class="st10" x="205.64" y="38.47" width="21.33" height=".96"/>
      <rect class="st10" x="205.64" y="40.39" width="12.08" height=".96"/>
      <rect class="st15" x="277.21" y="45.88" width="4.59" height="4.59"/>
      <rect class="st10" x="284.73" y="45.88" width="21.33" height=".96"/>
      <rect class="st10" x="284.73" y="47.8" width="12.08" height=".96"/>
      <rect class="st9" x="277.21" y="55.24" width="4.59" height="4.59"/>
      <rect class="st10" x="284.73" y="55.24" width="21.33" height=".96"/>
      <rect class="st10" x="284.73" y="57.16" width="12.08" height=".96"/>
      <rect class="st11" x="277.21" y="64.61" width="4.59" height="4.59"/>
      <rect class="st10" x="284.73" y="64.61" width="21.33" height=".96"/>
      <rect class="st10" x="284.73" y="66.53" width="12.08" height=".96"/>
      <rect class="st14" x="277.21" y="73.97" width="4.59" height="4.59"/>
      <rect class="st10" x="284.73" y="73.97" width="21.33" height=".96"/>
      <rect class="st10" x="284.73" y="75.9" width="12.08" height=".96"/>
      <path class="st11" d="M192.21,86.23h.17l1.66-.59h.1l.94-.33.11-.04,1.5-.52.12-.05.92-.32.14-.04h0l1.73-.59.14-.05,1.04-.36.16-.05,1.3-.45.17-.06,1.13-.4.18-.06,1.57-.55.16-.06,1.19-.42.15-.05,1.15-.4.14-.05,1.31-.46.12-.05,1.13-.39.11-.04,1.59-.56.12-.04,1.68-.59.09-.04,1.28-.45h.08l1.66-.59h.07l1.4-.49h.07l1.47-.51-1.4-.45h-.06l-1.62-.52h-.07l-1.38-.45h-.08l-1.78-.59h-.1l-1.19-.38-.11-.04-2.6-.84-.13-.04-.62-.44-.14-.04-2.54-.82-.15-.05h0l-.56-.18-.17-.05-2.6-.83h0l-.2-.06-.59-.19-.19-.06-2.74-.89-.2-.06-.31-.1-.19-.07-3.02-.97-.18-.06h0l-.27-.09-.16-.05-3.01-.97c0,.08-.05.17-.08.26h0c0,.07-.05.14-.07.21h0v.06h0c-.03.08-.05.17-.08.26-.6,2.13-.96,4.32-1.1,6.53h0v.27h0c-.06,1.01-.06,2.02,0,3.04,0,.2,0,.39.04.59h0c.21,2.62.74,5.19,1.57,7.68l.03.04h0Z"/>
      <path class="st7" d="M218.89,76l-.07.96h-.07l.08-1,.06.04h0ZM217.14,75.44l.14,2.06h.07l-.14-2.01s-.07-.05-.07-.05ZM215.54,78.11h.08l.14-3.08h-.08l-.15,3.08h0ZM213.82,74.37l.34,4.22.09-.04-.33-4.16-.1-.02h0ZM212.37,79.21l.12-.04.15-5.18-.11-.04-.16,5.25h0ZM209.93,73.12l-.13-.04.44,3.42.42,3.3.11-.04-.44-3.29-.4-3.36h0ZM209.4,80.25l.12-.05-.38-7.35-.14-.04.39,7.44h.01ZM206.48,72.02l-.15-.05,1.63,8.78.14-.05-1.62-8.69h0ZM205.58,71.73l1.06,9.47.15-.05-1.05-9.37-.17-.05h.01ZM202.98,70.89l-.2-.06,2.51,10.85.16-.06-2.47-10.69v-.04ZM202.02,70.58l1.53,11.7.18-.06-1.53-11.58-.19-.06h.01ZM199.05,69.63l3.17,13.11.17-.06-3.11-12.99s-.23-.06-.23-.06ZM198.54,69.47l2.22,13.78.16-.05-2.19-13.66-.19-.06h0ZM195.35,68.44l4.23,15.21.14-.05-4.16-15.11-.21-.06h0ZM194.91,68.3l2.8,16,.14-.04h0l-2.74-15.91-.19-.05h0ZM191.77,67.81l4.9,16.86.12-.05-4.92-17.03c0,.07-.05.14-.07.21h-.03,0ZM191.68,68.13l3.38,17.1.11-.04-3.39-17.32c-.03.08-.05.17-.08.26h-.03,0ZM190.59,74.93l3.45,10.66h.1l-3.56-10.9v.27-.03h0ZM190.64,78.55h0l1.66,7.64h.08l-1.78-8.2c0,.18.02.37.04.56Z"/>
      <polygon class="st12" points="192.21 86.23 194.59 85.98 222.66 76.2 220.29 76.45 192.21 86.23"/>
      <polygon class="st12" points="220.29 76.45 222.66 76.2 194.32 67.08 191.94 67.34 220.29 76.45"/>
      <path class="st9" d="M235.99,45.89l.2,30.58-28.71-9.27c4.05-12.87,15.2-21.23,28.51-21.32h0Z"/>
      <path class="st10" d="M235.2,45.9l.78,1.33v.18l-.89-1.5h.11ZM234.09,45.96l1.92,4.27v-.24l-1.78-4.04h-.14ZM230.76,46.36l5.28,8.67v-.24l-5.16-8.45s-.12.02-.12.02ZM230.05,46.5l6.02,12.87v-.3l-5.91-12.59s-.08,0-.12.02h0ZM232.07,57.03l4.03,5.94v-.22l-3.9-5.77-4.72-7-1.58-2.33s-.1.03-.14.05l1.6,2.38,4.71,6.96h0ZM225.4,47.83l10.69,18.76v-.33l-10.55-18.49s-.14.06-.14.06ZM221.79,49.48l14.33,18.8v-.29l-14.17-18.6-.16.09ZM221.46,49.66l14.69,22.49v-.36l-14.53-22.22s-.1.08-.16.11v-.02ZM218.35,51.68l17.82,21.39v-.31l-17.64-21.2-.18.12h0ZM217.99,51.95l16.28,23.9.35.11-16.46-24.14c-.06.04-.12.08-.17.13ZM215.3,54.27l18.1,21.3.41.13-18.36-21.58c-.05.05-.1.1-.15.15h0ZM215.01,54.57l14.26,19.67.31.1-14.42-19.9s-.15.13-.15.13ZM212.68,57.21l15.04,16.52.37.12-15.29-16.79-.11.14h0ZM212.31,57.7l10.87,14.56.27.09-11.03-14.8s-.08.1-.11.15ZM210.45,60.49l10.23,10.97.3.1-10.46-11.19s-.05.07-.08.11h.01ZM210.17,60.97l7.41,9.51.23.07-7.57-9.71s-.05.09-.07.13h0ZM208.61,64.13l5.01,5.07.27.1-5.22-5.27s-.05.07-.07.11h.01ZM208.34,64.78l2.97,3.67.19.07-3.12-3.85s-.03.08-.04.12h0Z"/>
      <path class="st15" d="M236.18,76.47l28.71,9.26c-3.85,12.56-15.38,21.18-28.52,21.33-3.16.02-6.31-.47-9.32-1.44-9.51-3.07-16.32-9.89-19.46-19.51l28.59-9.64Z"/>
      <path class="st15" d="M264.89,85.73h2.38c-3.85,12.55-15.38,21.18-28.52,21.32h-2.38c13.13-.15,24.66-8.77,28.52-21.32Z"/>
      <g class="st1">
        <path d="M264.89,85.73h2.38c-3.85,12.55-15.38,21.18-28.52,21.32h-2.38c13.13-.15,24.66-8.77,28.52-21.32Z"/>
      </g>
      <path class="st0" d="M263.6,85.33l.33,3.07v.04l-.33-3.11h0ZM260.3,84.27l2.41,6.7h0l-2.38-6.66-.04-.04h.01ZM259.12,83.89l1.46,10.5v-.04l-1.46-10.44h0v-.02ZM257.04,83.22l3.07,11.82v-.04l-3.05-11.75-.02-.02h0ZM256.23,82.97l1.63,14.73.05-.05-1.59-14.69h-.09ZM253.79,82.17l3.56,16.04.05-.05-3.56-15.95-.05-.04ZM253.19,81.98l1.44,18.65.08-.05-1.44-18.57-.08-.02h0ZM250.95,81.26l-.1-.04,3.35,19.74.08-.06-3.33-19.65h0ZM250.07,80.97l.26,22.5.1-.06-.26-22.41-.1-.03ZM247.51,80.15l-.13-.05,2.61,23.54.11-.05s-2.59-23.44-2.59-23.44ZM246.59,105.17l.14-.05.2-25.15-.12-.05s-.22,25.25-.22,25.25ZM244.39,79.15l-.15-.05,2.09,26.17.13-.05s-2.07-26.07-2.07-26.07ZM243.01,106.26c.06,0,.11-.02.17-.04l.83-27.24-.15-.05-.84,27.33h-.01ZM240.96,78l-.18-.06,1.93,28.39.17-.04-1.91-28.3h0ZM238.06,77.07l-.21-.07,1.01,29.94h.39l1.27-29.04-.18-.06-1.28,29.07-.99-29.84h0ZM234.5,77.07l-.2.06.71,29.92h.39l2.2-30.14-.21-.07-2.17,30.01-.71-29.78h0ZM231.21,106.64l.17.03,2.73-29.48-.2.07-2.71,29.38h.01ZM231.6,78.04l-.56,28.57h.17l.55-28.65-.16.08ZM227.05,105.61h.14l4.22-27.55-.17.06s-4.19,27.49-4.19,27.49ZM226.97,104.34l-.1,1.24.14.05.1-1.28.31-4.02.59-8.04,1.02-13.38-.13.05-1.03,13.33-.59,8.03s-.31,4.02-.31,4.02ZM222.59,103.82l.11.05,5.89-24.8-.14.05-5.85,24.7h0ZM225.14,80.23l-2.92,23.38.11.05,2.89-23.5-.08.07ZM219.19,101.85l.08.05,5.48-21.55-.11.04-5.44,21.46h0ZM217.45,82.84l-1.98,16.04s.04.03.06.05l1.97-16.12-.05.03ZM212.7,95.81l.04.05,4.16-12.82h-.06l-4.13,12.77h0ZM221.44,81.5l-2.79,19.95s.05.04.08.05l2.74-20.09-.04.08h0ZM215.89,99.26l.05.04,2.97-10.35,1.85-6.53.21-.75h-.08l-.23.7-1.85,6.53-2.92,10.37h0ZM214.85,83.67l-2.48,11.68v.05l2.49-11.74h-.01ZM210.79,93.05v.04l3.52-9.22h-.04l-3.48,9.18h0ZM212.4,84.52l-1.99,7.92v.04l2-7.96h0ZM208.88,89.44h0l2.54-4.61h0l-2.54,4.61ZM209.53,85.49l-1.08,2.97h0l1.09-2.97h0ZM207.65,86.29h0c.05-.08.1-.15.16-.23h0l-.16.23Z"/>
      <path class="st14" d="M235.99,45.89c16.63-.11,30.2,13.5,30.3,30.39.05,3.21-.43,6.4-1.41,9.46l-28.71-9.26-.18-30.58h0Z"/>
      <path class="st9" d="M262.56,61.7l.1.2-26.51,8.46v-.23l26.41-8.42h0ZM262.73,62.04l-26.57,11.41v.21l26.66-11.44c-.03-.06-.06-.12-.1-.18,0,0,.01,0,.01,0ZM236.13,66.79v.21l24.36-8.55c-.04-.06-.08-.12-.13-.18l-24.23,8.52h0ZM260.61,58.6l-24.48,10.78v.24l24.59-10.85c-.03-.07-.08-.13-.11-.18h0ZM236.07,59.45v.14l18.56-7.27-.12-.1-18.44,7.23ZM255.04,52.66l-18.95,9.39v.18l19.08-9.51s-.08-.04-.12-.06h-.01ZM236.1,62.87v.17l21.64-7.91s-.09-.09-.14-.14l-21.5,7.88h0ZM258.08,55.48l-21.96,10.54v.21l22.06-10.65s-.08-.09-.13-.13l.02.02h.01ZM236.02,52.06v.08l9.55-4.72h-.11l-9.44,4.63h0ZM246.72,47.83l-10.65,6.53v.07l10.76-6.59h-.11ZM236.05,55.75v.11l14.77-6.12s-.09-.05-.13-.07l-14.64,6.08ZM251.53,50.16l-15.45,8.28v.16l15.58-8.35-.13-.08h0ZM236.01,48.5v.06l4.44-2.38h-.09l-4.35,2.32ZM242.27,46.51l-6.25,4.28v.08l6.34-4.35h-.1.01ZM235.99,46.95v.05l1.49-1.09h-.08l-1.41,1.04ZM266.18,79.19l-12.15,3.05.15.05,12-3.01v-.1h0ZM249.72,80.84l.23.07,16.27-2.17v-.1l-16.49,2.2h0ZM265.59,83.14l-4.8,1.27.11.04,4.68-1.24s.01-.05.01-.07ZM258.33,83.62l.17.05,7.13-.75v-.07l-7.3.77h0ZM266.27,75.05l-18.95,5.02.2.06,18.75-4.96s0-.12,0-.12ZM241.85,78.3l.29.1,24.11-3.62v-.12l-24.4,3.65h0ZM252.9,73.99l-12.34,3.89.23.08,12.16-3.83,8.03-2.53,4.02-1.26.67-.21v-.15l-.68.21-4.02,1.27-8.07,2.53h0ZM236.48,76.57l.3.1,28.81-6.75s-.02-.1-.03-.14l-29.08,6.8h0ZM264.4,65.78l-28.19,10.69.25.08,28.01-10.6c-.02-.06-.04-.12-.07-.17ZM236.16,73.91v.2l28.24-8.38c-.02-.06-.04-.12-.07-.17l-28.17,8.35h0Z"/>
      <path class="st9" d="M235.99,45.89h2.38c16.63-.11,30.21,13.49,30.3,30.38.05,3.21-.43,6.41-1.41,9.46h-2.38c.98-3.06,1.46-6.25,1.41-9.46-.1-16.89-13.66-30.49-30.29-30.39h0Z"/>
    </g>
  </g>
  <g id="freepik--Floor--inject-3">
    <polygon class="st10" points="44.66 420.76 95.99 420.51 147.33 420.43 250 420.26 352.67 420.43 404.01 420.51 455.34 420.76 404.01 421 352.67 421.09 250 421.26 147.33 421.09 95.99 421 44.66 420.76"/>
  </g>
  <g id="freepik--Shadow--inject-3">
    <ellipse class="st6" cx="250" cy="455.47" rx="173.02" ry="16.97"/>
  </g>
  <g id="freepik--Character--inject-3">
    <polygon class="st11" points="213.46 321.1 216.38 338.58 236.12 445.21 239.3 445.21 224.94 338.58 222.82 321.1 213.46 321.1"/>
    <polygon class="st12" points="222.82 321.1 213.46 321.1 216.38 338.58 224.94 338.58 222.82 321.1"/>
    <polygon class="st11" points="151.45 445.21 154.64 445.21 174.38 338.58 177.3 321.1 167.93 321.1 165.81 338.58 151.45 445.21"/>
    <polygon class="st12" points="167.93 321.1 165.81 338.58 174.38 338.58 177.3 321.1 167.93 321.1"/>
    <polygon class="st11" points="92.23 445.21 95.41 445.21 115.16 338.58 118.07 321.1 108.71 321.1 106.59 338.58 92.23 445.21"/>
    <polygon class="st12" points="106.59 338.58 115.16 338.58 118.07 321.1 108.71 321.1 106.59 338.58"/>
    <polygon class="st11" points="97.28 329.31 241.96 329.31 241.96 314.07 187.8 314.07 159.6 156.05 82.79 156.05 97.28 329.31"/>
    <polygon class="st7" points="97.89 314.07 241.96 314.07 241.96 329.31 97.35 329.31 97.89 314.07"/>
    <polygon class="st7" points="97.28 329.31 105.16 329.31 90.3 156.05 82.79 156.05 97.28 329.31"/>
    <path class="st8" d="M236.36,465.53c-2.81.27-79.42-18-81.84-20.46-.29-.28,1.21-7.24,3.42-16.74l.05-.18c1.38-6,23.69-54.71,23.69-54.71l49.66,13.84-22.56,45.18s9.35,6.74,17.36,13.15h0c5,3.94,9.21,7.47,10.12,8.62,2.36,3.01,2.91,11.05.1,11.3h0Z"/>
    <path class="st6" d="M236.36,465.52c-2.81.28-79.42-18-81.84-20.45-.3-.28,1.21-7.24,3.42-16.74l.05-.18c.51-2.24,3.94-10.43,8-19.8,8.18,2.2,37.47,10.11,48.11,13.4l-5.34,10.71s9.34,6.75,17.35,13.15h0c4.94,3.94,9.22,7.47,10.12,8.61,2.39,3.02,2.94,11.07.13,11.3h0Z"/>
    <path class="st15" d="M236.61,465.89c-2.89.25-79.56-18.2-82-20.75-.94-1,.75-13.06,5-25.88l49.41,12s25.24,20,27.66,23.06,2.82,11.32-.07,11.57Z"/>
    <path class="st10" d="M236.25,462.56c-12.78-3.41-64.62-15.95-77.51-18.35-.11,0-.12.05,0,.08,12.59,3.65,64.54,15.78,77.48,18.48.25.06.3-.14.03-.21Z"/>
    <path class="st10" d="M232.32,450.34c-2.87-.77-5.93-.31-8.44,1.28-2.25,1.4-3.87,3.61-4.53,6.17,0,.08.13.12.16,0,2.15-5.01,7.36-8,12.77-7.33.04-.01.06-.06.05-.1v-.02h-.01Z"/>
    <path class="st10" d="M212.65,433.48c-5.12-1.31-11.52-.93-15.73,2.5-.17.14,0,.37.2.32,5.06-1.27,10.25-2,15.47-2.17.18-.01.32-.17.31-.35,0-.14-.11-.27-.25-.3Z"/>
    <path class="st10" d="M216.25,436c-5.12-1.31-11.53-.93-15.73,2.51-.17.13,0,.36.2.32,5.06-1.28,10.25-2.01,15.47-2.18.18-.01.32-.17.31-.35,0-.14-.11-.27-.25-.3h0Z"/>
    <path class="st10" d="M219.85,438.48c-5.13-1.31-11.53-.93-15.74,2.51-.16.13,0,.36.2.32,5.07-1.28,10.26-2,15.48-2.17.19-.03.32-.2.29-.38-.02-.13-.11-.24-.23-.28h0Z"/>
    <path class="st10" d="M223.45,441c-5.13-1.31-11.53-.93-15.74,2.5-.16.14,0,.37.2.33,5.06-1.27,10.25-2.01,15.47-2.18.18,0,.33-.16.32-.34,0-.15-.11-.27-.25-.31Z"/>
    <path class="st10" d="M165,432.79c-5.77-1.37-7.92,7.6-2.13,9s7.87-7.63,2.13-9Z"/>
    <path class="st10" d="M221.52,421.09c-2.09-2.79-5.88-1.47-8,.39-3.62,3.24-6.32,7.38-7.84,12-.02.07.02.15.09.17h.03c0,.4.39.81.83.64,4.27-1.65,9-2.89,12.68-5.8,2.11-1.67,4.18-4.78,2.21-7.41h0ZM212.52,430.5c-2.08.86-4.19,1.62-6.24,2.56,1.46-2.38,3.05-4.69,4.74-6.92.83-1.06,1.74-2.06,2.71-3,1.53-1.43,7.61-4.51,6.78,1.21-.42,3.13-5.46,5.12-7.94,6.15h-.05Z"/>
    <path class="st10" d="M192.42,432.34c4.31,1.76,9.24,1.6,13.8,2,.36,0,.65-.29.65-.65,0-.07,0-.14-.03-.2.07,0,.13-.12.06-.21-2.75-4.02-6.51-7.24-10.9-9.34-2.58-1.18-6.59-1.37-7.8,1.89-1.2,3.08,1.7,5.48,4.22,6.51h0ZM190.02,428.66c-2.42-5.25,4.29-4,6.16-3.07,1.2.63,2.35,1.34,3.45,2.13,2.26,1.65,4.43,3.42,6.5,5.3-2.23-.32-4.47-.45-6.71-.69-2.67-.33-8.07-.77-9.42-3.67h.02Z"/>
    <path class="st10" d="M213.17,426.57l-52.72-14.12s46.33-96.09,42.55-101.38c-1.87-2.64-51.29-4.87-66.61-18.68-19.91-17.93-5.42-44-5.42-44h55.26s-1,11.53,1.09,13.33c1.39,1.2,67,8.7,73.57,31.11,8.11,27.49-47.72,133.74-47.72,133.74h0Z"/>
    <path class="st14" d="M214.1,418.84c-1.4-.65-2.85-1.2-4.33-1.64-1.53-.53-3.06-1.06-4.6-1.57-3-1-6.07-1.94-9.14-2.82-6.16-1.78-12.34-3.52-18.55-5.14-3.24-.84-10.18-2.67-10.61-2.61-.21,0-.26.38-.07.45,6,2.18,12.09,4.05,18.19,5.95s12.17,3.75,18.34,5.35c1.71.44,3.43.83,5.15,1.25,1.79.53,3.61.93,5.46,1.2.18,0,.35-.32.16-.42h0Z"/>
    <path class="st14" d="M212.62,306.77c-1.08-1-2.75-1.14-4.13-1.42l-23.79-4.72c-7.42-1.47-14.88-2.81-22.26-4.46-6.12-1.37-12.32-3.16-17.54-6.65-5.1-3.44-8.8-8.59-10.43-14.52-1.68-5.91-1.63-12.21-.86-18.26.18-1.48.5-2.95.82-4.41,0-.05-.04-.09-.09-.09s-.09.04-.09.09c-2.35,11.26-2.93,24.4,5.29,33.67,4,4.53,9.6,7.28,15.35,9.13,6.48,2.08,13.28,3.18,20,4.5l23.79,4.7c3.82.75,7.7,1.37,11.48,2.28.75.13,1.45.48,2,1,.54.83.63,1.87.25,2.78-.44,1.86-1,3.71-1.59,5.53-4.82,14.65-38.41,84.44-39.32,86.08-.04.07,0,.17.06.21.07.04.17,0,.21-.07h0c7.7-12.82,32.76-66.7,38-80.62,1.38-3.54,2.54-7.16,3.46-10.85.32-1.36.53-2.86-.61-3.9h0Z"/>
    <path class="st8" d="M371.31,467.45c-2.63,1.05-81.28,5.07-84.29,3.36-.37-.18-.88-7.29-1.42-17l-.4-9.18c-.13-3.1-40.62-48.23-40.62-48.23l56.42-3.4,34.53,50.49s10.86,3.85,20.35,7.75h0c5.86,2.38,10.95,4.58,12.14,5.42,3.13,2.2,5.91,9.77,3.29,10.79h0Z"/>
    <path class="st6" d="M274.89,431.06c5.87,7,10.26,12.53,10.31,13.55l.4,9.18c.54,9.73,1.06,16.84,1.42,17,3,1.71,81.66-2.31,84.29-3.35s-.16-8.6-3.26-10.81c-1.18-.84-6.27-3-12.12-5.43h0c-9.49-3.89-20.35-7.74-20.35-7.74l-10-14.58-50.69,2.18Z"/>
    <path class="st15" d="M371.65,467.73c-2.71,1.06-81.47,4.88-84.56,3.13-1.18-.66-2.95-12.74-2.53-26.22l50.78-2.41s29.83,12.08,33,14.37,6.02,10.08,3.31,11.13Z"/>
    <path class="st10" d="M370.37,464.64c-13.22.31-66.51,2.84-79.55,4.16-.11,0-.1.08,0,.08,13.11,0,66.38-3,79.56-4,.28-.05.27-.25-.01-.24Z"/>
    <path class="st10" d="M363.16,454c-2.97.06-5.78,1.37-7.74,3.61-1.76,1.97-2.7,4.55-2.61,7.19,0,.08.15.07.16,0,.66-5.42,4.81-9.75,10.2-10.63.05,0,.08-.04.08-.09s-.04-.08-.09-.08h0Z"/>
    <path class="st10" d="M339.55,443.35c-5.29.19-11.33,2.35-14.4,6.83-.12.17.13.34.28.25,4.5-2.64,9.28-4.8,14.24-6.43.18-.03.3-.21.26-.39s-.21-.3-.39-.26h.01Z"/>
    <path class="st10" d="M343.71,444.74c-5.29.19-11.33,2.35-14.4,6.83-.12.18.13.34.28.25,4.5-2.64,9.28-4.8,14.24-6.43.17-.08.25-.28.17-.45-.05-.12-.16-.19-.29-.2h0Z"/>
    <path class="st10" d="M347.86,446.14c-5.29.18-11.32,2.34-14.4,6.82-.12.18.13.34.29.26,4.51-2.65,9.28-4.81,14.25-6.44.17-.06.26-.25.2-.42-.05-.14-.19-.23-.34-.22h0Z"/>
    <path class="st10" d="M352,447.53c-5.29.18-11.33,2.34-14.4,6.83-.12.17.13.34.28.25,4.5-2.65,9.28-4.81,14.24-6.44.17-.06.26-.25.2-.42-.05-.13-.18-.22-.32-.22h0Z"/>
    <path class="st10" d="M293.57,456.1c-5.92.3-5.46,9.52.48,9.21s5.46-9.52-.48-9.21Z"/>
    <path class="st10" d="M344.57,429c-2.78-2.08-6,.25-7.58,2.63-2.56,4.14-3.99,8.88-4.15,13.75,0,.11.09.15.18.14.08.35.42.56.76.49.09-.02.17-.06.24-.11,3.63-2.79,7.87-5.31,10.54-9.13,1.53-2.26,2.65-5.77,0-7.77h0ZM338.64,440.55c-1.76,1.41-3.57,2.73-5.27,4.21.73-2.71,1.59-5.38,2.59-8,.51-1.25,1.09-2.47,1.76-3.65,1.06-1.81,6-6.47,6.84-.75.44,3.15-3.83,6.47-5.92,8.16v.03Z"/>
    <path class="st10" d="M319.81,447.94c4.64.49,9.32-1.05,13.8-2,.34-.09.55-.44.45-.78-.02-.08-.06-.15-.1-.22.07-.06.1-.15,0-.22-3.78-3.08-8.29-5.1-13.1-5.88-2.81-.4-6.71.54-7,4-.18,3.33,3.24,4.82,5.95,5.1ZM316.47,445.09c-3.79-4.36,3-5,5-4.68,1.33.27,2.64.63,3.92,1.07,2.63.96,5.2,2.05,7.72,3.27-2.23.32-4.41.82-6.63,1.22-2.6.48-7.91,1.52-10.01-.88Z"/>
    <path class="st10" d="M338,432.9l-63.06,7.71s-62.43-74.61-67.46-79.61c-15.63-15.4-71.63-42-88.34-66.7-15-22.21.2-45.94.2-45.94h61.57c-1.58,6.56-3.67,12.98-6.27,19.21,0,0,51.14,38.51,78.41,66,17.57,17.79,84.95,99.33,84.95,99.33h0Z"/>
    <path class="st14" d="M185.58,263.69c-1.8.35-3.56.85-5.26,1.52-1.79.62-3.55,1.34-5.27,2.11-3.39,1.56-6.7,3.3-9.9,5.22-.1.06,0,.2.09.15,3.38-1.63,6.86-3.08,10.35-4.46l5-2c1.73-.6,3.43-1.3,5.09-2.07.25-.11.15-.5-.1-.47h0Z"/>
    <path class="st14" d="M182.34,248.4c-.78,2.79-1.49,5.6-2.37,8.36-.41,1.26-.81,2.55-1.33,3.78-.44,1-1.09,2.21-2.31,2.4-1.4.23-1.76-1-1.61-2.12.21-1.29.48-2.56.82-3.82.33-1.45,2-8.49,2-8.53s0-.13-.06-.21c-.04-.03-.09-.03-.13,0-.92,2.25-1.7,4.55-2.35,6.89l-1.13,4c-.38.99-.5,2.06-.36,3.11.23,1.03,1.1,1.78,2.15,1.86,0,.09-.11.17-.16.27-.13.27-.23.56-.34.84s-.22.58-.31.87c-.05.14-.08.29-.1.44v.48c-.02.13.06.26.19.28.1.02.2-.03.25-.11.08-.13.17-.26.27-.39.09-.14.16-.3.21-.46.11-.28.2-.56.28-.84s.17-.57.23-.85c.03-.17.06-.35.07-.52.59-.04,1.16-.23,1.64-.57.81-.65,1.42-1.52,1.75-2.51.46-1.16.83-2.36,1.19-3.55.95-2.93,1.64-5.95,2.06-9,.03-.15-.07-.3-.23-.32-.15-.03-.3.07-.32.23h0Z"/>
    <path class="st14" d="M145.55,254.19c-.29,1.38-.5,2.79-.86,4.16s-.76,2.68-1.24,4c-.44,1.27-1.05,2.47-1.82,3.57-.8,1.03-1.75,1.94-2.81,2.7-2.03,1.51-4.3,2.69-6.71,3.47-1.21.41-2.44.75-3.69,1-.66.13-1.33.22-2,.28-.55,0-1.09.11-1.59.32-.15.09-.2.29-.11.44.03.05.07.08.11.11.94.31,1.95.37,2.92.18,1.05-.07,2.1-.23,3.13-.46,2.1-.47,4.12-1.25,6-2.3,1.89-1,3.6-2.32,5.05-3.89,1.36-1.65,2.32-3.6,2.8-5.69.73-2.54,1.09-5.17,1.09-7.81.02-.07-.02-.15-.09-.18s-.15.02-.18.09h0Z"/>
    <path class="st14" d="M324.09,423.62c-1.7-.04-3.41.02-5.1.2-1.78.12-3.57.23-5.35.38-3.51.28-7.01.61-10.5,1-7,.8-14.07,1.64-21.09,2.6-3.66.51-11.51,1.56-11.92,1.79-.11.07-.14.22-.07.33.04.06.11.1.18.11,7-.36,14-1,21.05-1.71s14-1.35,21-2.32c1.93-.27,3.85-.59,5.77-.88,2.05-.21,4.08-.57,6.08-1.05.15-.07.19-.44-.05-.45h0Z"/>
    <path class="st14" d="M188.32,346.68c3.27,2.1,6.43,4.36,9.6,6.6,3.03,1.97,5.94,4.12,8.71,6.44,1.36,1.29,2.64,2.65,3.84,4.09l3.76,4.35c2.51,2.89,5,5.8,7.47,8.74,1.4,1.65,2.79,3.32,4.18,5,1.44,1.73,2.77,3.55,4.22,5.28.09.11-.06.26-.15.15-2.57-2.89-5.28-5.66-7.84-8.56s-5.11-5.77-7.66-8.77-4.79-5.77-7.38-8.46c-2.66-2.51-5.55-4.77-8.62-6.76-3.51-2.5-7-5-10.43-7.61-.29-.17-.02-.7.3-.49h0Z"/>
    <path class="st14" d="M175.63,268.06c10.51,7.38,21.4,15.63,31.28,23.82s19.68,16.56,29.25,25.15c2.67,2.4,5.33,4.83,8,7.3,2.66,2.49,5.26,5.59,7.92,8.07.15.13-.07.34-.22.21-4.8-4.31-9.78-9-14.65-13.24s-9.7-8.4-14.57-12.57c-9.79-8.38-19.7-16.62-29.73-24.71-5.56-4.51-12.05-9.07-17.5-13.72-.21-.15.03-.45.22-.31h0Z"/>
    <path class="st14" d="M121.21,255.67c.59-1.77,1.23-3.53,1.89-5.29,0-.1.2,0,.17.05-2.48,7.33-5,14.82-5.29,22.62-.17,3.73.37,7.47,1.6,11,1.28,3.38,3.19,6.48,5.62,9.15,4.9,5.53,11.14,9.89,17,14.3,6.39,4.79,12.91,9.43,19.5,14s13.33,8.83,20.15,13,13.72,7.93,20.51,12c3.29,1.94,6.36,4.23,9.17,6.81,2.79,2.7,5.44,5.55,7.94,8.53,5.48,6.26,10.91,12.57,16.29,18.92,10.78,12.67,21.36,25.52,31.73,38.57,1.26,1.6,2.53,3.19,3.8,4.79.06.08-.05.19-.12.11-10.67-13.06-21.45-26.03-32.34-38.9-5.42-6.39-10.87-12.75-16.34-19.1-5.24-6.06-10.29-12.49-17-17.05-3.23-2.2-6.67-4.07-10.07-6s-7.06-4.08-10.56-6.18c-6.94-4.18-13.78-8.51-20.52-13-6.69-4.47-13.29-9.07-19.76-13.86-3.24-2.39-6.45-4.82-9.62-7.29-2.76-2.09-5.41-4.32-7.92-6.7-2.49-2.35-4.62-5.04-6.34-8-1.71-3.14-2.77-6.59-3.1-10.15-.8-7.58,1.2-15.2,3.61-22.33h0Z"/>
    <path class="st4" d="M155.24,176.86c10.12,9.28,49.44,36.23,60.59,32.63,8.29-2.67,9.51-12.37,4.82-19.94-4.09-6.58-43.86-17.66-55-20.65-10.65-2.85-20.35-1.16-10.41,7.96h0Z"/>
    <path class="st15" d="M180.51,198.38l23.15-19.76s-29.47-10.15-42.47-12.09c-13.56-2-17.52,2.52-3.25,13.74,14.06,11.05,22.57,18.11,22.57,18.11h0Z"/>
    <path class="st13" d="M173.7,175.48c-.2.17-.44.29-.7.35-.48.11-.98-.04-1.32-.4-.54-.51-1.32-.65-2-.35-.31.14-.57.37-.75.66-.17.26-.36.49-.51.77.27-.16.51-.34.76-.51.2-.18.44-.31.7-.38.47-.12.97,0,1.32.35.52.52,1.31.69,2,.42.32-.14.59-.36.78-.65.17-.26.36-.49.51-.77-.29.16-.49.34-.79.51h0ZM188.41,173.64h0c-.52.17-.94.55-1.16,1.05-.13.32-.16.66-.09,1,.06.3.1.6.18.9.08-.3.12-.6.18-.9.03-.27.11-.52.25-.75.27-.41.73-.65,1.22-.64.3,0,.59-.08.84-.23l-1.42-.43h0ZM175.73,192.64c-.07-.3-.1-.61-.19-.91-.08.3-.12.61-.18.91-.02.27-.1.53-.23.76-.09.14-.2.27-.33.37l.53.42c.15-.16.26-.35.33-.55.12-.34.14-.7.07-1.05v.05h0ZM152.57,166.36v.11-.12h0ZM192.04,187.36c-.02-.75-.49-1.42-1.19-1.69-.32-.11-.67-.13-1-.06-.3.06-.6.09-.9.18.3.08.6.12.9.18.27.02.53.1.76.23.42.25.68.69.69,1.18,0,.52.21,1.02.59,1.37l.5-.43c-.27-.28-.41-.65-.39-1.04l.04.08h0Z"/>
    <path class="st10" d="M178.67,193.06c.49-.53,1.07-1,1.61-1.48l1.67-1.5c1.13-1,2.27-2,3.42-3,2.3-2,4.59-4,6.92-5.89.64-.53,1.28-1.06,1.94-1.57s1.41-1,2.1-1.58c0,0,.08,0,0,.07-.56.5-1.07,1.06-1.62,1.57l-1.71,1.54c-1.14,1-2.29,2-3.45,3-2.27,1.93-4.54,3.87-6.86,5.74l-1.94,1.57c-.68.55-1.34,1.14-2.07,1.63,0-.02-.05-.07,0-.1h0Z"/>
    <path class="st10" d="M157.94,180.27c14.05,11,22.57,18.1,22.57,18.1l7.4-6.31-38.38-24.29c-1.79,2.14.53,6.3,8.41,12.5h0Z"/>
    <path class="st4" d="M221.15,205.74c-5.63,8.6-15.74.66-17.25-6.36-3.55-16.48-3.2-35.58-2.21-47.55.41-4.89,30.57-6,30.13-.77-.92,10.94-.92,39.79-10.67,54.68h0Z"/>
    <path class="st10" d="M201.17,179.7c.22,1.28.39,2.56.56,3.84s.31,2.56.46,3.84l.42,3.84c.06.65.14,1.29.22,1.93s.15,1.27.24,1.92c-.38-1.24-.66-2.51-.86-3.79-.23-1.27-.39-2.56-.54-3.84s-.27-2.57-.35-3.86-.15-2.58-.15-3.88h0Z"/>
    <path class="st10" d="M202,187.62c0,.76,0,1.47-.09,2.2,0,.36-.06.72-.1,1.08-.04.37-.11.74-.2,1.1-.22-.72-.29-1.47-.22-2.22.02-.37.08-.75.18-1.11.09-.37.23-.72.43-1.05h0Z"/>
    <path class="st4" d="M231.12,132c2,6.09,1.21,20.14-.29,23.45s-25.42,2.77-27.63-.23-7.35-24-5-30.15,30.86.66,32.92,6.93Z"/>
    <path class="st4" d="M196.51,135.24c2.57,2.21,3.71-2.09,3.71-2.09,0,0-.14,6.58,3.39,7.84s4.6-4,4.69-4.42c0,.35,0,6.4,3.71,7.3s4.12-4.54,4.13-4.89c.1.33,1.49,4.67,4.44,4.71,5.07.08,1.84-11.13,4-14.64,0,0,6.36,2.94,6.56,3,0,0-2.85-10.73-7.75-13.34-1.45-.81-3.27-.49-4.37.75,0,0-.54-3.56-3.42-4.36-1.48-.4-3.44,1.6-3.44,1.6-.34-1.63-1.56-2.93-3.16-3.38-2.07-.44-3.72,1.64-3.72,1.64,0,0-1.79-2.48-4.06-2.24-4.6.45-10.22,17.77-4.71,22.52h0Z"/>
    <path class="st10" d="M205,115.24c0-.06,0-.1-.08,0-3.39,5.44-5.04,11.78-4.74,18.18,0,.21.35.27.38,0,.59-6.24,2.09-12.37,4.44-18.18Z"/>
    <path class="st10" d="M212.13,116.6c0-.07-.08-.12-.12,0-3.31,5.42-5.3,13.09-3.93,20.16,0,.24.33.41.3.13-.55-4.82,1.46-14.89,3.75-20.29h0Z"/>
    <path class="st10" d="M216.41,139.44c-1-6.83.2-13.31,2.43-19.77,0-.09-.09-.12-.13-.06-2,2.87-3,7.14-3.45,10.53-.52,3.14-.2,6.35.91,9.33.04.12.26.11.24-.03Z"/>
    <path class="st10" d="M200.22,133.15c.09,1.26.29,2.52.61,3.74.26,1.2.84,2.32,1.67,3.23.4.39.94.63,1.5.65.57,0,1.13-.12,1.64-.38.97-.62,1.64-1.62,1.83-2.75l.58-2.73.41,2.76c.17,1.23.53,2.42,1.08,3.53.46,1.07,1.35,1.88,2.45,2.25,1.03.35,2.17-.06,2.73-1,.58-1.05.88-2.22.87-3.42l.1-3.29,1,3.13c.27.87.66,1.7,1.14,2.48.43.75,1.07,1.36,1.85,1.75.73.32,1.57.21,2.19-.29.59-.65.98-1.46,1.13-2.33.34-1.88.54-3.78.6-5.69.06-1,.12-1.93.22-2.89.06-.98.31-1.93.76-2.8-.34.9-.51,1.86-.49,2.82v2.88c.08,1.95-.03,3.91-.31,5.84-.14,1.05-.58,2.04-1.27,2.84-.87.81-2.13,1.03-3.22.56-.97-.46-1.79-1.19-2.35-2.11-.55-.86-.99-1.78-1.31-2.75l1.08-.16c.02,1.41-.32,2.81-1,4.05-.4.67-1.02,1.19-1.75,1.46-.73.25-1.52.26-2.26.05-1.39-.46-2.52-1.5-3.1-2.85-.59-1.23-.97-2.55-1.13-3.9h1c-.3,1.4-1.2,2.6-2.47,3.27-.64.3-1.35.42-2.06.36-.72-.06-1.39-.38-1.88-.91-.84-1.02-1.38-2.24-1.56-3.55-.24-1.27-.33-2.56-.28-3.85Z"/>
    <path class="st4" d="M201.69,151.83s-17.95-20.42-6.53-23.52c3.39-.93,18.43-.67,18.43,2.35,0,3.9-6.28,5-10.34,5,0,0,7.08,6.08,4.32,12.28-1.08,2.3-3.35,3.8-5.88,3.89Z"/>
    <path class="st10" d="M194.23,128.63c1.28-.53,2.62-.87,4-1,1.38-.16,2.76-.23,4.15-.21,2.78,0,5.56.26,8.3.74.73.13,1.44.37,2.1.7.39.19.73.46,1,.8.15.18.26.39.33.61s.11.45.11.68c-.02.83-.33,1.64-.88,2.26-.51.56-1.12,1.03-1.79,1.39-1.29.64-2.68,1.06-4.11,1.24-1.39.2-2.79.29-4.19.29l.29-.85c.79.72,1.5,1.51,2.13,2.37.64.85,1.18,1.76,1.63,2.72.44.95.74,1.96.89,3,.14,1.04.08,2.09-.17,3.11.12-1.02.06-2.05-.16-3.05-.24-.98-.61-1.93-1.1-2.82-.48-.89-1.06-1.73-1.71-2.5-.63-.77-1.35-1.49-2.12-2.12l-1-.78,1.26-.07c1.34-.05,2.68-.18,4-.41,1.3-.19,2.56-.58,3.74-1.17,1.09-.59,2.08-1.56,2.07-2.62s-1.35-1.46-2.61-1.74c-1.32-.29-2.66-.51-4-.67-1.35-.17-2.71-.33-4.08-.42-2.7-.25-5.43-.07-8.08.52h0Z"/>
    <path class="st15" d="M190.82,259c-1.37,1.93-80,9.28-80.45,8.86-1.19-1.12,3.84-71.54,28.15-100.05,4.29-5,13-4.88,17.3-3.14,2.13.87,10.18,9.84,13.29,18.14s22.56,74.96,21.71,76.19Z"/>
    <path class="st13" d="M158.79,187.2c-.26-.02-.52-.1-.74-.25-.41-.26-.66-.72-.65-1.21,0-1-.82-1.81-1.82-1.8-.12,0-.25,0-.37.04-.3.06-.61.1-.91.18.3.09.61.12.91.18.27.02.53.1.76.23.42.25.67.7.68,1.18,0,.75.44,1.43,1.13,1.72.32.13.66.17,1,.1.3-.06.6-.1.91-.18-.3-.09-.6-.12-.9-.19h0ZM172.67,245.2c-.26-.03-.52-.12-.74-.26-.41-.26-.66-.72-.65-1.21,0-1-.82-1.81-1.82-1.8-.12,0-.25,0-.37.04-.3.06-.6.1-.91.18.31.09.61.12.91.19.27,0,.53.09.76.23.42.24.68.69.69,1.17,0,.75.44,1.43,1.13,1.72.32.14.66.17,1,.1.31-.06.61-.1.91-.18-.3-.08-.6-.14-.91-.19h0ZM132.34,210.5c-.27-.03-.52-.11-.75-.25-.4-.29-.62-.76-.59-1.25-.02-.75-.49-1.42-1.19-1.69-.32-.11-.67-.13-1-.07-.3.07-.6.1-.9.19.3.08.6.12.9.18.27.02.53.1.77.23.42.25.68.69.68,1.18,0,.75.44,1.42,1.13,1.72.32.13.66.16,1,.09.3-.06.6-.09.9-.18-.35-.06-.65-.1-.95-.16h0ZM165.34,262.01c-.32-.12-.67-.14-1-.07-.3.06-.6.1-.9.18.3.08.6.12.9.18.27.02.53.1.76.23.09.05.17.11.24.19l.83-.1c-.19-.28-.47-.49-.78-.62h-.05ZM150.34,235.79c-.26-.02-.52-.11-.74-.25-.41-.27-.66-.73-.65-1.22-.02-.75-.49-1.42-1.19-1.69-.32-.11-.67-.13-1-.06-.3.06-.6.09-.9.18.3.08.6.12.9.18.27.02.53.1.76.23.42.25.68.69.69,1.18,0,.75.44,1.43,1.13,1.72.32.13.67.16,1,.09.31-.04.61-.1.91-.18-.25-.09-.52-.13-.83-.19h-.08ZM118,241.12c-.27-.03-.52-.11-.75-.25-.41-.27-.66-.73-.65-1.22,0-1-.82-1.81-1.82-1.8-.12,0-.25,0-.37.04-.3.06-.6.1-.9.18.3.09.6.13.9.19.27,0,.53.09.76.23.42.24.68.69.69,1.17,0,.75.44,1.43,1.13,1.73.32.13.66.16,1,.09.3-.06.6-.1.9-.18-.31-.09-.61-.12-.89-.18h0ZM165.38,211.21c-.26-.03-.51-.11-.74-.25-.41-.27-.66-.73-.65-1.22-.02-.75-.49-1.42-1.19-1.69-.32-.11-.67-.14-1-.07-.3.07-.61.1-.91.19.3.08.61.12.91.18.27.02.53.09.76.23.42.25.68.69.68,1.18,0,.75.44,1.42,1.13,1.72.32.12.66.16,1,.09.3-.06.61-.1.91-.18-.28-.08-.62-.12-.92-.18h.02ZM137.9,172.82c-.2.18-.44.31-.7.38-.47.11-.97-.02-1.32-.35-.23-.23-.52-.4-.84-.48-.15.21-.3.41-.43.62.29.04.55.19.75.4.72.7,1.87.69,2.57-.03.08-.09.16-.18.23-.28.17-.26.35-.5.51-.77-.28.16-.51.34-.77.51h0ZM152.9,163.87c-.19.18-.35.4-.45.64-.13.32-.16.66-.09,1,.06.3.1.6.18.9.09-.3.12-.6.18-.9.03-.27.11-.52.25-.75.25-.38.66-.62,1.11-.64-.33-.12-.72-.12-1.08-.25h-.1,0ZM148.81,215c-.06-.3-.09-.6-.18-.91-.08.31-.12.61-.18.91-.02.27-.1.53-.23.76-.25.42-.69.68-1.18.69-.75,0-1.43.44-1.72,1.13-.13.32-.16.67-.09,1,.06.3.09.61.18.91.08-.3.12-.61.18-.91.02-.26.11-.52.25-.74.27-.41.73-.66,1.22-.65.75-.02,1.42-.49,1.69-1.19.11-.32.13-.67.06-1h0ZM186.18,254.45c-.05-.31-.11-.61-.19-.91-.08.3-.12.6-.18.91,0,.27-.09.53-.23.76-.24.42-.69.67-1.17.68-.75,0-1.43.44-1.73,1.13-.12.32-.16.66-.09,1,.06.3.1.6.18.91.09-.31.12-.61.18-.91.03-.26.11-.51.25-.74.27-.41.73-.66,1.22-.65.75-.02,1.42-.49,1.69-1.19.12-.33.14-.69.07-1.04v.05h0ZM119.59,216.9c-.06-.31-.1-.61-.18-.91-.09.3-.12.6-.19.91-.01.27-.09.53-.23.76-.24.42-.69.68-1.17.68-.31,0-.62.08-.89.23-.09.36-.17.72-.25,1.08.27-.36.7-.57,1.15-.56,1,0,1.81-.82,1.8-1.82,0-.12-.01-.25-.04-.37h0ZM136.72,187.4c-.06-.3-.09-.6-.18-.9-.08.3-.12.6-.18.9-.02.27-.1.53-.23.77-.25.42-.69.68-1.18.68-1-.02-1.83.77-1.85,1.77,0,.12,0,.25.03.37.07.3.1.6.19.9.08-.3.12-.6.18-.9.02-.27.11-.52.25-.75.27-.41.73-.65,1.22-.64.99,0,1.8-.81,1.79-1.8,0-.13-.02-.27-.04-.4h0ZM172.83,194.46c-.27.19-.48.45-.6.75-.12.32-.16.66-.09,1,.06.3.1.6.18.91.08-.31.12-.61.18-.91.03-.26.11-.51.25-.74.08-.12.18-.23.29-.32l-.21-.69h0ZM137.06,246.32c-.06-.3-.09-.6-.18-.9-.08.3-.12.6-.18.9-.02.27-.09.53-.23.76-.25.42-.69.68-1.18.69-.75,0-1.42.44-1.72,1.13-.13.32-.16.66-.09,1,.06.3.09.6.18.9.08-.3.12-.6.18-.9.02-.27.11-.52.25-.75.27-.41.73-.66,1.22-.64.99,0,1.8-.81,1.79-1.8,0-.13-.02-.27-.04-.4h0ZM149.3,197.64c-.2.17-.45.29-.71.34-.48.11-.97-.04-1.31-.4-.72-.7-1.87-.69-2.57.03-.08.09-.16.18-.23.28-.17.26-.35.5-.51.77.28-.15.51-.34.77-.51.2-.18.44-.31.7-.38.47-.11.97.02,1.32.35.52.52,1.31.69,2,.42.32-.14.59-.36.78-.65.17-.25.35-.49.51-.76-.26.1-.49.29-.75.46v.05h0ZM132.77,230.2c-.21.17-.45.29-.71.35-.48.1-.97-.06-1.31-.41-.54-.5-1.32-.64-2-.35-.31.15-.57.38-.76.66-.17.26-.35.5-.51.77.28-.15.51-.34.77-.51.2-.18.44-.31.7-.38.47-.11.97.02,1.32.35.52.53,1.31.7,2,.42.32-.14.59-.36.79-.64.16-.26.35-.5.51-.77-.27.14-.54.29-.8.46v.05h0ZM139.91,264c-.2.17-.44.29-.7.35-.48.1-.98-.05-1.32-.4-.53-.51-1.32-.66-2-.36-.31.15-.57.38-.76.67-.17.25-.36.49-.51.76.27-.15.51-.34.77-.51.2-.18.44-.3.7-.37.47-.13.97,0,1.31.35.53.52,1.31.68,2,.41.32-.13.59-.35.78-.64.17-.26.36-.5.51-.77-.28.13-.52.32-.78.51h0ZM171.91,226.82c-.2.17-.44.29-.7.35-.48.1-.98-.05-1.32-.4-.54-.51-1.32-.65-2-.36-.31.15-.57.38-.75.67-.17.25-.36.49-.51.76.27-.15.51-.34.76-.51.2-.18.45-.3.71-.37.47-.13.96,0,1.31.34.52.53,1.31.69,2,.42.32-.13.59-.35.78-.64.17-.26.36-.5.51-.77-.3.13-.54.32-.8.49v.02h.01ZM156.91,250.52c-.2.18-.44.3-.7.35-.48.11-.98-.04-1.32-.4-.53-.51-1.32-.65-2-.35-.31.14-.58.37-.76.66-.17.26-.36.5-.51.77.27-.16.51-.34.77-.51.2-.18.44-.31.7-.38.47-.11.97.02,1.32.35.52.53,1.31.69,2,.42.32-.14.59-.36.78-.65.18-.25.35-.5.51-.77-.32.14-.56.33-.82.49l.03.02h0ZM122.83,255.18c-.2.18-.44.3-.7.35-.48.11-.98-.04-1.32-.4-.54-.51-1.32-.65-2-.35-.31.14-.57.37-.75.66-.17.26-.36.5-.51.77.27-.15.51-.34.76-.51.2-.18.44-.31.7-.38.47-.12.97,0,1.32.35.52.52,1.31.69,2,.42.32-.14.59-.36.78-.65.18-.25.35-.5.51-.77-.32.14-.56.33-.82.49l.03.02h0Z"/>
    <path class="st4" d="M126.93,179c-10.49,13.48-36.32,54.25-28.06,63.6s61.71,12.12,76.23,6.61c4.32-1.64-9.35-28.85-14.18-29.86-4-.83-30.83-.79-31-1.64-.27-1.49,6.08-19,10-36.34,4.31-18.63-5.92-11.44-12.99-2.37h0Z"/>
    <path class="st4" d="M184.77,214.61c10.22.55,12.76,2.26,21.63-1.86,5.82-2.7,10-.14,6,5.16-6.63,8.68-20,10.73-24.79,10.12l-2.84-13.42h0Z"/>
    <path class="st4" d="M156.48,219s12.38-4,23.33-4.52c7.58-.34,24.13.76,36.48,19.71,2.93,4.5,3.92,13-3.53,7.38-5.29-4-7.45-8.11-10.95-9.86,0,0,0,10.94-4.64,13.7-4.04,2.41-8.24,4.53-12.58,6.35-.51-.72-.98-1.47-1.4-2.25,0,0-4.56,2.17-11.92,0l-14.79-30.51h0Z"/>
    <path class="st4" d="M187.09,215.35c3.11,2.47,9.6,7.83,13.39,14.06,4.21,6.93,10.45,21.39,5.31,24.45-3.77,2.24-6.64-3.08-6.64-3.08,0,0,1.32,6.53-2.53,7.8-3.5,1.17-5.47-3.08-5.47-3.08,0,0,.12,4.1-3.48,4.57-4.32.57-3.86-8.11-8.74-11.32-1.09-.75,8.16-33.4,8.16-33.4h0Z"/>
    <path class="st10" d="M192.43,232.64c2.54,2.81,6.67,10.67,6.81,18,0,.16-.12.25-.16.1-1.5-6.27-3.76-12.33-6.72-18.06,0,0,.04-.07.07-.04h0Z"/>
    <path class="st10" d="M185.56,237.09c1.95,2.65,5.84,10.94,5.73,18.37,0,.17-.14.25-.16.1-1.18-6.34-3.07-12.52-5.63-18.43,0,0,.04-.07.06-.04h0Z"/>
    <path class="st10" d="M201.83,231.68c3,1.59,4.85,3.59,7.22,6,1.15,1.22,2.38,2.38,3.66,3.46,1.18,1,2.92,2.43,4.54,1.59.81-.57,1.24-1.55,1.12-2.53-.14-1.38-.5-2.73-1.07-4,0-.05.07-.09.09,0,.56,1.17,1,2.4,1.31,3.66.19.86.12,1.77-.2,2.59-.83,1.7-3,1.52-4.38.74-.82-.5-1.6-1.08-2.31-1.73-.7-.61-1.37-1.25-2-1.9-1.34-1.34-2.6-2.76-3.92-4.11-1.29-1.29-2.66-2.5-4.11-3.61-.08-.1,0-.19.05-.16h0Z"/>
    <path class="st10" d="M206.39,244.41c-1.27-4.32-2.82-8.55-4.65-12.66,0-.06,0-.1.08-.05,2.07,2.88,4.89,10,5.44,12.26s1.12,5,.68,7.23c-.66,3.39-3,3.59-3.9,3.6-1.02,0-2-.36-2.79-1-.91-.84-1.63-1.86-2.13-3,0-.06,0-.11.08,0,.91,1.56,2.6,3.26,4.49,3.37.84.08,1.67-.18,2.32-.72.66-.72,1.04-1.65,1.07-2.62.14-2.16-.09-4.33-.69-6.41h0Z"/>
    <path class="st15" d="M133.29,210.62l-30.29-2.74s18.18-25.31,27.67-34.41c9.89-9.49,15.75-8.07,10.6,9.33-5.11,17.14-7.98,27.82-7.98,27.82h0Z"/>
    <path class="st13" d="M121.51,183.67h0l-.3.37h.22c.3-.06.6-.1.9-.19-.28-.09-.55-.13-.82-.18ZM132.34,210.49c-.27-.03-.52-.11-.75-.25-.39-.29-.62-.75-.59-1.24-.02-.75-.49-1.42-1.19-1.69-.32-.11-.67-.13-1-.07-.3.07-.6.1-.9.19.3.08.6.12.9.18.27.02.53.1.77.23.42.25.68.69.68,1.18s.21,1,.58,1.35l2,.18-.5-.06h0ZM137.9,172.82c-.2.18-.44.31-.7.38-.47.11-.97-.02-1.32-.35-.52-.52-1.31-.69-2-.42-.32.14-.59.36-.78.65-.17.25-.35.49-.51.77.28-.16.52-.34.77-.51.2-.18.45-.3.71-.35.48-.11.97.04,1.31.4.72.7,1.87.69,2.57-.03.08-.09.16-.18.23-.28.17-.26.35-.5.51-.77-.3.16-.53.34-.79.51h0ZM136.72,187.35c-.06-.3-.09-.6-.18-.9-.08.3-.12.6-.18.9-.02.27-.1.53-.23.77-.25.42-.69.68-1.18.68-1-.02-1.83.77-1.85,1.77,0,.12,0,.25.03.37.07.3.1.6.19.9.08-.3.12-.6.18-.9.02-.27.11-.52.25-.75.27-.41.73-.65,1.22-.64.99,0,1.8-.81,1.79-1.8,0-.13-.02-.27-.04-.4h0ZM120.07,198.35c-.2.17-.44.29-.7.35-.48.11-.98-.04-1.32-.4-.53-.51-1.32-.65-2-.35-.31.14-.58.37-.76.66-.18.25-.35.5-.51.77.27-.16.51-.35.77-.51.2-.18.44-.31.7-.38.47-.13.97,0,1.31.35.53.52,1.31.68,2,.42.32-.14.59-.36.78-.65.17-.26.36-.49.51-.77-.28.16-.52.34-.78.51h0Z"/>
    <path class="st10" d="M131.71,205.22c-.71-.15-1.45-.2-2.17-.28l-2.23-.26c-1.5-.17-3-.32-4.52-.46-3-.28-6-.58-9.05-.81l-2.49-.17c-.88,0-1.76,0-2.63-.07-.05,0-.05.08,0,.09.74.09,1.48.24,2.23.34s1.53.19,2.29.26c1.51.16,3,.3,4.53.43,3,.26,5.94.53,8.91.72l2.5.15c.87.06,1.75.16,2.62.14v-.08h0Z"/>
    <path class="st10" d="M131.86,210.45h1.64l-.12.09c.42-2,.93-4,1.4-6s1-4,1.59-6c1.12-4,2.3-7.92,3.7-11.8-.8,4.06-1.81,8-2.88,12-.54,2-1.11,3.98-1.7,5.95-.62,2-1.2,3.94-1.89,5.88v.1h-.09c-.56-.05-1.11-.12-1.65-.22Z"/>
    <path class="st10" d="M137.46,196.61c.31-1.08.74-2.13,1.28-3.11.52-.98,1.15-1.9,1.89-2.74-.3,1.08-.73,2.13-1.28,3.11-.52.98-1.16,1.9-1.89,2.74Z"/>
    <path class="st4" d="M155,178.66c-4.23.74-11-6-13.54-11.39-.17-.36,2.13-14.45,2.3-17.29,0-.58,17.55,5.37,17.55,5.37-1.22,3.49-2.02,7.12-2.36,10.8-.03.42.13,11.79-3.95,12.51h0Z"/>
    <path class="st10" d="M161.3,155.35c-1.22,3.49-2.02,7.12-2.36,10.8v1.36c-.58.06-1.16.06-1.74,0-9.67-.79-12.23-12.88-12.87-17.51l.53.12.58.15.35.09,1.22.35.53.16c.78.23,1.64.5,2.53.78l.38.12,2.44.78.33.11.74.24.76.25,2.34.77.32.11,1.18.39.27.09,1.24.42.21.07.65.22h.12l.23.07.02.06h0Z"/>
    <path class="st4" d="M146.08,127.58c-3.27,5.75-4,24.3-.55,29.27,5.06,7.19,15.35,10.09,22,3.55,6.41-6.34,7-30.54,2.9-35.25-6.05-6.95-19.51-6.05-24.35,2.43h0Z"/>
    <path class="st10" d="M161.34,142.37c0-.05-.1,0-.1.1,0,1.26-.25,2.69-1.4,3.05M159.84,145.59c1.4-.13,1.68-2.03,1.5-3.22l-1.5,3.22Z"/>
    <path class="st10" d="M160.28,141c-2-.24-2.34,3.78-.49,4s2.21-3.78.49-4Z"/>
    <path class="st10" d="M168.21,143.14s.09.07.08.12c-.14,1.24-.1,2.69,1,3.2,0,0,0,.08,0,.07-1.38-.31-1.42-2.23-1.08-3.39Z"/>
    <path class="st10" d="M169.43,141.94c2,0,1.83,4.05,0,4s-1.69-4.02,0-4Z"/>
    <path class="st10" d="M158.85,139c.54-.11,1.08-.25,1.61-.42.59-.06,1.13-.32,1.56-.73.2-.31.18-.71-.05-1-.58-.5-1.39-.65-2.11-.4-.76.15-1.43.57-1.9,1.19-.25.43-.1.99.33,1.24.17.1.36.14.56.12h0Z"/>
    <path class="st10" d="M171.16,140c-.53-.15-1.05-.33-1.56-.55-.58-.12-1.1-.42-1.49-.86-.17-.33-.12-.73.14-1,.62-.45,1.43-.53,2.13-.21.74.21,1.38.69,1.79,1.34.22.44.04.99-.4,1.21-.19.09-.4.12-.61.07Z"/>
    <path class="st10" d="M158.87,153.79c.27.32.54.75,1,.82.46.04.93-.03,1.36-.2,0,0,.08,0,.05.07-.4.47-1.04.68-1.64.54-.51-.18-.86-.64-.88-1.18-.03-.07.07-.09.11-.05h0Z"/>
    <path class="st10" d="M160.5,150.17c.55,1.05,1.52,1.82,2.67,2.13.49.14,1.01.21,1.52.2.1.02.19.02.29,0h.28c.14-.02.25-.12.28-.26h0v-.13h0v-.11c.11-1,.14-2.42.14-2.42.34.2,2.06,1.16,2.07.66.26-4.34.08-8.7-.55-13-.02-.06-.09-.1-.15-.08-.04,0-.07.04-.08.08-.26,4,.19,8,0,12.05-.63-.35-1.3-.62-2-.78-.14,0,0,2.84-.1,3.26v.05c-1.6.03-3.14-.6-4.27-1.74-.06-.08-.17,0-.1.09h0Z"/>
    <path class="st10" d="M164.17,152c-.59.64-1.33,1.12-2.15,1.39-.45.14-.94.14-1.39,0-1-.35-.92-1.26-.67-2,.14-.41.32-.79.55-1.16,1,.96,2.28,1.58,3.66,1.77h0Z"/>
    <path class="st5" d="M162,153.36c-.45.14-.94.14-1.39,0-1-.35-.92-1.26-.67-2,1.06.12,1.91.94,2.06,2Z"/>
    <path class="st10" d="M144.78,144c3.39.2,4-8.07,4-8.07,0,0,5.25-.32,8.6-7.07,0,0,6.12,4.94,11.79,4.59,8.88-.55,10-11.87,7-14.55-4.23-3.81-13,0-13,0,0,0-12-4.94-16.72,3-3.37-.16-6.28,2.31-6.68,5.66-1.06,6.08,2.48,16.31,5.01,16.44h0Z"/>
    <path class="st10" d="M147.5,136.77c2.55-.13,4.98-1.1,6.92-2.77,2.1-1.85,3.17-4.59,2.88-7.37.02-.06.09-.1.15-.08.04.01.07.04.08.08.27,3-.25,5.88-2.36,8.08-1.95,2.1-4.89,2.99-7.68,2.34-.13-.05-.14-.27,0-.28h0Z"/>
    <path class="st10" d="M139.81,123.93c2-2,4.62-2,7.19-1.6.06.02.1.09.08.15,0,.04-.04.07-.08.08-2.51-.59-5.27.8-6.84,2.72s-1.55,4.49-1.29,6.8c.47,4.47,2.58,8.61,5.92,11.61.03,0,.05.05.04.08,0,.03-.05.05-.08.04,0,0-.02,0-.03-.02-3.9-3.14-6.33-7.74-6.72-12.73-.17-2.42,0-5.31,1.81-7.12h0Z"/>
    <path class="st10" d="M162.83,119.25c1.3-1.63,3.15-2.73,5.21-3.09,2.49-.36,5.02.2,7.12,1.59,1.69,1.19,2.61,3.18,2.43,5.24-.27,2.33-1.32,4.5-3,6.14,0,.05-.12,0-.08-.06,1.38-1.57,2.24-3.54,2.47-5.62.18-2.02-.81-3.96-2.55-5-3.38-2-8.62-2.37-11.39,1-.13.06-.31-.09-.21-.2h0Z"/>
    <path class="st15" d="M158,147.88c-2.9-.62-4.74-3.46-4.13-6.36s3.46-4.74,6.36-4.13c2.4.51,4.15,2.59,4.24,5.05h0c.11,2.95-2.2,5.44-5.15,5.55-.44.02-.89-.02-1.32-.11ZM160.09,138.11c-.38-.08-.76-.12-1.15-.1-2.56.1-4.56,2.25-4.46,4.81.1,2.56,2.25,4.56,4.81,4.46,2.56-.1,4.56-2.25,4.46-4.81-.08-2.12-1.59-3.92-3.66-4.36Z"/>
    <path class="st15" d="M170.19,149c-2-.43-3.38-2.87-3.12-5.65.11-1.33.62-2.6,1.48-3.62,1.1-1.48,3.19-1.79,4.67-.7.43.32.78.74,1.02,1.23.65,1.17.92,2.5.77,3.83-.28,2.94-2.28,5.16-4.47,5l-.35-.09h0ZM171.75,139.14h-.27c-.93-.05-1.82.36-2.39,1.1-.76.91-1.21,2.03-1.3,3.21-.24,2.55,1,4.76,2.82,4.93s3.45-1.77,3.69-4.31c.13-1.18-.11-2.37-.68-3.41-.38-.76-1.06-1.32-1.87-1.55v.03h0Z"/>
    <path class="st15" d="M164.19,143l-.41-.59c.87-.6,2.83-1.34,4,.17l-.57.44c-1.04-1.32-2.94-.02-3.02-.02h0Z"/>
    <path class="st15" d="M140.31,142.17l-.6-.38c.18-.28,1.81-2.75,3.42-2.86s11,1.7,11.38,1.77l-.13.71c-2.72-.52-10-1.84-11.2-1.76s-2.43,1.85-2.87,2.52h0Z"/>
    <path class="st4" d="M146.61,143s-2.86-6.62-5.78-5.71-1.6,9.91,1.25,11.69c1.42,1.04,3.42.72,4.46-.7.03-.04.06-.08.08-.12v-5.16h-.01Z"/>
    <path class="st10" d="M141.27,139.83c-.05,0-.07,0,0,.08,2,1.32,2.71,3.56,3.08,5.8-.32-.93-1.32-1.42-2.25-1.1-.08.03-.16.06-.24.1-.07,0,0,.13,0,.13.83-.09,1.63.36,2,1.11.29.61.51,1.26.66,1.92.06.22.43.19.4-.05v-.06c.61-2.76-.75-7.05-3.65-7.93h0Z"/>
    <path class="st10" d="M139.69,168.29c.51.92.94,1.87,1.5,2.77.57.91,1.19,1.79,1.85,2.63,1.28,1.65,2.73,3.15,4.33,4.48,1.61,1.54,3.67,2.52,5.88,2.8,2.07.11,4.04-.93,5.11-2.7,1.46-2.23,1.44-5,1.42-7.65-.02-.04,0-.09.05-.1s.09,0,.1.05v.06c.08,2.77.1,5-.92,7.4-.75,1.89-2.4,3.28-4.4,3.68-4.73.81-8.62-3.36-11.21-6.75-.76-.99-1.46-2.03-2.09-3.11-.69-1.11-1.28-2.29-1.77-3.5-.03-.08.11-.13.15-.05h0Z"/>
  </g>
  <g id="freepik--Desk--inject-3">
    <rect class="st9" x="70.73" y="260.19" width="358.54" height="12.75"/>
    <rect class="st14" x="70.73" y="267.97" width="358.54" height="4.98"/>
    <polygon class="st14" points="416.41 451.85 421.56 451.85 406.56 272.95 393.41 272.95 416.41 451.85"/>
    <polygon class="st10" points="393.41 272.95 394.95 284.92 407.56 284.92 406.56 272.95 393.41 272.95"/>
    <polygon class="st14" points="83.59 451.85 78.44 451.85 93.44 272.95 106.59 272.95 83.59 451.85"/>
    <polygon class="st10" points="106.59 272.95 105.05 284.92 92.44 284.92 93.44 272.95 106.59 272.95"/>
  </g>
  <g id="freepik--Device--inject-3">
    <rect class="st11" x="183.25" y="256.69" width="78.05" height="3.5"/>
    <rect class="st12" x="222.02" y="256.69" width="39.29" height="3.5"/>
    <polygon class="st11" points="226.25 260.19 302.32 260.19 312.26 208.53 236.19 208.53 226.25 260.19"/>
    <path class="st12" d="M264.63,234.36c-.26,2.28,1.38,4.34,3.66,4.6.19.02.37.03.56.03,2.59-.07,4.73-2.05,5-4.63.25-2.3-1.41-4.36-3.7-4.61-.17-.02-.35-.03-.53-.02-2.59.06-4.73,2.05-4.99,4.63Z"/>
  </g>
  <g id="freepik--Plant--inject-3">
    <path class="st15" d="M402.3,354.09c-9.14,12.37-18.66,26.72-21,42.23-.01.12.08.22.19.23.1,0,.19-.05.22-.15,1.04-4.23,2.38-8.38,4-12.42,6-1.65,11.9-3,15.05-9,3.22-6.12,2.81-14.11,2.2-20.78.04-.33-.48-.35-.66-.11h0Z"/>
    <path class="st10" d="M385.85,383.87c4.11-9.21,9.37-18.45,16.07-26,0,0,.11,0,.07.08-4.2,5.39-7.88,11.16-11,17.24,3-3.07,6.33-5.82,9.2-9.08,0-.06.14,0,.09.09-2.84,3.42-5.95,7.13-9.66,9.65-.99,1.83-1.99,3.66-3,5.51.25-.14.51-.26.76-.39,0,0,.09.05,0,.07-.28.14-.56.29-.85.42-.48.87-1,1.74-1.45,2.61-.08.16-.31,0-.23-.2h0Z"/>
    <path class="st10" d="M388.91,380.65c2.45-1.38,4.79-2.94,7-4.68.06,0,.14,0,.08.09-2.15,1.85-4.49,3.45-7,4.77-.05.01-.11-.02-.12-.07-.01-.04,0-.08.04-.11Z"/>
    <path class="st15" d="M380.27,394c0,.19.33.18.33,0,0-5.11,0-10.24.08-15.37,1.31-2.64,4.12-4.1,6.07-6.22,1.41-1.54,2.63-3.24,3.64-5.07,2.36-4.36,3.8-9.15,4.23-14.09.54-5.46-1.53-23.49-3.84-22.87-1.19.33-5.06,9.26-6.08,12.21-1.66,4.88-2.88,9.9-3.64,15-1.86,11.99-1.71,24.33-.79,36.41Z"/>
    <path class="st10" d="M380.23,372h0c.28-6.46,1.74-13,3.1-19.26,1.47-6.75,3.19-13.11,6.66-19.13.04-.04.1-.05.14-.01.03.03.04.07.03.11-2.31,4.69-4.11,9.61-5.35,14.69.24-.37.52-.71.76-1.06.1-.13.32,0,.23.14-.31.54-.68,1.06-1.09,1.53h0c-1.2,4.83-2.06,9.76-2.79,14.69.05-.06.1-.13.16-.19M382.15,363.57c-.09.16-.19.32-.29.48-.37,2.5-.71,5-1.06,7.47,4.56-3.67,8.13-8.41,10.4-13.81,0,0,.05,0,0,0-2.1,5.73-5.41,10.83-10.51,14.3-.09.67-.18,1.34-.28,2,0,.14-.24.1-.24,0,0-.59,0-1.18.06-1.77-.05-.1-.08-.19,0-.24l1.92-8.43h0Z"/>
    <path class="st10" d="M382.33,362.62c3.47-4.93,6.5-10.16,9.06-15.62,0-.06.14,0,.11.05-2.03,5.73-5.08,11.05-9,15.7-.08.09-.24-.03-.17-.13h0Z"/>
    <path class="st10" d="M386.85,345.75c1.41-2.5,2.89-4.92,4.22-7.47,0-.07.13,0,.1.07-1.09,2.65-2.47,5.17-4.11,7.52-.03.06-.11.08-.17.05s-.08-.11-.05-.17h0Z"/>
    <path class="st10" d="M386.3,346.83h0Z"/>
    <path class="st15" d="M376.81,379.25c-.07,3.38-.47,6.75-1.19,10.06l.15,1.1c1.05-3.65,1.65-7.42,1.8-11.22.07-.1.07-.24,0-.34h0c.14-5.09-.23-10.19-1.13-15.2-1.58-9.39-5-18.4-11.58-25.44-.21-.17-.51-.14-.68.07-.02.03-.04.05-.05.08-2.64,6.72-1.72,14.74.53,21.44,1.23,3.63,2.98,7.06,5.2,10.18,2.26,3.15,5.14,5.82,6.95,9.27h0Z"/>
    <path class="st10" d="M365.65,341.35c6.21,10.07,10.52,22,11.05,33.9,0,.21-.34.27-.37.05-.15-1.07-.31-2.13-.49-3.18h0c-2.68-2.39-5.03-5.13-7-8.13,0-.05,0-.12.09-.07,2.13,2.62,4.41,5.11,6.84,7.45-.44-2.63-.97-5.22-1.59-7.77-.17-.19-.33-.39-.49-.58s.07-.31.18-.18l.15.16c-.87-3.5-1.96-6.94-3.25-10.3-1.58-1.88-3.34-3.51-4.49-5.78M366.36,346.87c.93,1.3,1.82,2.61,2.87,3.81.42.48.88.93,1.31,1.4-1.43-3.65-3.13-7.19-5.08-10.59,0-.08.05-.14.13-.15h.06l.71,5.52h0Z"/>
    <path class="st10" d="M366.91,353.77c2,2.7,4.29,5.27,6.15,8.06.03.04.02.09-.02.11-.04.03-.09.02-.11-.01-2.38-2.43-4.45-5.14-6.16-8.08-.05-.09.08-.16.14-.08h0Z"/>
    <path class="st10" d="M373.34,362.46l.09.08c.06.06,0,.16-.1.1l-.08-.09s-.02-.07,0-.09.07-.02.09,0Z"/>
    <path class="st15" d="M355.93,360.71c.73,5.62,3,10.94,6.55,15.36,1.46,1.73,3.27,3.14,5.31,4.14,2.3,1.14,4.7,2.45,7.08,3.38,1.13,2.88,1.97,5.86,2.51,8.91.08-.26.15-.53.23-.78-1.53-13.12-10-24.33-20.87-31.53-.25-.16-.57-.09-.73.16-.07.11-.1.23-.08.36Z"/>
    <path class="st10" d="M359.68,364.58c-.08-.07,0-.2.11-.14,5.96,4.44,10.72,10.3,13.84,17.05.07.18-.17.33-.27.16-.51-.89-1-1.75-1.55-2.59h0c-2.48-.47-4.83-2.21-6.67-3.87-.05,0,0-.12.07-.07.95.86,2.01,1.6,3.14,2.2,1,.51,2.1.84,3.15,1.25-.92-1.46-1.88-2.86-2.88-4.21-2.67-1.02-5.18-2.43-7.44-4.19-.07-.05,0-.17.07-.12,2.24,1.35,4.55,2.59,6.92,3.7-1.51-2-3.14-3.9-4.89-5.7-.84-.44-1.69-.89-2.51-1.37-.07,0,0-.15.05-.12.68.23,1.33.55,1.93.94-.98-.99-1.99-1.96-3.07-2.92h0Z"/>
    <path class="st10" d="M359.91,369.11c.15.09.29.19.42.3,0,0,0,.08-.05.07-.15-.07-.3-.16-.44-.25-.07-.05,0-.17.07-.12h0Z"/>
    <polygon class="st14" points="394.56 420.91 364.8 420.91 367.21 393.82 367.73 387.84 391.63 387.84 392.15 393.82 394.56 420.91"/>
    <polygon class="st10" points="392.15 393.82 367.21 393.82 367.73 387.84 391.63 387.84 392.15 393.82"/>
    <rect class="st14" x="366.31" y="383.66" width="26.74" height="5.91"/>
  </g>
</svg>