<svg width="150" height="150" viewBox="0 0 150 150" fill="none" xmlns="http://www.w3.org/2000/svg">
<path d="M43.4185 26.0087C47.4715 25.9334 51.5188 26.3491 55.4719 27.2466C58.8004 27.9736 61.9605 29.3263 64.7843 31.2328C67.3923 33.1287 69.4558 35.6775 70.7677 38.6234C72.2755 42.2459 73.0029 46.1457 72.9024 50.0683C73.0737 54.3755 71.974 58.6378 69.7406 62.3241C67.3909 65.8057 64.1431 68.5863 60.3416 70.3708C65.5005 71.7621 69.9939 74.949 73.0138 79.3584C75.9129 84.0304 77.37 89.4541 77.2028 94.9504C77.2985 99.3327 76.3927 103.679 74.5545 107.658C72.8555 111.129 70.3677 114.154 67.2903 116.491C64.122 118.802 60.5566 120.512 56.7713 121.536C52.8459 122.622 48.7907 123.167 44.7179 123.157H0V26.0087H43.4185ZM40.8382 65.3014C44.0228 65.4327 47.1576 64.4791 49.7298 62.5965C50.9618 61.4994 51.9201 60.1293 52.5282 58.5956C53.1363 57.0619 53.3773 55.4072 53.232 53.7636C53.3145 51.8441 52.9324 49.933 52.1183 48.1928C51.4276 46.8073 50.3538 45.6493 49.0245 44.8565C47.678 43.9839 46.1652 43.4001 44.5817 43.142C42.8636 42.809 41.1153 42.6576 39.3656 42.6901H20.2582V65.388H40.8382V65.3014ZM41.952 106.662C43.8779 106.688 45.7998 106.48 47.6755 106.043C49.3897 105.664 51.0155 104.96 52.4648 103.969C53.8846 102.979 55.0317 101.646 55.7999 100.094C56.6906 98.1156 57.0999 95.9541 56.9941 93.7868C57.1872 91.8117 56.9257 89.8186 56.2296 87.9603C55.5335 86.102 54.4214 84.4278 52.9783 83.0661C49.9198 80.8126 46.1716 79.6962 42.379 79.9093H20.2582V106.662H41.952Z" fill="white"/>
<path d="M106.055 106.303C107.646 107.777 109.519 108.912 111.561 109.64C113.603 110.368 115.772 110.673 117.936 110.536C121.366 110.623 124.729 109.579 127.508 107.565C129.768 106.095 131.48 103.919 132.378 101.376H148.533C146.812 108.616 142.608 115.025 136.653 119.487C130.94 123.28 124.189 125.201 117.335 124.983C112.444 125.048 107.59 124.128 103.061 122.278C98.9637 120.569 95.2893 117.986 92.2942 114.708C89.3104 111.274 87.0181 107.295 85.5435 102.991C83.8883 98.1797 83.0781 93.1181 83.1489 88.0303C83.1187 83.0279 83.9562 78.0581 85.624 73.342C87.8646 66.7073 92.1486 60.9531 97.8614 56.9053C103.574 52.8574 110.422 50.724 117.422 50.8112C122.59 50.7031 127.701 51.9131 132.272 54.327C136.405 56.5937 139.969 59.7682 142.698 63.6117C145.49 67.6446 147.491 72.1711 148.595 76.9506C149.806 82.083 150.238 87.3684 149.876 92.6293H101.755C101.365 97.5721 102.907 102.474 106.055 106.303ZM127.168 69.3558C125.821 68.0084 124.201 66.9654 122.418 66.297C120.634 65.6286 118.728 65.3503 116.828 65.481C114.307 65.3848 111.805 65.9435 109.564 67.1027C107.787 68.081 106.219 69.3973 104.948 70.9775C103.821 72.4591 102.982 74.1386 102.473 75.9293C102.014 77.4228 101.728 78.9637 101.619 80.5222H131.425C131.165 76.4595 129.686 72.5698 127.18 69.362L127.168 69.3558Z" fill="white"/>
<path d="M135.125 32.4955H97.7766V42.0464H135.125V32.4955Z" fill="white"/>
</svg>
