<svg width="150" height="150" viewBox="0 0 150 150" fill="none" xmlns="http://www.w3.org/2000/svg">
<path d="M10.241 131H34.1365V73.4563L0 47.8813V120.81C0 126.404 4.61847 131 10.241 131Z" fill="#DFDFDF"/>
<path d="M115.863 131H139.759C145.382 131 150 126.404 150 120.81V47.8813L115.863 73.2565" fill="#F1F1F1"/>
<path d="M115.863 29.2995V73.4563L150 48.0811V34.2946C150 21.7069 135.542 14.5139 125.502 22.1065" fill="white"/>
<path d="M34.1365 73.4563V29.2995L75.1004 59.8696L115.863 29.2995V73.4563L74.8996 103.827" fill="#ECECEC"/>
<path d="M0 34.2946V47.8813L34.1365 73.2565V29.2995L24.498 22.1065C14.4578 14.7137 0 21.9067 0 34.2946Z" fill="#C9C9C9"/>
</svg>
