<svg width="150" height="150" viewBox="0 0 150 150" fill="none" xmlns="http://www.w3.org/2000/svg">
<g clip-path="url(#clip0_14_38)">
<path d="M43.9381 0.524532C35.9581 0.901032 30.5086 2.17453 25.7446 4.04653C20.8141 5.96803 16.6351 8.54653 12.4771 12.7195C8.31912 16.8925 5.75862 21.0745 3.85062 26.0125C2.00412 30.787 0.753122 36.241 0.400622 44.2255C0.0481217 52.21 -0.0298784 54.7765 0.00912161 75.1435C0.0481216 95.5105 0.138122 98.0635 0.525122 106.065C0.906122 114.043 2.17512 119.491 4.04712 124.257C5.97162 129.187 8.54712 133.365 12.7216 137.524C16.8961 141.684 21.0751 144.238 26.0251 146.149C30.7951 147.993 36.2506 149.25 44.2336 149.599C52.2166 149.949 54.7861 150.03 75.1471 149.991C95.5081 149.952 98.0716 149.862 106.071 149.482C114.071 149.103 119.49 147.825 124.257 145.962C129.188 144.033 133.368 141.462 137.525 137.286C141.681 133.11 144.24 128.925 146.147 123.984C147.995 119.214 149.25 113.758 149.597 105.781C149.946 97.7755 150.029 95.2195 149.99 74.8555C149.951 54.4915 149.859 51.9385 149.48 43.9405C149.1 35.9425 147.83 30.511 145.959 25.7425C144.032 20.812 141.459 16.6375 137.286 12.475C133.113 8.31253 128.925 5.75503 123.986 3.85303C119.213 2.00653 113.76 0.748032 105.777 0.403032C97.7941 0.0580321 95.2246 -0.0304679 74.8561 0.00853209C54.4876 0.0475321 51.9376 0.134532 43.9381 0.524532ZM44.8141 136.107C37.5016 135.789 33.5311 134.574 30.8851 133.557C27.3811 132.207 24.8851 130.575 22.2481 127.963C19.6111 125.352 17.9911 122.847 16.6231 119.35C15.5956 116.704 14.3581 112.738 14.0161 105.426C13.6441 97.522 13.5661 95.149 13.5226 75.1255C13.4791 55.102 13.5556 52.732 13.9021 44.8255C14.2141 37.519 15.4366 33.544 16.4521 30.8995C17.8021 27.391 19.4281 24.8995 22.0456 22.264C24.6631 19.6285 27.1606 18.0055 30.6601 16.6375C33.3031 15.6055 37.2691 14.3785 44.5786 14.0305C52.4881 13.6555 54.8581 13.5805 74.8786 13.537C94.8991 13.4935 97.2751 13.5685 105.188 13.9165C112.494 14.2345 116.471 15.445 119.112 16.4665C122.618 17.8165 125.112 19.438 127.748 22.06C130.383 24.682 132.008 27.1705 133.376 30.6775C134.409 33.313 135.636 37.2775 135.981 44.5915C136.358 52.501 136.443 54.8725 136.479 74.8915C136.515 94.9105 136.445 97.288 136.098 105.192C135.779 112.504 134.567 116.476 133.548 119.125C132.198 122.628 130.571 125.125 127.952 127.759C125.333 130.393 122.838 132.016 119.337 133.384C116.697 134.415 112.727 135.645 105.423 135.993C97.5136 136.365 95.1436 136.443 75.1156 136.486C55.0876 136.53 52.7251 136.449 44.8156 136.107M105.956 34.915C105.959 36.6952 106.489 38.4345 107.481 39.9129C108.472 41.3914 109.88 42.5426 111.526 43.2209C113.172 43.8993 114.982 44.0743 116.727 43.7239C118.473 43.3735 120.075 42.5134 121.331 41.2523C122.588 39.9912 123.442 38.3859 123.786 36.6393C124.13 34.8927 123.948 33.0833 123.264 31.4399C122.58 29.7966 121.423 28.3931 119.941 27.407C118.459 26.4209 116.718 25.8965 114.938 25.9C112.551 25.9048 110.264 26.8572 108.58 28.5477C106.896 30.2383 105.952 32.5286 105.956 34.915ZM36.4906 75.0745C36.5326 96.3445 53.8066 113.548 75.0721 113.508C96.3376 113.467 113.553 96.1945 113.513 74.9245C113.472 53.6545 96.1936 36.4465 74.9251 36.4885C53.6566 36.5305 36.4501 53.8075 36.4906 75.0745ZM49.9996 75.0475C49.9898 70.1029 51.4465 65.2664 54.1855 61.1497C56.9244 57.033 60.8226 53.8209 65.3871 51.9196C69.9516 50.0183 74.9774 49.5133 79.8289 50.4684C84.6804 51.4234 89.1398 53.7956 92.643 57.2851C96.1463 60.7745 98.5362 65.2245 99.5105 70.0722C100.485 74.9199 99.9996 79.9476 98.1164 84.5196C96.2332 89.0916 93.0366 93.0025 88.9308 95.7577C84.8249 98.5129 79.9942 99.9887 75.0496 99.9985C71.7664 100.005 68.514 99.3655 65.4781 98.1152C62.4422 96.865 59.6824 95.029 57.3562 92.712C55.03 90.395 53.1831 87.6424 51.9208 84.6115C50.6585 81.5806 50.0057 78.3308 49.9996 75.0475Z" fill="white"/>
</g>
<defs>
<clipPath id="clip0_14_38">
<rect width="150" height="150" fill="white"/>
</clipPath>
</defs>
</svg>
