<svg width="150" height="150" viewBox="0 0 150 150" fill="none" xmlns="http://www.w3.org/2000/svg">
<g clip-path="url(#clip0_14_39)">
<path d="M128.659 127.81H106.286V93.0032C106.286 84.7031 106.137 74.0184 94.6492 74.0184C82.9963 74.0184 81.2134 83.0616 81.2134 92.3989V127.808H58.8398V56.2306H80.3184V66.0124H80.6191C82.7686 62.3614 85.8747 59.3579 89.6065 57.3218C93.3384 55.2857 97.5563 54.2933 101.811 54.4502C124.488 54.4502 128.669 69.2676 128.669 88.544L128.659 127.81ZM33.5951 46.4465C31.0272 46.4469 28.5168 45.6909 26.3814 44.2741C24.246 42.8572 22.5816 40.8431 21.5985 38.4864C20.6153 36.1298 20.3577 33.5365 20.8582 31.0344C21.3587 28.5323 22.5949 26.2339 24.4104 24.4298C26.2259 22.6256 28.5391 21.3968 31.0576 20.8986C33.5761 20.4005 36.1867 20.6555 38.5593 21.6313C40.9319 22.6071 42.9599 24.2599 44.387 26.3807C45.814 28.5015 46.576 30.9951 46.5764 33.5461C46.5768 35.2399 46.2412 36.9172 45.589 38.4822C44.9368 40.0471 43.9808 41.4692 42.7753 42.6671C41.5699 43.865 40.1387 44.8153 38.5635 45.4638C36.9884 46.1123 35.3002 46.4462 33.5951 46.4465ZM44.7819 127.81H22.3851V56.2306H44.7819V127.81ZM139.813 0.0102197H11.1425C8.22201 -0.0225205 5.4078 1.0979 3.31848 3.12526C1.22915 5.15263 0.0356427 7.92108 0 10.8223V139.176C0.0344228 142.078 1.22723 144.848 3.31648 146.878C5.40574 148.907 8.22057 150.03 11.1425 149.999H139.813C142.741 150.036 145.564 148.916 147.661 146.887C149.759 144.857 150.959 142.084 151 139.176V10.813C150.958 7.90607 149.757 5.13447 147.659 3.10715C145.561 1.07983 142.74 -0.0373839 139.813 0.000955136" fill="white"/>
</g>
<defs>
<clipPath id="clip0_14_39">
<rect width="150" height="150" fill="white"/>
</clipPath>
</defs>
</svg>
