<?xml version="1.0" encoding="UTF-8"?>
<svg id="Layer_1" xmlns="http://www.w3.org/2000/svg" version="1.1" viewBox="0 0 500 500">
  <!-- Generator: Adobe Illustrator 29.6.1, SVG Export Plug-In . SVG Version: 2.1.1 Build 9)  -->
  <defs>
    <style>
      .st0, .st1, .st2 {
        isolation: isolate;
      }

      .st0, .st3 {
        opacity: .1;
      }

      .st1 {
        opacity: .2;
      }

      .st4 {
        fill: #ebebeb;
      }

      .st5 {
        fill: #dbdbdb;
      }

      .st6 {
        fill: #eb9481;
      }

      .st7 {
        fill: #37474f;
      }

      .st8 {
        fill: #263238;
      }

      .st9 {
        fill: #c7c7c7;
      }

      .st10 {
        fill: #a6a6a6;
      }

      .st11 {
        fill: #2563eb;
      }

      .st12, .st2 {
        fill: #fff;
      }

      .st13 {
        fill: #eab308;
      }

      .st14 {
        fill: #ff9abb;
      }

      .st15 {
        fill: #455a64;
      }

      .st2 {
        opacity: .8;
      }
    </style>
  </defs>
  <g id="freepik--background-complete--inject-3">
    <rect class="st12" x="355.54" y="66.52" width="66.33" height="66.33"/>
    <path class="st5" d="M352.09,63.07v73.24h73.23V63.07h-73.23ZM421.87,132.86h-66.33v-66.34h66.33v66.34Z"/>
    <rect class="st4" x="365.39" y="97.08" width="51.7" height="22.93"/>
    <rect class="st9" x="375.46" y="86.44" width="26.49" height="26.49"/>
    <rect class="st9" x="425.32" y="63.07" width="2.83" height="73.24"/>
    <rect class="st12" x="355.54" y="160.71" width="66.33" height="66.33"/>
    <rect class="st9" x="366.94" y="171.32" width="17.32" height="50.03"/>
    <path class="st5" d="M352.09,157.26v73.23h73.23v-73.23h-73.23ZM421.87,227h-66.33v-66.29h66.33v66.29Z"/>
    <rect class="st4" x="375.46" y="180.63" width="26.49" height="26.49"/>
    <rect class="st9" x="425.32" y="157.26" width="2.83" height="73.24"/>
    <rect class="st12" x="355.54" y="254.9" width="66.33" height="66.33"/>
    <rect class="st4" x="362.9" y="263.94" width="36.4" height="21.76"/>
    <path class="st5" d="M352.09,251.45v73.23h73.23v-73.23h-73.23ZM421.87,321.23h-66.33v-66.33h66.33v66.33Z"/>
    <rect class="st9" x="375.46" y="274.82" width="26.49" height="26.49"/>
    <rect class="st9" x="425.32" y="251.45" width="2.83" height="73.24"/>
    <rect class="st4" x="57.05" y="131.7" width="157.8" height="9.37"/>
    <rect class="st4" x="193.5" y="141.07" width="9.37" height="30.99"/>
    <rect class="st5" x="193.5" y="141.07" width="9.37" height="9.58"/>
    <rect class="st4" x="69.03" y="141.07" width="9.37" height="30.99"/>
    <rect class="st5" x="69.03" y="141.07" width="9.37" height="9.58"/>
    <rect class="st9" x="159.93" y="71.99" width="15.04" height="59.72"/>
    <rect class="st5" x="159.93" y="68.79" width="15.04" height="6.56"/>
    <rect class="st5" x="159.94" y="83.77" width="15.04" height="2.44"/>
    <rect class="st5" x="158.06" y="117.3" width="16.91" height="6.56"/>
    <rect class="st5" x="149.42" y="62.05" width="10.51" height="69.66"/>
    <rect class="st4" x="151.56" y="68.6" width="6.31" height="26.79"/>
    <rect class="st9" x="68.29" y="98.25" width="69.66" height="10.51" transform="translate(-42.98 102.39) rotate(-44.67)"/>
    <rect class="st5" x="86.09" y="103.9" width="26.79" height="6.31" transform="translate(-46.53 100.86) rotate(-44.67)"/>
    <rect class="st10" x="131.58" y="78.8" width="17.85" height="52.91"/>
    <rect class="st9" x="131.58" y="121.17" width="17.85" height="4.93"/>
    <rect class="st9" x="131.58" y="116.02" width="17.85" height="1.91"/>
    <rect class="st10" x="174.97" y="81.99" width="12.33" height="49.73"/>
    <rect class="st9" x="174.97" y="121.81" width="12.33" height="4.63"/>
    <rect class="st9" x="174.97" y="92.24" width="12.33" height="4.63"/>
    <rect class="st9" x="174.97" y="100.05" width="12.33" height="1.8"/>
    <rect class="st4" x="362.2" y="313.54" width="85.34" height="100.8"/>
    <rect class="st9" x="329.77" y="313.54" width="32.43" height="100.8"/>
    <polygon class="st9" points="447.54 375.08 362.2 375.08 428.85 377.11 447.54 375.08"/>
    <polygon class="st9" points="362.2 404.85 447.54 404.85 380.89 406.87 362.2 404.85"/>
    <polygon class="st9" points="447.54 353.14 393.48 353.14 441.54 354.79 447.54 353.14"/>
    <polygon class="st9" points="362.2 393.3 416.26 393.3 368.2 394.95 362.2 393.3"/>
    <polygon class="st9" points="362.2 340.46 416.26 340.46 368.2 342.11 362.2 340.46"/>
    <polygon class="st9" points="427.07 344.4 366.1 344.4 376.26 345.39 427.07 344.4"/>
    <polygon class="st9" points="439.24 383.5 378.28 383.5 388.44 384.49 439.24 383.5"/>
    <polygon class="st9" points="447.48 324.64 386.51 324.64 396.68 325.63 447.48 324.64"/>
    <polygon class="st4" points="401.75 360.62 362.2 360.62 355.14 363.26 401.75 360.62"/>
    <polygon class="st4" points="392.22 386.94 352.67 386.94 345.61 389.58 392.22 386.94"/>
    <polygon class="st4" points="400.92 398.54 361.37 398.54 354.3 401.18 400.92 398.54"/>
    <polygon class="st4" points="400.92 329.79 361.37 329.79 354.3 332.43 400.92 329.79"/>
    <polygon class="st5" points="458.43 360.62 418.88 360.62 411.82 363.26 458.43 360.62"/>
    <polygon class="st4" points="408.05 331.11 447.6 331.11 454.66 333.75 408.05 331.11"/>
    <polygon class="st4" points="405.55 391.98 445.1 391.98 452.17 394.62 405.55 391.98"/>
    <polygon class="st5" points="407.69 395.9 447.23 395.9 454.3 398.54 407.69 395.9"/>
    <polygon class="st9" points="362.2 386.94 330.44 386.94 323.38 389.58 362.2 386.94"/>
    <polygon class="st9" points="351.12 375.08 326.49 375.08 329.77 372.93 351.12 375.08"/>
  </g>
  <g id="freepik--Table--inject-3">
    <path class="st8" d="M45.75,414.34c130.86-.61,277.64-.62,408.5,0-130.86.61-277.64.61-408.5,0Z"/>
  </g>
  <g id="freepik--Sheets--inject-3">
    <polygon class="st5" points="318.87 433.68 360.04 423.56 412.35 430.85 369.4 441.72 318.87 433.68"/>
    <path class="st5" d="M318.87,433.68l41.13-10.27s52.34,7.22,52.39,7.19l1.27.18-1.25.31-43,10.8s-50.51-8.22-50.54-8.21ZM318.87,433.68s50.78,7.88,50.49,7.87l42.93-10.94v.49s-52.5-7.4-52.24-7.39l-41.21,10,.03-.03h0Z"/>
    <path class="st9" d="M367.76,438.9c2.54-.78,5.15-1.5,7.77-2.22s5.28-1.41,8-2.09,5.37-1.34,8.11-2l4.12-.95c1.4-.3,2.77-.61,4.19-.89-1.26.39-2.56.75-3.84,1.13l-3.97,1.12c-2.61.72-5.28,1.4-7.95,2.08s-5.38,1.35-8.12,2-5.48,1.24-8.31,1.82h0Z"/>
    <path class="st9" d="M374.57,434.78c2.91-1,6-1.84,9.21-2.66s6.45-1.56,9.92-2.18c-2.91,1-6,1.85-9.21,2.67s-6.49,1.56-9.92,2.17h0Z"/>
    <path class="st9" d="M355.36,437.25c2.53-.78,5.14-1.5,7.76-2.22s5.29-1.4,7.95-2.09,5.38-1.34,8.12-2l4.12-1c1.39-.3,2.77-.62,4.19-.9-1.26.39-2.57.76-3.85,1.14l-3.91,1.08c-2.62.72-5.29,1.41-8,2.09s-5.37,1.34-8.11,2-5.45,1.32-8.27,1.9h0Z"/>
    <path class="st9" d="M353.77,435.26c4.31-1.35,8.84-2.55,13.41-3.72s9.25-2.27,14.12-3.24c-4.31,1.35-8.83,2.55-13.41,3.72s-9.25,2.27-14.12,3.24Z"/>
    <path class="st9" d="M359.16,431.51c2.37-.87,5-1.58,7.61-2.26s5.39-1.3,8.32-1.78c-2.37.87-5,1.58-7.61,2.26s-5.39,1.27-8.32,1.78Z"/>
    <polygon class="st4" points="109.95 454.31 167.09 443.49 222.21 459.6 165.37 470.8 109.95 454.31"/>
    <path class="st5" d="M110,454.31l57.13-11,55.19,16,1,.29-1,.19-56.96,11.21-55.36-16.69h0ZM110,454.31s55.7,16.38,55.38,16.33l56.82-11.28v.48s-55.35-16.24-55-16.18l-57.2,10.65h0Z"/>
    <path class="st5" d="M164.57,467.52c3.72-.86,7.49-1.67,11.27-2.46s7.58-1.56,11.39-2.32,7.64-1.49,11.49-2.19l5.79-1.06c1.94-.33,3.87-.68,5.83-1-1.86.44-3.74.84-5.61,1.26l-5.66,1.2c-3.77.8-7.58,1.56-11.39,2.32s-7.64,1.49-11.5,2.19-7.71,1.42-11.61,2.06h0Z"/>
    <path class="st5" d="M179.21,461.78c4.07-1,8.28-1.93,12.52-2.78s8.55-1.62,13-2.24c-4.07,1.05-8.28,1.93-12.52,2.78s-8.57,1.62-13,2.24Z"/>
    <path class="st5" d="M158.94,462.93c3.25-.77,6.55-1.48,9.86-2.19s6.64-1.37,10-2,6.7-1.3,10.09-1.91l5.08-.91c1.71-.29,3.4-.59,5.13-.86-1.62.39-3.27.74-4.91,1.12l-4.95,1.06c-3.31.71-6.65,1.38-10,2s-6.7,1.31-10.09,1.92-6.78,1.22-10.21,1.77Z"/>
    <path class="st5" d="M156.28,460.6c3-.72,6.06-1.38,9.12-2s6.14-1.27,9.24-1.89,6.2-1.21,9.34-1.77l4.71-.84c1.59-.26,3.16-.54,4.76-.78-1.5.36-3,.7-4.54,1.05l-4.58,1c-3.06.65-6.15,1.27-9.24,1.89s-6.21,1.21-9.35,1.77-6.27,1.07-9.46,1.57h0Z"/>
    <path class="st5" d="M142,460.56c3.72-.87,7.5-1.67,11.27-2.46s7.59-1.56,11.39-2.32,7.64-1.49,11.5-2.2l5.78-1.05c2-.33,3.88-.68,5.84-1-1.86.43-3.75.84-5.61,1.26l-5.66,1.2c-3.78.8-7.59,1.56-11.4,2.32s-7.64,1.48-11.49,2.19-7.62,1.42-11.62,2.06h0Z"/>
    <path class="st5" d="M141.57,457.8c3.29-.78,6.63-1.5,10-2.21s6.72-1.39,10.1-2.06,6.78-1.32,10.21-1.94l5.14-.92c1.73-.29,3.44-.6,5.19-.87-1.65.39-3.32.75-5,1.13l-5,1.07c-3.35.72-6.73,1.39-10.11,2.07s-6.78,1.32-10.2,1.93-6.85,1.24-10.33,1.8h0Z"/>
    <path class="st5" d="M130.78,457.07c3.72-.86,7.49-1.66,11.27-2.46s7.58-1.56,11.39-2.31,7.64-1.49,11.5-2.2l5.78-1.05c1.95-.33,3.88-.68,5.83-1-1.85.43-3.74.84-5.61,1.26l-5.66,1.2c-3.77.8-7.58,1.56-11.39,2.31s-7.64,1.49-11.49,2.2-7.71,1.41-11.62,2.05h0Z"/>
    <path class="st5" d="M143.87,451.65c4.33-1.1,8.8-2,13.3-2.94s9.07-1.72,13.75-2.39c-4.33,1.1-8.8,2-13.3,2.93s-9.06,1.75-13.75,2.4h0Z"/>
    <polygon class="st4" points="244 448.96 316.6 435.21 386.65 455.68 314.41 469.92 244 448.96"/>
    <path class="st5" d="M244,449l72.6-14s70.09,20.41,70.12,20.4l1,.29-1,.2-72.32,14.2s-70.35-21.09-70.4-21.09h0ZM244,449s70.72,20.85,70.38,20.79l72.22-14.31v.48s-70.28-20.59-69.95-20.54l-72.65,13.58h0Z"/>
    <path class="st5" d="M313.39,465.75c4.73-1.1,9.52-2.12,14.33-3.13s9.63-2,14.47-2.95,9.71-1.89,14.61-2.78l7.35-1.34c2.47-.42,4.92-.86,7.41-1.26-2.36.55-4.75,1.06-7.13,1.6l-7.19,1.52c-4.8,1-9.64,2-14.48,2.95s-9.71,1.89-14.6,2.78-9.8,1.79-14.77,2.61h0Z"/>
    <path class="st5" d="M332,458.46c5.18-1.33,10.53-2.46,15.92-3.54s10.86-2.05,16.48-2.85c-5.17,1.34-10.52,2.46-15.91,3.54s-10.86,2.05-16.49,2.85h0Z"/>
    <path class="st5" d="M306.24,459.91c4.13-1,8.33-1.88,12.53-2.77s8.44-1.75,12.69-2.59,8.51-1.66,12.82-2.44l6.45-1.16c2.18-.36,4.33-.75,6.52-1.09-2.06.5-4.16.95-6.24,1.43l-6.29,1.35c-4.2.9-8.45,1.74-12.69,2.59s-8.52,1.66-12.82,2.43-8.6,1.56-12.97,2.25Z"/>
    <path class="st5" d="M302.86,457c3.82-.92,7.7-1.76,11.59-2.59s7.81-1.62,11.74-2.41,7.89-1.53,11.87-2.25l6-1.06c2-.33,4-.69,6-1-1.9.47-3.84.89-5.76,1.33l-5.82,1.26c-3.89.84-7.82,1.62-11.75,2.41s-7.88,1.53-11.87,2.24-7.95,1.39-12,2.07h0Z"/>
    <path class="st5" d="M284.77,456.9c4.73-1.1,9.52-2.12,14.32-3.13s9.64-2,14.48-2.94,9.71-1.9,14.61-2.79l7.35-1.34c2.47-.42,4.92-.86,7.41-1.26-2.36.55-4.76,1.06-7.13,1.6l-7.19,1.53c-4.8,1-9.64,2-14.48,2.94s-9.71,1.89-14.61,2.79-9.79,1.78-14.76,2.6Z"/>
    <path class="st5" d="M284.17,453.4c4.18-1,8.43-1.91,12.68-2.81s8.55-1.76,12.84-2.62,8.62-1.68,13-2.46l6.53-1.18c2.2-.37,4.38-.76,6.59-1.1-2.08.5-4.21,1-6.31,1.44l-6.4,1.33c-4.25.91-8.54,1.77-12.84,2.62s-8.61,1.68-13,2.47-8.67,1.6-13.09,2.31Z"/>
    <path class="st5" d="M270.46,452.48c4.73-1.1,9.52-2.12,14.32-3.13s9.64-2,14.48-3,9.7-1.89,14.6-2.78l7.35-1.34c2.48-.42,4.93-.86,7.42-1.26-2.36.55-4.76,1.06-7.13,1.6l-7.19,1.52c-4.8,1-9.64,2-14.48,2.95s-9.71,1.89-14.61,2.78-9.79,1.84-14.76,2.66h0Z"/>
    <path class="st5" d="M287.09,445.58c5.51-1.4,11.18-2.59,16.9-3.73s11.52-2.19,17.48-3.05c-5.5,1.4-11.18,2.59-16.9,3.73s-11.52,2.19-17.48,3.05Z"/>
    <path class="st12" d="M104.44,425.75l92.44,28.57,67.85-6.44,32.87-.8,23.71-3.18,69.7-3.53-93.47-24.73s-57.85-.3-60.55-.13-28.37,2.83-28.37,2.83c0,0-35.82.39-38.26.57s-65.92,6.84-65.92,6.84h0Z"/>
    <path class="st8" d="M104.44,425.75s92.57,28.51,92.44,28.49l67.85-6.5,32.85-.83,23.7-3.2,69.72-3.59-.05.49-93.4-24.8-44.55-.22c-3.89.1-12.93-.18-16.69.1l-27.7,2.74-35.93.5c-11.59.65-56,5.73-68.25,6.82h.01,0ZM104.44,425.75c12.57-1.16,56.59-6.24,68.25-6.93l35.93-.58c4.18-.43,24-2.4,27.69-2.78s12.85-.07,16.7-.12l44.53.13s93.48,24.66,93.53,24.66l1.56.41-1.61.08-69.69,3.47-23.72,3.16-32.87.78-67.85,6.37s-92.42-28.64-92.45-28.65h0Z"/>
    <polygon class="st5" points="208.62 418.33 219.91 421.85 231.12 425.39 253.44 432.54 275.61 439.77 286.64 443.41 297.6 447.08 286.31 443.57 275.1 440.02 252.78 432.87 230.61 425.65 219.58 422.01 208.62 418.33"/>
    <path class="st5" d="M182,443.61c6.42-.81,12.87-1.59,19.36-2.33,6.47-.77,13-1.47,19.5-2.2,3.25-.36,6.53-.69,9.84-1,.86-.09,1.75-.14,2.61-.16l2.58-.08,5.18-.16c6.91-.17,13.83-.33,20.78-.43-6.85.3-13.72.55-20.59.8l-5.16.18c-1.69.08-3.48.09-5,.26-3.27.32-6.52.69-9.79,1l-19.6,2.09c-6.55.7-13.1,1.42-19.71,2.03Z"/>
    <path class="st5" d="M206.67,437.64c6.59-.84,11.94-1.76,15.35-2.09.88-.08,1.8-.13,2.68-.16l2.66-.09,5.31-.15c7.11-.18,14.22-.35,21.36-.46-7,.32-14.1.57-21.16.84l-5.3.18c-1.74.09-3.58.1-5.17.27-3.4.33-8.97,1.02-15.73,1.66Z"/>
    <path class="st5" d="M198.9,435.41c6.6-.84,11.95-1.76,15.36-2.09.88-.08,1.8-.13,2.68-.15l2.66-.09,5.31-.16c7.11-.18,14.22-.35,21.36-.45-7,.31-14.11.56-21.16.83l-5.3.19c-1.74.08-3.58.09-5.17.26-3.37.33-8.97.99-15.74,1.66h0Z"/>
    <path class="st5" d="M191.14,433.18c6.6-.84,12-1.75,15.36-2.08.88-.09,1.79-.14,2.68-.16l2.65-.09,5.32-.16c7.11-.18,14.21-.35,21.35-.45-7,.31-14.1.57-21.15.83l-5.3.19c-1.74.08-3.58.09-5.17.26-3.37.33-8.97.99-15.74,1.66Z"/>
    <path class="st5" d="M188.5,445.64c6.21-.81,12.47-1.58,18.74-2.33s12.59-1.48,18.89-2.2c3.15-.37,6.33-.71,9.52-1,.81-.08,1.59-.16,2.46-.23s1.69-.07,2.53-.1l5-.16c6.72-.17,13.45-.32,20.21-.41-6.66.3-13.34.54-20,.79l-5,.18c-.83,0-1.68.06-2.46.12s-1.56.15-2.35.23l-9.49,1c-6.34.68-12.64,1.42-19,2.09s-12.67,1.38-19.05,2.02h0Z"/>
    <path class="st5" d="M194.93,447.39c6.34-.71,12.71-1.37,19.1-2,6.37-.67,12.8-1.27,19.21-1.9,3.23-.31,6.39-.62,9.74-.86l10-.52c6.66-.31,13.31-.63,20-.89-6.56.47-13.15.87-19.75,1.27l-9.92.56c-3.18.24-6.41.58-9.63.87-6.45.58-12.85,1.22-19.31,1.79s-12.95,1.13-19.44,1.68h0Z"/>
    <path class="st5" d="M290,440.63c5.56-.71,11.19-1.34,16.9-1.89,1.43-.13,2.85-.28,4.3-.4.73-.06,1.45-.12,2.23-.16l2.23-.1,8.91-.39c5.93-.27,11.88-.49,17.83-.74s11.9-.47,17.86-.69c-5.89.32-11.79.63-17.71.93-5.92.29-11.83.59-17.76.86l-8.89.42-2.22.1c-.68,0-1.41.11-2.12.17l-4.3.38c-5.7.53-11.43,1.05-17.26,1.51Z"/>
    <path class="st5" d="M283.79,438.35c5.65-.51,11.35-.97,17.11-1.36,2.89-.2,5.73-.42,8.74-.52l8.82-.35c5.88-.24,11.78-.45,17.67-.67s11.8-.42,17.72-.61c-5.84.29-11.69.57-17.56.84s-11.73.53-17.6.79l-8.81.37c-1.46.05-2.86.16-4.32.24l-4.34.27c-5.77.37-11.58.71-17.43,1h0Z"/>
    <path class="st5" d="M277.78,436.3c5.74-.51,11.54-1,17.39-1.37,2.94-.2,5.83-.42,8.84-.57l9-.27c6-.18,12.05-.33,18.08-.49s12.07-.3,18.12-.43c-6,.24-12,.47-18,.68s-12,.42-18,.61c-3,.1-6,.18-9,.29l-8.8.54c-5.81.38-11.68.72-17.63,1.01h0Z"/>
    <path class="st5" d="M272.62,434.75c5.45-.81,11-1.48,16.73-2.07l2.17-.2c.74-.06,1.53-.09,2.28-.11l4.49-.12,9-.23c12-.28,24-.53,36-.74-11.93.41-23.88.78-35.84,1.11l-9,.26-4.48.13c-1.5,0-2.81.19-4.27.32-5.65.54-11.3,1.16-17.08,1.65h0Z"/>
    <path class="st5" d="M267,432.88c5.42-.82,11-1.49,16.67-2.1l2.16-.2c.74-.06,1.53-.09,2.27-.11l4.48-.13,9-.24c11.95-.29,23.92-.55,35.91-.77-11.89.42-23.8.8-35.73,1.15l-8.94.26-4.46.14c-1.5,0-2.81.2-4.26.32-5.74.56-11.36,1.19-17.1,1.68h0Z"/>
    <path class="st5" d="M261.33,431c5.43-.82,11-1.5,16.67-2.11l2.17-.2c.73-.06,1.53-.09,2.27-.11l4.47-.13,9-.24c11.96-.29,23.93-.55,35.91-.78-11.89.43-23.81.79-35.73,1.16l-8.94.26-4.46.14c-1.5,0-2.8.2-4.26.32-5.71.58-11.34,1.22-17.1,1.69h0Z"/>
    <path class="st5" d="M255.68,429.16c5.59-.84,11.33-1.54,17.17-2.15.73-.08,1.46-.15,2.22-.21s1.58-.09,2.34-.12l4.61-.12,9.22-.25c12.3-.29,24.63-.55,37-.78-12.24.43-24.5.82-36.77,1.17l-9.21.27-4.59.14c-1.54,0-2.88.2-4.38.33-5.88.56-11.67,1.22-17.61,1.72h0Z"/>
    <path class="st5" d="M248.36,427.5c5.59-.84,11.33-1.53,17.16-2.15l2.23-.2c.76-.07,1.58-.1,2.34-.12l4.61-.13,9.22-.24c12.3-.3,24.63-.56,37-.79-12.24.44-24.51.81-36.77,1.18l-9.21.26-4.59.15c-1.54,0-2.89.2-4.39.32-5.88.57-11.66,1.22-17.6,1.72h0Z"/>
    <path class="st5" d="M241.24,425.88c5.59-.84,11.32-1.54,17.16-2.15.73-.08,1.47-.15,2.23-.21s1.57-.1,2.34-.12l4.6-.13,9.22-.24c12.31-.3,24.64-.56,37-.78-12.24.43-24.5.82-36.78,1.17l-9.2.26-4.6.15c-1.54,0-2.88.2-4.38.33-5.83.56-11.66,1.21-17.59,1.72h0Z"/>
    <path class="st5" d="M235.59,424c5.58-.83,11.31-1.53,17.14-2.14.73-.08,1.46-.15,2.22-.21s1.57-.1,2.34-.11l4.62-.11,9.23-.17c12.33-.21,24.67-.38,37-.52-12.27.34-24.56.64-36.85.9l-9.21.21-4.6.11c-1.53,0-2.88.2-4.37.33-5.81.57-11.59,1.22-17.52,1.71h0Z"/>
    <path class="st5" d="M230,422.15c5.57-.84,11.29-1.53,17.1-2.14.73-.08,1.46-.15,2.22-.21s1.57-.1,2.35-.11l4.63-.07,9.25-.11c12.34-.11,24.7-.18,37.07-.21-12.29.24-24.6.44-36.92.6l-9.24.13-4.6.08c-1.5,0-2.87.2-4.35.33-5.88.56-11.65,1.21-17.51,1.71h0Z"/>
    <path class="st5" d="M224.3,420.29c5.56-.84,11.27-1.53,17.07-2.14.73-.08,1.46-.15,2.22-.21s1.56-.1,2.35-.11h13.92c6.18,0,12.38.06,18.57.1s12.38.11,18.58.19c-12.33.06-24.67.09-37,.09h-13.87c-1.48,0-2.86.2-4.33.32-5.81.61-11.6,1.26-17.51,1.76h0Z"/>
    <path class="st5" d="M201.46,449.91c6.48-.67,12.98-1.28,19.51-1.85,6.51-.6,13.07-1.14,19.61-1.71,3.28-.28,6.53-.54,9.9-.78l10-.6c6.68-.38,13.37-.75,20.1-1.07-6.59.52-13.22,1-19.85,1.43l-10,.65c-3.25.24-6.54.55-9.82.8l-19.7,1.61c-6.55.52-13.13,1.04-19.75,1.52h0Z"/>
    <path class="st5" d="M294.64,442.77c5.9-.5,11.82-.97,17.77-1.4,5.94-.46,11.91-.87,17.88-1.3,3-.21,5.95-.41,9-.58l9.1-.42c6.08-.27,12.16-.53,18.28-.74-6,.39-12,.72-18.07,1.05l-9.07.47c-3,.17-6,.41-9,.6l-17.94,1.2c-5.95.39-11.93.77-17.95,1.12h0Z"/>
  </g>
  <g id="freepik--Character--inject-3">
    <path class="st13" d="M220.06,244.34c33.67,60.94,64.74,116.93,60.11,134.56-11,41.91-37.49,34.57-41.48,32.88-27.22-11.55-48.45-105.54-52-154.47-3.23-43.66,15.41-45.49,33.37-12.97h0Z"/>
    <path class="st1" d="M245.71,302.72c-2.44.01-4.41,2-4.4,4.44,0,2.44,2,4.41,4.44,4.4s4.41-2,4.4-4.44c-.02-2.44-2-4.4-4.44-4.4ZM245.71,310.11c-1.66,0-3-1.34-3-3h0c0-1.66,1.34-3,3-3s3,1.34,3,3-1.34,3-3,3h0ZM245.71,348.45c-2.44.01-4.41,2-4.4,4.44,0,2.44,2,4.41,4.44,4.4s4.41-2,4.4-4.44c-.02-2.44-2-4.4-4.44-4.4ZM245.71,355.84c-1.66,0-3-1.34-3-3h0c0-1.66,1.34-3,3-3s3,1.34,3,3-1.34,3-3,3h0ZM245.71,394.18c-2.45,0-4.43,1.99-4.42,4.44,0,2.45,1.99,4.43,4.44,4.42,2.45,0,4.43-1.99,4.42-4.44v-.06c-.04-2.42-2.02-4.37-4.44-4.36h0ZM245.71,401.57c-1.66,0-3-1.34-3-3s1.34-3,3-3,3,1.34,3,3-1.34,3-3,3h0ZM277.62,378.73c-1.66,0-3-1.34-3-3s1.34-3,3-3c1.43-.01,2.67.96,3,2.35.02-.9-.02-1.81-.11-2.71h0c-.81-.66-1.83-1.01-2.88-1-2.44.12-4.33,2.19-4.21,4.64.11,2.28,1.93,4.11,4.21,4.21.85,0,1.69-.24,2.41-.7,0-.18.09-.36.14-.54.19-.73.32-1.48.38-2.24-.44,1.23-1.63,2.04-2.94,1.99h0ZM216.36,238.14c0,.13,0,.27,0,.4,0,1.66-1.34,3-3,3s-3-1.34-3-3,1.34-3,3-3h0c.53,0,1.05.13,1.51.4-.42-.61-.83-1.19-1.25-1.76h-.26c-2.45,0-4.43,1.99-4.43,4.43s1.99,4.43,4.43,4.43c1.89,0,3.56-1.2,4.18-2.98-.4-.68-.79-1.31-1.19-1.92h.01ZM213.36,279.87c-2.45,0-4.43,1.99-4.42,4.44,0,2.45,1.99,4.43,4.44,4.42,2.45,0,4.43-1.99,4.42-4.44v-.06c-.04-2.42-2.02-4.37-4.44-4.36h0ZM213.36,287.27c-1.66,0-3-1.34-3-3s1.34-3,3-3,3,1.34,3,3-1.34,3-3,3h0ZM213.36,325.6c-2.44.02-4.4,2-4.38,4.44s2,4.4,4.44,4.38c2.43-.02,4.39-1.99,4.38-4.42-.02-2.44-2-4.41-4.44-4.4h0ZM213.36,333c-1.66,0-3-1.34-3-3s1.34-3,3-3,3,1.34,3,3h0c0,1.66-1.34,3-3,3h0ZM213.36,371.29c-.61,0-1.22.13-1.78.39.16.44.33.88.51,1.31.4-.19.83-.29,1.27-.29,1.66-.08,3.06,1.21,3.13,2.86.06,1.37-.82,2.61-2.13,3.01.19.43.37.86.56,1.28,1.74-.64,2.89-2.31,2.88-4.16-.03-2.43-2.01-4.39-4.44-4.4h0Z"/>
    <path class="st0" d="M258.7,410.89c-6.29,2.93-13.48,3.25-20,.89-27.22-11.55-48.45-105.54-52-154.47-2.06-28.07,4.91-38.85,14.93-34.31l57.07,187.89Z"/>
    <path class="st13" d="M229.16,414.29l-180-.34c.48-4.06,49.11-153.9,98.6-194,19.7-15.94,49.63-5.8,57.41,6.36,18.07,28.24,11,136.89,13.54,149,2.97,14.19,10.45,38.98,10.45,38.98Z"/>
    <path class="st1" d="M185.4,213.68c-.81-.23-1.64-.45-2.48-.64,1.46.78,2.02,2.59,1.25,4.06-.53,1-1.58,1.62-2.72,1.59-1.66.06-3.05-1.23-3.11-2.89s1.23-3.05,2.88-3.11h0c-.82-.16-1.65-.3-2.49-.42h0c-1.05.82-1.66,2.08-1.67,3.41,0,2.44,1.97,4.42,4.42,4.42s4.42-1.97,4.42-4.42h0c0-.71-.17-1.39-.5-2.01h0ZM181.4,256.98c-2.45,0-4.43,1.99-4.42,4.44,0,2.45,1.99,4.43,4.44,4.42s4.43-1.99,4.42-4.44h0c-.03-2.41-1.98-4.36-4.39-4.39l-.05-.02h0ZM181.4,264.42c-1.66,0-3-1.34-3-3s1.34-3,3-3,3,1.34,3,3h0c0,1.64-1.31,2.97-2.95,3h-.05ZM181.4,302.72c-2.44.01-4.41,2-4.4,4.44,0,2.44,2,4.41,4.44,4.4s4.41-2,4.4-4.44c0-2.42-1.97-4.39-4.39-4.4h-.05ZM181.4,310.11c-1.66,0-3-1.34-3-3h0c0-1.68,1.36-3.04,3.04-3.04s3.04,1.36,3.04,3.04-1.34,3-3,3h-.08ZM181.4,348.45c-2.44.01-4.41,2-4.4,4.44,0,2.44,2,4.41,4.44,4.4s4.41-2,4.4-4.44c0-2.42-1.97-4.39-4.39-4.4h-.05ZM181.4,355.84c-1.66,0-3-1.34-3-3h0c0-1.68,1.36-3.04,3.04-3.04s3.04,1.36,3.04,3.04-1.34,3-3,3h-.08ZM181.4,394.18c-2.45,0-4.43,1.99-4.42,4.44,0,2.45,1.99,4.43,4.44,4.42,2.45,0,4.43-1.99,4.42-4.44v-.06c-.02-2.41-1.98-4.35-4.39-4.36h-.05ZM181.4,401.57c-1.66,0-3-1.34-3-3s1.34-3,3-3,3,1.34,3,3h0c0,1.64-1.31,2.97-2.95,3h-.05ZM210.64,239.92c-.18-.34-.29-.72-.31-1.1h0c-.25-.87-.51-1.7-.77-2.52-.42.68-.65,1.47-.65,2.27,0,1.68.92,3.23,2.41,4-.17-.95-.39-1.81-.63-2.65h-.05ZM216.55,281.27c-1.67-1.79-4.47-1.89-6.26-.22s-1.89,4.47-.22,6.26,4.47,1.89,6.26.22c.21-.2.4-.42.57-.65-.06-1.88-.17-3.75-.3-5.61h-.05ZM213.31,287.27c-1.66,0-3-1.34-3-3s1.34-3,3-3,3,1.34,3,3-1.31,2.97-2.95,3h-.05ZM213.31,325.6c-2.44.04-4.37,2.05-4.33,4.49s2.05,4.37,4.49,4.33c2.41-.04,4.34-2.01,4.33-4.42-.02-2.44-2-4.41-4.44-4.4h-.05ZM213.31,333c-1.66,0-3-1.34-3-3s1.34-3,3-3,3,1.34,3,3h0c0,1.64-1.31,2.97-2.95,3h-.05ZM213.31,371.29c-2.45,0-4.43,1.99-4.42,4.44,0,2.45,1.99,4.43,4.44,4.42,2.45,0,4.43-1.99,4.42-4.44v-.02c-.04-2.41-1.98-4.36-4.39-4.4h-.05ZM213.31,378.73c-1.66,0-3-1.34-3-3s1.34-3,3-3,3,1.34,3,3h0c0,1.64-1.31,2.97-2.95,3h-.05ZM117.36,257c-.32.49-.63,1-.94,1.49.24-.06.48-.09.72-.09,1.66,0,3,1.34,3,3s-1.34,3-3,3h0c-1.4,0-2.62-.98-2.92-2.35l-.89,1.48c.76,1.39,2.22,2.27,3.81,2.28,2.44.06,4.47-1.87,4.53-4.31s-1.87-4.47-4.31-4.53v.03ZM117.14,302.73c-2.44,0-4.42,1.98-4.42,4.42s1.98,4.41,4.42,4.42c2.44,0,4.42-1.97,4.42-4.42s-1.97-4.42-4.42-4.42h0ZM117.14,310.12c-1.66,0-3-1.34-3-3h0c0-1.68,1.36-3.04,3.04-3.04s3.03,1.36,3.03,3.04-1.35,3-3.01,2.99h-.06ZM117.14,348.46c-2.44,0-4.42,1.98-4.42,4.42s1.98,4.41,4.42,4.42c2.44,0,4.42-1.97,4.42-4.42s-1.97-4.42-4.42-4.42h0ZM117.14,355.85c-1.66,0-3-1.34-3-3s1.36-3.04,3.04-3.04,3.03,1.36,3.03,3.04-1.35,3-3.01,2.99h-.06ZM117.14,394.19c-2.44.12-4.33,2.19-4.21,4.64.11,2.28,1.93,4.11,4.21,4.21,2.44.12,4.52-1.77,4.64-4.21s-1.77-4.52-4.21-4.64h-.43ZM117.14,401.58c-1.66,0-3-1.34-3-3s1.34-3,3-3,3,1.34,3,3-1.34,3-3,3h0ZM149.14,234.15c-2.45,0-4.43,1.99-4.42,4.44,0,2.45,1.99,4.43,4.44,4.42,2.45,0,4.43-1.99,4.42-4.44v-.02c0-2.44-1.99-4.42-4.43-4.41h-.05.04ZM149.14,241.55c-1.66,0-3-1.34-3-3h0c0-1.68,1.36-3.04,3.04-3.04s3.04,1.36,3.04,3.04-1.35,3-3.01,2.99h-.1.04,0ZM149.14,279.88c-2.45,0-4.43,1.99-4.42,4.44,0,2.45,1.99,4.43,4.44,4.42,2.45,0,4.43-1.99,4.42-4.44v-.06c-.02-2.44-2.01-4.39-4.45-4.37h-.03.04ZM149.14,287.28c-1.66,0-3-1.34-3-3s1.34-3,3-3,3,1.34,3,3h0c0,1.66-1.35,3-3.01,2.99h-.03.04ZM149.14,325.61c-2.44.02-4.4,2-4.38,4.44s2,4.4,4.44,4.38,4.4-2,4.38-4.44v-.02c-.02-2.44-2.01-4.39-4.45-4.37h-.03.04ZM149.14,333.01c-1.66,0-3-1.34-3-3s1.34-3,3-3,3,1.34,3,3-1.35,3-3.01,2.99h-.03.04ZM149.14,371.3c-2.45,0-4.43,1.99-4.42,4.44,0,2.45,1.99,4.43,4.44,4.42,2.45,0,4.43-1.99,4.42-4.44v-.02c-.02-2.45-2.03-4.43-4.48-4.41h.04ZM149.14,378.74c-1.66,0-3-1.34-3-3s1.34-3,3-3,3,1.34,3,3h0c0,1.66-1.35,3-3.01,2.99h-.03.04ZM55.24,394.86l-.46,1.34c1.3,1.02,1.53,2.91.51,4.21-.56.71-1.41,1.13-2.31,1.15h0c-.16.5-.32,1-.48,1.45h.39c2.46,0,4.45-1.99,4.45-4.45v-.04c0-1.5-.81-2.89-2.1-3.66h0ZM84.79,325.6c-1.26,0-2.46.56-3.28,1.51h0l-1,2.44h0v.39c-.02,2.43,1.93,4.42,4.36,4.45,2.43.12,4.5-1.76,4.61-4.2.12-2.43-1.76-4.5-4.2-4.61h-.42l-.08.02h0ZM84.79,333c-1.66,0-3-1.34-3-3s1.34-3,3-3,3,1.34,3,3-1.34,3-3,3ZM84.79,371.29c-2.45.03-4.4,2.04-4.37,4.49.03,2.45,2.04,4.4,4.49,4.37,2.43-.03,4.39-2.02,4.37-4.46-.05-2.44-2.04-4.4-4.49-4.4ZM84.79,378.73c-1.66,0-3-1.34-3-3s1.34-3,3-3,3,1.34,3,3-1.34,3-3,3Z"/>
    <path class="st6" d="M185.51,258.18c-11.36-2.84-20.74-27.28-21.13-43.35,0-1.11,6-9.48,12.78-20,4.11-6.4,8.53-13.63,12.08-20.51.76-1.43,37.76,32.78,37.76,32.78,0,0-11.7,12.24-17.82,24.28-.48.96-.87,1.97-1.16,3-.06.14-.1.32-.18.5-1.9,5.8-11.35,26.03-22.33,23.3Z"/>
    <path class="st8" d="M191.8,175.86c-4,12.67-11.29,44.53,11.48,57,1.45.79,2.97,1.46,4.54,2,.08-.16.15-.33.19-.5.3-1.03.69-2.03,1.15-3,6.14-12.04,17.84-24.27,17.84-24.27,0,0-26.71-24.68-35.2-31.23h0Z"/>
    <path class="st6" d="M211.35,120c-13.19,12.26-30.31,59.89-25.28,75.64,7.29,22.84,31.68,38.77,54.23,27.16,21.85-11.26,43.06-73.72,36.28-89.32-9.99-23.01-45.73-31.64-65.23-13.48h0Z"/>
    <path class="st8" d="M276.36,153c-21.41,5.4-38.23-21-38.23-21-10.44,11.32-23.19,4.78-23.19,4.78,0,0-14.06,27.68-21.65,24.8-11.59-4.37-.6-45.12,5.93-51.52s17.12-4.73,17.12-4.73c0,0,2.94-5.74,12.15-8.57,10.18-3.08,34.51,15.24,34.51,15.24,2.92-3.08,6.52-5.43,10.51-6.87,4.27-1.55,8.39.61,10,4.77-2.25,1.6-4.1,3.68-5.43,6.1-4.5,8,2.42,10.51,5.2,2.81,1.14-2.85,1.22-6.01.23-8.91,5.26-3.75,11.44-3.32,13.83.62,4.34,7.13-3.17,38.03-20.98,42.48h0Z"/>
    <path class="st8" d="M216.69,127.09c.05-.22-.09-.43-.3-.48-.22-.05-.43.09-.48.3,0,.03,0,.06,0,.1-1.12,6.17-2.23,12.42-4.8,18.22s-11,19.23-18.79,14.41c-.17-.09-.38-.03-.48.14-.07.13-.05.3.06.41,4.54,4.7,11-1,14.61-5.23,6.58-7.7,9.12-18.06,10.19-27.87h-.01Z"/>
    <path class="st8" d="M297,110c0-.07-.13,0-.11,0,4.69,14.53.91,31.33-11.81,40.7-16,11.78-33-5.92-42.92-17.13-.48-.55-1.39.12-.91.69,9.48,11.29,27,28.65,42.92,18.46,14.25-9.09,18.58-27.59,12.83-42.72Z"/>
    <path class="st8" d="M218.8,106.27c-11.86-3-22-.63-27.61,11s-5.49,26.13-.45,37.88c.1.25.38.36.62.26s.36-.38.26-.62c-3.07-9.54-4.39-19.29-2-29.17,1.78-7.31,5.5-14.82,12.44-18.46,5-2.62,11.41-1.32,16.66-.46.27.09.36-.36.07-.43h0Z"/>
    <path class="st8" d="M265.52,115.69c-11-14-36.14-32.68-49-10.41-.1.18.2.37.32.19,14.24-21.81,36.09-1.57,48.17,10.73.29.29.76-.2.51-.51h0Z"/>
    <path class="st6" d="M203.08,162.38s-2.08-19.54-10.38-19.57-12.24,24.49-6.28,31.44c2.88,3.86,8.34,4.66,12.2,1.78.1-.07.19-.15.29-.22l4.17-13.43h0Z"/>
    <path class="st8" d="M191.75,149.87c-.11-.08-.23.08-.15.18,4.08,5,4.15,11.45,3.29,17.58-.49-2.81-2-5.06-5.67-4.64-.19,0-.17.31,0,.36,2.41.73,3.76,2,4.26,4.5.25,1.84.3,3.7.16,5.55,0,.6,1,.82,1.1.18v-.14c3.86-6.64,3.84-18.91-2.99-23.57Z"/>
    <path class="st8" d="M265.24,171.3c-.79-.89-1.62-1.73-2.5-2.53-1-1-1.65-1.83-3.05-2.1-.83-.07-1.6.43-1.88,1.21-.49,1.67.41,3.14,1.53,4.35,1.09,1.25,2.61,2.05,4.26,2.25,1.1,0,2.01-.87,2.03-1.97,0-.43-.13-.86-.39-1.21Z"/>
    <path class="st8" d="M230.93,161c1.17-.2,2.35-.34,3.54-.42,1.36-.14,2.42-.4,3.69.26.69.47.98,1.34.71,2.13-.66,1.6-2.28,2.19-3.91,2.44-1.63.3-3.32-.03-4.73-.9-.87-.68-1.03-1.93-.35-2.81.27-.34.64-.59,1.05-.7h0Z"/>
    <path class="st8" d="M217.18,199.1c.37,1.12.59,2.51,1.67,3.19,1.17.59,2.44.93,3.75,1,.07,0,.12.05.12.12,0,.05-.03.09-.07.11-1.56.77-3.41.63-4.83-.37-1.28-1-1.34-2.57-1-4,.04-.27.31-.21.36-.05h0Z"/>
    <path class="st8" d="M226.78,195.42c6.17.73,9.26,2.76,12.5,4.36.4.07,1.35.1,1.54-.24h0l2.2-7c.76.78,4.69,4.5,5.07,3.16,3.12-11.05,6.58-23.34,7.34-35,0-.18-.12-.33-.3-.34-.14,0-.27.08-.32.21-3.41,10.5-4.95,21.54-8.21,32.14-1.3-1.08-3.36-3-4.68-3.4-.39,0-2,7.56-2.46,8.64-3.79-2.54-8.35-3.69-12.89-3.24-1.75.1-2.04.45.21.71h0Z"/>
    <path class="st8" d="M231.08,202.11c1.72.2,6.81-4.55,4.49-6.13s-8.87-2.77-12.78-.06c-3.42,2.38,5.08,3.51,6,4.57.82.89,1.06,1.51,2.29,1.62Z"/>
    <path class="st14" d="M228.82,200.5c.18.21.31.38.45.52,1-1.85.67-4.77-2.73-6.54-1.34.19-2.62.68-3.75,1.43-3.41,2.38,5.08,3.53,6.03,4.59Z"/>
    <path class="st8" d="M235,172.64c0-.13-.31.1-.34.24-.76,3.45-2.2,7.28-5.59,7.63-.1,0-.14.19,0,.2,3.87.42,5.74-4.71,5.93-8.07h0Z"/>
    <path class="st8" d="M234.13,176.38c-.39.89-1.01,1.66-1.8,2.22-.91.59-2.01.77-3.06.5-1.07-.3-1.93-1.08-2.33-2.12-.32-.9-.43-1.85-.32-2.8.06-.56.17-1.12.32-1.67.29-1.15.85-2.21,1.62-3.1-.27.81-.45,1.64-.53,2.49-.09.77-.12,1.54-.09,2.31.08,1.57.61,3,1.79,3.24s2.37-.39,3.24-1.73c.86-1.39,1.59-2.87,2.15-4.41.08,1.74-.26,3.48-.99,5.07h0Z"/>
    <path class="st8" d="M254.73,177.77c.07-.12.22.24.17.38-1.15,3.34-1.91,7.35.79,9.42.09.07,0,.23-.08.18-3.61-1.68-2.51-7-.88-9.98h0Z"/>
    <path class="st8" d="M253.5,181.39c-.13.96,0,1.94.38,2.84.47.97,1.33,1.69,2.36,2,1.06.3,2.21.08,3.08-.6.75-.59,1.34-1.35,1.74-2.22.24-.51.44-1.04.59-1.59.35-1.13.43-2.32.24-3.49-.19.83-.47,1.63-.84,2.4-.33.69-.71,1.36-1.14,2-.88,1.3-2.08,2.25-3.21,1.83s-1.82-1.57-1.87-3.16c0-1.64.16-3.28.47-4.89-.98,1.46-1.6,3.13-1.8,4.88h0Z"/>
    <path class="st8" d="M208.67,242s-.06-.06-.1-.05c-.02,0-.04.03-.05.05-1.78,9.19-6.5,30.33-20.34,25.39-5.58-2-9.86-6.9-13.31-11.52-3.5-4.77-6.47-9.9-8.87-15.31-2.7-6-5.47-12.21-7.15-18.56-.07-.27-.49-.11-.41.16,1.94,6.39,3.26,12.86,5.8,19.07,2.39,6.02,5.58,11.69,9.49,16.86,3.73,4.79,8.35,9.78,14.33,11.6,5.7,1.73,10.8-.74,13.86-5.61,4.01-6.41,6.01-14.61,6.75-22.08h0Z"/>
    <path class="st12" d="M210.22,230.07l-18.22,20.74-25.34-40.81-11.72,8.62s20.13,60.34,20.87,58l16-20.31,12.19,19.36,9.4-36.77-3.18-8.83h0Z"/>
    <path class="st8" d="M213.6,239.08c0-.24-.33-.43-.43-.17-2.51,6.46-8.29,28.5-9.67,34.51l-.06-.09c-.5-.83-11.42-17.22-11.6-17-3.18,3.08-14.91,17.86-15.79,19.24-3.18-9.57-15.72-44.63-19.94-54-.04-.12-.17-.19-.29-.15-.12.04-.19.17-.15.29h0c2.48,9.92,18.92,57,19.34,57,.22.27,14.75-17.91,16.81-21.5,1.7,3.42,12.37,21.54,12.64,20.57,1.81-6.51,8.4-32.01,9.14-38.7h0Z"/>
    <path class="st6" d="M236,399.56c-5.39-19.3-1.09-66.47,14.74-131.81,2.59-10.68,69.76-6.08,68.21,5.57-1.95,14.67-22,94.17-23.27,98.2-11.03,34.03-56.12,40.86-59.68,28.04h0Z"/>
    <path class="st6" d="M313.27,287.25s13.4-24.6,16.44-39.7c4.07-20.22-.74-39.36-3.24-47.26-5.22-16.48-29.23-52.73-40.88-47.63-10.54,4.61,15.88,40.42,15.88,40.42,0,0-20.91-41-32.59-33.07s21.36,47.72,21.36,47.72c0,0-22.42-41.61-33.18-31.57-8.12,7.59,19.77,45.35,19.77,45.35,0,0-19.53-35.63-28.22-28.19-9.61,8.23,13.95,44.68,13.95,44.68-18.91,22.64-18.66,41.15-16.91,54.3.43,3.19,67.62-5.05,67.62-5.05Z"/>
    <path class="st8" d="M309.61,206.78c-2.28-4.9-4.56-9.87-7.27-14.55s-5.59-9.27-8.72-13.68c-7.68-10.81-14.19-16.38-13.82-16,8.61,9.17,18.57,25.77,21.28,30.46s5.65,9.2,8.35,13.87c.07.12.23.02.18-.1h0Z"/>
    <path class="st8" d="M292.89,216.88c-3.19-6.13-6.13-12.34-9.58-18.33s-7.23-11.32-11.07-17c-.3-.44-.43-.13-.15.32,3.61,5.86,6.49,11.55,10,17.45s7.34,11.68,10.66,17.68c.05.06.18,0,.14-.12h0Z"/>
    <path class="st8" d="M280.09,228.12c-4.39-9.62-10.54-18.42-16.79-26.9-.31-.42-.45,0-.15.44,5.75,8.84,10.32,15.73,16.61,26.61.09.17.42.05.33-.15h0Z"/>
    <path class="st8" d="M262.56,238c-6.19-9.56-12-19.51-15.46-30.46-1.43-4.79-3.16-13.91,3.41-15.54,1.53,0,3.03.47,4.28,1.36,3.63,2.31,6.47,5.8,9.51,8.67l-.73.62c-3.9-6.7-8-13.79-8.6-21.68-.37-4.79,3.62-7.74,8.16-6.63,3.93,1.16,6.52,4.44,9.22,7.23l-.58.46c-3.51-5.7-11.06-22.3.52-23.14,3.1.22,5.79,2.08,8,4.1-3.09-2.76-8.47-5.81-12-2.24-4.57,5.24,1.19,15.79,4.13,20.88l1.76,2.89-2.34-2.44c-2.63-2.63-5.26-5.84-8.91-6.9-1.78-.45-3.67-.11-5.18.95-1.47,1-1.9,3-1.83,4.82.64,7.65,4.75,14.64,8.49,21.19l1.73,2.83-2.45-2.21c-3.11-2.94-5.76-6.31-9.36-8.63-1.08-.78-2.37-1.22-3.71-1.25-5.74,1.57-4,10.13-2.82,14.46,3.27,10.89,8.88,21,14.78,30.66h-.02Z"/>
    <path class="st13" d="M321.44,298.08l-87.07-4.56s-13.85,91-4.87,109.3c10.42,21.26,56.42,13.14,69.73-32.31l22.21-72.43h0Z"/>
    <path class="st1" d="M277.62,371.29c-2.45.03-4.4,2.04-4.37,4.49.03,2.45,2.04,4.4,4.49,4.37,2.43-.03,4.39-2.02,4.37-4.46-.05-2.44-2.05-4.4-4.49-4.4ZM277.62,378.73c-1.66,0-3-1.34-3-3s1.34-3,3-3,3,1.34,3,3-1.34,3-3,3h0ZM277.62,325.6c-2.43.12-4.31,2.18-4.2,4.61.11,2.27,1.92,4.09,4.2,4.2,2.43.12,4.5-1.76,4.61-4.2.12-2.43-1.76-4.5-4.2-4.61h-.42.01ZM277.62,333c-1.66,0-3-1.34-3-3s1.34-3,3-3,3,1.34,3,3-1.34,3-3,3h0ZM245.71,394.18c-2.45,0-4.43,1.99-4.42,4.44,0,2.45,1.99,4.43,4.44,4.42,2.45,0,4.43-1.99,4.42-4.44v-.06c-.04-2.42-2.02-4.37-4.44-4.36h0ZM245.71,401.57c-1.66,0-3-1.34-3-3s1.34-3,3-3,3,1.34,3,3h0c0,1.66-1.34,3-3,3h0ZM245.71,348.45c-2.44.01-4.41,2-4.4,4.44,0,2.44,2,4.41,4.44,4.4s4.41-2,4.4-4.44c-.02-2.44-2-4.4-4.44-4.4h0ZM245.71,355.84c-1.66,0-3-1.34-3-3h0c0-1.66,1.34-3,3-3s3,1.34,3,3-1.34,3-3,3h0ZM245.71,302.72c-2.44.01-4.41,2-4.4,4.44,0,2.44,2,4.41,4.44,4.4s4.41-2,4.4-4.44c-.02-2.44-2-4.4-4.44-4.4h0ZM245.71,310.11c-1.66,0-3-1.34-3-3s1.34-3,3-3,3,1.34,3,3h0c0,1.66-1.34,3-3,3h0ZM310,302.72c-2.44,0-4.42,1.98-4.42,4.42s1.98,4.41,4.42,4.42c2.44,0,4.42-1.97,4.42-4.42s-1.97-4.42-4.42-4.42h0ZM310,310.11c-1.66,0-3-1.34-3-3h0c0-1.68,1.36-3.04,3.04-3.04s3.04,1.36,3.04,3.04-1.34,3-3,3h-.08Z"/>
    <path class="st8" d="M311.64,318.4c-36.82,1.82-69.09-2-75.92-2.19-.33,0-.28-.53.05-.51,6.7.51,45,.06,75.93,2.14.36.03.3.54-.06.56Z"/>
    <path class="st8" d="M226.61,380.39c.78-11.35,1.49-22.7,2.39-34s2.11-22.63,3.5-33.92c.76-6.23,1.89-12,2.81-18.19,3.3-.24,5.21,0,9.23-.19.49,0,.47-1.21,0-1.2-4.37,0-10.85-.93-10.9-.64-2,11.22-3.27,23.34-4.49,34.66s-2.12,22.8-2.57,34.25c-.25,6.42-.27,12.85-.11,19.27.04.03.1.02.13-.02v-.02h.01Z"/>
    <path class="st6" d="M127.42,236.7c-44.6,48.72-91.74,144.15-80.13,163.79,12.94,21.86,75-46.41,74.64-50.25-.29-2.9,12.7-58.21,28.29-102.52s-11.77-23.07-22.8-11.02Z"/>
    <path class="st13" d="M122.37,350.3c1.73-6.49,22.2-81.24,30.1-106.61,7.09-22.76,2.58-31.83-15.58-17.2-33.44,26.92-84.64,104.9-95.74,146-10.7,39.62,15.41,39.2,41.34,20.15,21.23-15.57,39.88-42.34,39.88-42.34Z"/>
    <path class="st1" d="M117.14,257c-2.45.03-4.4,2.04-4.37,4.49.03,2.45,2.04,4.4,4.49,4.37,2.43-.03,4.38-2.02,4.37-4.45-.04-2.45-2.04-4.41-4.49-4.41h0ZM117.14,264.44c-1.66,0-3-1.34-3-3s1.34-3,3-3,3,1.34,3,3-1.34,3-3,3h0ZM117.14,302.74c-2.44,0-4.42,1.98-4.42,4.42s1.98,4.41,4.42,4.42c2.44,0,4.42-1.97,4.42-4.42s-1.97-4.42-4.42-4.42h0ZM117.14,310.13c-1.66,0-3-1.34-3-3s1.36-3.04,3.04-3.04,3.03,1.36,3.03,3.04c-.01,1.66-1.36,2.99-3.02,2.98h-.05v.02ZM121.44,351.62c-.58-1.88-2.33-3.16-4.3-3.15-2.44,0-4.42,1.98-4.42,4.42s1.98,4.41,4.42,4.42h0c.48-.62.93-1.2,1.34-1.75-.42.2-.89.31-1.36.3-1.66,0-3-1.34-3-3h0c0-1.68,1.36-3.04,3.04-3.04s3.03,1.36,3.03,3.04c.02.16.02.31,0,.47l1.25-1.71h0ZM149.1,234.14c-2.45,0-4.43,1.99-4.42,4.44,0,2.45,1.99,4.43,4.44,4.42,2.45,0,4.43-1.99,4.42-4.44v-.02c0-2.44-2-4.41-4.44-4.4h0ZM149.1,241.54c-1.66,0-3-1.34-3-3h0c0-1.68,1.36-3.04,3.04-3.04s3.04,1.36,3.04,3.04h0c0,1.66-1.34,3-3,3h-.08ZM52.88,348.45c-1.39.01-2.69.67-3.53,1.78h0l-.79,1.77h0c-.05.26-.08.53-.08.8-.02,2.45,1.95,4.44,4.4,4.46s4.44-1.95,4.46-4.4c.02-2.45-1.95-4.44-4.4-4.46h-.06v.05h0ZM52.88,355.84c-1.66,0-3-1.34-3-3h0c.04-1.64,1.36-2.96,3-3,1.66,0,3,1.34,3,3h0c0,1.66-1.34,3-3,3h0ZM52.88,394.18c-2.45.01-4.42,2-4.41,4.45,0,2.45,2,4.42,4.45,4.41s4.42-2,4.41-4.45v-.05c-.04-2.43-2.02-4.37-4.45-4.36h0ZM52.88,401.57c-1.66,0-3-1.34-3-3s1.34-3,3-3h0c1.66,0,3,1.34,3,3s-1.34,3-3,3h0ZM88.76,282.19c-.33.46-.65.93-1,1.39.05.21.08.43.08.65.01,1.51-1.09,2.79-2.59,3-.33.49-.66,1-1,1.46.16.01.33.01.49,0,2.47,0,4.48-2,4.49-4.47v-.02c0-.7-.15-1.39-.47-2.01ZM84.76,325.6c-2.43.12-4.31,2.18-4.2,4.61.11,2.27,1.92,4.09,4.2,4.2,2.43.12,4.5-1.76,4.61-4.2.12-2.43-1.76-4.5-4.2-4.61h-.42,0ZM84.76,333c-1.66,0-3-1.34-3-3s1.34-3,3-3,3,1.34,3,3-1.34,3-3,3h0ZM84.76,371.29c-2.45.03-4.4,2.04-4.37,4.49.03,2.45,2.04,4.4,4.49,4.37,2.43-.03,4.39-2.02,4.37-4.46-.05-2.43-2.03-4.38-4.46-4.4h-.03ZM84.76,378.73c-1.66,0-3-1.34-3-3s1.34-3,3-3,3,1.34,3,3-1.34,3-3,3h0Z"/>
    <path class="st8" d="M118.65,361.54c7.45-30.92,16.21-61.48,26.29-91.68-7.43,30.93-16.2,61.49-26.29,91.68Z"/>
    <path class="st8" d="M140.17,287.69c1.47-3.93,3.45-7.65,5.89-11.06-1.22,4.04-3.22,7.8-5.89,11.06Z"/>
    <path class="st6" d="M47.26,401.94c14.33,11.26,45.94,5,117.8-2.29,9.95-1,18.09-72.42,7.42-71.89-13.45.68-65.48,6.21-69.24,7.09-31.66,7.47-65.7,59.46-55.98,67.09Z"/>
    <path class="st6" d="M194.68,320c22.12-.49,27.87,2.78,46.32-7.55,12.1-6.78,21.62-2,13.76,10.13-12.87,19.75-41.27,26.42-51.76,25.84l-8.32-28.42Z"/>
    <polygon class="st15" points="282.78 383.31 265.7 395.35 201.97 305.64 219.05 293.61 282.78 383.31"/>
    <g class="st3">
      <path d="M277.68,383.26c-19.38-26.73-40.85-56.93-59.72-84,19.38,26.74,40.84,56.93,59.72,84Z"/>
      <path d="M274.29,385.65c-19.38-26.74-40.84-56.93-59.72-84,19.38,26.73,40.84,56.93,59.72,84Z"/>
      <path d="M270.91,388c-19.38-26.74-40.85-56.94-59.73-84,19.39,26.74,40.85,56.93,59.73,84Z"/>
      <path d="M267.52,390.42c-19.38-26.74-40.84-56.93-59.72-84,19.38,26.73,40.84,56.93,59.72,84Z"/>
    </g>
    <path class="st14" d="M196.9,298.89s-8.6-9.78,1.08-16.61,16,4.58,16,4.58l-17.08,12.03Z"/>
    <rect class="st10" x="195.23" y="292.29" width="24.39" height="5.92" transform="translate(-132.2 173.38) rotate(-35.17)"/>
    <rect class="st10" x="198.99" y="297.65" width="24.39" height="5.92" transform="translate(-134.6 176.52) rotate(-35.17)"/>
    <path class="st11" d="M282.78,383.3l2.22,16.82.75,5.54-5-2.55-15.08-7.76v-3.7s3.37,1.28,3.44,1.29v-3.7s3.37,1.28,3.44,1.29l-.06-3.67s3.41,1.25,3.48,1.26l-.06-3.67s3.41,1.25,3.48,1.26l-.06-3.67s3.39,1.25,3.45,1.26h0Z"/>
    <path class="st2" d="M282.78,383.3l2.22,16.82.75,5.54-5-2.55-15.08-7.76v-3.7s3.37,1.28,3.44,1.29v-3.7s3.37,1.28,3.44,1.29l-.06-3.67s3.41,1.25,3.48,1.26l-.06-3.67s3.41,1.25,3.48,1.26l-.06-3.67s3.39,1.25,3.45,1.26h0Z"/>
    <polygon class="st8" points="285.02 400.12 285.77 405.66 280.77 403.11 285.02 400.12"/>
    <path class="st6" d="M134.42,334.17s26-10.73,49.56-13.58c16.26-2,52.13-2.33,81.87,36.48,7.06,9.2,10.58,27.33-6.4,16.48-12.06-7.71-17.39-16.24-25.22-19.45,0,0,1.75,23.58-7.75,30.29-4.25,3-16,10.91-26.07,15.76-1.23-1.46-2.36-3-3.39-4.61,0,0-18.53,9.25-37.87,4.72l-24.73-66.09h0Z"/>
    <path class="st6" d="M199.8,321.18c7.11,4.82,22,15.3,31.18,28.11,10.21,14.23,26,44.38,15.47,51.81-7.76,5.45-14.82-5.53-14.82-5.53,0,0,3.92,13.84-4.16,17.23-7.37,3.08-12.32-5.74-12.32-5.74,0,0,.94,8.81-6.73,10.41-9.23,1.94-9.67-16.83-20.7-23-2.48-1.32,12.08-73.29,12.08-73.29Z"/>
    <path class="st8" d="M214.15,357.57c5.94,5.64,16.14,21.89,17.64,37.67,0,.35-.22.57-.32.25-4.27-13.27-10.13-25.97-17.47-37.82,0-.08.09-.16.15-.1h0Z"/>
    <path class="st8" d="M200.09,368.3c4.62,5.38,14.39,22.61,15.36,38.65,0,.36-.24.56-.33.23-3.55-13.46-8.63-26.48-15.12-38.8-.09-.08,0-.15.09-.08h0Z"/>
    <path class="st13" d="M160,321.43l-40.1,98s-67.16-5.15-77.54-18.75c-7.42-9.68,25.54-59.68,60.64-67.85l57-11.4Z"/>
    <path class="st1" d="M84.79,371.29c-2.45.03-4.4,2.04-4.37,4.49.03,2.45,2.04,4.4,4.49,4.37,2.43-.03,4.39-2.02,4.37-4.46-.05-2.44-2.04-4.4-4.49-4.4ZM84.79,378.73c-1.66,0-3-1.34-3-3s1.34-3,3-3,3,1.34,3,3-1.34,3-3,3ZM52.88,394.18c-2.45.01-4.42,2-4.41,4.45,0,2.45,2,4.42,4.45,4.41s4.42-2,4.41-4.45v-.05c-.04-2.43-2.02-4.37-4.45-4.36h0ZM52.88,401.57c-1.66,0-3-1.34-3-3s1.34-3,3-3h0c1.66,0,3,1.34,3,3s-1.34,3-3,3h0ZM149.1,325.57c-2.44.02-4.4,2-4.38,4.44s2,4.4,4.44,4.38,4.4-2,4.38-4.44v-.02c-.04-2.42-2.02-4.35-4.44-4.33v-.03h0ZM149.1,332.97c-1.66,0-3-1.34-3-3s1.34-3,3-3,3,1.34,3,3h0c.02,1.66-1.31,3.01-2.97,3.03h-.03v-.03ZM117.1,394.15c-2.44.12-4.33,2.19-4.21,4.64.11,2.28,1.93,4.11,4.21,4.21,2.44.12,4.52-1.77,4.64-4.21s-1.77-4.52-4.21-4.64h-.43ZM117.1,401.54c-1.66,0-3-1.34-3-3s1.34-3,3-3,3,1.34,3,3-1.34,3-3,3h0ZM117.1,348.42c-2.44,0-4.42,1.98-4.42,4.42s1.98,4.41,4.42,4.42c2.44,0,4.42-1.97,4.42-4.42s-1.97-4.42-4.42-4.42h0ZM117.1,355.81c-1.66,0-3-1.34-3-3h0c0-1.68,1.36-3.04,3.04-3.04s3.03,1.36,3.03,3.04c.02,1.66-1.31,3.01-2.97,3.03h-.06l-.04-.03Z"/>
    <path class="st8" d="M65.07,357.17c3.86-6,17.75-19.38,38-24.41.18,0,.29.23.12.29-14.7,5.21-33.65,18.89-37.86,24.31-.15.15-.33-.04-.26-.19Z"/>
    <path class="st8" d="M107,403.65c3.12-9.75,6.75-19.33,10.41-28.89s7.31-19.15,11.22-28.63c2.2-5.35,4.38-10.72,6.77-16,.06-.14.31-.07.26.08-3.11,9.74-6.71,19.34-10.3,28.91s-7.31,19.16-11.1,28.68c-2.14,5.38-4.38,10.72-6.77,16-.14.26-.6.13-.49-.15Z"/>
    <path class="st8" d="M159.79,320.55c-3.96.32-7.9.89-11.79,1.72-3.92.73-7.83,1.53-11.73,2.35-7.75,1.65-24.38,4.27-37.85,9.52-.15.05.89.48,1,.42,6.28-2.83,55.84-11.45,59.73-12.65-.06.31-2.45,6.6-2.46,6.92s.27.39.42.17c.35-.5,2.88-7,3.19-7.54.18-.26.12-.62-.15-.81-.11-.07-.24-.11-.36-.1h0Z"/>
    <path class="st8" d="M126.3,403.81c-1.89,5.48-3.91,10.92-5.94,16.35-8.93-.53-17.82-1.48-26.67-2.7-13-1.93-26.09-4.26-38.39-9-1.34-.58-2.67-1.2-4-1.8,11,3.86,22.56,5.65,34,7.54s23.06,3.28,34.62,4.6l-.67.42c2.28-5.16,4.6-10.3,7-15.4h.05Z"/>
  </g>
  <g id="freepik--Device--inject-3">
    <rect class="st15" x="226.77" y="407.28" width="147.54" height="7.06"/>
    <polygon class="st7" points="374.31 407.28 374.31 414.33 288.38 414.33 293.78 407.28 374.31 407.28"/>
    <polygon class="st7" points="316.01 414.34 443.89 414.34 463.84 317.06 335.96 317.06 316.01 414.34"/>
    <polygon class="st15" points="322.45 414.34 450.33 414.34 470.29 317.06 342.4 317.06 322.45 414.34"/>
    <path class="st12" d="M404,365.7c-.66,4.53-3.87,8.2-7.18,8.2s-5.46-3.67-4.8-8.2,3.87-8.2,7.18-8.2,5.41,3.67,4.8,8.2Z"/>
  </g>
  <g id="freepik--Glasses--inject-3">
    <path class="st13" d="M328.64,432.06l-2.15-.5c.23-1,2.41-9.88,7-11.87,4.29-1.86,50.56-7.25,51.81-7.44l.34,2.18c-8.43,1.32-48,5.84-51.27,7.29-3.03,1.28-5.16,7.91-5.73,10.34Z"/>
    <path class="st0" d="M328.64,432.06l-2.15-.5c.23-1,2.41-9.88,7-11.87,4.29-1.86,50.56-7.25,51.81-7.44l.34,2.18c-8.43,1.32-48,5.84-51.27,7.29-3.03,1.28-5.16,7.91-5.73,10.34Z"/>
    <path class="st13" d="M337,434.31c-9.11-.63-15.99-8.53-15.36-17.64.63-9.11,8.53-15.99,17.64-15.36,7.54.52,13.77,6.09,15.13,13.52h0c1.63,8.98-4.32,17.59-13.3,19.24-1.35.25-2.74.33-4.11.24h0ZM339.12,403.5c-1.19-.08-2.38-.01-3.55.2-7.79,1.42-12.94,8.89-11.52,16.67s8.89,12.94,16.67,11.52,12.94-8.89,11.52-16.67c-1.18-6.45-6.58-11.28-13.12-11.72h0Z"/>
    <path class="st13" d="M374.87,432.28c-6.32-.44-11.6-7.3-12-15.92-.27-4.12.75-8.22,2.93-11.72,2.17-3.32,5.22-5.23,8.57-5.39s6.57,1.45,9.05,4.54c2.49,3.29,3.88,7.27,4,11.39.43,9.1-4.73,16.78-11.51,17.11-.35.02-.69.01-1.04,0h0ZM375.31,401.47c-.28-.02-.56-.02-.84,0-2.63.12-5.05,1.68-6.83,4.39-1.92,3.11-2.82,6.75-2.58,10.4.39,7.9,5.2,14.11,10.79,13.83s9.78-6.91,9.4-14.8c-.1-3.66-1.35-7.19-3.57-10.1-1.5-2.09-3.82-3.44-6.37-3.72h0Z"/>
    <path class="st13" d="M353.91,416.77l-1.5-1.62c2.4-2.23,8.06-5.34,12.3-1.21l-1.54,1.58c-3.79-3.7-9.04,1.05-9.26,1.25h0Z"/>
    <path class="st13" d="M266.62,433.72l-2.15-.5c.23-1,2.4-9.88,7-11.87,4.29-1.85,50.56-7.25,51.81-7.44l.35,2.18c-8.44,1.32-48,5.85-51.28,7.29-3.04,1.31-5.16,7.91-5.73,10.34Z"/>
  </g>
  <g id="freepik--paper-balls--inject-3">
    <path class="st12" d="M408,400.62c2.48-2.05,6-4.18,7.12-2.75s.43,3,1.29,3.57,3.94.62,5.6,1c1.42.38,2.73,1.11,3.79,2.13.24.39,1.28.64,1.11,1.81s.18,2.56,0,3.47,0,1.69,1.39,2.26,2.57,3.94,2,5.69-5.4,1.34-6.27,2.23-.7,1.49-1.21,2.69-1.76,4.1-4.09,5.53-4.76.06-6.73,0-3.36.63-5,.9c-1.45.25-2.94.12-4.32-.38-.57-.36-1.56.07-2-1.6s-.07-2.44-.78-3.61-.82-1.37-1.64-2.69-3.27-3-3-4.6,0-3.54,1.39-4.41,6.43-2.86,6.43-2.86c.16-.82.25-1.65.27-2.48-.01-1.5.74-2.91,2-3.73.99-.58,1.89-1.31,2.65-2.17Z"/>
    <path class="st9" d="M408,400.62c1.67-1.25,6.41-5.3,7.64-1.91.44.84,0,2.26.93,2.75,1.91.65,4,.46,6,1.06,1.46.5,2.78,1.33,3.87,2.42.48.32.72.89.64,1.46-.03,1,0,2,.08,3-.1.47-.1.97,0,1.44.2.71,1.1.91,1.65,1.29,1.59,1.51,2.26,3.76,1.75,5.89-.35.82-1.35,1.1-2.1,1.31-1.34.42-3.11.23-4.22,1-.7.72-.68,1.8-1.12,2.68-1,2.37-2.37,4.81-4.94,5.93-2,.81-4.17-.22-6.15-.33-3.17,0-6.28,1.93-9.48.4-.33-.15-.71-.14-1.09-.34-.51-.3-.88-.8-1-1.38-.32-1-.2-2.07-.46-3-.44-.9-.93-1.77-1.46-2.61-.5-.87-1.12-1.67-1.83-2.38-.79-.7-1.34-1.63-1.58-2.66.23-1.51,0-3.23,1-4.47,2.08-1.48,4.62-2.17,6.94-3.2.31-1.87,0-4.6,1.91-5.95,1.15-.61,2.16-1.44,3-2.43l.02.03h0ZM408,400.62c-.83,1-1.85,1.84-3,2.45-1.89,1.42-1.49,3.92-1.88,6-2.24,1.07-4.84,1.78-6.85,3.28-.94,1.18-.68,2.91-.88,4.32.39,2,2.63,3.07,3.47,4.84.58.86,1.1,1.75,1.56,2.68.14.51.23,1.03.25,1.56.12,1.09.32,2.6,1.67,2.64.21.04.42.11.61.22,3,1.18,6-.61,9.05-.64,2,.07,4,1.07,5.88.32,2.19-.92,3.62-3.31,4.56-5.5.5-1.06.52-2.48,1.65-3.17,1.75-.75,3.86-.41,5.5-1.35.36-.24.57-.65.55-1.08.06-1.76-.51-4.22-2.27-5-.53-.23-.94-.66-1.15-1.19-.11-.52-.11-1.06,0-1.58-.06-1.02-.06-2.04,0-3.06.2-.84-.61-1.18-1.08-1.73-2.4-2.57-6-2.18-9.14-3.08-1-.55-.52-1.93-1-2.81-1.17-3.34-5.93.68-7.57,1.88h.07Z"/>
    <path class="st5" d="M400,423.6c2.37-.27,4.72-.66,7.07-1.07s4.7-.76,7-1.22c2.3-.41,4.57-.96,6.81-1.63.45-.14.87-.34,1.27-.59l.79-1.27c.6-.96,1.12-1.96,1.55-3,.44-.97.67-2.01.7-3.07,0-.24-.01-.48-.06-.72l-.09-.34v-.15h0c-.29-.26-.63-.45-1-.56-2.22-.63-4.5-1.01-6.8-1.16-2.35-.22-4.72-.32-7.09-.34h-3.56c-.6,0-1.19.05-1.78.11-.29.02-.59.05-.88.1-.25.08-.67.07-.72.38,0-.34.44-.4.68-.52.28-.1.57-.19.87-.26.59-.14,1.18-.24,1.77-.34,1.19-.19,2.39-.33,3.58-.45,2.4-.18,4.8-.25,7.21-.22,2.47-.02,4.94.28,7.33.91.78.19,1.48.63,2,1.24.09.13.16.26.22.4l.08.28.15.53c.07.35.1.7.11,1.06-.01,1.33-.29,2.64-.81,3.86-.49,1.15-1.06,2.26-1.73,3.31l-.49.77-.25.38-.13.21c-.1.12-.21.23-.32.34-.6.44-1.28.76-2,.93-2.35.64-4.74,1.1-7.16,1.35-4.75.63-9.53.88-14.32.75h0Z"/>
    <path class="st5" d="M409.82,422.4c.03-2.19.24-4.37.63-6.53.17-1.09.43-2.15.69-3.23.13-.54.3-1.07.48-1.61.19-.61.47-1.19.82-1.73.17-.28.42-.49.73-.6.3-.11.63-.13.95-.06.32.09.63.2.93.33.53.22,1.04.47,1.53.76,1,.56,1.91,1.11,2.8,1.75,1.83,1.21,3.51,2.63,5,4.25l-5.82-2.91c-1-.46-1.91-1-2.87-1.41-.47-.22-.94-.46-1.4-.63-.2-.08-.4-.15-.6-.2h.16c.08-.02.15-.06.2-.13v.08c-.24.37-.43.77-.57,1.19l-.52,1.48-1,3.05c-.65,2.04-1.31,4.1-2.14,6.15h0Z"/>
    <path class="st12" d="M109.42,442.72c-2.15.51-5,.77-5.23-.46s.65-2,.28-2.59-2.24-1.57-3.15-2.33c-.76-.67-1.35-1.51-1.7-2.46,0-.31-.6-.78-.14-1.45s.67-1.64,1-2.15c.46-.51.41-1.29-.1-1.75-.02-.02-.05-.04-.07-.06-.69-.78-.4-3.22.46-4.14s3.74.81,4.56.52.87-.71,1.55-1.3c1.15-1.12,2.62-1.88,4.2-2.17,1.87-.18,3,1.4,4.17,2,1.08.43,2.2.75,3.34.94.97.29,1.85.82,2.56,1.54.24.4,1,.44.78,1.61s-.7,1.53-.61,2.47.09,1.1.19,2.16,1.12,2.85.47,3.75-1,2.19-2.2,2.3-4.78-.15-4.78-.15c-.34.45-.65.94-.91,1.44-.44.94-1.35,1.58-2.38,1.7-.79.07-1.56.27-2.29.58Z"/>
    <path class="st9" d="M109.42,442.72c-2,.45-6.55,1.37-5-2.16.11-.32.23-.69,0-.95-1-1-2.34-1.48-3.4-2.45-.75-.75-1.32-1.66-1.67-2.67-.22-.35-.22-.79,0-1.14.32-.62.61-1.25.86-1.9.2-.36.41-.57.43-.86.09-.48-.42-.87-.63-1.26-.55-1.45-.28-3.08.7-4.28,1.41-.94,3.23.63,4.63.46.26-.11.49-.29.66-.51,1.47-1.57,3.34-3,5.69-3,1.65.16,2.65,1.5,3.74,2.08,2,.92,4.53.75,6,2.66,1.55,1,.45,2.52.14,3.75,0,.67.04,1.34.11,2,0,1.46,1,2.68.55,4.17-.62.87-1,2-2,2.46-1.74.15-3.5.11-5.23-.12-.87,1.15-1.42,2.82-3,3.11-.89.03-1.77.23-2.59.59v.02h0ZM109.42,442.72c.81-.37,1.69-.58,2.58-.62,1.6-.31,2.1-2,3-3.13,1.39,0,2.82.19,4.22.15,1.59.22,2.15-1.43,2.83-2.52.28-.94-.31-2-.54-3-.13-.69-.22-1.4-.27-2.1-.06-.36-.08-.73-.06-1.1.14-.8.51-1.35.57-2s-.26-.86-.71-1.31c-1.49-1.74-3.79-1.43-5.85-2.4-1.23-.66-2.1-1.84-3.49-2-1.58-.1-3.19.93-4.41,2-.56.44-.94,1.17-1.68,1.4-1.51.28-2.71-.88-4.16-.76-1.16.25-1.59,3.38-.72,4.13.26.32.39.72.35,1.13-.1.36-.27.71-.5,1-.28.65-.59,1.28-.93,1.9-.37.45,0,.87.15,1.36.7,2.3,3,3.15,4.68,4.66.46.66-.26,1.35-.25,2-.27,2.42,3.84,1.36,5.23,1.13l-.04.08h0Z"/>
    <path class="st5" d="M101.17,430.53c1.15-1.23,2.39-2.33,3.56-3.48l.91-.83.47-.42c.27-.21.59-.36.92-.44.87-.21,1.76-.32,2.66-.34,1.73-.08,3.45.02,5.16.29.97.12,1.91.41,2.78.85.61.39,1.05,1,1.22,1.71.15.51.22,1.05.21,1.58-.11,1.8-.5,3.57-1.17,5.24-.32.82-.69,1.62-1.11,2.39-.22.41-.47.8-.74,1.18-.35.49-.83.86-1.39,1.08-1.73.48-3.54.59-5.32.34-1.68-.17-3.36-.46-5-.87,1.68-.12,3.33-.15,5-.35,1.54-.06,3.06-.36,4.51-.89.32-.17.23-.17.48-.5.19-.32.35-.66.5-1,.32-.71.6-1.44.84-2.19.52-1.43.82-2.94.9-4.46.03-.45.23-.88.56-1.19-.89-.29-1.8-.49-2.72-.62-1.56-.34-3.14-.56-4.73-.67-.77-.05-1.54-.05-2.31,0-.15,0-.29.07-.24,0l-.52.33-1.07.69c-1.47.87-2.87,1.79-4.36,2.57h0Z"/>
    <path class="st5" d="M106.33,427.35c.09,1.59,0,3.13.15,4.53.06.65.21,1.45.38,1.49,0,0,0-.05-.06-.05s0,0,.14,0c.29-.01.58-.05.86-.1,1.35-.22,2.8-.63,4.27-.94,1.51-.36,3.04-.61,4.58-.74-2.43,2.06-5.33,3.49-8.45,4.14-.47.07-.94.09-1.41.07-.34-.02-.68-.1-1-.22-.37-.18-.68-.46-.89-.81-.48-.9-.62-1.94-.39-2.93.28-1.59.9-3.11,1.82-4.44h0Z"/>
    <path class="st12" d="M83.08,410.19c-1.11-3.37-.92-7.27-4.71-6.86s-6.07-4.33-7.78-5.47-7.77,0-9.1,1.14-1.9,3.35-3.23,4.33-3.22,2.5-4.93,4-4.17,3.6-3.41,7.39,2.46,5.09,3.6,7-.76,5.32.76,9.68,8.92,6.07,10.81,5.32,7-4,9.74-4,3.54,2.28,6,.95,6.06-4.17,6.25-5.31-2.08-2.14-1.32-3.91,3.79-5.11,3.41-7.33-5.24-4.35-6.09-6.93h0Z"/>
    <path class="st9" d="M83.08,410.19c-.92-2.24-.62-5.86-3.35-6.76-1.28-.21-2.69.18-3.89-.55-1.79-.93-3-2.6-4.31-4.06-.39-.51-.92-.91-1.53-1.13-2.6-.39-5.26-.04-7.67,1-1.88.86-2.19,3.2-3.63,4.56-2.21,2-5.55,4.25-7.35,6.54-2.94,3.86,0,8.5,2.49,11.77.39.81.54,1.72.43,2.62-.23,2.58-.49,5.24.59,7.62,1.77,3.3,6.23,4.94,9.81,4.73,2.36-.86,4.72-2.44,7.13-3.29,1.25-.58,2.64-.79,4-.61,1.39.23,2.44,1.32,3.67,1.3s2.37-1,3.43-1.67c1.38-.89,2.63-1.96,3.73-3.18.85-.89,0-1.66-.55-2.47-.44-.53-.6-1.25-.43-1.92.92-2.62,5.12-6,2.86-8.8-1.64-2-4.36-3.2-5.41-5.7h-.02ZM83.08,410.19c1.07,2.5,3.79,3.64,5.46,5.66.46.5.71,1.15.7,1.83-.19,2-1.55,3.65-2.56,5.32-.73,1.07-1.5,2.35-.48,3.51.31.49,1,1.1,1,1.75-.04.35-.18.68-.41.95-1.1,1.25-2.35,2.36-3.73,3.3-1.14.71-2.18,1.68-3.6,1.8s-2.44-1.06-3.77-1.24c-2.57-.35-5,1.27-7.27,2.34-1.16.69-2.39,1.27-3.65,1.75-3.92.28-8.64-1.47-10.58-5-1.19-2.51-.92-5.36-.66-8,.15-.91-.06-1.85-.57-2.62-4.16-5.31-5.36-10.49.81-14.84l3.1-2.49c1.09-.71,2-1.66,2.68-2.77.69-1.11,1.33-2.48,2.63-3,2.48-1.03,5.2-1.34,7.85-.89,1.17.34,2.09,1.89,2.88,2.71.83,1.03,1.85,1.91,3,2.57,1.2.73,2.57.34,3.86.57,2.76.91,2.43,4.55,3.34,6.81l-.03-.02h0Z"/>
    <path class="st5" d="M76.05,402.93c-4.68,1.5-9.25,3.32-13.68,5.45-.49.26-.95.56-1.37.91-.17,0-.29.86-.39,1.39-.21,1.18-.36,2.4-.49,3.62-.24,2.43-.43,4.88-.44,7.3-.03,1.18.03,2.35.19,3.52.03.33.12.65.25.95.42.2.87.34,1.33.41,2.37.35,4.76.47,7.15.35,1.2-.05,2.41-.12,3.55-.28s2.42-.51,3.58-.72c2.42-.49,4.84-.95,7.16-1.55.57-.16,1.16-.3,1.63-.48l.29-.12s.12-.06,0,0c-.09.05-.15.14-.17.24-.15.28-.18.6-.09.9.04.15.12.29.23.41.04.05.09.09.15.13h0l-.33-.13c-1.06-.35-2.28-.63-3.46-.91l-7.22-1.61c-2.41-.53-4.83-1.06-7.25-1.68-1.21-.31-2.42-.62-3.64-1.05-.73-.22-1.4-.58-2-1.05-.08-.08-.15-.17-.21-.26-.09-.15-.15-.3-.18-.47,0-.15,0-.29,0-.44,0-.24.05-.47.13-.7.12-.35.26-.68.44-1,1.32-2.18,2.89-4.2,4.7-6,.44-.45.89-.89,1.37-1.32.23-.26.47-.51.72-.74.13-.11.27-.21.42-.3.18-.15.39-.26.62-.32.49-.09,1,.04,1.4.34.29.2.56.41.82.65.47.44.9.91,1.31,1.41,3.01,3.95,5.71,8.13,8.07,12.51-2.76-4.08-5.76-7.99-9-11.7-.4-.43-.82-.84-1.27-1.23-.29-.27-.63-.48-1-.62l-.18.13c-.11.08-.22.17-.32.26-.22.18-.43.38-.64.59-.42.41-.83.86-1.23,1.31-1.61,1.76-3,3.71-4.14,5.81-.11.23-.2.46-.27.7,0,.07-.07.23,0,.21h0c0-.09-.05-.18-.1-.25-.02-.03-.04-.06-.06-.08.42.21.85.37,1.3.5,1.12.35,2.3.65,3.49.94,2.38.56,4.79,1.06,7.2,1.55l9.26,1.77c1.23.28.43.25,1.73.66.16.05.34.11.53.19.13.06.26.12.38.2.12.08.23.17.33.27.13.15.24.33.3.52.1.33.06.69-.1,1-.14.21-.31.4-.51.55-.1.09-.22.16-.34.21-.18.1-.37.19-.57.26-.62.24-1.26.43-1.91.59-2.47.6-4.9,1-7.33,1.48-1.28.21-2.29.46-3.7.68-1.27.15-2.55.24-3.83.25-2.55.08-5.1-.09-7.62-.51-.76-.12-1.48-.38-2.14-.78-.43-.32-.73-.78-.87-1.3-.11-.35-.18-.72-.21-1.09-.12-1.29-.14-2.58-.05-3.87.14-2.52.44-5,.8-7.45.2-1.24.4-2.46.67-3.7.23-.63.08-1.2.84-2,.53-.43,1.12-.79,1.75-1.06,2.3-.97,4.65-1.8,7.05-2.49,2.36-.69,4.75-1.36,7.17-1.86h0Z"/>
    <path class="st12" d="M336.92,438.26c-2.12.69-4.56.57-4.31,2.95s-2.71,3.81-3.43,4.88,0,4.88.72,5.72,2.1,1.19,2.71,2,1.57,2,2.52,3.09,2.27,2.62,4.65,2.15,3.19-1.55,4.39-2.27,3.34.48,6.08-.47,3.81-5.6,3.34-6.79-2.5-4.37-2.5-6.11,1.42-2.22.59-3.77-2.62-3.81-3.33-3.93-1.35,1.31-2.46.84-3.2-2.38-4.6-2.15-2.75,3.32-4.37,3.86h0Z"/>
    <path class="st9" d="M336.92,438.26c-1.4.57-3.68.39-4.23,2.1-.14.8.11,1.69-.35,2.44-.67,1.05-1.53,1.98-2.54,2.72-1.07.81-.84,2.21-.7,3.39.12.81.34,1.6.65,2.36.51,1.12,2,1.36,2.87,2.25,1.26,1.39,2.64,3.43,4.11,4.57,2,1.54,4.68.39,6.46-1,.35-.29.73-.53,1.15-.7,1.28-.36,2.57.09,3.81,0,3.45.17,5.34-3.44,5.19-6.48-.54-1.46-1.52-3-2-4.47-.36-.8-.49-1.69-.37-2.56.16-.89.84-1.56.83-2.29-.17-.77-.51-1.5-1-2.12-.69-.89-1.39-2.17-2.46-2.58-.73.11-1.36,1.19-2.25.85-1.52-.64-2.71-2.05-4.4-2.24-.41,0-.81.14-1.11.42-1.27,1-2,2.74-3.58,3.4l-.08-.06h0ZM336.92,438.26c1.56-.68,2.28-2.39,3.55-3.44,1.86-1.45,3.86,1.16,5.58,1.73,1.49.3,1.7-2,3.31-.24,5.61,6,.58,4.24,2.41,8.88.59,1.58,1.63,2.93,2.2,4.53.28,3.47-2,7.49-5.79,7.36-1.23.1-2.47-.33-3.61-.07-1.79,1.1-3.39,2.5-5.71,2.46-2.73,0-4.23-2.92-5.78-4.72l-.76-1c-.84-.9-2.29-1.12-2.84-2.4-.66-1.58-.85-3.32-.54-5,.16-.4.43-.74.77-1,1.01-.72,1.87-1.63,2.56-2.66.46-.75.21-1.61.36-2.42.59-1.75,2.86-1.52,4.29-2.09v.08h0Z"/>
    <path class="st5" d="M332.36,442.67c.94,2.93,2.09,5.8,3.42,8.58.16.3.35.59.57.86,0,.11.55.18.87.25.75.13,1.51.22,2.28.3,1.52.16,3.06.27,4.58.28.74.02,1.48-.02,2.21-.12.21-.03.41-.08.6-.15.12-.27.21-.55.25-.84.22-1.49.29-2.99.22-4.49-.02-.75-.08-1.49-.18-2.23-.1-.64-.31-1.52-.45-2.24-.3-1.52-.59-3-1-4.5-.1-.35-.19-.73-.3-1-.02-.06-.05-.12-.08-.18,0,0,0-.08,0,0,.04.05.09.09.15.11.18.09.38.11.57.05.1-.03.19-.08.26-.15.03-.03.06-.06.08-.09h0l-.08.21c-.22.66-.4,1.43-.57,2.17l-1,4.53c-.33,1.51-.67,3-1.05,4.55-.2.76-.4,1.52-.66,2.29-.15.46-.37.9-.67,1.28l-.16.13c-.09.05-.19.09-.29.11h-.28c-.15,0-.3-.04-.44-.09-.22-.07-.43-.16-.63-.27-1.38-.83-2.65-1.82-3.79-2.95-.28-.28-.56-.56-.83-.86-.14-.15-.27-.31-.39-.47-.07-.08-.13-.17-.19-.26-.09-.11-.16-.25-.2-.39-.05-.31.02-.63.21-.89.13-.18.26-.35.41-.51.28-.29.58-.57.89-.82,2.48-1.89,5.1-3.59,7.85-5.06-2.56,1.72-5.01,3.6-7.34,5.63-.28.27-.54.53-.78.8-.16.18-.3.39-.39.62,0-.09.05.06.08.11l.17.2c.11.13.24.27.37.4s.54.52.82.77c1.11,1.01,2.33,1.89,3.65,2.6.15.06.32.14.43.17s.15,0,.14,0h0s-.1.03-.15.06h-.05c.12-.26.23-.53.31-.81.22-.71.41-1.45.59-2.19.35-1.5.66-3,1-4.53l1.12-5.81c.17-.77.15-.27.41-1.08,0-.1.07-.21.12-.34.03-.08.07-.16.12-.23.05-.08.11-.15.17-.21.1-.09.21-.15.33-.19.21-.07.44-.04.63.06.13.09.25.2.35.32.05.07.1.14.13.22.07.11.12.23.16.35.15.39.27.79.38,1.2.37,1.55.64,3.08.92,4.61.14.8.29,1.43.43,2.32.09.8.14,1.6.15,2.4.05,1.6-.05,3.2-.31,4.78-.07.48-.24.94-.49,1.35-.21.26-.5.45-.82.54-.22.08-.45.12-.68.14-.81.06-1.62.06-2.43,0-1.58-.08-3.13-.27-4.68-.5-.77-.12-1.54-.25-2.32-.42-.39-.14-.75-.05-1.28-.52-.27-.34-.5-.71-.67-1.1-.6-1.45-1.13-2.92-1.56-4.43-.47-1.42-.89-2.91-1.21-4.43h0Z"/>
  </g>
  <g id="freepik--Line--inject-3">
    <path class="st8" d="M225.61,70.12c1.06,1.41,2.36,2.63,3.82,3.61.92,3.78,4.18,6.36,7.11,8,3.43,1.82,7.15,3.01,11,3.53,6.28.76,12.63.54,18.84-.65,1.2,5.46,1,11.41.71,17,0,.15.19.14.2,0,.32-5.57.66-11.56-.33-17.12,1.22-.21,2.45-.44,3.66-.69,1.86-.39,3.76-.85,5.64-1.43,3.33-.75,6.59-1.8,9.74-3.14,3.67-1.59,7.17-4,9.19-8,1.9-3.77,1.83-8.24-.19-11.95-.85-1.58-1.91-3.05-3.14-4.36-.75-.93-1.57-1.81-2.45-2.61-2.85-2.55-6.15-4.54-9.74-5.86-.92-.35-1.85-.67-2.79-1l-.4-.22c-3.58-1.85-7.44-3.09-11.43-3.65-8.3-1.3-16.79-.53-24.72,2.24-4.07,1.41-7.95,3.32-11.56,5.67-3.19,2.09-6.1,5-6.55,9.37-.27,3.09.43,6.19,2,8.87.38.84.84,1.65,1.39,2.39h0ZM272.86,81.47c-2.1.42-4.23.76-6.37,1-.07-.28-.13-.56-.21-.84.47-.09.94-.19,1.4-.31s.84-.23,1.27-.37c3.96-.7,7.82-1.85,11.51-3.44,3.37-1.45,6.57-3.27,9.54-5.43-3.87,4.69-9.76,7.32-15,8.84-.75.2-1.44.37-2.14.55ZM249.34,46.69c1.11-.16,2.23-.29,3.34-.41-2.74,1.06-5.28,2.59-7.51,4.51-2.61,2.21-4.54,5.1-5.59,8.35-1.31.99-2.49,2.14-3.5,3.44-.29.14-.59.28-.87.44-1.09.61-2.1,1.36-3,2.23-.07-.15-.13-.3-.18-.46-1.1-3.77.8-7.3,3.15-9.8,2.63-2.67,5.73-4.83,9.15-6.37,1.62-.76,3.3-1.4,5.01-1.93ZM234.91,71.05c.45.36.91.69,1.39,1-.25.46-.46.94-.61,1.44-.38-.77-.64-1.59-.78-2.44ZM265.58,81.76c.08.26.15.52.23.78-3.01.33-6.05.44-9.08.34,1.82-.15,3.65-.36,5.47-.62,1.12-.16,2.25-.26,3.38-.5h0ZM263.3,76.84c-7.72,1.1-15.57.84-23.21-.74-1-.21-2-.46-3-.75,0-.86.24-1.7.67-2.44,3.65,1.75,7.59,2.79,11.63,3.09,4.22.34,8.46.43,12.69.24.25,0,.48-.17.55-.41l.12.16c.19.26.37.56.55.85h0ZM240,72.28c-.4-.16-.82-.34-1.23-.54,1.24-1.01,2.76-1.61,4.35-1.74,3.62-.62,7.33-.62,10.95,0,3.05.67,5.78,2.35,7.75,4.76-7.3.15-14.82.24-21.82-2.48ZM264.21,78.38c.22.44.43.89.62,1.34h-.07l-1.67.22c-.8.06-1.59.1-2.39.12-4.11.09-8.21-.27-12.24-1.06,4.37.32,8.76.24,13.11-.26.87-.1,1.73-.23,2.6-.36h.04ZM265.12,78.25c2.33-.38,4.64-.89,6.93-1.5-.77.86-1.75,1.52-2.83,1.92-1.15.43-2.34.74-3.56.92-.21-.45-.39-.9-.58-1.34h.04,0ZM248.7,80.78h-.6c-1.79-.17-3.55-.5-5.28-1-.51-.14-1-.29-1.59-.46-.27-.16-.55-.32-.81-.5s-.33-.24-.49-.36c2.86.99,5.79,1.77,8.77,2.32ZM234.82,69.1c.12-1.73.7-3.41,1.68-4.84,1.03-.53,2.1-.95,3.21-1.26.51.75,1.25,1.33,2.1,1.66,1.83.77,3.72,1.4,5.64,1.89,6.95,1.8,14.23,1.96,21.26.46,1.52,1.1,2.77,2.52,3.66,4.17.61,1.14.81,2.44.58,3.71-2.83.79-5.71,1.4-8.62,1.82-.24-.44-.5-.89-.77-1.32-2.02-3.32-5.24-5.73-9-6.72-3.78-.83-7.69-.98-11.52-.43-2.19.1-4.26.99-5.84,2.51-.04.04-.07.08-.1.13-.82-.51-1.59-1.11-2.28-1.78h0ZM283.27,58.63c-.4.7-.95,1.3-1.63,1.75-2.68-2.6-5.9-4.59-9.43-5.82-10.05-3.91-21.36-2.77-30.43,3.07.06-.13.12-.24.18-.35.78-1.49,1.77-2.85,2.95-4.05,4.43-4.55,10.63-6.63,16.52-7.3h.45c6.4.15,12.72,1.5,18.62,4l.26.24c1.85,1.94,4.03,5.56,2.51,8.46h0ZM240.84,59.88c2.42-1.79,5.09-3.22,7.93-4.23,6.32-2.28,13.19-2.57,19.68-.81,3.32.89,6.47,2.32,9.34,4.21.93.61,1.8,1.31,2.6,2.08-.53.27-1.07.52-1.57.76-1.72.83-3.5,1.55-5.31,2.16-1.37.46-2.76.83-4.16,1.16l-.16-.12c-6.35-4.57-14.2-5.29-21.51-5-2.35.07-4.7.35-7,.85,0-.36.07-.71.16-1.06h0ZM243.2,62.25c3.58-.48,7.2-.56,10.8-.25,3.49.22,6.92,1.04,10.14,2.41.9.4,1.78.86,2.63,1.36-4.96.87-10.03.89-15,.06-1.78-.3-3.54-.7-5.27-1.21-.95-.29-1.89-.6-2.83-.94-.83-.24-1.62-.6-2.35-1.06.68-.17,1.27-.28,1.88-.37h0ZM282.79,68.63c-1.13,3-4.29,4.44-6.82,5.31-.37.13-.75.23-1.12.35.2-3.16-1.75-5.85-3.92-7.8h0c3.68-.89,7.22-2.3,10.5-4.19,1.59,1.7,2.11,4.13,1.36,6.33h0ZM233.68,67.86c-.25-.32-.48-.65-.68-1,.41-.43.85-.84,1.32-1.21-.11.28-.23.56-.32.85-.15.44-.25.9-.32,1.36h0ZM292.59,67.86c-.69.68-1.43,1.32-2.22,1.89-2.85,2.21-5.93,4.09-9.2,5.61-2.55,1.18-5.2,2.14-7.92,2.87.55-.64.97-1.39,1.24-2.19h.12c3-.92,6.44-2.14,8.48-5,1.03-1.45,1.5-3.23,1.35-5-.2-1.61-.83-3.14-1.83-4.42,1.3-.92,2.18-2.31,2.46-3.88.2-1.63-.07-3.28-.76-4.76-.23-.52-.5-1.03-.8-1.52,2.84,1.33,5.41,3.17,7.6,5.41,1.43,1.5,2.33,3.43,2.56,5.49.12,1.83-.21,3.66-.95,5.33-.04,0-.09.09-.13.19v-.02h0ZM234.07,74.25c-1.14-.56-2.25-1.19-3.31-1.9-.12-1.58.34-3.16,1.3-4.42.43.67.93,1.29,1.49,1.86.06,1.65.48,3.27,1.22,4.75l-.7-.29h0ZM226.36,68.25c-1.29-1.91-1.86-4.22-1.63-6.51.48-3.61,2.43-6.87,5.38-9,3.32-2.46,7.29-3.52,11.1-4.47l.6-.14c-2.74,1.48-5.24,3.37-7.41,5.61-2.47,2.58-4.47,6.17-3.89,10.15.13.84.37,1.66.72,2.44-1.15,1.38-1.84,3.07-2,4.86-1.07-.85-2.04-1.83-2.87-2.91v-.03h0ZM266.36,43.4c-3.49-.3-7-.22-10.47.24-2.03.27-4.03.68-6,1.23-2.2.3-4.37.68-6.52,1.14-7.27,1.57-16.55,3.77-19.55,12.65-.1.29-.17.59-.25.88.04-.84.19-1.68.44-2.48.65-1.84,1.8-3.45,3.33-4.66,3.13-2.46,6.6-4.44,10.3-5.88,7.16-3.02,14.92-4.35,22.68-3.88,2.02.13,4.03.4,6.02.79l.02-.03h0ZM287.71,76.63c-.19.11-.39.21-.59.31,1.81-1.38,3.42-3,4.78-4.83.71-.98,1.34-2.02,1.86-3.11.43-.48.8-1.01,1.09-1.58.06-.14.11-.28.15-.42-.05.37-.12.74-.21,1.11-1.09,3.7-3.66,6.8-7.1,8.55l.02-.03h0ZM233.53,77.42c-.73-.7-1.36-1.51-1.86-2.39,1.16.59,2.35,1.09,3.58,1.51l.24.11h.06c.43,1.61,1.55,2.95,3.05,3.67,1.82.92,3.75,1.59,5.75,2,.74.27,1.5.51,2.25.71.92.25,1.85.44,2.78.61-2.17-.21-4.32-.62-6.42-1.22-3.51-.86-6.75-2.57-9.45-4.97l.02-.03h0Z"/>
  </g>
</svg>