<svg width="500" height="500" viewBox="0 0 500 500" fill="none" xmlns="http://www.w3.org/2000/svg">
<rect width="500" height="500" fill="white"/>
<path fill-rule="evenodd" clip-rule="evenodd" d="M307.596 23.0897C299.082 25.5509 292.338 29.5377 285.248 36.3007C262.823 57.6927 262.174 100.724 283.987 119.926C301.796 135.603 334.803 139.803 355.84 129.068C362.111 125.869 372.128 116.368 376.634 109.347C387.714 92.079 388.314 69.0829 378.207 49.1347C371.104 35.117 354.454 23.9175 339.383 23.0183C316.334 21.6448 312.567 21.653 307.596 23.0897ZM342.282 30.2859C353.045 35.4635 361.201 43.4712 366.338 53.9025C370.036 61.416 370.233 62.464 370.233 74.7207C370.233 85.5361 369.817 88.5265 367.664 93.189C364.165 100.767 354.22 110.985 346.823 114.604C333.539 121.105 311.807 118.849 298.237 109.561C282.682 98.9157 278.377 74.2067 288.483 53.5665C292.032 46.3176 301.284 36.9986 308.673 33.2283C313.311 30.862 328.308 26.3682 332.059 26.2195C332.957 26.1843 337.558 28.0144 342.282 30.2859ZM287.693 145.514C244.768 154.604 212.125 194.315 209.598 240.518C208.808 254.978 210.286 262.862 215.013 269.384C218.942 274.804 227.464 279.535 236.685 281.416C246.109 283.337 412.463 283.452 419.518 281.541C426.338 279.694 433.358 274.208 437.124 267.78C441.688 259.992 442.359 246.058 438.842 232.136C433.8 212.184 419.615 188.77 405.146 176.519C386.747 160.942 365.542 150.877 345.06 148.004C340.232 147.326 332.856 145.989 328.67 145.031C318.47 142.7 299.957 142.918 287.693 145.514ZM350.486 155.073C371.568 163.844 386.303 173.803 400.174 188.655L408.61 197.689L402.299 198.582C384.917 201.044 385.818 214.65 403.366 214.662C406.778 214.664 411.051 213.901 412.861 212.964C416.012 211.335 416.215 211.397 417.619 214.427C418.426 216.169 419.765 219.493 420.596 221.813L422.108 226.033L410.22 226.784C389.458 228.095 381.252 231.731 385.469 237.751C390.147 244.431 407.827 245.609 419.165 239.998C422.471 238.361 425.411 237.26 425.699 237.548C425.987 237.836 426.256 241.906 426.297 246.593C426.386 256.72 423.877 262.131 417.61 265.327C413.798 267.27 408.334 267.35 327.499 266.64C232.873 265.808 232.658 265.792 227.493 258.777C225.365 255.885 225.069 253.883 225.155 242.97C225.352 218.126 235.291 195.206 253.742 177.05C271.941 159.141 294.856 150.674 325.9 150.389C338.628 150.27 339.207 150.382 350.486 155.073ZM444.515 293.657C436.404 295.704 424.357 300.5 407.698 308.313C400.615 311.635 383.446 319.029 369.547 324.743C355.647 330.457 333.666 339.641 320.701 345.152C307.734 350.663 296.847 355.172 296.508 355.172C296.167 355.172 295.876 353.46 295.862 351.366C295.805 342.907 287.929 332.562 277.501 327.251C267.127 321.966 261.164 321.009 236.178 320.617C206.237 320.147 202.612 319.477 163.59 307.2C130.156 296.68 126.606 296.042 101.538 296.046C83.1384 296.049 78.0291 296.461 67.5857 298.784C44.7262 303.871 6.1524 318.346 1.36741 323.634C-0.608866 325.819 -0.574916 325.9 2.34033 325.9C4.00284 325.9 14.4895 323.558 25.6448 320.696C65.4806 310.476 84.3396 307.911 106.796 309.664C121.748 310.832 130.576 313.039 160.038 322.976C197.839 335.726 207.945 337.608 238.569 337.608C263.776 337.608 273.875 340.924 278.713 350.789C281.466 356.407 279.935 361.688 273.829 367.632C264.412 376.8 253.245 379.71 227.362 379.74C208.472 379.761 194.214 378.279 160.077 372.745C137.524 369.089 130.808 368.516 130.808 370.249C130.808 372.799 158.496 381.891 182.873 387.346C202.786 391.801 219.211 393.761 236.869 393.787C266.149 393.832 283.84 386.048 292.702 369.222C295.019 364.823 296.429 363.621 301.245 361.937C304.416 360.827 324.924 353.562 346.817 345.789C383.874 332.636 393.49 328.96 427.601 314.919C444.657 307.899 458.107 305.235 467.088 307.099C479.223 309.619 485.421 315.907 483.878 324.133C483.226 327.607 481.196 330.491 475.217 336.438C464.404 347.193 449.665 356.515 418.854 372.083L392.477 385.411L389.193 382.585C384.507 378.555 377.144 378.615 375.284 382.699C374.333 384.785 374.292 386.768 375.143 389.542L376.341 393.446L352.213 406.774C338.943 414.105 316.933 425.787 303.303 432.734L278.52 445.365L277.181 441.307C275.517 436.263 268.691 430.108 264.762 430.108C258.546 430.108 257.286 442.912 262.884 449.206C265.31 451.934 264.713 452.309 250.378 457.063C237.694 461.268 238.529 461.68 234.893 449.427C227.891 425.841 225.411 420.741 220.942 420.741C218.187 420.741 217.642 421.649 216.392 428.347C214.95 436.069 216.838 450.559 220.164 457.279L222.941 462.892H212.699C200.723 462.892 180.275 459.578 165.346 455.216C155.144 452.236 97.9312 432.577 96.9594 431.718C96.696 431.485 97.3247 430.358 98.3585 429.216C102.351 424.804 104.999 416.766 105.007 409.032C105.019 399.322 103.231 395.567 98.5997 395.567C95.7442 395.567 94.667 396.433 92.3899 400.562C89.3552 406.063 86.0431 422.364 87.1213 426.486C87.7664 428.956 87.5499 429.056 83.2566 428.28C77.0304 427.155 76.6686 426.809 78.6952 423.916C81.2897 420.211 80.9502 412.307 78.0373 408.605C74.7485 404.422 70.8709 404.645 67.0073 409.237C64.3168 412.436 63.9352 413.823 64.27 419.19L64.6587 425.428L58.7474 425.425L52.8362 425.424L53.2893 421.537C53.5386 419.398 52.9333 415.709 51.9429 413.341C50.3471 409.519 49.6715 409.032 45.9684 409.032C42.5146 409.032 41.3929 409.689 39.4752 412.837C38.199 414.931 36.8339 419.062 36.4394 422.017L35.7228 427.392L21.506 430.961C13.6876 432.925 5.75551 435.137 3.87991 435.875C-3.25366 438.688 3.14115 439.162 20.7544 437.127C33.0898 435.701 39.5911 435.398 41.0569 436.18C42.5274 436.964 44.3164 436.872 46.6896 435.888C51.5612 433.871 69.6182 435.223 79.8859 438.375C84.3899 439.758 101.246 446.045 117.344 452.346C165.486 471.192 184.945 476.532 210.087 477.796C230.792 478.838 247.435 475.943 268.375 467.653C282.784 461.95 335.689 435.411 364.379 419.495C378.545 411.636 399.093 400.884 410.039 395.6C448.695 376.943 472.064 362.642 485.665 349.317C495.722 339.464 499.997 331.259 500 321.802C500.004 310.107 494.621 302.353 482.043 295.936C476.384 293.048 474.113 292.612 463.31 292.333C455.606 292.135 448.59 292.629 444.515 293.657Z" fill="#2563EB"/>
</svg>
