<svg width="500" height="500" viewBox="0 0 500 500" fill="none" xmlns="http://www.w3.org/2000/svg">
<rect width="500" height="500" fill="white"/>
<path fill-rule="evenodd" clip-rule="evenodd" d="M234.363 3.06258C210.955 7.60989 193.883 16.5823 179.238 32.0346C166.804 45.1532 159.119 59.1143 154.411 77.1367C150.848 90.7713 150.644 110.751 153.93 124.212C158.124 141.4 164.541 153.948 176.126 167.611L181.85 174.362L177.035 176.677C166.653 181.669 148.4 194.889 137.846 205.06C116.561 225.574 104.873 244.674 94.316 276.196C91.0629 285.908 90.7304 287.916 91.1415 295.368C91.6801 305.128 94.6401 311.9 100.928 317.758C106.342 322.801 109.308 324.504 116.136 326.49C121.38 328.016 125.577 328.073 157.968 327.068C207.631 325.525 247.694 323.861 248.236 323.318C248.485 323.069 247.331 322.861 245.669 322.858C244.007 322.855 231.696 322.401 218.309 321.849C204.923 321.298 177.695 320.34 157.801 319.722C118.425 318.497 117.161 318.295 110.73 312.189C100.213 302.206 101.142 288.988 114.165 263.343C121.86 248.188 130.068 236.955 142.652 224.355C158.01 208.978 173.779 198.745 195.2 190.258C204.596 186.535 206.582 184.895 207.549 180.063C208.168 176.962 207.571 176.158 196.832 165.622C183.813 152.85 178.661 144.977 173.822 130.463C164.657 102.968 171.764 71.8256 192.135 50.2176C204.88 36.7011 219.847 28.9112 239.179 25.7359C247.977 24.2913 251.12 24.2095 259.084 25.2168C279.195 27.7599 296.521 36.7788 310.321 51.8861C322.439 65.1539 329.103 81.9182 329.924 101.209C330.536 115.575 328.788 125.003 323.441 136.167C317.854 147.83 312.338 155.123 301.638 164.99L291.701 174.155L292.163 178.558C292.78 184.437 293.828 185.468 302.535 188.755C339.883 202.858 370.497 232.805 387.28 271.652C393.074 285.062 395.639 294.093 394.731 297.883C392.755 306.128 385.43 314.238 377.929 316.488C375.59 317.189 359.795 318.125 340.377 318.715C298.877 319.974 250.001 321.911 249.594 322.311C248.59 323.297 317.962 325.843 356.575 326.238C380.231 326.479 381.665 326.383 386.268 324.232C397.324 319.067 404.967 308.129 406.309 295.547C407.374 285.559 401.918 266.515 392.613 247.746C378.744 219.768 354.192 194.519 326.414 179.669L318.013 175.176L323.67 168.966C336.199 155.208 344.378 139.367 348.005 121.832C350.634 109.124 350.126 89.1744 346.859 76.8931C344.159 66.7405 336.82 51.0954 330.795 42.6484C318.149 24.9152 296.777 10.8794 273.139 4.78389C262.009 1.91333 244.318 1.1278 234.363 3.06258ZM245.432 332.968C240.25 344.232 238.761 352.536 239.255 367.426C239.673 380.012 241.251 386.821 246.761 399.81C247.42 401.363 246.936 401.624 243.386 401.624C237.333 401.624 226.86 405.187 220.744 409.327C211.658 415.478 205.299 424.817 202.268 436.465C201.424 439.704 200.557 442.532 200.338 442.749C200.121 442.967 196.502 442.23 192.296 441.112C177.806 437.259 169.538 436.352 149.436 436.41C128.916 436.469 118.089 437.84 104.684 442.079C101.147 443.197 98.001 444.112 97.6934 444.112C97.3848 444.112 97.1331 441.399 97.1331 438.083C97.1331 429.406 94.6484 422.255 89.0691 414.879C79.5635 402.31 67.0233 396.356 49.955 396.307C34.5097 396.265 22.1352 401.593 12.6431 412.374C-6.51626 434.138 -3.54376 467.181 19.1411 484.605C29.5571 492.605 35.1498 494.313 51.0446 494.345C63.5496 494.371 64.9354 494.173 70.496 491.566C78.4015 487.859 87.7424 478.833 91.4471 471.32C93.7236 466.705 94.4921 463.464 94.8452 456.986L95.303 448.615L100.968 450.485C126.527 458.923 170.041 459.114 193.333 450.891L197.41 449.451L198.612 456.368C202.739 480.12 223.724 498 247.476 498C262.052 498 273.85 492.979 284.007 482.452C291.826 474.347 296.278 465.884 298.107 455.641L299.342 448.722L308.41 451.009C332.576 457.105 366.974 457.027 390.657 450.821C395.836 449.465 401.061 448.06 402.267 447.703C404.343 447.085 404.484 447.482 404.932 455.247C406.796 487.447 444.265 506.284 474.239 490.09C481.691 486.064 490.023 477.514 493.809 470.011C504.387 449.043 501.365 428.662 485.087 411.194C474.914 400.276 465.974 396.278 451.846 396.328C427.293 396.414 407.607 413.34 406.078 435.678C405.82 439.461 405.448 443.081 405.255 443.721C405.012 444.517 402.328 444.14 396.757 442.526C380.738 437.883 367.917 436.56 344.692 437.152C326.723 437.611 321.689 438.108 312.162 440.362C305.964 441.829 300.549 442.817 300.128 442.558C299.709 442.298 299.05 440.113 298.665 437.703C297.049 427.592 289.106 415.432 280.166 409.38C273.618 404.947 263.438 401.624 256.411 401.624C251.869 401.624 251.326 401.4 252.013 399.81C257.677 386.691 258.971 381.159 259.477 367.899C259.911 356.517 259.658 353.053 257.866 345.966C255.689 337.351 250.904 325.973 249.458 325.973C249.015 325.973 247.203 329.121 245.432 332.968ZM263.189 407.608C274.71 413.003 282.979 423.132 286.231 435.832C289.708 449.413 286.118 462.376 276.102 472.397C265.025 483.482 248.542 487.056 235.677 481.162C227.898 477.598 220.06 470.125 216.519 462.896C213.953 457.662 213.661 455.955 213.655 446.185C213.65 436.54 213.965 434.63 216.425 429.378C223.022 415.293 239.854 403.156 251.565 404.04C254.19 404.238 259.421 405.843 263.189 407.608ZM459.927 415.628C466.924 419.074 473.402 425.679 476.505 432.53C479.728 439.649 479.569 452.095 476.164 459.139C472.815 466.063 465.999 472.69 458.794 476.025C454.007 478.241 451.328 478.762 444.59 478.792C437.261 478.824 435.477 478.43 429.388 475.432C420.948 471.277 414.014 464.433 409.904 456.203C406.09 448.566 405.953 443.399 409.365 436.064C414.343 425.365 422.698 417.545 433.137 413.811C440.948 411.017 452.1 411.773 459.927 415.628ZM70.6596 416.574C82.5577 422.398 92.7801 436.303 92.8536 446.761C92.9303 457.617 83.2423 470.51 70.4898 476.52C64.4144 479.385 62.3616 479.827 55.1874 479.817C45.0894 479.804 37.4863 476.717 30.6207 469.844C23.7023 462.917 21.1316 456.66 21.113 446.703C21.0943 437.034 23.2124 431.295 29.2784 424.577C36.897 416.139 44.9496 412.87 56.8849 413.371C62.9645 413.626 66.1533 414.368 70.6596 416.574Z" fill="#2563EB"/>
</svg>
