<svg width="500" height="500" viewBox="0 0 500 500" fill="none" xmlns="http://www.w3.org/2000/svg">
<rect width="500" height="500" fill="white"/>
<path fill-rule="evenodd" clip-rule="evenodd" d="M236.601 2.12595C225.384 5.06509 217.091 9.91908 208.073 18.8264C194.657 32.0776 188.957 45.1647 188.957 62.7253C188.957 77.1189 192.744 88.4458 201.312 99.6693C203.361 102.354 205.037 104.738 205.037 104.965C205.037 105.193 202.527 106.796 199.46 108.527C183.912 117.303 167.948 134.154 160.023 150.154C150.158 170.072 150.465 183.668 160.977 192.362C167.681 197.908 169.656 198.097 202.76 196.361C219.244 195.495 236.129 194.979 240.28 195.212L247.83 195.636L244.491 202.084C241.432 207.991 241.149 209.366 241.121 218.462C241.106 223.923 241.482 229.919 241.959 231.788L242.826 235.185H230.691C209.545 235.185 150.441 237.303 143.48 238.309C129.988 240.261 116.903 249.895 111.193 262.081C108.686 267.432 108.369 269.343 108.369 279.084C108.369 285.12 108.721 292.411 109.15 295.285L109.932 300.511L100.824 302.277C87.7286 304.818 77.8714 310.107 68.0886 319.842C59.031 328.855 54.4243 336.811 51.3863 348.691C46.7567 366.798 50.4855 385.404 61.7137 400.219L65.9869 405.857L57.8616 410.858C36.4607 424.031 18.8889 447.424 14.2791 468.879C12.4963 477.177 12.5004 477.277 14.7776 481.743C18.032 488.121 24.6566 494.952 30.1882 497.63C34.7206 499.824 35.7082 499.889 53.6823 499.179C64.0013 498.773 82.174 497.825 94.0648 497.076C107.742 496.212 119.331 496.023 125.612 496.56C131.073 497.026 149.255 497.991 166.018 498.704L196.495 500L201.541 497.403C205.082 495.58 207.524 493.289 209.731 489.714C212.56 485.133 212.871 483.777 212.837 476.184C212.792 466.613 210.053 458.574 202.568 446.06C193.809 431.412 179.167 417.092 165.784 410.085L160.327 407.227L164.281 402.471C176.355 387.945 180.605 364.267 174.417 345.978C170.519 334.456 166.874 328.562 158.502 320.245C147.929 309.739 131.363 302.079 119.221 302.079C116.097 302.079 115.428 301.729 115.727 300.25C115.931 299.244 116.875 293.487 117.825 287.457C119.831 274.742 121.888 270.143 128.401 263.812C136.406 256.031 139.197 255.634 175.12 257.162C210.091 258.65 321.576 257.975 346.021 256.127C363.654 254.794 369.098 255.805 375.968 261.685C383.574 268.197 386.902 276.875 388.474 294.283L389.137 301.643L381.354 302.952C376.992 303.684 370.261 305.845 366.048 307.864C342.805 319.004 329.4 339.597 329.4 364.159C329.4 379.115 333.096 390.262 341.953 402.022L345.984 407.372L343.179 408.65C332.86 413.346 317.373 426.73 308.803 438.357C299.621 450.813 292.79 467.486 292.846 477.302C292.894 485.767 299.609 494.915 308.175 498.188C312.266 499.75 314.757 499.799 333.337 498.688C374.491 496.226 390.726 495.707 400.465 496.543C405.925 497.013 423.669 497.974 439.894 498.682C462.457 499.666 470.353 499.681 473.467 498.748C478.812 497.147 485.65 489.72 487.251 483.779C489.637 474.927 486.285 461.906 477.689 446.636C471.439 435.532 454.18 418.037 443.191 411.661L435.231 407.043L438.709 402.902C446.698 393.391 451.673 378.691 451.673 364.599C451.673 343.134 441.8 324.586 424.056 312.717C415.495 306.99 406.057 303.377 397.195 302.433L391.311 301.807L391.447 285.481C391.579 269.574 391.507 269.001 388.647 263.178C382.02 249.678 370.295 242.107 353.272 240.332C341.602 239.115 294.341 237.34 272.594 237.303C258.987 237.279 257.144 237.075 257.691 235.651C258.034 234.758 258.781 231.099 259.353 227.522C260.78 218.588 259.275 210.416 254.658 202.013C252.594 198.258 251.104 194.66 251.347 194.02C251.663 193.186 244.903 192.804 227.63 192.68C201.782 192.491 179.175 189.934 174.127 186.626C170.802 184.446 168.111 179.018 168.27 174.805C168.427 170.634 174.379 158.507 180.455 149.984C191.295 134.777 205.358 124.154 223.237 117.669C231.328 114.734 233.819 112.865 234.788 109C235.821 104.884 233.757 101.26 226.983 95.2972C214.191 84.0361 209.149 65.9644 214.394 50.1827C219.101 36.018 229.94 25.083 243.392 20.9283C251.516 18.4187 255.889 18.3038 263.896 20.389C272.497 22.6299 277.802 25.6234 284.505 32.0169C299.001 45.8472 301.977 65.6623 292.243 83.5501C289.694 88.2326 286.908 91.2209 276.363 100.577C274.675 102.074 274.012 103.825 274.012 106.781C274.012 112.242 276.979 115.109 285.602 117.979C306.411 124.905 326.241 142.824 336.345 163.833C341.074 173.666 341.467 179.496 337.674 183.552C333.486 188.029 331.616 188.498 314.769 189.287C278.67 190.979 253.084 192.72 253.859 193.432C254.857 194.352 285.842 196.283 314.247 197.197C333.998 197.832 335.378 197.752 339.329 195.725C353.424 188.492 355.447 172.132 344.844 151.1C335.77 133.1 321.646 118.147 304.609 108.501L299.152 105.412L303.264 99.9641C317.384 81.2589 319.525 56.2815 308.872 34.5045C303.781 24.0963 291.105 11.1984 281.327 6.47509C267.386 -0.259212 251.573 -1.79673 236.601 2.12595ZM126.098 322.495C134.799 324.761 141.53 328.724 147.627 335.172C156.755 344.826 161.293 358.91 159.098 370.782C156.848 382.957 151.749 390.868 139.245 401.587C135.049 405.183 134.773 405.736 135.363 409.363C136.212 414.605 138.462 416.593 147.079 419.714C169.226 427.738 187.889 444.712 198.181 466.192C206.01 482.531 201.612 490.018 183.679 490.875C179.044 491.096 162.085 492.023 145.991 492.934C119.041 494.46 114.128 494.454 83.8095 492.859C35.796 490.334 38.0115 490.611 34.0413 486.64C28.747 481.345 28.4983 477.134 32.9273 467.806C43.958 444.576 62.1787 427.372 83.3507 420.198C92.2558 417.182 93.9791 416.101 95.6951 412.458C98.1343 407.28 96.8227 404.313 88.9962 397.305C77.2883 386.821 71.9961 373.035 74.4154 359.323C77.4858 341.923 89.1749 327.816 104.616 322.874C111.902 320.543 118.18 320.432 126.098 322.495ZM405.69 323.929C417.615 328.441 427.466 338.579 431.766 350.757C433.762 356.413 434.085 359.055 433.709 366.653C433.064 379.674 429.409 386.953 418.253 397.442C409.47 405.698 408.533 407.748 411.031 413.23C412.343 416.11 413.372 416.7 425.007 421.243C446.482 429.628 465.756 448.47 474.254 469.386C477.161 476.543 477.362 479.74 475.17 483.98C472.344 489.445 468.888 490.37 447.572 491.361C436.895 491.858 420.164 492.793 410.393 493.439C395.836 494.401 386.586 494.299 359.185 492.873C311.015 490.366 313.088 490.619 308.837 486.723C301.984 480.442 303.314 472.514 313.986 456.02C325.324 438.496 340.221 426.582 359.572 419.562C368.4 416.36 371.203 413.684 371.203 408.46C371.203 405.545 370.509 403.77 368.721 402.111C357.63 391.814 355.985 389.865 352.838 383.299C346.997 371.111 347.26 357.042 353.558 344.695C358.586 334.837 371.339 324.571 381.947 321.84C387.243 320.477 399.394 321.546 405.69 323.929Z" fill="#2563EB"/>
</svg>
