<svg width="500" height="500" viewBox="0 0 500 500" fill="none" xmlns="http://www.w3.org/2000/svg">
<rect width="500" height="500" fill="white"/>
<path fill-rule="evenodd" clip-rule="evenodd" d="M30.4124 40.7671C25.1649 42.3909 13.5392 50.4056 9.17938 55.4057C7.10825 57.7816 4.19485 62.2748 2.70619 65.3915L0 71.0582L0.276288 153.483C0.427835 198.817 0.659793 262.567 0.791752 295.15L1.03093 354.393L4.82474 362.333C10.9907 375.238 19.0825 381.955 32.6464 385.427C38.3392 386.885 45.3392 386.935 99.9124 385.907C133.414 385.277 162.848 384.536 165.323 384.263L169.821 383.764L169.129 388.655C166.829 404.905 161.507 417.677 152.191 429.301C142.656 441.199 142.749 441.142 130.412 442.486C113.876 444.288 99.5856 447.051 100.756 448.22C101.593 449.057 122.811 452.575 131.961 453.394C136.585 453.808 141.319 454.856 142.738 455.778C144.997 457.246 153.051 457.424 217.171 457.424C273.318 457.424 289.355 457.142 290.361 456.136C291.07 455.429 293.528 454.845 295.825 454.842C299.832 454.836 313.122 453.033 327.162 450.589C331.295 449.87 333.263 449.134 332.368 448.644C330.42 447.578 314.809 444.969 301.234 443.442L290.121 442.192L283.863 435.384C275.891 426.711 272.43 421.675 267.919 412.179C264.501 404.989 261.457 392.41 261.376 385.15L261.34 381.908L275 381.283C282.513 380.94 299.098 380.184 311.856 379.603C324.613 379.022 336.836 378.28 339.016 377.953L342.981 377.361L342.625 405.544C342.314 430.031 342.502 434.482 344.053 439.483C346.303 446.747 352.413 453.812 359.492 457.338L364.838 460H419.752C471.955 460 474.934 459.899 480.115 457.96C487.995 455.012 492.696 450.663 496.603 442.705L500 435.788L499.695 410.03C499.519 395.216 498.559 375.518 497.434 363.666C496.352 352.261 494.73 319.827 493.802 291.029C491.981 234.487 491.84 233.345 485.796 226.466C480.247 220.15 476.43 218.908 462.574 218.908C446.735 218.908 425.258 220.066 425.258 220.921C425.258 221.287 435.663 222.288 448.379 223.146C470.831 224.661 471.622 224.79 475.663 227.589C478.059 229.248 480.749 232.381 482.004 234.972C484.134 239.368 484.147 239.707 482.578 249.539C480.988 259.506 477.761 347.045 477.812 378.863C477.828 388.438 477.47 393.03 476.708 393.03C476.089 393.03 471.101 392.124 465.626 391.019C438.413 385.52 395.399 385.565 368.208 391.12C362.63 392.259 357.904 393.03 357.706 392.833C357.509 392.635 357.069 380.196 356.729 365.191C356.389 350.185 355.382 315.596 354.492 288.325C352.965 241.548 352.974 238.53 354.653 234.995C356.912 230.237 361.395 226.453 366.283 225.178C369.781 224.266 412.409 220.968 420.697 220.968C423.895 220.968 424.127 220.78 423.049 219.056C422.138 217.598 422.278 206.397 423.636 171.919C424.616 147.046 425.498 113.713 425.596 97.8462C425.772 69.1511 425.76 68.9698 423.249 63.8728C417.399 51.9903 406.78 45.1624 391.89 43.7097C367.599 41.3389 37.2546 38.6498 30.4124 40.7671ZM397.023 58.6708C403.098 60.4749 410.127 66.1673 412.84 71.4827C416.044 77.7583 416.904 85.9482 417.99 120.513C418.559 138.646 419.585 168.196 420.269 186.177C420.954 204.159 421.246 219.138 420.921 219.465C420.594 219.792 407.8 219.52 392.49 218.86L364.654 217.663L358.345 220.492C351.013 223.78 345.389 229.478 343.945 235.076C343.39 237.234 342.405 254.293 341.757 272.984C341.109 291.676 340.397 307.153 340.174 307.374C339.953 307.597 330.126 307.252 318.339 306.611C251.312 302.96 162.579 300.238 89.4062 299.588L19.0175 298.962L19.6629 189.646C20.0619 122.015 20.7031 78.7598 21.3454 76.2098C22.6732 70.9304 28.9887 64.9856 34.832 63.5133C37.6299 62.8085 70.1608 62.2151 126.289 61.8442C229.27 61.1642 350.206 59.3745 369.072 58.2494C389.765 57.0171 391.538 57.0439 397.023 58.6708ZM209.248 132.166C190.66 142.411 170.229 163.579 162.864 180.223L160.268 186.089L162.608 185.365C178.148 180.553 205.013 155.176 214.503 136.343C218.671 128.072 217.854 127.422 209.248 132.166ZM259.492 153.903C229.477 174.252 204.442 198.55 183.659 227.504C176.469 237.521 172.232 244.56 172.957 245.285C173.957 246.285 198.359 229.054 209.986 219.137C230.44 201.691 247.149 183.561 261.473 163.271C267.657 154.512 272.082 146.786 270.918 146.786C270.407 146.786 265.265 149.989 259.492 153.903ZM407.972 269.051C398.769 272.305 388.144 285.179 388.144 293.076V296.445L392.526 295.744C403.46 293.998 414.325 282.861 416.524 271.147C417.188 267.609 417.063 267.338 414.805 267.414C413.467 267.458 410.392 268.195 407.972 269.051ZM437.113 281.022C420.33 290.084 406.222 304.594 397.503 321.758C393.927 328.8 394.813 329.668 402.062 326.223C420.198 317.601 437.866 299.335 445.321 281.499C446.831 277.885 446.818 277.636 445.116 277.659C444.118 277.671 440.515 279.185 437.113 281.022ZM340.267 319.105C339.958 323.781 339.417 338.617 339.067 352.075C338.438 376.186 338.397 376.545 336.225 376.543C335.012 376.542 326.598 376.089 317.526 375.535C254.732 371.703 175.79 368.962 84.0206 367.429C40.0773 366.694 37.9701 366.569 34.0206 364.481C31.7526 363.283 28.4093 360.752 26.5907 358.859C21.3742 353.428 20.1031 348.322 20.1031 332.794V319.18L86.8557 318.469C123.57 318.078 167.758 317.312 185.052 316.767C230.848 315.323 300.138 312.608 314.433 311.696C321.237 311.262 329.96 310.839 333.816 310.757L340.829 310.605L340.267 319.105ZM248.203 395.863C248.767 411.881 251.067 422.193 256.547 433.269L259.889 440.021L212.846 439.966L165.803 439.909L170.627 430.523C176.785 418.539 179.022 409.822 179.652 395.348L180.157 383.757L183.893 383.622C185.947 383.548 198.299 383.169 211.34 382.781C224.381 382.393 237.898 381.99 241.378 381.886L247.704 381.696L248.203 395.863ZM368.395 403.259C396.034 408.773 437.553 408.78 465.979 403.275C471.649 402.177 476.67 401.278 477.136 401.276C477.602 401.273 477.834 408.191 477.652 416.647C477.333 431.405 477.216 432.132 474.742 434.775C469.327 440.561 470.771 440.424 415.412 440.424H364.227L360.722 436.921L357.216 433.418V417.345C357.216 408.505 357.492 401.272 357.828 401.272C358.164 401.272 362.92 402.167 368.395 403.259Z" fill="#2563EB"/>
</svg>
