<svg width="500" height="500" viewBox="0 0 500 500" fill="none" xmlns="http://www.w3.org/2000/svg">
<rect width="500" height="500" fill="white"/>
<path fill-rule="evenodd" clip-rule="evenodd" d="M179.299 14.5968C170.439 16.5246 162.59 20.6821 158.543 25.5896C151.795 33.7724 149.459 44.4246 148.144 72.9962L147.386 89.4715L144.058 88.8654C132.433 86.7475 67.8946 83.787 59.6204 84.9916C43.2899 87.3707 33.6223 93.3485 27.5762 104.808L24.7056 110.248L24.3533 151.082C23.7205 224.521 27.0895 345.228 31.2847 399.425L31.9592 408.138L23.5486 409.39C12.8572 410.981 6.94744 414.344 2.98005 421.095C0.283562 425.683 -0.00319639 427.151 2.65118e-05 436.379C0.00324941 447.554 1.16451 450.852 8.7813 461.313C15.8405 471.008 34.5182 482.514 49.3715 486.318C57.3288 488.356 141.622 488.551 279.852 486.853C411.636 485.234 450.807 484.172 458.723 482.008C469.108 479.168 481.559 472.085 488.833 464.879C497.114 456.675 499.537 451.785 499.542 443.269C499.545 437.791 498.994 435.837 496.15 431.263C493.141 426.421 492.862 425.321 493.696 421.603C495.278 414.566 497.811 385.548 498.974 361.159C500.332 332.704 500.342 281.702 499.002 216.63C497.71 153.904 496.249 142.96 486.442 122.606C480.047 109.334 468.636 97.3577 458.95 93.7558C455.531 92.4835 451.575 91.4433 450.159 91.4433C448.743 91.4433 445.256 89.998 442.41 88.2314C439.565 86.4648 433.127 83.9783 428.105 82.7049C419.661 80.5644 417.316 80.443 396.95 81.0985C376.966 81.74 364.495 82.576 345.847 84.5242L339.327 85.2044L337.924 78.9214C333.324 58.3209 321.24 33.7778 309.054 20.2866C304.351 15.0782 300.449 13 295.38 13C285.534 13 278.524 22.4755 267.953 50.0725C264.451 59.2171 263.83 60.2433 263.788 56.9605C263.71 51.0246 259.817 37.0864 256.566 31.114C250.861 20.6283 245.246 17.7388 224.525 14.6258C211.479 12.6669 188.238 12.6518 179.299 14.5968ZM302.836 35.438C311.649 48.7766 318.787 65.2336 322.263 80.2238C323.162 84.104 323.898 87.6426 323.898 88.0885C323.898 89.4854 302.681 91.6217 282.806 92.2267L263.737 92.8069V88.2561C263.737 81.3016 283.856 38.9873 291.295 30.293C295.818 25.0093 296 25.0899 302.836 35.438ZM229.36 31.7426C239.22 33.7359 242.132 36.4836 245.605 47.0691L248.001 54.3708L247.728 130.128C247.352 234.307 251.087 360.838 254.712 366.704C256.504 369.603 257.427 362.834 258.596 338.22L259.843 311.967L264.116 313.475C275.198 317.386 309.53 317.995 325.822 314.57C329.538 313.789 332.741 313.435 332.938 313.783C333.136 314.131 333.626 326.021 334.029 340.205C334.43 354.39 335.007 366.842 335.31 367.875C335.831 369.656 330.639 369.759 237.22 369.82C116.592 369.9 118.214 369.915 106.506 368.616C95.4074 367.384 93.5918 366.598 91.0887 361.933C89.4622 358.904 89.1314 353.251 88.4363 316.565C87.4318 263.61 88.4105 149.157 89.9091 144.261C91.8751 137.84 95.2818 137.104 122.705 137.171C135.836 137.204 146.92 137.573 147.339 137.992C147.758 138.41 148.458 184.081 148.895 239.48C149.625 331.995 150.02 349.599 151.604 359.956C152.645 366.762 154.355 361.692 155.422 348.636C156.969 329.703 157.19 328.616 159.327 329.456C170.187 333.731 193.345 331.516 195.461 326.001C196.618 322.984 193.104 319.415 187.27 317.682C181.09 315.846 166.264 315.478 160.866 317.027L157.381 318.027L157.914 309.236C158.208 304.402 158.731 294.885 159.078 288.089L159.707 275.731H172.801C183.296 275.731 186.784 275.332 190.376 273.717C197.959 270.305 197.387 265.956 188.93 262.725C183.72 260.735 167.982 259.967 162.753 261.448L160.067 262.21L160.73 243.718C161.095 233.548 161.458 225.089 161.536 224.921C161.614 224.752 162.572 225.092 163.664 225.676C167.332 227.64 178.178 228.791 184.107 227.845C193.298 226.381 196.428 221.989 191.491 217.487C186.982 213.376 175.124 211.069 166.782 212.68L161.679 213.667L161.686 204.94C161.691 200.14 161.99 193.07 162.352 189.229L163.011 182.244L176.579 182.559C185.64 182.77 191.754 182.397 194.982 181.437C199.288 180.157 199.816 179.655 199.816 176.846C199.816 174.263 199.017 173.249 195.419 171.263C189.706 168.11 176.731 166.294 168.805 167.538L162.753 168.486V148.107V127.728L165.17 128.484C166.499 128.901 172.905 129.464 179.405 129.738C193.325 130.323 196.594 129.267 196.594 124.185C196.594 121.422 195.802 120.564 190.685 117.79C185.232 114.832 183.929 114.584 173.767 114.566L162.758 114.546L162.765 101.652C162.769 94.5596 163.068 86.2951 163.429 83.2852L164.086 77.8146L168.523 79.3652C174.216 81.3553 189.753 81.5541 196.271 79.7198C210.951 75.5892 204.738 67.4386 185.595 65.7171C180.418 65.2508 173.514 65.1809 170.255 65.5602L164.327 66.249L165.033 58.0404C166.651 39.2022 170.839 32.8752 183.484 30.1737C189.936 28.794 219.836 29.817 229.36 31.7426ZM381.91 92.0333C411.528 92.7693 421.089 93.8772 429.298 97.5221C440.778 102.62 449.547 114.809 451.725 128.695C452.265 132.143 453.218 151.888 453.843 172.573C455.88 240.031 462.487 404.521 463.421 411.012L464.331 417.344L453.47 416.668C447.496 416.296 435.357 415.525 426.494 414.952C390.023 412.597 203.296 409.536 95.1861 409.522L37.824 409.515L38.5039 401.187C40.6439 374.955 41.4819 281.27 40.2937 201.008C39.1324 122.589 39.1721 116.293 40.8555 112.084C43.1287 106.402 47.123 103.005 55.0374 100.022C60.4938 97.9649 64.4966 97.578 88.6264 96.7753C117.931 95.7996 133.032 95.0119 142.073 93.9847L147.713 93.3453V113.906V134.467L145.296 133.918C136.151 131.838 131.438 131.194 117.491 130.114C86.321 127.701 80.6874 131.372 78.888 155.264C76.9027 181.611 74.7068 257.209 74.4683 307.431C74.1944 365.108 74.1535 364.632 80.1878 373.583C83.429 378.39 91.4314 382.342 101.021 383.871C110.957 385.456 339.49 386.373 371.167 384.955C396.738 383.81 403.248 382.322 410.483 375.968C423.563 364.481 424.657 352.771 422.809 244.032C422.09 201.774 421.416 159.947 421.311 151.082C421.133 136.07 420.935 134.634 418.435 130.182C413.966 122.224 410.583 120.948 394.802 121.26C387.416 121.407 373.155 122.206 363.11 123.036C353.065 123.865 344.722 124.426 344.569 124.282C344.416 124.138 343.833 119.229 343.272 113.373C342.711 107.518 341.915 99.8722 341.503 96.3842L340.753 90.0421L348.708 90.7234C353.085 91.0984 368.025 91.6883 381.91 92.0333ZM328.163 166.126C328.724 198.04 329.925 240.835 330.832 261.225C331.737 281.615 332.483 299.576 332.486 301.139C332.492 303.886 332.358 303.947 328.464 302.973C326.249 302.419 317.166 301.679 308.283 301.328C290.439 300.624 274.448 302.029 265.35 305.102L259.651 307.026L260.109 279.559C261.22 213.045 262.672 117.165 262.667 110.63L262.663 103.489L269.377 105.681C274.48 107.348 279.057 107.89 288.446 107.94C301.634 108.01 310.079 106.372 320.116 101.798L325.509 99.3403L326.326 103.72C326.775 106.128 327.601 134.211 328.163 166.126ZM473.241 121.974C477.304 130.368 482.871 150.926 481.463 152.334C481.137 152.66 479.454 151.92 477.725 150.688C475.995 149.457 473.378 147.991 471.908 147.432C469.004 146.328 467.888 142.43 467.866 133.308C467.849 126.339 465.209 116.798 460.89 108.099L457.155 100.577L463.028 106.791C466.703 110.679 470.526 116.364 473.241 121.974ZM407.789 131.892C410.988 135.095 411.774 140.827 410.799 153.857C410.339 160.014 409.927 195.031 409.883 231.674C409.779 319.142 408.141 352.629 403.586 360.517C399.463 367.656 389.922 369.6 358.524 369.698L339.972 369.756L340.51 367.338C344.044 351.48 345.368 300.724 344.623 209.646L343.961 128.516L374.725 129.053C404.374 129.571 405.573 129.674 407.789 131.892ZM482.894 184.509V199.682L477.878 197.142C475.119 195.745 472.218 194.602 471.433 194.602C470.32 194.602 470.003 191.648 470.003 181.258C470.003 173.918 469.728 167.198 469.392 166.323C468.898 165.034 470.116 165.168 475.838 167.035L482.894 169.338V184.509ZM479.741 213.944H482.894V231.12V248.296L479.403 246.779C477.483 245.945 475.066 245.001 474.031 244.681C472.615 244.243 472.151 242.937 472.151 239.397C472.151 236.811 471.835 229.526 471.449 223.209L470.746 211.722L473.667 212.833C475.274 213.444 478.007 213.944 479.741 213.944ZM481.014 264.856L483.969 265.564L483.978 275.483C483.983 280.939 484.298 287.991 484.678 291.156L485.368 296.909L482.252 295.336C480.537 294.471 477.804 293.445 476.18 293.054C473.274 292.358 473.226 292.211 473.218 284.039C473.214 279.47 472.897 272.416 472.514 268.364L471.819 260.998L474.94 262.572C476.656 263.438 479.39 264.466 481.014 264.856ZM480.477 311.903L485.043 313.25V322.011C485.043 326.829 485.35 333.014 485.726 335.754L486.408 340.737L479.817 337.337L473.226 333.936V321.669C473.226 312.263 473.539 309.536 474.568 309.979C475.308 310.296 477.965 311.162 480.477 311.903ZM481.551 355.864L486.117 357.202V364.928C486.117 369.178 486.431 376.366 486.814 380.901L487.511 389.147L481.711 386.447C478.521 384.961 474.751 383.741 473.333 383.736L470.756 383.725L471.453 373.889C471.838 368.479 472.151 361.215 472.151 357.745C472.151 351.464 472.161 351.445 474.568 352.983C475.898 353.832 479.04 355.128 481.551 355.864ZM482.615 404.1C485.929 404.968 487.311 405.942 487.686 407.673C488.286 410.443 488.951 423.49 488.491 423.486C488.321 423.485 486.36 422.556 484.136 421.421C481.912 420.286 477.095 418.738 473.432 417.981C468.297 416.92 466.882 416.224 467.251 414.94C467.516 414.025 468.027 410.858 468.389 407.903C468.75 404.948 469.27 401.442 469.545 400.111L470.045 397.691L474.052 400.299C476.256 401.734 480.11 403.445 482.615 404.1ZM468.778 422.434C483.371 426.373 491.704 433.59 491.704 442.294C491.704 452.937 475.713 466.484 457.398 471.356C450.078 473.304 464.123 473.243 230.971 472.337C40.2754 471.597 53.2068 472.108 39.2087 464.755C24.8195 457.198 15.6042 446.117 15.5838 436.35C15.572 430.217 17.7775 427.029 22.8653 425.826C25.0591 425.306 60.8483 424.929 102.396 424.989L177.938 425.096L179.826 430.669C183.506 441.532 191.118 449.729 200.233 452.645C202.686 453.43 216.799 454.063 238.6 454.365C277.455 454.904 285.894 454.022 297.776 448.178C305.779 444.242 313.069 436.534 316.406 428.481L318.785 422.74L365.119 421.896C390.603 421.432 418.705 420.684 427.568 420.234C449.432 419.123 458.253 419.593 468.778 422.434ZM308.279 425.677C303.469 430.698 296.069 435.018 288.973 436.946C283.707 438.377 275.408 438.756 243.326 439.034C197.811 439.429 198.369 439.526 190.66 429.773L186.115 424.021L248.292 423.471C282.489 423.168 310.681 422.806 310.939 422.665C311.197 422.525 310 423.88 308.279 425.677Z" fill="#2563EB"/>
</svg>
