<?xml version="1.0" encoding="utf-8"?>
<!-- Generator: Adobe Illustrator 26.0.0, SVG Export Plug-In . SVG Version: 6.00 Build 0)  -->
<svg version="1.1" xmlns="http://www.w3.org/2000/svg" xmlns:xlink="http://www.w3.org/1999/xlink" x="0px" y="0px"
	 viewBox="0 0 600 600" style="enable-background:new 0 0 600 600;" xml:space="preserve">
<style type="text/css">
	.st0{opacity:0.15;}
</style>
<g id="Background">
</g>
<g id="Pattern">
	<g class="st0">
		<g>
			<g>
				<rect x="214.5" width="1" height="5"/>
			</g>
			<g>
				<path d="M215.5,575h-1v-10h1V575z M215.5,545h-1v-10h1V545z M215.5,515h-1v-10h1V515z M215.5,485h-1v-10h1V485z M215.5,455h-1
					v-10h1V455z M215.5,425h-1v-10h1V425z M215.5,395h-1v-10h1V395z M215.5,365h-1v-10h1V365z M215.5,335h-1v-10h1V335z M215.5,305
					h-1v-10h1V305z M215.5,275h-1v-10h1V275z M215.5,245h-1v-10h1V245z M215.5,215h-1v-10h1V215z M215.5,185h-1v-10h1V185z
					 M215.5,155h-1v-10h1V155z M215.5,125h-1v-10h1V125z M215.5,95h-1V85h1V95z M215.5,65h-1V55h1V65z M215.5,35h-1V25h1V35z"/>
			</g>
			<g>
				<rect x="214.5" y="595" width="1" height="5"/>
			</g>
		</g>
		<g>
			<g>
				<rect x="554.5" width="1" height="5"/>
			</g>
			<g>
				<path d="M555.5,575h-1v-10h1V575z M555.5,545h-1v-10h1V545z M555.5,515h-1v-10h1V515z M555.5,485h-1v-10h1V485z M555.5,455h-1
					v-10h1V455z M555.5,425h-1v-10h1V425z M555.5,395h-1v-10h1V395z M555.5,365h-1v-10h1V365z M555.5,335h-1v-10h1V335z M555.5,305
					h-1v-10h1V305z M555.5,275h-1v-10h1V275z M555.5,245h-1v-10h1V245z M555.5,215h-1v-10h1V215z M555.5,185h-1v-10h1V185z
					 M555.5,155h-1v-10h1V155z M555.5,125h-1v-10h1V125z M555.5,95h-1V85h1V95z M555.5,65h-1V55h1V65z M555.5,35h-1V25h1V35z"/>
			</g>
			<g>
				<rect x="554.5" y="595" width="1" height="5"/>
			</g>
		</g>
		<g>
			<g>
				<rect x="384.5" width="1" height="5"/>
			</g>
			<g>
				<path d="M385.5,575h-1v-10h1V575z M385.5,545h-1v-10h1V545z M385.5,515h-1v-10h1V515z M385.5,485h-1v-10h1V485z M385.5,455h-1
					v-10h1V455z M385.5,425h-1v-10h1V425z M385.5,395h-1v-10h1V395z M385.5,365h-1v-10h1V365z M385.5,335h-1v-10h1V335z M385.5,305
					h-1v-10h1V305z M385.5,275h-1v-10h1V275z M385.5,245h-1v-10h1V245z M385.5,215h-1v-10h1V215z M385.5,185h-1v-10h1V185z
					 M385.5,155h-1v-10h1V155z M385.5,125h-1v-10h1V125z M385.5,95h-1V85h1V95z M385.5,65h-1V55h1V65z M385.5,35h-1V25h1V35z"/>
			</g>
			<g>
				<rect x="384.5" y="595" width="1" height="5"/>
			</g>
		</g>
		<g>
			<g>
				<rect x="299.5" width="1" height="5"/>
			</g>
			<g>
				<path d="M300.5,575h-1v-10h1V575z M300.5,545h-1v-10h1V545z M300.5,515h-1v-10h1V515z M300.5,485h-1v-10h1V485z M300.5,455h-1
					v-10h1V455z M300.5,425h-1v-10h1V425z M300.5,395h-1v-10h1V395z M300.5,365h-1v-10h1V365z M300.5,335h-1v-10h1V335z M300.5,305
					h-1v-10h1V305z M300.5,275h-1v-10h1V275z M300.5,245h-1v-10h1V245z M300.5,215h-1v-10h1V215z M300.5,185h-1v-10h1V185z
					 M300.5,155h-1v-10h1V155z M300.5,125h-1v-10h1V125z M300.5,95h-1V85h1V95z M300.5,65h-1V55h1V65z M300.5,35h-1V25h1V35z"/>
			</g>
			<g>
				<rect x="299.5" y="595" width="1" height="5"/>
			</g>
		</g>
		<g>
			<g>
				<rect x="469.5" width="1" height="5"/>
			</g>
			<g>
				<path d="M470.5,575h-1v-10h1V575z M470.5,545h-1v-10h1V545z M470.5,515h-1v-10h1V515z M470.5,485h-1v-10h1V485z M470.5,455h-1
					v-10h1V455z M470.5,425h-1v-10h1V425z M470.5,395h-1v-10h1V395z M470.5,365h-1v-10h1V365z M470.5,335h-1v-10h1V335z M470.5,305
					h-1v-10h1V305z M470.5,275h-1v-10h1V275z M470.5,245h-1v-10h1V245z M470.5,215h-1v-10h1V215z M470.5,185h-1v-10h1V185z
					 M470.5,155h-1v-10h1V155z M470.5,125h-1v-10h1V125z M470.5,95h-1V85h1V95z M470.5,65h-1V55h1V65z M470.5,35h-1V25h1V35z"/>
			</g>
			<g>
				<rect x="469.5" y="595" width="1" height="5"/>
			</g>
		</g>
		<g>
			<g>
				<rect x="44.5" width="1" height="5"/>
			</g>
			<g>
				<path d="M45.5,575h-1v-10h1V575z M45.5,545h-1v-10h1V545z M45.5,515h-1v-10h1V515z M45.5,485h-1v-10h1V485z M45.5,455h-1v-10h1
					V455z M45.5,425h-1v-10h1V425z M45.5,395h-1v-10h1V395z M45.5,365h-1v-10h1V365z M45.5,335h-1v-10h1V335z M45.5,305h-1v-10h1
					V305z M45.5,275h-1v-10h1V275z M45.5,245h-1v-10h1V245z M45.5,215h-1v-10h1V215z M45.5,185h-1v-10h1V185z M45.5,155h-1v-10h1
					V155z M45.5,125h-1v-10h1V125z M45.5,95h-1V85h1V95z M45.5,65h-1V55h1V65z M45.5,35h-1V25h1V35z"/>
			</g>
			<g>
				<rect x="44.5" y="595" width="1" height="5"/>
			</g>
		</g>
		<g>
			<g>
				<rect x="129.5" width="1" height="5"/>
			</g>
			<g>
				<path d="M130.5,575h-1v-10h1V575z M130.5,545h-1v-10h1V545z M130.5,515h-1v-10h1V515z M130.5,485h-1v-10h1V485z M130.5,455h-1
					v-10h1V455z M130.5,425h-1v-10h1V425z M130.5,395h-1v-10h1V395z M130.5,365h-1v-10h1V365z M130.5,335h-1v-10h1V335z M130.5,305
					h-1v-10h1V305z M130.5,275h-1v-10h1V275z M130.5,245h-1v-10h1V245z M130.5,215h-1v-10h1V215z M130.5,185h-1v-10h1V185z
					 M130.5,155h-1v-10h1V155z M130.5,125h-1v-10h1V125z M130.5,95h-1V85h1V95z M130.5,65h-1V55h1V65z M130.5,35h-1V25h1V35z"/>
			</g>
			<g>
				<rect x="129.5" y="595" width="1" height="5"/>
			</g>
		</g>
		<g>
			<g>
				<rect x="595" y="214.5" width="5" height="1"/>
			</g>
			<g>
				<path d="M575,215.5h-10v-1h10V215.5z M545,215.5h-10v-1h10V215.5z M515,215.5h-10v-1h10V215.5z M485,215.5h-10v-1h10V215.5z
					 M455,215.5h-10v-1h10V215.5z M425,215.5h-10v-1h10V215.5z M395,215.5h-10v-1h10V215.5z M365,215.5h-10v-1h10V215.5z M335,215.5
					h-10v-1h10V215.5z M305,215.5h-10v-1h10V215.5z M275,215.5h-10v-1h10V215.5z M245,215.5h-10v-1h10V215.5z M215,215.5h-10v-1h10
					V215.5z M185,215.5h-10v-1h10V215.5z M155,215.5h-10v-1h10V215.5z M125,215.5h-10v-1h10V215.5z M95,215.5H85v-1h10V215.5z
					 M65,215.5H55v-1h10V215.5z M35,215.5H25v-1h10V215.5z"/>
			</g>
			<g>
				<rect y="214.5" width="5" height="1"/>
			</g>
		</g>
		<g>
			<g>
				<rect x="595" y="554.5" width="5" height="1"/>
			</g>
			<g>
				<path d="M575,555.5h-10v-1h10V555.5z M545,555.5h-10v-1h10V555.5z M515,555.5h-10v-1h10V555.5z M485,555.5h-10v-1h10V555.5z
					 M455,555.5h-10v-1h10V555.5z M425,555.5h-10v-1h10V555.5z M395,555.5h-10v-1h10V555.5z M365,555.5h-10v-1h10V555.5z M335,555.5
					h-10v-1h10V555.5z M305,555.5h-10v-1h10V555.5z M275,555.5h-10v-1h10V555.5z M245,555.5h-10v-1h10V555.5z M215,555.5h-10v-1h10
					V555.5z M185,555.5h-10v-1h10V555.5z M155,555.5h-10v-1h10V555.5z M125,555.5h-10v-1h10V555.5z M95,555.5H85v-1h10V555.5z
					 M65,555.5H55v-1h10V555.5z M35,555.5H25v-1h10V555.5z"/>
			</g>
			<g>
				<rect y="554.5" width="5" height="1"/>
			</g>
		</g>
		<g>
			<g>
				<rect x="595" y="384.5" width="5" height="1"/>
			</g>
			<g>
				<path d="M575,385.5h-10v-1h10V385.5z M545,385.5h-10v-1h10V385.5z M515,385.5h-10v-1h10V385.5z M485,385.5h-10v-1h10V385.5z
					 M455,385.5h-10v-1h10V385.5z M425,385.5h-10v-1h10V385.5z M395,385.5h-10v-1h10V385.5z M365,385.5h-10v-1h10V385.5z M335,385.5
					h-10v-1h10V385.5z M305,385.5h-10v-1h10V385.5z M275,385.5h-10v-1h10V385.5z M245,385.5h-10v-1h10V385.5z M215,385.5h-10v-1h10
					V385.5z M185,385.5h-10v-1h10V385.5z M155,385.5h-10v-1h10V385.5z M125,385.5h-10v-1h10V385.5z M95,385.5H85v-1h10V385.5z
					 M65,385.5H55v-1h10V385.5z M35,385.5H25v-1h10V385.5z"/>
			</g>
			<g>
				<rect y="384.5" width="5" height="1"/>
			</g>
		</g>
		<g>
			<g>
				<rect x="595" y="299.5" width="5" height="1"/>
			</g>
			<g>
				<path d="M575,300.5h-10v-1h10V300.5z M545,300.5h-10v-1h10V300.5z M515,300.5h-10v-1h10V300.5z M485,300.5h-10v-1h10V300.5z
					 M455,300.5h-10v-1h10V300.5z M425,300.5h-10v-1h10V300.5z M395,300.5h-10v-1h10V300.5z M365,300.5h-10v-1h10V300.5z M335,300.5
					h-10v-1h10V300.5z M305,300.5h-10v-1h10V300.5z M275,300.5h-10v-1h10V300.5z M245,300.5h-10v-1h10V300.5z M215,300.5h-10v-1h10
					V300.5z M185,300.5h-10v-1h10V300.5z M155,300.5h-10v-1h10V300.5z M125,300.5h-10v-1h10V300.5z M95,300.5H85v-1h10V300.5z
					 M65,300.5H55v-1h10V300.5z M35,300.5H25v-1h10V300.5z"/>
			</g>
			<g>
				<rect y="299.5" width="5" height="1"/>
			</g>
		</g>
		<g>
			<g>
				<rect x="595" y="469.5" width="5" height="1"/>
			</g>
			<g>
				<path d="M575,470.5h-10v-1h10V470.5z M545,470.5h-10v-1h10V470.5z M515,470.5h-10v-1h10V470.5z M485,470.5h-10v-1h10V470.5z
					 M455,470.5h-10v-1h10V470.5z M425,470.5h-10v-1h10V470.5z M395,470.5h-10v-1h10V470.5z M365,470.5h-10v-1h10V470.5z M335,470.5
					h-10v-1h10V470.5z M305,470.5h-10v-1h10V470.5z M275,470.5h-10v-1h10V470.5z M245,470.5h-10v-1h10V470.5z M215,470.5h-10v-1h10
					V470.5z M185,470.5h-10v-1h10V470.5z M155,470.5h-10v-1h10V470.5z M125,470.5h-10v-1h10V470.5z M95,470.5H85v-1h10V470.5z
					 M65,470.5H55v-1h10V470.5z M35,470.5H25v-1h10V470.5z"/>
			</g>
			<g>
				<rect y="469.5" width="5" height="1"/>
			</g>
		</g>
		<g>
			<g>
				<rect x="595" y="44.5" width="5" height="1"/>
			</g>
			<g>
				<path d="M575,45.5h-10v-1h10V45.5z M545,45.5h-10v-1h10V45.5z M515,45.5h-10v-1h10V45.5z M485,45.5h-10v-1h10V45.5z M455,45.5
					h-10v-1h10V45.5z M425,45.5h-10v-1h10V45.5z M395,45.5h-10v-1h10V45.5z M365,45.5h-10v-1h10V45.5z M335,45.5h-10v-1h10V45.5z
					 M305,45.5h-10v-1h10V45.5z M275,45.5h-10v-1h10V45.5z M245,45.5h-10v-1h10V45.5z M215,45.5h-10v-1h10V45.5z M185,45.5h-10v-1
					h10V45.5z M155,45.5h-10v-1h10V45.5z M125,45.5h-10v-1h10V45.5z M95,45.5H85v-1h10V45.5z M65,45.5H55v-1h10V45.5z M35,45.5H25
					v-1h10V45.5z"/>
			</g>
			<g>
				<rect y="44.5" width="5" height="1"/>
			</g>
		</g>
		<g>
			<g>
				<rect x="595" y="129.5" width="5" height="1"/>
			</g>
			<g>
				<path d="M575,130.5h-10v-1h10V130.5z M545,130.5h-10v-1h10V130.5z M515,130.5h-10v-1h10V130.5z M485,130.5h-10v-1h10V130.5z
					 M455,130.5h-10v-1h10V130.5z M425,130.5h-10v-1h10V130.5z M395,130.5h-10v-1h10V130.5z M365,130.5h-10v-1h10V130.5z M335,130.5
					h-10v-1h10V130.5z M305,130.5h-10v-1h10V130.5z M275,130.5h-10v-1h10V130.5z M245,130.5h-10v-1h10V130.5z M215,130.5h-10v-1h10
					V130.5z M185,130.5h-10v-1h10V130.5z M155,130.5h-10v-1h10V130.5z M125,130.5h-10v-1h10V130.5z M95,130.5H85v-1h10V130.5z
					 M65,130.5H55v-1h10V130.5z M35,130.5H25v-1h10V130.5z"/>
			</g>
			<g>
				<rect y="129.5" width="5" height="1"/>
			</g>
		</g>
	</g>
</g>
</svg>
