<svg width="160" height="160" viewBox="0 0 160 160" fill="none" xmlns="http://www.w3.org/2000/svg">
<rect width="160" height="160" fill="white"/>
<path d="M22.8318 144.006L10 0H151L138.154 143.983L80.4138 160L22.8318 144.006Z" fill="#264DE4"/>
<path d="M127.157 134.815L138.135 11.7744H80.5V147.757L127.157 134.815Z" fill="#2965F1"/>
<path d="M39.4171 65.1844L40.999 82.8459H80.5V65.1844H39.4171ZM37.8427 47.0984H80.5V29.4366H36.2379L37.8427 47.0984ZM80.5 111.054L80.4226 111.074L60.7637 105.763L59.5072 91.6769H41.7873L44.2606 119.408L80.4188 129.452L80.5 129.429V111.054Z" fill="#EBEBEB"/>
<path d="M80.4391 65.1844V82.8459H102.175L100.126 105.752L80.4391 111.068V129.443L116.626 119.408L121.039 69.9269L121.47 65.1844L124.657 29.4366H80.4391V47.0984H105.312L103.706 65.1844H80.4391Z" fill="white"/>
</svg>
