<svg width="160" height="160" viewBox="0 0 160 160" fill="none" xmlns="http://www.w3.org/2000/svg">
<path d="M80 79.9999C80 65.2726 91.8643 53.3332 106.5 53.3332C121.135 53.3332 133 65.2726 133 79.9999C133 94.7276 121.135 106.667 106.5 106.667C91.8643 106.667 80 94.7276 80 79.9999Z" fill="#1ABCFE"/>
<path d="M27 133.333C27 118.606 38.8644 106.666 53.5 106.666H80V133.333C80 148.061 68.1357 160 53.5 160C38.8644 160 27 148.061 27 133.333Z" fill="#0ACF83"/>
<path d="M80 0V53.3332L106.5 53.3332C121.136 53.3332 133 41.3942 133 26.6666C133 11.9391 121.136 0 106.5 0H80Z" fill="#FF7262"/>
<path d="M27 26.6667C27 41.3942 38.8644 53.3332 53.5 53.3332L80 53.3332V0H53.5C38.8644 0 27 11.9391 27 26.6667Z" fill="#F24E1E"/>
<path d="M27 79.9999C27 94.7276 38.8644 106.666 53.5 106.666H80L80 53.3332L53.5 53.3332C38.8644 53.3332 27 65.2726 27 79.9999Z" fill="#A259FF"/>
</svg>
