<svg width="160" height="160" viewBox="0 0 160 160" fill="none" xmlns="http://www.w3.org/2000/svg">
<rect width="160" height="160" fill="white"/>
<path d="M22.8182 143.75L10 0H151L138.182 143.75L80.3437 160" fill="#E34F26"/>
<path d="M80.6563 147.5L127.239 134.688L138.182 11.5625H80.6563" fill="#EF652A"/>
<path d="M80.6563 65H57.2084L55.6452 46.875H80.6563V29.375H80.3437H36.2616L36.5743 34.0625L40.9512 82.8125H80.6563V65ZM80.6563 110.938H80.3437L60.6475 105.625L59.3969 91.5625H41.8891L44.0776 119.375L80.3437 129.375H80.6563V110.938Z" fill="#EBEBEB"/>
<path d="M80.3437 65V82.8125H102.228L100.04 105.625L80.3437 110.938V129.375L116.61 119.375L116.922 116.25L120.987 69.6875L121.612 65H80.3437ZM80.3437 29.375V46.875H123.175L123.488 43.125L124.426 34.0625L124.738 29.375H80.3437Z" fill="white"/>
</svg>
