<svg xmlns="http://www.w3.org/2000/svg" viewBox="0 0 500 500"><g id="freepik--background-complete--inject-289"><path d="M43.3,42.45l-5.89,9.49,2.91,1.8a2.68,2.68,0,0,1,1.23,2.5,15.44,15.44,0,0,0-.06,1.67,2.64,2.64,0,0,1-1.38,2.41l-3,1.61,5.28,9.85,3-1.62a2.66,2.66,0,0,1,2.77.18,16,16,0,0,0,1.42.88A2.66,2.66,0,0,1,51,73.63l-.11,3.42L62,77.39,62.14,74a2.66,2.66,0,0,1,1.55-2.31c.25-.11.49-.24.74-.37s.48-.26.71-.4a2.63,2.63,0,0,1,2.77,0l2.93,1.81,5.89-9.49-2.91-1.81a2.63,2.63,0,0,1-1.23-2.5c0-.55.06-1.1,0-1.66A2.63,2.63,0,0,1,74,54.81l3-1.62-5.28-9.84-3,1.61A2.64,2.64,0,0,1,66,44.78c-.46-.31-.93-.6-1.42-.87a2.66,2.66,0,0,1-1.4-2.41l.1-3.42L52.1,37.73,52,41.16a2.65,2.65,0,0,1-1.56,2.3l-.74.37-.71.41a2.67,2.67,0,0,1-2.79,0Zm9.45,7A9.14,9.14,0,1,1,49,61.88,9.13,9.13,0,0,1,52.75,49.5Z" style="fill:#ebebeb"></path><path d="M98.4,65l-6.78,3.91L92.82,71a1.85,1.85,0,0,1-.07,2,9.12,9.12,0,0,0-.58,1,1.86,1.86,0,0,1-1.66,1H88.12v7.82h2.39a1.87,1.87,0,0,1,1.66,1,10.29,10.29,0,0,0,.58,1,1.85,1.85,0,0,1,.07,2l-1.2,2.07,6.78,3.91,1.19-2.08a1.88,1.88,0,0,1,1.73-.92l.58,0,.57,0a1.87,1.87,0,0,1,1.72.91l1.21,2.09,6.77-3.91L111,86.82a1.87,1.87,0,0,1,.07-1.95c.21-.33.41-.66.59-1a1.86,1.86,0,0,1,1.65-1h2.39V75h-2.39a1.84,1.84,0,0,1-1.65-1c-.18-.35-.38-.68-.59-1a1.87,1.87,0,0,1-.07-2l1.2-2.08L105.4,65l-1.2,2.08a1.85,1.85,0,0,1-1.72.91h-1.16a1.87,1.87,0,0,1-1.73-.91Zm3.5,7.48a6.41,6.41,0,1,1-6.41,6.41A6.41,6.41,0,0,1,101.9,72.51Z" style="fill:#ebebeb"></path><path d="M435.13,303.14l3.91,6.77,2.07-1.2a1.85,1.85,0,0,1,1.95.07,11.41,11.41,0,0,0,1,.58,1.86,1.86,0,0,1,1,1.66v2.39h7.83V311a1.86,1.86,0,0,1,1-1.66,10.14,10.14,0,0,0,1-.58,1.85,1.85,0,0,1,1.95-.07l2.07,1.2,3.91-6.77-2.08-1.2a1.87,1.87,0,0,1-.91-1.73c0-.19,0-.38,0-.58s0-.38,0-.57a1.86,1.86,0,0,1,.9-1.72l2.09-1.21L459,289.36l-2.08,1.2a1.87,1.87,0,0,1-2-.07,11.12,11.12,0,0,0-1-.59,1.85,1.85,0,0,1-1-1.65v-2.39H445.1v2.39a1.85,1.85,0,0,1-1,1.65,11.12,11.12,0,0,0-1,.59,1.87,1.87,0,0,1-1.95.07l-2.08-1.2-3.91,6.77,2.08,1.2a1.87,1.87,0,0,1,.91,1.72c0,.2,0,.39,0,.58s0,.39,0,.58a1.89,1.89,0,0,1-.91,1.73Zm7.48-3.51a6.41,6.41,0,1,1,6.4,6.42A6.4,6.4,0,0,1,442.61,299.63Z" style="fill:#ebebeb"></path><polygon points="43.43 395.83 171.54 395.83 175.66 314.54 39.31 314.54 43.43 395.83" style="fill:#ebebeb"></polygon><path d="M162.15,351.75H49.33l-1.56-28.22H164Zm-111.88-1H161.21l1.69-26.22H48.83Z" style="fill:#dbdbdb"></path><path d="M160.62,384.22h-108l-1.26-25.48h110.9Zm-107.1-1H159.68l1.47-23.48H52.36Z" style="fill:#dbdbdb"></path><path d="M118.71,340.7H94.8l-.88-6.8h25.67Zm-23-1h22.16l.62-4.8H95.06Z" style="fill:#dbdbdb"></path><path d="M118.71,374.88H94.8l-.88-6.8h25.67Zm-23-1h22.16l.62-4.8H95.06Z" style="fill:#dbdbdb"></path><polygon points="61.2 395.83 59.96 404.69 57.45 422.48 52.56 422.48 52.56 395.83 61.2 395.83" style="fill:#ebebeb"></polygon><polygon points="61.2 395.83 59.96 404.69 52.56 404.69 52.56 395.83 61.2 395.83" style="fill:#dbdbdb"></polygon><polygon points="153.78 395.83 155.02 404.69 157.52 422.48 162.41 422.48 162.41 395.83 153.78 395.83" style="fill:#ebebeb"></polygon><polygon points="153.78 395.83 155.02 404.69 162.41 404.69 162.41 395.83 153.78 395.83" style="fill:#dbdbdb"></polygon></g><g id="freepik--Shadow--inject-289"><ellipse cx="220.3" cy="451.92" rx="183.2" ry="18.45" style="fill:#ebebeb"></ellipse></g><g id="freepik--Floor--inject-289"><polygon points="35.07 422.48 88.8 422.24 142.53 422.15 250 421.98 357.47 422.15 411.2 422.23 464.93 422.48 411.2 422.72 357.47 422.81 250 422.98 142.53 422.81 88.8 422.72 35.07 422.48" style="fill:#263238"></polygon></g><g id="freepik--Screens--inject-289"><path d="M436.81,89.23V320.48c0,6.54-4.89,11.82-10.93,11.82H318C311.9,332.3,307,327,307,320.48V89.23c0-13.32,4.89-14,10.94-14h21.63c1.25,0,2.28,1.43,2.28,3.2v.76c0,4.15,2.27,4.16,5.05,4.16h50c2.81,0,5.07,0,5.07-4.16v-.76c0-1.77,1-3.2,2.29-3.2h21.61C431.92,75.26,436.81,77,436.81,89.23Z" style="fill:#fff"></path><path d="M437.31,89.23h0a33,33,0,0,0-.52-6,11.62,11.62,0,0,0-2.59-5.61,8.89,8.89,0,0,0-5.62-2.66,23.61,23.61,0,0,0-3.06-.17l-20.93,0a2.48,2.48,0,0,0-1.79.52,3.32,3.32,0,0,0-1,1.41,5.55,5.55,0,0,0-.36,2.36c0,.26,0,.53,0,.78a3.26,3.26,0,0,1-.85,2.34,3.93,3.93,0,0,1-2.45.68h-6l-35.94,0-9.49,0a10,10,0,0,1-2.35-.18,2.07,2.07,0,0,1-1.6-1.51,7.34,7.34,0,0,1-.23-2.28v-.51A4.12,4.12,0,0,0,341,75.12a2.49,2.49,0,0,0-.88-.43,2.34,2.34,0,0,0-.76-.08l-20.68,0a27.17,27.17,0,0,0-5.06.3,9.08,9.08,0,0,0-3,1.17,7.73,7.73,0,0,0-2.23,2.37,7.44,7.44,0,0,0-.52,1l-.22.46-.17.5c-.12.31-.23.63-.33,1l-.35,1.52-.23,1.5a49.91,49.91,0,0,0-.28,6.07L306,312.08v7c0,.66,0,1.31,0,2a14.1,14.1,0,0,0,.51,3.19,12.34,12.34,0,0,0,8.87,8.69,13.79,13.79,0,0,0,2.85.29h.34l104.83-.14h1.05c.65,0,1.3,0,2,0a11.09,11.09,0,0,0,3.16-.64,12.27,12.27,0,0,0,2.86-1.53,12.09,12.09,0,0,0,2.28-2.21,13.06,13.06,0,0,0,2.62-5.77,17.64,17.64,0,0,0,.22-3.12Zm-1.5,233.43a11.44,11.44,0,0,1-2.31,5,11,11,0,0,1-2,1.91,10.25,10.25,0,0,1-2.47,1.3,12.47,12.47,0,0,1-4.73.56l-105.72-.14a11.54,11.54,0,0,1-2.75-.25,10.37,10.37,0,0,1-7.41-7.33A12.65,12.65,0,0,1,308,321c0-.6,0-1.24,0-1.88v-7.05l-.29-221.63a48.5,48.5,0,0,1,.26-5.89,14,14,0,0,1,1.61-5.42,6.31,6.31,0,0,1,1.81-1.94,7.47,7.47,0,0,1,2.53-1,26.68,26.68,0,0,1,4.82-.29l20.52,0a1.35,1.35,0,0,1,1,.24,2.86,2.86,0,0,1,.95,2.14v.49a8.61,8.61,0,0,0,.3,2.65,3.53,3.53,0,0,0,.94,1.55,3.67,3.67,0,0,0,1.61.82,11,11,0,0,0,2.59.21h.54L392.12,84h2.1c1.3,0,2.59,0,3.91,0a5,5,0,0,0,3.17-1,4.4,4.4,0,0,0,1.22-3.12c0-.28,0-.57,0-.85a5,5,0,0,1,.27-1.94,1.75,1.75,0,0,1,1.75-1.24l21,0a21.4,21.4,0,0,1,2.92.15,7.81,7.81,0,0,1,5,2.31,10.56,10.56,0,0,1,2.36,5.12,31.66,31.66,0,0,1,.52,5.86L436,316.83c0,.59,0,1.18,0,1.77A21.55,21.55,0,0,1,435.81,322.66Z" style="fill:#dbdbdb"></path><g id="freepik--u5Zjqx--inject-289"><path d="M335.84,80.25l-.21.21-.12.12a2.78,2.78,0,0,0-2-.84,2.82,2.82,0,0,0-2,.84l-.11-.12-.21-.2h0v0l.27-.23a3.17,3.17,0,0,1,.61-.39,2.76,2.76,0,0,1,.81-.27,2.73,2.73,0,0,1,.4,0h.36l.27,0a3.08,3.08,0,0,1,.74.18,2.94,2.94,0,0,1,.51.23,3.21,3.21,0,0,1,.48.34l.22.2Z" style="fill:#a6a6a6"></path><path d="M332.14,81.23l-.33-.32a2.33,2.33,0,0,1,1.35-.68,2.37,2.37,0,0,1,2,.67l-.33.33a1.92,1.92,0,0,0-2.71,0Z" style="fill:#a6a6a6"></path><path d="M334.52,81.56l-.33.33a1,1,0,0,0-.69-.28,1,1,0,0,0-.7.28l-.32-.32A1.44,1.44,0,0,1,334.52,81.56Z" style="fill:#a6a6a6"></path><path d="M333.79,82.19a.3.3,0,1,1-.29-.3A.3.3,0,0,1,333.79,82.19Z" style="fill:#a6a6a6"></path></g><path d="M315.47,80.88a.86.86,0,1,1,.86.86A.86.86,0,0,1,315.47,80.88Z" style="fill:#a6a6a6"></path><path d="M318.18,80.88a.86.86,0,1,1,.86.86A.86.86,0,0,1,318.18,80.88Z" style="fill:#a6a6a6"></path><path d="M320.89,80.88a.86.86,0,1,1,.86.86A.86.86,0,0,1,320.89,80.88Z" style="fill:#a6a6a6"></path><path d="M323.6,80.88a.86.86,0,1,1,.86.86A.86.86,0,0,1,323.6,80.88Z" style="fill:#a6a6a6"></path><path d="M326.31,80.88a.86.86,0,1,1,.86.86A.86.86,0,0,1,326.31,80.88Z" style="fill:#a6a6a6"></path><path d="M427.07,82.76h-7V79.52h7Zm-6.64-.36h6.28V79.87h-6.28Z" style="fill:#a6a6a6"></path><rect x="420.65" y="80.07" width="4.51" height="2.14" style="fill:#a6a6a6"></rect><rect x="427.08" y="80.27" width="0.62" height="1.74" style="fill:#a6a6a6"></rect><path d="M363.27,317.93a1.89,1.89,0,1,1-1.89-1.89A1.89,1.89,0,0,1,363.27,317.93Z" style="fill:#dbdbdb"></path><path d="M385.3,317.93a2.86,2.86,0,1,1-2.86-2.85A2.86,2.86,0,0,1,385.3,317.93Z" style="fill:#2463EB"></path><path d="M373.8,317.93a1.89,1.89,0,1,1-1.89-1.89A1.89,1.89,0,0,1,373.8,317.93Z" style="fill:#dbdbdb"></path><path d="M324.14,110.74a4.65,4.65,0,0,1-1.31.55,4.49,4.49,0,0,1-3.47-.56,4.54,4.54,0,1,1,4.78,0Z" style="fill:#ebebeb"></path><path d="M323.13,106.35a1.38,1.38,0,1,1-1.38-1.39A1.38,1.38,0,0,1,323.13,106.35Z" style="fill:#fff"></path><path d="M324.14,110.17v.57a4.65,4.65,0,0,1-1.31.55,4.49,4.49,0,0,1-3.47-.56v-.56a2.39,2.39,0,1,1,4.78,0Z" style="fill:#fff"></path><rect x="417.05" y="102.32" width="9.16" height="1.8" style="fill:#ebebeb"></rect><rect x="417.05" y="105.97" width="9.16" height="1.8" style="fill:#ebebeb"></rect><rect x="417.05" y="109.61" width="9.16" height="1.8" style="fill:#ebebeb"></rect><rect x="317.2" y="124.19" width="109.01" height="142.8" style="fill:#ebebeb"></rect><path d="M371.71,295.14A10.14,10.14,0,1,1,381.84,285,10.15,10.15,0,0,1,371.71,295.14Zm0-18.56a8.42,8.42,0,1,0,8.42,8.42A8.44,8.44,0,0,0,371.71,276.58Z" style="fill:#2463EB"></path><path d="M378,285a6.28,6.28,0,1,1-6.27-6.27A6.28,6.28,0,0,1,378,285Z" style="fill:#2463EB"></path><path d="M326.32,285.82a.65.65,0,0,1-.32-.61v-.41a.65.65,0,0,1,.32-.61l.74-.43-1.39-2.4-.74.42a.66.66,0,0,1-.69,0,2.12,2.12,0,0,0-.36-.21.66.66,0,0,1-.36-.59v-.85h-2.78V281a.66.66,0,0,1-.36.59,2.12,2.12,0,0,0-.36.21.66.66,0,0,1-.69,0l-.74-.42-1.39,2.4.74.43a.63.63,0,0,1,.32.61v.41a.63.63,0,0,1-.32.61l-.74.43,1.39,2.4.73-.42a.66.66,0,0,1,.7,0l.36.21a.64.64,0,0,1,.36.58v.85h2.78V289a.64.64,0,0,1,.36-.58l.36-.21a.64.64,0,0,1,.69,0l.74.42,1.39-2.4Zm-4.19,1.46A2.28,2.28,0,1,1,324.4,285,2.27,2.27,0,0,1,322.13,287.28Z" style="fill:#2463EB"></path><path d="M426.21,289.89H414.93v-9.78h11.28Zm-10.55-.73h9.82v-8.31h-9.82Z" style="fill:#2463EB"></path><polygon points="415.3 289.53 418.36 286.59 421.13 289.53 415.3 289.53" style="fill:#2463EB"></polygon><polygon points="419.23 289.53 422.86 284.93 425.84 289.53 419.23 289.53" style="fill:#2463EB"></polygon><path d="M419.3,284.66a1.09,1.09,0,1,1-1.08-1.08A1.09,1.09,0,0,1,419.3,284.66Z" style="fill:#2463EB"></path><polygon points="353.54 124.19 353.66 195.59 353.54 266.99 353.41 195.59 353.54 124.19" style="fill:#fff"></polygon><polygon points="389.87 124.19 390 195.59 389.87 266.99 389.75 195.59 389.87 124.19" style="fill:#fff"></polygon><polygon points="426.21 171.79 371.7 171.91 317.2 171.79 371.7 171.66 426.21 171.79" style="fill:#fff"></polygon><polygon points="426.21 219.39 371.7 219.51 317.2 219.39 371.7 219.26 426.21 219.39" style="fill:#fff"></polygon><path d="M193.4,89.23V320.48c0,6.54-4.89,11.82-10.93,11.82H74.54c-6.05,0-10.94-5.28-10.94-11.82V89.23c0-13.32,4.89-14,10.94-14H96.17c1.25,0,2.28,1.43,2.28,3.2v.76c0,4.15,2.27,4.16,5,4.16h50c2.81,0,5.06,0,5.06-4.16v-.76c0-1.77,1-3.2,2.29-3.2h21.62C188.51,75.26,193.4,77,193.4,89.23Z" style="fill:#fff"></path><path d="M193.9,89.23h0a33.12,33.12,0,0,0-.52-6,11.54,11.54,0,0,0-2.6-5.61,8.83,8.83,0,0,0-5.61-2.66,23.71,23.71,0,0,0-3.06-.17l-20.93,0a2.54,2.54,0,0,0-1.79.52,3.32,3.32,0,0,0-1,1.41A5.55,5.55,0,0,0,158,79c0,.26,0,.52,0,.79a3.25,3.25,0,0,1-.85,2.33,3.93,3.93,0,0,1-2.45.68h-6l-35.93,0-9.5,0a10,10,0,0,1-2.34-.18,2.07,2.07,0,0,1-1.6-1.51,7.3,7.3,0,0,1-.23-2.28v-.51a4.12,4.12,0,0,0-1.46-3.14,2.4,2.4,0,0,0-.88-.43,2.37,2.37,0,0,0-.76-.08l-20.68,0a27.17,27.17,0,0,0-5.06.3,9.08,9.08,0,0,0-3,1.17A7.73,7.73,0,0,0,65,78.42a8,8,0,0,0-.52,1l-.22.47-.17.49c-.12.32-.23.64-.33,1l-.35,1.52-.23,1.5a49.83,49.83,0,0,0-.28,6.07L62.6,312.08v7.05c0,.65,0,1.3,0,2a14.1,14.1,0,0,0,.51,3.19A12.34,12.34,0,0,0,72,333a13.79,13.79,0,0,0,2.85.29h.34L180,333.13h1c.66,0,1.31,0,2,0a11.09,11.09,0,0,0,3.16-.64,12.27,12.27,0,0,0,2.86-1.53,12.09,12.09,0,0,0,2.28-2.21A13.17,13.17,0,0,0,194,323a17.64,17.64,0,0,0,.22-3.12Zm-1.5,233.43a11.44,11.44,0,0,1-2.31,5,11,11,0,0,1-2,1.91,10.25,10.25,0,0,1-2.47,1.3,12.5,12.5,0,0,1-4.74.56L75.2,331.34a11.59,11.59,0,0,1-2.75-.25A10.37,10.37,0,0,1,65,323.76a12.74,12.74,0,0,1-.43-2.75c0-.6,0-1.24,0-1.87v-7.06L64.31,90.45a48.5,48.5,0,0,1,.26-5.89,13.67,13.67,0,0,1,1.61-5.42A6.19,6.19,0,0,1,68,77.2a7.47,7.47,0,0,1,2.53-1,26.63,26.63,0,0,1,4.82-.29l20.52,0a1.35,1.35,0,0,1,1,.24,2.82,2.82,0,0,1,.94,2.14v.5a8.58,8.58,0,0,0,.3,2.64A3.44,3.44,0,0,0,99,83a3.67,3.67,0,0,0,1.61.82,10.53,10.53,0,0,0,2.59.21h.54L148.71,84h2.1c1.29,0,2.59,0,3.91,0a5,5,0,0,0,3.17-1,4.36,4.36,0,0,0,1.21-3.12c0-.28,0-.57,0-.86a4.76,4.76,0,0,1,.27-1.93,1.74,1.74,0,0,1,1.75-1.24l21,0a19.51,19.51,0,0,1,2.92.15,7.81,7.81,0,0,1,5,2.31,10.56,10.56,0,0,1,2.36,5.12,32.55,32.55,0,0,1,.52,5.86l-.29,227.6c0,.59,0,1.18,0,1.77A21.5,21.5,0,0,1,192.4,322.66Z" style="fill:#dbdbdb"></path><g id="freepik--u5zjqx--inject-289"><path d="M92.43,80.25l-.21.21-.12.12a2.84,2.84,0,0,0-4,0L88,80.46l-.21-.2h0v0L88,80a3.17,3.17,0,0,1,.61-.39,2.76,2.76,0,0,1,.81-.27,2.73,2.73,0,0,1,.4,0h.35l.28,0a3.08,3.08,0,0,1,.74.18,3.32,3.32,0,0,1,.51.23,2.69,2.69,0,0,1,.47.34l.23.2Z" style="fill:#a6a6a6"></path><path d="M88.73,81.23l-.33-.32a2.33,2.33,0,0,1,1.35-.68,2.37,2.37,0,0,1,2,.67l-.33.33a1.92,1.92,0,0,0-2.71,0Z" style="fill:#a6a6a6"></path><path d="M91.11,81.56l-.33.33a1,1,0,0,0-1.39,0c-.11-.11-.22-.21-.32-.32A1.44,1.44,0,0,1,91.11,81.56Z" style="fill:#a6a6a6"></path><path d="M90.38,82.19a.3.3,0,1,1-.29-.3A.3.3,0,0,1,90.38,82.19Z" style="fill:#a6a6a6"></path></g><path d="M72.06,80.88a.86.86,0,1,1,.86.86A.86.86,0,0,1,72.06,80.88Z" style="fill:#a6a6a6"></path><path d="M74.77,80.88a.86.86,0,1,1,.86.86A.86.86,0,0,1,74.77,80.88Z" style="fill:#a6a6a6"></path><path d="M77.48,80.88a.86.86,0,1,1,.86.86A.86.86,0,0,1,77.48,80.88Z" style="fill:#a6a6a6"></path><path d="M80.19,80.88a.86.86,0,1,1,.86.86A.86.86,0,0,1,80.19,80.88Z" style="fill:#a6a6a6"></path><path d="M82.89,80.88a.87.87,0,1,1,.87.86A.87.87,0,0,1,82.89,80.88Z" style="fill:#a6a6a6"></path><path d="M183.66,82.76h-7V79.52h7ZM177,82.4h6.29V79.87H177Z" style="fill:#a6a6a6"></path><rect x="177.24" y="80.07" width="4.51" height="2.14" style="fill:#a6a6a6"></rect><rect x="183.66" y="80.27" width="0.62" height="1.74" style="fill:#a6a6a6"></rect><path d="M120.83,317.93a2.86,2.86,0,1,1-2.86-2.85A2.86,2.86,0,0,1,120.83,317.93Z" style="fill:#2463EB"></path><path d="M140.92,317.93A1.89,1.89,0,1,1,139,316,1.89,1.89,0,0,1,140.92,317.93Z" style="fill:#dbdbdb"></path><path d="M130.39,317.93A1.89,1.89,0,1,1,128.5,316,1.89,1.89,0,0,1,130.39,317.93Z" style="fill:#dbdbdb"></path><rect x="79.2" y="246.66" width="97.76" height="15.92" style="fill:#2463EB"></rect><path d="M118.78,257v-4.35a.4.4,0,0,1,.4-.41.41.41,0,0,1,.41.41v3.93h2a.43.43,0,0,1,.41.42.42.42,0,0,1-.41.4h-2.41A.39.39,0,0,1,118.78,257Z" style="fill:#fff"></path><path d="M123.11,256.87a1.85,1.85,0,0,1-.51-1.3,1.88,1.88,0,0,1,.51-1.29,1.71,1.71,0,0,1,1.27-.56,1.64,1.64,0,0,1,1.23.56,1.84,1.84,0,0,1,.51,1.29,1.81,1.81,0,0,1-.51,1.3,1.67,1.67,0,0,1-1.23.56A1.75,1.75,0,0,1,123.11,256.87Zm.29-1.3a1.21,1.21,0,0,0,.27.78,1,1,0,0,0,.71.27.94.94,0,0,0,.67-.27,1.12,1.12,0,0,0,.29-.78,1.1,1.1,0,0,0-.29-.77,1,1,0,0,0-.67-.28,1.08,1.08,0,0,0-.71.28A1.18,1.18,0,0,0,123.4,255.57Z" style="fill:#fff"></path><path d="M130.67,255.58V257a1.77,1.77,0,0,1-1.77,1.77,1.65,1.65,0,0,1-.77-.18A.39.39,0,0,1,128,258a.4.4,0,0,1,.53-.19.85.85,0,0,0,.42.11,1,1,0,0,0,1-.79,1.76,1.76,0,0,1-1,.29,1.66,1.66,0,0,1-1.25-.56,1.82,1.82,0,0,1-.52-1.29,2,2,0,0,1,.52-1.32,1.72,1.72,0,0,1,2.24-.23.39.39,0,0,1,.78.08v1.47Zm-.79,0a1.17,1.17,0,0,0-.28-.76.93.93,0,0,0-.7-.31.91.91,0,0,0-.68.31,1.08,1.08,0,0,0-.29.76,1,1,0,0,0,.29.75.91.91,0,0,0,.68.31.93.93,0,0,0,.7-.31A1.11,1.11,0,0,0,129.88,255.58Z" style="fill:#fff"></path><path d="M133,252.8a.39.39,0,0,1-.4.4.4.4,0,0,1-.4-.4v-.16a.4.4,0,0,1,.4-.4.39.39,0,0,1,.4.4Zm0,1.33V257a.39.39,0,0,1-.4.4.39.39,0,0,1-.4-.4v-2.87a.39.39,0,0,1,.4-.4A.39.39,0,0,1,133,254.13Z" style="fill:#fff"></path><path d="M137.38,255.25V257a.38.38,0,0,1-.38.39.39.39,0,0,1-.39-.39v-1.76a.76.76,0,0,0-.77-.74.74.74,0,0,0-.74.74V257a.22.22,0,0,1,0,.08.41.41,0,0,1-.39.31.38.38,0,0,1-.39-.39v-2.9a.39.39,0,0,1,.39-.39.41.41,0,0,1,.36.23,1.46,1.46,0,0,1,.78-.23A1.54,1.54,0,0,1,137.38,255.25Z" style="fill:#fff"></path><path d="M177.33,286.89H78.82V270.21h98.51Zm-97.76-.75h97V271h-97Z" style="fill:#2463EB"></path><path d="M100.61,278.68a2.7,2.7,0,0,1,2.7-2.65,2.79,2.79,0,0,1,1.71.57.45.45,0,0,1,.07.59.43.43,0,0,1-.59.09,1.81,1.81,0,0,0-1.19-.41,2,2,0,0,0-1.32.53,1.83,1.83,0,0,0-.54,1.28A1.79,1.79,0,0,0,102,280a1.92,1.92,0,0,0,1.32.54,1.83,1.83,0,0,0,1.19-.41.44.44,0,0,1,.59.08.44.44,0,0,1-.07.59,2.8,2.8,0,0,1-1.71.58A2.7,2.7,0,0,1,100.61,278.68Z" style="fill:#2463EB"></path><path d="M108.71,278a.39.39,0,0,1-.39.39.77.77,0,0,0-.45.14,1,1,0,0,0-.33.36,2.29,2.29,0,0,0-.31.61V281a.4.4,0,0,1-.4.39.39.39,0,0,1-.39-.39V278a.38.38,0,0,1,.39-.38.39.39,0,0,1,.4.38v0a1,1,0,0,1,.16-.14,1.54,1.54,0,0,1,.93-.29A.38.38,0,0,1,108.71,278Z" style="fill:#2463EB"></path><path d="M109.05,279.49a1.81,1.81,0,0,1,1.79-1.84,1.77,1.77,0,0,1,1.78,1.71v0s0,.05,0,.06a.35.35,0,0,1-.38.3h-2.34a.89.89,0,0,0,.25.49,1.17,1.17,0,0,0,1.47.14.41.41,0,0,1,.55,0,.33.33,0,0,1,0,.48,1.86,1.86,0,0,1-1.32.49A1.82,1.82,0,0,1,109.05,279.49Zm.8-.36h2.09a1.22,1.22,0,0,0-1.1-.78A1,1,0,0,0,109.85,279.13Z" style="fill:#2463EB"></path><path d="M116.91,279.5V281a.4.4,0,0,1-.39.39.41.41,0,0,1-.39-.32,1.67,1.67,0,0,1-1,.32,1.72,1.72,0,0,1-1.25-.54,1.94,1.94,0,0,1,0-2.6,1.69,1.69,0,0,1,1.25-.55,1.67,1.67,0,0,1,1,.33.41.41,0,0,1,.39-.33.4.4,0,0,1,.39.4Zm-.78,0a1.08,1.08,0,0,0-.29-.76.92.92,0,0,0-.69-.3.88.88,0,0,0-.68.3,1.08,1.08,0,0,0-.28.76,1.09,1.09,0,0,0,.28.76.94.94,0,0,0,.68.29,1,1,0,0,0,.69-.29A1.1,1.1,0,0,0,116.13,279.5Z" style="fill:#2463EB"></path><path d="M120,278.06a.41.41,0,0,1-.41.4h-.19v2.06a.41.41,0,1,1,0,.82.82.82,0,0,1-.81-.82v-2.06h-.22a.41.41,0,0,1,0-.81h.22v-1.07a.4.4,0,0,1,.41-.4.39.39,0,0,1,.4.4v1.07h.19A.41.41,0,0,1,120,278.06Z" style="fill:#2463EB"></path><path d="M120.75,279.49a1.81,1.81,0,0,1,1.79-1.84,1.77,1.77,0,0,1,1.78,1.71v0s0,.05,0,.06a.35.35,0,0,1-.38.3h-2.34a.89.89,0,0,0,.25.49,1.17,1.17,0,0,0,1.47.14.41.41,0,0,1,.55,0,.33.33,0,0,1,0,.48,1.86,1.86,0,0,1-1.32.49A1.82,1.82,0,0,1,120.75,279.49Zm.8-.36h2.09a1.22,1.22,0,0,0-1.1-.78A1,1,0,0,0,121.55,279.13Z" style="fill:#2463EB"></path><path d="M130.41,280.12h-1.79l-.36,1a.41.41,0,0,1-.38.26.32.32,0,0,1-.14,0,.4.4,0,0,1-.24-.53l1.62-4.34a.43.43,0,0,1,.79,0l1.62,4.34a.41.41,0,0,1-.24.53.32.32,0,0,1-.14,0,.39.39,0,0,1-.37-.26Zm-.3-.81-.59-1.59-.6,1.59Z" style="fill:#2463EB"></path><path d="M132,279.5a1.87,1.87,0,0,1,3-1.44.4.4,0,0,1,.08.54.39.39,0,0,1-.55.08,1.18,1.18,0,0,0-.7-.24,1.06,1.06,0,1,0,0,2.11,1.17,1.17,0,0,0,.7-.23.39.39,0,0,1,.55.08.41.41,0,0,1-.08.55,2.07,2.07,0,0,1-1.17.39A1.87,1.87,0,0,1,132,279.5Z" style="fill:#2463EB"></path><path d="M136.12,279.5a1.88,1.88,0,0,1,1.87-1.85,1.91,1.91,0,0,1,1.17.41.4.4,0,0,1,.08.54.39.39,0,0,1-.55.08,1.18,1.18,0,0,0-.7-.24,1.06,1.06,0,1,0,0,2.11,1.2,1.2,0,0,0,.7-.23.39.39,0,0,1,.55.08.41.41,0,0,1-.08.55,2.1,2.1,0,0,1-1.17.39A1.87,1.87,0,0,1,136.12,279.5Z" style="fill:#2463EB"></path><path d="M140.81,280.8a1.84,1.84,0,0,1-.51-1.3,1.88,1.88,0,0,1,.51-1.29,1.71,1.71,0,0,1,1.27-.56,1.62,1.62,0,0,1,1.23.56,1.84,1.84,0,0,1,.51,1.29,1.8,1.8,0,0,1-.51,1.3,1.66,1.66,0,0,1-1.23.56A1.75,1.75,0,0,1,140.81,280.8Zm.29-1.3a1.17,1.17,0,0,0,.27.78,1,1,0,0,0,.71.27,1,1,0,0,0,.68-.27,1.21,1.21,0,0,0,0-1.55,1.07,1.07,0,0,0-.68-.28,1.08,1.08,0,0,0-.71.28A1.18,1.18,0,0,0,141.1,279.5Z" style="fill:#2463EB"></path><path d="M146.42,281.34a1.55,1.55,0,0,1-1.54-1.54V278a.4.4,0,0,1,.4-.39.39.39,0,0,1,.39.39v1.76a.74.74,0,0,0,.75.75.76.76,0,0,0,.77-.75V278a.38.38,0,0,1,.38-.39.41.41,0,0,1,.4.39v1.76A1.56,1.56,0,0,1,146.42,281.34Z" style="fill:#2463EB"></path><path d="M152.37,279.18V281a.39.39,0,0,1-.38.39.4.4,0,0,1-.39-.39v-1.77a.76.76,0,0,0-.77-.74.74.74,0,0,0-.74.74V281a.2.2,0,0,1,0,.07.41.41,0,0,1-.39.32.39.39,0,0,1-.39-.39V278a.39.39,0,0,1,.39-.39.41.41,0,0,1,.36.23,1.46,1.46,0,0,1,.78-.23A1.54,1.54,0,0,1,152.37,279.18Z" style="fill:#2463EB"></path><path d="M155.47,278.06a.41.41,0,0,1-.41.4h-.18v2.06a.41.41,0,0,1,0,.82.82.82,0,0,1-.82-.82v-2.06h-.22a.41.41,0,0,1,0-.81h.22v-1.07a.41.41,0,0,1,.82,0v1.07h.18A.41.41,0,0,1,155.47,278.06Z" style="fill:#2463EB"></path><rect x="90.49" y="131.26" width="75.16" height="75.16" style="fill:#2463EB"></rect><path d="M128.07,193.72A24.89,24.89,0,1,1,153,168.83,24.91,24.91,0,0,1,128.07,193.72Zm0-45.56a20.68,20.68,0,1,0,20.68,20.67A20.69,20.69,0,0,0,128.07,148.16Z" style="fill:#fff"></path><circle cx="128.07" cy="168.83" r="16.52" transform="translate(-65.81 254.37) rotate(-76.62)" style="fill:#fff"></circle><path d="M139.47,162.91a5.52,5.52,0,1,1-5.52-5.52A5.52,5.52,0,0,1,139.47,162.91Z" style="fill:#2463EB"></path><rect x="138.37" y="163.7" width="4.21" height="35.07" transform="translate(-87.01 152.41) rotate(-45)" style="fill:#fff"></rect><path d="M117,223.08a3.54,3.54,0,0,1-2.14.82h0a4.59,4.59,0,0,1-2.38-.78,1.64,1.64,0,0,0-.79-.19,2.18,2.18,0,0,0-.92.22.71.71,0,0,1-.76,0s0,0-.07,0h0a.89.89,0,0,1-.18-.3.74.74,0,0,1,.35-1l0,0a5.4,5.4,0,0,1-1.44-1,5.07,5.07,0,0,1-1.3-3.4,4.94,4.94,0,0,1,1.3-3.35,4.37,4.37,0,0,1,3.24-1.44A4.29,4.29,0,0,1,115.1,214a4.82,4.82,0,0,1,1.32,3.35,4.94,4.94,0,0,1-1.32,3.4,5.19,5.19,0,0,1-1.45,1l-.3.12a3.2,3.2,0,0,0,1.46.47,1.92,1.92,0,0,0,1.27-.5.76.76,0,1,1,.91,1.21Zm-7.23-3.38a2.8,2.8,0,0,0,2.11.94,3,3,0,0,0,2.15-.94,3.36,3.36,0,0,0,.89-2.34,3.27,3.27,0,0,0-.89-2.31,2.92,2.92,0,0,0-2.15-1,2.77,2.77,0,0,0-2.11,1,3.28,3.28,0,0,0-.9,2.31A3.37,3.37,0,0,0,109.76,219.7Z" style="fill:#2463EB"></path><path d="M122.55,221.8a3.76,3.76,0,0,1-3.76-3.76v-4.63a.71.71,0,0,1,.72-.71.72.72,0,0,1,.73.71V218a2.31,2.31,0,0,0,4.62,0v-4.63a.72.72,0,0,1,.73-.71.71.71,0,0,1,.72.71V218A3.76,3.76,0,0,1,122.55,221.8Z" style="fill:#2463EB"></path><path d="M128.79,213.41a.71.71,0,0,1,.72-.71.72.72,0,0,1,.73.71v7.67a.73.73,0,0,1-.73.72.72.72,0,0,1-.72-.72Z" style="fill:#2463EB"></path><path d="M134.09,221.08a.71.71,0,1,1-1.41,0v-7.55h0a.69.69,0,0,1,.28-.6.71.71,0,0,1,1,.16l4.2,5.8v-5.35a.7.7,0,0,1,.7-.7.71.71,0,0,1,.71.7v7.55a.7.7,0,0,1-1.24.46l-.07-.08-4.16-5.77Z" style="fill:#2463EB"></path><path d="M148.11,214.14H146v6.94a.71.71,0,0,1-.71.72.72.72,0,0,1-.72-.72v-6.94h-2.05a.72.72,0,0,1-.71-.73.7.7,0,0,1,.71-.71h5.55a.71.71,0,0,1,.71.71A.73.73,0,0,1,148.11,214.14Z" style="fill:#2463EB"></path><path d="M324.1,74.13V335.86c0,7.4-5.54,13.38-12.37,13.38H189.58c-6.85,0-12.39-6-12.39-13.38V74.13c0-15.07,5.54-15.81,12.39-15.81h24.47c1.42,0,2.58,1.62,2.58,3.62v.86c0,4.7,2.57,4.71,5.72,4.71h56.59c3.18,0,5.73,0,5.73-4.71v-.86c0-2,1.15-3.62,2.59-3.62h24.47C318.56,58.32,324.1,60.32,324.1,74.13Z" style="fill:#fff"></path><path d="M324.6,74.13h0a38.27,38.27,0,0,0-.59-6.82A13.13,13.13,0,0,0,321.09,61a10,10,0,0,0-6.32-3,26.26,26.26,0,0,0-3.45-.19l-23.78,0a3.62,3.62,0,0,0-1,.09,2.67,2.67,0,0,0-.93.48,3.78,3.78,0,0,0-1.15,1.57,6.08,6.08,0,0,0-.4,2.64c0,.3,0,.6,0,.9a3.75,3.75,0,0,1-1,2.69,4.4,4.4,0,0,1-2.82.78c-1.45,0-2.91,0-4.37,0h-2.4l-40.67,0-10.75,0a11.32,11.32,0,0,1-2.64-.2,2.66,2.66,0,0,1-1.21-.61,2.47,2.47,0,0,1-.69-1.16,8.45,8.45,0,0,1-.27-2.6v-.58a4.61,4.61,0,0,0-1.62-3.49,2.75,2.75,0,0,0-1-.48,3.21,3.21,0,0,0-.84-.08l-22.21,0h-1.19a30.67,30.67,0,0,0-5.71.34,10,10,0,0,0-3.4,1.31,8.75,8.75,0,0,0-2.5,2.65,10,10,0,0,0-.58,1.12l-.25.53-.19.56c-.13.36-.26.72-.37,1.11l-.4,1.71-.26,1.7a57.12,57.12,0,0,0-.31,6.85l-.29,250.83v8c0,.72,0,1.47,0,2.22a15.58,15.58,0,0,0,.58,3.59,14.5,14.5,0,0,0,3.64,6.19,13,13,0,0,0,6.3,3.55,14.8,14.8,0,0,0,3.19.33h.39L309,350.07h1.19c.72,0,1.47,0,2.23,0a11.77,11.77,0,0,0,3.54-.71,13.73,13.73,0,0,0,3.21-1.71,14.29,14.29,0,0,0,2.57-2.49,14.76,14.76,0,0,0,2.94-6.48,19.16,19.16,0,0,0,.25-3.51ZM178.18,334.34v-8L177.9,75.52a54.49,54.49,0,0,1,.29-6.67l.24-1.62.37-1.61c.1-.33.22-.66.33-1l.17-.51.23-.48a8.83,8.83,0,0,1,.5-1,7.12,7.12,0,0,1,2.08-2.23A8.63,8.63,0,0,1,185,59.33a31.17,31.17,0,0,1,5.46-.33l23.24,0a1.58,1.58,0,0,1,1.17.29A3.32,3.32,0,0,1,216,61.76v.56a9.76,9.76,0,0,0,.34,3,3.67,3.67,0,0,0,2.82,2.62,12.79,12.79,0,0,0,2.93.24h.6l50.84-.06h2.41c1.46,0,2.92,0,4.39,0A5.47,5.47,0,0,0,283.86,67a5,5,0,0,0,1.35-3.48c0-.32,0-.64,0-1a5.25,5.25,0,0,1,.31-2.21,2,2,0,0,1,2-1.45l23.73,0a22.73,22.73,0,0,1,3.32.17,8.91,8.91,0,0,1,5.68,2.64A11.94,11.94,0,0,1,323,67.49a36.08,36.08,0,0,1,.59,6.64l-.3,261a17.65,17.65,0,0,1-.23,3.21,13.2,13.2,0,0,1-2.63,5.76,12.17,12.17,0,0,1-2.26,2.18,11.56,11.56,0,0,1-2.81,1.49,14.36,14.36,0,0,1-5.41.64h-1l-118.65-.14a13.75,13.75,0,0,1-3.14-.28,11.85,11.85,0,0,1-8.48-8.39,13.83,13.83,0,0,1-.5-3.14C178.17,335.79,178.17,335.05,178.18,334.34Z" style="fill:#dbdbdb"></path><g id="freepik--u5zjqx--inject-289"><path d="M209.82,64l-.24.23-.13.14a3.21,3.21,0,0,0-4.56,0l-.13-.13-.23-.24h0a3.73,3.73,0,0,1,.3-.26,3.56,3.56,0,0,1,.69-.45,3.77,3.77,0,0,1,1.37-.36h.4l.31,0a3.43,3.43,0,0,1,.84.2,3.72,3.72,0,0,1,.57.27,3.58,3.58,0,0,1,.55.38l.25.22Z" style="fill:#a6a6a6"></path><path d="M205.64,65.08l-.38-.37a2.63,2.63,0,0,1,1.52-.76,2.66,2.66,0,0,1,2.29.76l-.38.37a2.16,2.16,0,0,0-3.05,0Z" style="fill:#a6a6a6"></path><path d="M208.32,65.46l-.37.37a1.1,1.1,0,0,0-1.57,0l-.37-.37A1.62,1.62,0,0,1,208.32,65.46Z" style="fill:#a6a6a6"></path><path d="M207.5,66.16a.34.34,0,1,1-.33-.33A.34.34,0,0,1,207.5,66.16Z" style="fill:#a6a6a6"></path></g><path d="M186.76,64.68a1,1,0,1,1,1,1A1,1,0,0,1,186.76,64.68Z" style="fill:#a6a6a6"></path><path d="M189.83,64.68a1,1,0,0,1,1.95,0,1,1,0,1,1-1.95,0Z" style="fill:#a6a6a6"></path><path d="M192.9,64.68a1,1,0,1,1,1,1A1,1,0,0,1,192.9,64.68Z" style="fill:#a6a6a6"></path><circle cx="196.94" cy="64.68" r="0.97" style="fill:#a6a6a6"></circle><path d="M199,64.68a1,1,0,1,1,1,1A1,1,0,0,1,199,64.68Z" style="fill:#a6a6a6"></path><path d="M313.08,66.81h-7.93V63.14h7.93Zm-7.53-.4h7.12V63.54h-7.12Z" style="fill:#a6a6a6"></path><rect x="305.81" y="63.76" width="5.11" height="2.42" style="fill:#a6a6a6"></rect><rect x="313.08" y="63.99" width="0.71" height="1.96" style="fill:#a6a6a6"></rect><path d="M240.86,333a2.14,2.14,0,1,1-2.13-2.14A2.13,2.13,0,0,1,240.86,333Z" style="fill:#dbdbdb"></path><path d="M253.88,333a3.24,3.24,0,1,1-3.23-3.24A3.23,3.23,0,0,1,253.88,333Z" style="fill:#2463EB"></path><path d="M264.7,333a2.14,2.14,0,1,1-2.14-2.14A2.14,2.14,0,0,1,264.7,333Z" style="fill:#dbdbdb"></path><path d="M239,187.51v-4.24a.39.39,0,0,1,.4-.39.4.4,0,0,1,.4.39v3.84h2a.4.4,0,0,1,0,.8h-2.35A.39.39,0,0,1,239,187.51Z" style="fill:#dbdbdb"></path><path d="M246.69,183.5a2.63,2.63,0,0,1,0,3.64,2.36,2.36,0,0,1-1.72.77,2.42,2.42,0,0,1-1.76-.77,2.69,2.69,0,0,1,0-3.64,2.42,2.42,0,0,1,1.76-.77A2.36,2.36,0,0,1,246.69,183.5Zm-.09,1.82a1.9,1.9,0,0,0-.49-1.26,1.59,1.59,0,0,0-1.14-.51,1.56,1.56,0,0,0-1.16.51,1.8,1.8,0,0,0-.49,1.26,1.76,1.76,0,0,0,.49,1.25,1.57,1.57,0,0,0,1.16.52,1.6,1.6,0,0,0,1.14-.52A1.85,1.85,0,0,0,246.6,185.32Z" style="fill:#dbdbdb"></path><path d="M248.61,185.33a2.66,2.66,0,0,1,4.29-2,.41.41,0,1,1-.5.65,1.85,1.85,0,0,0-1.14-.39,1.79,1.79,0,0,0-1.29.53,1.69,1.69,0,0,0,0,2.48,1.79,1.79,0,0,0,1.29.53,2.06,2.06,0,0,0,1-.27v-1h-1a.42.42,0,0,1-.41-.41.4.4,0,0,1,.41-.4h1.43a.41.41,0,0,1,.42.4V187c0,.05,0,.08,0,.12l0,0h0a.34.34,0,0,1-.13.17,2.69,2.69,0,0,1-1.64.56A2.61,2.61,0,0,1,248.61,185.33Z" style="fill:#dbdbdb"></path><path d="M254.74,183.27a.38.38,0,0,1,.39-.39.4.4,0,0,1,.41.39v4.24a.4.4,0,0,1-.41.4.39.39,0,0,1-.39-.4Z" style="fill:#dbdbdb"></path><path d="M257.67,187.51a.4.4,0,0,1-.39.4.39.39,0,0,1-.39-.4v-4.17h0a.39.39,0,0,1,.7-.24l2.33,3.21v-3a.39.39,0,0,1,.38-.39.4.4,0,0,1,.4.39v4.17a.4.4,0,0,1-.4.4.38.38,0,0,1-.29-.15.08.08,0,0,1,0,0l-2.3-3.19Z" style="fill:#dbdbdb"></path><path d="M195,211.61v-3.49a.32.32,0,0,1,.32-.32h1.94a.33.33,0,0,1,0,.65h-1.61v1.09H197a.33.33,0,0,1,.33.32.33.33,0,0,1-.33.33h-1.38v1.09h1.61a.33.33,0,0,1,0,.66h-1.94A.32.32,0,0,1,195,211.61Z" style="fill:#263238"></path><path d="M200.92,210.21h0v1.41a.31.31,0,0,1-.31.31.32.32,0,0,1-.32-.31v-1.41h0a.61.61,0,0,0-.61-.6.62.62,0,0,0-.6.61v1.47l0,0v0a.34.34,0,0,1-.3.19h-.06a.31.31,0,0,1-.25-.3v-1.41h0v-.92a.32.32,0,0,1,.6-.14,1.28,1.28,0,0,1,.63-.18,1.26,1.26,0,0,0,1.86,0,1.24,1.24,0,0,1,1.23,1.24v1.41a.31.31,0,0,1-.31.31.32.32,0,0,1-.32-.31v-1.41a.61.61,0,0,0-.6-.61A.63.63,0,0,0,200.92,210.21Z" style="fill:#263238"></path><path d="M206.58,210.47v1.16a.31.31,0,0,1-.62.06,1.35,1.35,0,0,1-.79.25,1.42,1.42,0,0,1-1-.43,1.57,1.57,0,0,1,0-2.09,1.39,1.39,0,0,1,1-.44,1.36,1.36,0,0,1,.79.26.31.31,0,0,1,.62.06Zm-.63,0a.86.86,0,0,0-.23-.61.73.73,0,0,0-1.1,0,.86.86,0,0,0-.22.61.91.91,0,0,0,.22.61.77.77,0,0,0,1.1,0A.92.92,0,0,0,206,210.47Z" style="fill:#263238"></path><path d="M208.38,208.24a.32.32,0,0,1-.32.33.33.33,0,0,1-.32-.33v-.12a.32.32,0,0,1,.32-.32.31.31,0,0,1,.32.32Zm0,1.07v2.31a.31.31,0,0,1-.32.32.32.32,0,0,1-.32-.32v-2.31a.32.32,0,0,1,.32-.32A.3.3,0,0,1,208.38,209.31Z" style="fill:#263238"></path><path d="M209.64,207.8a.32.32,0,0,1,.33.32v3.49a.33.33,0,1,1-.65,0v-3.49A.32.32,0,0,1,209.64,207.8Z" style="fill:#263238"></path><rect x="194.39" y="216.15" width="112.04" height="9.92" style="fill:#ebebeb"></rect><path d="M196.39,234.28h-.73v1.28a.33.33,0,0,1-.33.33.33.33,0,0,1-.32-.33v-3.49a.32.32,0,0,1,.32-.32h1.06a1.27,1.27,0,1,1,0,2.53Zm-.73-.66h.73a.61.61,0,0,0,.62-.6.62.62,0,0,0-.62-.62h-.73Z" style="fill:#263238"></path><path d="M200.89,234.42v1.16a.31.31,0,0,1-.31.31.33.33,0,0,1-.31-.25,1.32,1.32,0,0,1-.78.25,1.39,1.39,0,0,1-1-.43,1.53,1.53,0,0,1-.4-1,1.49,1.49,0,0,1,.4-1,1.33,1.33,0,0,1,1.79-.19.33.33,0,0,1,.31-.26.31.31,0,0,1,.31.32Zm-.62,0a.88.88,0,0,0-.23-.61.76.76,0,0,0-.55-.25.7.7,0,0,0-.55.25.84.84,0,0,0-.23.61.87.87,0,0,0,.23.61.75.75,0,0,0,.55.23A.83.83,0,0,0,200,235,.92.92,0,0,0,200.27,234.42Z" style="fill:#263238"></path><path d="M201.91,235a.3.3,0,0,1,.44,0,1.14,1.14,0,0,0,.66.26.79.79,0,0,0,.4-.12.24.24,0,0,0,.1-.17.11.11,0,0,0,0-.06.19.19,0,0,0-.08-.07,1.29,1.29,0,0,0-.47-.17h0a2,2,0,0,1-.51-.15,1,1,0,0,1-.41-.35.64.64,0,0,1-.1-.37.82.82,0,0,1,.35-.65,1.25,1.25,0,0,1,.72-.22,1.53,1.53,0,0,1,.89.33.32.32,0,0,1,.1.43.31.31,0,0,1-.44.09,1,1,0,0,0-.55-.22.61.61,0,0,0-.35.11c-.08.05-.1.1-.1.13a.06.06,0,0,0,0,0s0,0,.06.06a1.42,1.42,0,0,0,.43.14h0a1.82,1.82,0,0,1,.56.17.93.93,0,0,1,.42.35.74.74,0,0,1,.11.39.84.84,0,0,1-.37.68,1.35,1.35,0,0,1-.77.24,1.75,1.75,0,0,1-1.06-.41A.31.31,0,0,1,201.91,235Z" style="fill:#263238"></path><path d="M204.76,235a.31.31,0,0,1,.45,0,1.11,1.11,0,0,0,.65.26.79.79,0,0,0,.4-.12.26.26,0,0,0,.11-.17.11.11,0,0,0,0-.06.19.19,0,0,0-.08-.07,1.29,1.29,0,0,0-.47-.17h0a2,2,0,0,1-.51-.15,1,1,0,0,1-.41-.35.64.64,0,0,1-.1-.37.82.82,0,0,1,.35-.65,1.25,1.25,0,0,1,.72-.22,1.53,1.53,0,0,1,.89.33.32.32,0,0,1,.1.43.31.31,0,0,1-.44.09,1,1,0,0,0-.55-.22.61.61,0,0,0-.35.11c-.08.05-.1.1-.1.13a.06.06,0,0,0,0,0s0,0,.06.06a1.42,1.42,0,0,0,.43.14h0a1.84,1.84,0,0,1,.55.17.89.89,0,0,1,.42.35.74.74,0,0,1,.11.39.84.84,0,0,1-.37.68,1.35,1.35,0,0,1-.77.24,1.75,1.75,0,0,1-1.06-.41A.32.32,0,0,1,204.76,235Z" style="fill:#263238"></path><path d="M211.53,233.4l-1,2.3a.17.17,0,0,1,0,.05h0l0,0h0l0,0h0l-.05,0h-.24l-.06,0h0l0,0a0,0,0,0,1,0,0s0,0,0,0h0a.17.17,0,0,1,0-.05l-.44-1-.42,1a.09.09,0,0,1,0,.05h0l0,0a0,0,0,0,1,0,0l0,0-.06,0h-.24s0,0-.06,0h0l0,0h0a.05.05,0,0,1,0,0h0l0-.05-1-2.3a.3.3,0,0,1,.17-.4.29.29,0,0,1,.39.17l.7,1.6.41-1a.33.33,0,0,1,.29-.19.3.3,0,0,1,.29.19l.42,1,.7-1.6a.29.29,0,0,1,.4-.17A.3.3,0,0,1,211.53,233.4Z" style="fill:#263238"></path><path d="M212.94,235.46a1.5,1.5,0,0,1-.41-1,1.56,1.56,0,0,1,.41-1,1.38,1.38,0,0,1,1-.45,1.3,1.3,0,0,1,1,.45,1.47,1.47,0,0,1,.41,1,1.42,1.42,0,0,1-.41,1,1.3,1.3,0,0,1-1,.45A1.38,1.38,0,0,1,212.94,235.46Zm.24-1a1,1,0,0,0,.21.62.78.78,0,0,0,.57.22.75.75,0,0,0,.55-.22,1,1,0,0,0,0-1.24.84.84,0,0,0-.55-.22.88.88,0,0,0-.57.22A1,1,0,0,0,213.18,234.42Z" style="fill:#263238"></path><path d="M218.07,233.24a.31.31,0,0,1-.31.32.55.55,0,0,0-.36.11.84.84,0,0,0-.27.29,1.76,1.76,0,0,0-.24.49v1.13a.32.32,0,0,1-.33.31.31.31,0,0,1-.31-.31v-2.34a.3.3,0,0,1,.31-.3.31.31,0,0,1,.33.3v0a.46.46,0,0,1,.12-.12,1.28,1.28,0,0,1,.75-.23A.3.3,0,0,1,218.07,233.24Z" style="fill:#263238"></path><path d="M221.38,235.57a.32.32,0,0,1-.32.32.31.31,0,0,1-.31-.25,1.49,1.49,0,0,1-.81.25,1.48,1.48,0,0,1,0-3,1.4,1.4,0,0,1,.79.25v-1.11a.33.33,0,0,1,.33-.32.32.32,0,0,1,.32.32v2.34h0Zm-1.44-2a.76.76,0,0,0-.55.24.84.84,0,0,0-.24.6.83.83,0,0,0,.24.58.73.73,0,0,0,.55.25.75.75,0,0,0,.56-.25.82.82,0,0,0,.23-.58.83.83,0,0,0-.23-.6A.78.78,0,0,0,219.94,233.58Z" style="fill:#263238"></path><rect x="194.39" y="240.1" width="112.04" height="9.92" style="fill:#ebebeb"></rect><polygon points="194.39 261.92 208.4 261.79 222.4 261.75 250.41 261.67 278.42 261.75 292.43 261.79 306.43 261.92 292.43 262.04 278.42 262.08 250.41 262.16 222.4 262.08 208.4 262.04 194.39 261.92" style="fill:#ebebeb"></polygon><polygon points="194.39 202.22 208.4 202.1 222.4 202.05 250.41 201.97 278.42 202.05 292.43 202.1 306.43 202.22 292.43 202.34 278.42 202.39 250.41 202.47 222.4 202.39 208.4 202.34 194.39 202.22" style="fill:#ebebeb"></polygon><path d="M266.9,162a31.36,31.36,0,1,1,14-34.12A31.11,31.11,0,0,1,266.9,162Z" style="fill:#ebebeb"></path><circle cx="250.41" cy="131.7" r="9.54" transform="translate(-11.74 25.27) rotate(-5.64)" style="fill:#fff"></circle><path d="M266.9,158V162a31.4,31.4,0,0,1-33,0V158a16.5,16.5,0,0,1,33,0Z" style="fill:#fff"></path><path d="M194.39,302.81c3.83-.09,7.65-.16,11.47-.19l11.48-.06,11.47.06c3.82,0,7.65.1,11.47.19-3.82.09-7.65.16-11.47.19l-11.47.06L205.86,303C202,303,198.22,302.9,194.39,302.81Z" style="fill:#ebebeb"></path><path d="M260.55,302.81c3.82-.09,7.64-.16,11.47-.19l11.47-.06,11.47.06c3.83,0,7.65.1,11.47.19-3.82.09-7.64.16-11.47.19l-11.47.06L272,303C268.19,303,264.37,302.9,260.55,302.81Z" style="fill:#ebebeb"></path><path d="M247.59,303.88a1.55,1.55,0,0,1-.41-1.06,1.61,1.61,0,0,1,.41-1.06,1.45,1.45,0,0,1,1-.46,1.35,1.35,0,0,1,1,.46,1.52,1.52,0,0,1,.42,1.06,1.47,1.47,0,0,1-.42,1.06,1.35,1.35,0,0,1-1,.45A1.44,1.44,0,0,1,247.59,303.88Zm.25-1.06a1,1,0,0,0,.21.63.82.82,0,0,0,1.14,0,.92.92,0,0,0,.23-.63.79.79,0,0,0-.79-.86.89.89,0,0,0-.58.23A.94.94,0,0,0,247.84,302.82Z" style="fill:#dbdbdb"></path><path d="M252.82,301.62a.32.32,0,0,1-.32.32.56.56,0,0,0-.36.12,1.07,1.07,0,0,0-.28.28,2.1,2.1,0,0,0-.24.51V304a.33.33,0,0,1-.34.32A.32.32,0,0,1,251,304v-2.38a.31.31,0,0,1,.31-.31.33.33,0,0,1,.34.31v0a.68.68,0,0,1,.12-.12,1.32,1.32,0,0,1,.76-.23A.31.31,0,0,1,252.82,301.62Z" style="fill:#dbdbdb"></path><rect x="245.57" y="310.64" width="8.87" height="8.87" style="fill:#455a64"></rect><path d="M248.68,316H247.5v-1.35h1.16c0-.11,0-.19,0-.27,0-.35,0-.71,0-1.07a1.48,1.48,0,0,1,1.32-1.43,10.42,10.42,0,0,1,1.48,0v1.23H251a3.75,3.75,0,0,0-.48,0,.45.45,0,0,0-.38.43c0,.35,0,.7,0,1.07h1.35c-.06.45-.11.86-.17,1.27,0,0-.11.09-.17.09h-1v3.48h-1.44Z" style="fill:#fff"></path><rect x="221.13" y="273.48" width="57.65" height="18.33" style="fill:#2463EB"></rect><path d="M237.23,285.21v-5a.46.46,0,0,1,.46-.47.47.47,0,0,1,.47.47v4.49h2.28a.47.47,0,1,1,0,.93h-2.75A.46.46,0,0,1,237.23,285.21Z" style="fill:#fff"></path><path d="M246.28,280.51a3.12,3.12,0,0,1,.85,2.13,3.06,3.06,0,0,1-.85,2.13,2.75,2.75,0,0,1-2,.9,2.82,2.82,0,0,1-2.06-.9,3,3,0,0,1-.84-2.13,3.06,3.06,0,0,1,.84-2.13,2.82,2.82,0,0,1,2.06-.9A2.75,2.75,0,0,1,246.28,280.51Zm-.11,2.13a2.2,2.2,0,0,0-.57-1.47,1.83,1.83,0,0,0-1.33-.6,1.85,1.85,0,0,0-1.37.6,2.15,2.15,0,0,0-.57,1.47,2.12,2.12,0,0,0,.57,1.47,1.85,1.85,0,0,0,1.37.6,1.83,1.83,0,0,0,1.33-.6A2.16,2.16,0,0,0,246.17,282.64Z" style="fill:#fff"></path><path d="M248.53,282.65a3.07,3.07,0,0,1,3.1-3,3.12,3.12,0,0,1,1.92.66.48.48,0,0,1,.1.68.49.49,0,0,1-.68.08,2.21,2.21,0,0,0-1.34-.46,2.08,2.08,0,0,0-1.51.62,2,2,0,0,0,0,2.91,2.07,2.07,0,0,0,1.51.61,2.36,2.36,0,0,0,1.16-.31v-1.16h-1.21a.49.49,0,0,1-.48-.48.47.47,0,0,1,.48-.47h1.68a.47.47,0,0,1,.49.47v1.86a.8.8,0,0,1,0,.15s0,0,0,0h0a.49.49,0,0,1-.16.2,3.13,3.13,0,0,1-1.92.65A3.05,3.05,0,0,1,248.53,282.65Z" style="fill:#fff"></path><path d="M255.7,280.25a.46.46,0,0,1,.47-.47.47.47,0,0,1,.47.47v5a.47.47,0,0,1-.47.46.46.46,0,0,1-.47-.46Z" style="fill:#fff"></path><path d="M259.14,285.21a.47.47,0,0,1-.46.46.46.46,0,0,1-.46-.46v-4.89h0a.44.44,0,0,1,.19-.38.46.46,0,0,1,.64.1l2.72,3.76v-3.47a.45.45,0,0,1,.45-.45.46.46,0,0,1,.46.45v4.89a.46.46,0,0,1-.81.3l0-.06-2.69-3.73Z" style="fill:#fff"></path></g><g id="freepik--Icons--inject-289"><path d="M316.43,411l12.85-3.59s-1.58-6.35-1.58-6.6.92-7.29.92-8.62-2.62-10-3.22-11.11c-.91-1.69-1.83-2.14-3.36-1.94a2.08,2.08,0,0,0-1.84,1.38,2.68,2.68,0,0,0-2.54-1.4,3.19,3.19,0,0,0-2.36,2.12,2.58,2.58,0,0,0-4.4,1.26s-3.52-8.47-4.46-10.84-4-1.53-3.66,1.41,5.36,17.67,5.47,18.28.57,3,.57,3a57.64,57.64,0,0,0-4.51-8c-1.83-2.33-4.51-.84-3.13,2.14s3.48,8.83,4.36,10,8.33,6.65,8.56,6.84S316.43,411,316.43,411Z" style="fill:#2463EB"></path><path d="M309.57,372.55a5,5,0,0,1-4.78,5,5,5,0,1,1,0-10.07,5,5,0,0,1,4.78,5Zm0,0a4.56,4.56,0,0,0-1.45-3.34,4.63,4.63,0,0,0-3.33-1.2,4.55,4.55,0,1,0,4.78,4.54Z" style="fill:#2463EB"></path><path d="M311.22,372.55a6.71,6.71,0,0,1-6.43,6.68,6.69,6.69,0,1,1,0-13.37,6.71,6.71,0,0,1,6.43,6.69Zm0,0a6.18,6.18,0,0,0-6.43-6.18,6.14,6.14,0,0,0-4.25,1.93,6.18,6.18,0,0,0,0,8.49,6.13,6.13,0,0,0,4.25,1.94,6.18,6.18,0,0,0,6.43-6.18Z" style="fill:#2463EB"></path><path d="M339.66,414.43l-25.77.16-25.92.08h-.25v-.25l-.13-51.7v-.37H288l51.69.12h.25v.25l-.08,25.92Zm0,0-.17-25.92-.08-25.78.25.25L288,363.1l.37-.37-.12,51.7-.25-.25,25.78.08Z" style="fill:#2463EB"></path><polygon points="287.97 388.83 249.81 388.83 249.81 297.8 250.31 297.8 250.31 388.33 287.97 388.33 287.97 388.83" style="fill:#2463EB"></polygon><path d="M251.89,297.8a1.83,1.83,0,1,1-1.83-1.83A1.83,1.83,0,0,1,251.89,297.8Z" style="fill:#2463EB"></path><path d="M397.86,91.68l-25.77.16-25.92.08h-.25v-.25L345.79,40v-.37h.38l51.69.12h.25V40L398,65.9Zm0,0-.17-25.92L397.61,40l.25.25-51.69.12.37-.37-.12,51.7-.25-.25,25.78.08Z" style="fill:#2463EB"></path><path d="M376,87l13.4-3.66s-2.14-6.28-2.14-6.54.92-7.29.92-8.61-2.61-10-3.21-11.12c-.92-1.68-1.83-2.14-3.36-1.93a2.08,2.08,0,0,0-1.84,1.37,2.7,2.7,0,0,0-2.55-1.4,3.2,3.2,0,0,0-2.36,2.13s-3.17-8.91-4.91-11.75c-1-1.71-3.54-.56-3.24,1.43s3.77,11.48,3.67,11.88c0,0-3.43-8.77-4.37-11.14s-4-1.53-3.66,1.41,5.35,17.66,5.47,18.28.57,3,.57,3a58.76,58.76,0,0,0-4.51-8c-1.84-2.34-4.51-.84-3.14,2.14s3.48,8.83,4.36,10,8.34,6.65,8.57,6.84S376,87,376,87Z" style="fill:#2463EB"></path><path d="M354.67,63.62a64.59,64.59,0,0,1-.48-7.47c0-2.49,0-5,.19-7.47H355c.19,2.49.23,5,.2,7.47A64.61,64.61,0,0,1,354.67,63.62Z" style="fill:#2463EB"></path><polygon points="356.67 49.27 354.67 45.81 352.68 49.27 356.67 49.27" style="fill:#2463EB"></polygon><path d="M358.15,45.81a66.89,66.89,0,0,1,.48,7.47c0,2.49,0,5-.19,7.47h-.59c-.18-2.49-.23-5-.19-7.47A64.61,64.61,0,0,1,358.15,45.81Z" style="fill:#2463EB"></path><polygon points="356.15 60.16 358.14 63.62 360.14 60.16 356.15 60.16" style="fill:#2463EB"></polygon><rect x="371.77" y="91.68" width="0.5" height="114.78" style="fill:#2463EB"></rect><path d="M370.18,206.45a1.84,1.84,0,1,1,1.84,1.84A1.83,1.83,0,0,1,370.18,206.45Z" style="fill:#2463EB"></path></g><g id="freepik--Plant--inject-289"><path d="M422.08,332a35.77,35.77,0,0,1-.69,13.75,38.36,38.36,0,0,1-2.11,6.08c-1.09,2.51-2.24,5-2,7.72.27.18-.65.15-.68-.12-7.35-4.19-16.78-4.95-22.44-11.8a23.44,23.44,0,0,1-4.67-11.46,34.86,34.86,0,0,1,.26-13.84c1-3.73,3.16-7.33,6.66-9.16s8.36-1.72,12.17-.54C416.83,315.2,420.92,324.06,422.08,332Z" style="fill:#2463EB"></path><path d="M425.86,386.45c-1-3.34-2-6.69-3-10-2-6.53-4.11-13-6.44-19.48q-2.08-5.78-4.4-11.45a71.51,71.51,0,0,1,.88-7.11c.62-2.85,1.51-5.61,2.34-8.39a.16.16,0,0,0-.3-.1c-1.65,3.84-3.8,8.76-3.86,13.31q-2.69-6.42-5.78-12.65a54.74,54.74,0,0,1,.33-10.54c0-.16-.22-.21-.25-.05a37.63,37.63,0,0,0-.72,9.31c-1.58-3.12-3.25-6.21-5-9.24-.16-.28-.54,0-.4.27,2.77,5.32,5.33,10.76,7.74,16.26a35.66,35.66,0,0,0-11.53-6.68c-.19-.06-.32.2-.14.28a41.83,41.83,0,0,1,12.47,8.26q2.6,6,4.95,12.19c-4.61-4.51-10.9-7.48-17-9.07-.21-.06-.27.26-.07.32,7.05,2.12,12.53,6.12,17.89,10.92q.93,2.49,1.83,5,3.4,9.45,6.49,19,1.49,4.58,2.92,9.18c1,3.29,1.83,6.78,3.17,10,.13.31.67.24.6-.13A95.48,95.48,0,0,0,425.86,386.45Z" style="fill:#263238"></path><path d="M413.66,325.58a18.16,18.16,0,0,0-2.65,6.6.06.06,0,0,0,.11,0,56.57,56.57,0,0,1,2.87-6.47C414.1,325.52,413.78,325.39,413.66,325.58Z" style="fill:#263238"></path><path d="M400.54,340.9a19.3,19.3,0,0,0-6.6-2.22c-.06,0-.1.08,0,.1,1.06.44,2.17.75,3.25,1.16s2.13.92,3.22,1.3A.19.19,0,0,0,400.54,340.9Z" style="fill:#263238"></path><path d="M396.85,322.47a12.71,12.71,0,0,0-2.13-1.31.11.11,0,0,0-.12.18,13.14,13.14,0,0,0,2.09,1.36C396.83,322.78,397,322.55,396.85,322.47Z" style="fill:#263238"></path><path d="M446.87,357c-5.29,1.57-10.62,3-15.91,4.58-.46.14-9.41-17-6.18-25.86a28.86,28.86,0,0,1,18-17.08c3.79-1.28,8.43-2.36,12.43-1.48,3.55.78,6.06,3.69,7.21,7,1.58,4.54,1.05,10,.2,14.59a25.55,25.55,0,0,1-5.21,11.91C454.59,354,451,355.77,446.87,357Z" style="fill:#2463EB"></path><path d="M454.55,340.68a70.15,70.15,0,0,1-10.38,4.09,44.23,44.23,0,0,0-6.93,2.51c2.23-5,4.69-9.87,7.29-14.7a23.94,23.94,0,0,0,9.6-5,.15.15,0,0,0-.19-.22,48.58,48.58,0,0,1-9.06,4.54q1.06-2,2.14-3.9c.21-.36-.29-.72-.53-.37A110.3,110.3,0,0,0,439,340.31a57.43,57.43,0,0,1-.54-11.58.08.08,0,0,0-.16,0,38.79,38.79,0,0,0,.13,12.72c-1.86,3.71-3.55,7.51-5.07,11.35-.6-2.31-1.39-4.58-1.91-6.91a31.54,31.54,0,0,1-.76-10.2c0-.1-.14-.11-.16,0a36,36,0,0,0,2.23,18.72c-.89,2.31-1.73,4.64-2.51,7a139.21,139.21,0,0,0-7,36.75.23.23,0,0,0,.45,0,182.5,182.5,0,0,1,7.89-36.31c1.54-4.62,3.31-9.1,5.25-13.5,3.13-.93,6.24-2.18,9.31-3.25a29.1,29.1,0,0,0,8.59-4.21C454.77,340.79,454.66,340.63,454.55,340.68Z" style="fill:#263238"></path><path d="M459.49,335.7c-3.24,1.15-6.31,2.77-9.54,3.93-.16.06-.07.3.09.27a21.8,21.8,0,0,0,9.57-4C459.72,335.8,459.6,335.66,459.49,335.7Z" style="fill:#263238"></path><path d="M433,328.71c0-.17-.21-.27-.26-.09-.89,3-1.5,6.15-.64,9.2a.12.12,0,0,0,.23,0C432.53,334.74,432.35,331.74,433,328.71Z" style="fill:#263238"></path><path d="M446.43,321.81a7.91,7.91,0,0,0-1.41,5.08c0,.12.19.18.22.05.39-1.71,1.05-3.27,1.58-4.93A.22.22,0,0,0,446.43,321.81Z" style="fill:#263238"></path><path d="M383.88,364.56c1.55,4.93,5.24,11.74,11.08,11.79,3.79,0,7.6-.41,11.4-.47,4.07-.06,8.14-.05,12.2.19.33,0-.49-12.17-10.26-18.11-2.74-1.66-6.09-2.19-9.19-2.86A42.31,42.31,0,0,0,388.25,354c-2.25.09-4.11.56-4.91,2.86S383.13,362.21,383.88,364.56Z" style="fill:#2463EB"></path><path d="M388.08,358.39c2.37.61,4.77,1.31,7.15,2.07a23.82,23.82,0,0,0-2-1.92c-1-.85-2.15-1.53-3.24-2.28-.1-.06,0-.24.08-.19a13.42,13.42,0,0,1,5.76,4.58c3,1,5.91,2,8.74,3.18a33.06,33.06,0,0,1,5.6,2.95,22.74,22.74,0,0,0-2-3.52c-1.3-1.68-3.06-2.62-4.75-3.81a.15.15,0,0,1,.15-.26,13.89,13.89,0,0,1,7.62,8.26,32.36,32.36,0,0,1,5.54,5c6.47,7.35,11.56,17.12,11.58,27.09,0,.24-.38.3-.43.06a55.17,55.17,0,0,0-12.33-26.49c-.46-.54-.93-1.05-1.42-1.55a45.36,45.36,0,0,0-5.34-.4c-2.08,0-4.14.31-6.22.48-3.41.28-7.18.32-10.26-1.4-.13-.08,0-.31.11-.26,6.86,2.5,14.06-.67,20.93.82a32.14,32.14,0,0,0-10.14-6.54l-.63-.25c-4.4.53-9,1.67-13.34.24a.1.1,0,0,1,.06-.2c4.14,1,8.11-.27,12.2-.47-4.45-1.74-9-3.12-13.45-4.84C387.68,358.63,387.67,358.29,388.08,358.39Z" style="fill:#263238"></path><path d="M386.14,362.72a57.25,57.25,0,0,0,6.41.49s.06.08,0,.09a13.39,13.39,0,0,1-6.47-.41C386,362.86,386,362.71,386.14,362.72Z" style="fill:#263238"></path><path d="M400.61,358.5a10.32,10.32,0,0,1,3.17,2.2c.11.1,0,.3-.16.21-.54-.39-1.09-.76-1.65-1.12a14.35,14.35,0,0,1-1.54-1C400.28,358.69,400.44,358.44,400.61,358.5Z" style="fill:#263238"></path><path d="M435.12,374.36c-.08.17.16.32.25.15h0a.24.24,0,0,0,.15.1,98.72,98.72,0,0,0,11.94,2.08c3.23.29,6.95.47,9.78-1.41,3.83-2.54,6.35-9.33,4.28-13.65-2.45-5.13-9.84-2.34-13.54-.52A27.15,27.15,0,0,0,435.12,374.36Z" style="fill:#2463EB"></path><path d="M432.25,376.73a38.35,38.35,0,0,1,7.13-5.42,24.32,24.32,0,0,1,7.23-7.37c.14-.1.26.13.13.23a32.08,32.08,0,0,0-6.09,6.4,67.44,67.44,0,0,1,8.94-4.07,11.89,11.89,0,0,1,4.8-4.81s.09,0,.05.07a19.92,19.92,0,0,0-4.34,4.55c1.82-.68,3.66-1.31,5.49-1.92.17-.05.23.2.07.26-3.26,1.28-6.6,2.62-9.84,4.17a37.83,37.83,0,0,0,11.92,0,.09.09,0,1,1,0,.17,23.59,23.59,0,0,1-12.64.19,59.25,59.25,0,0,0-6,3.35,15.31,15.31,0,0,1,4.84.4,37,37,0,0,0,8.52,1c.11,0,.14.18,0,.2-4.94.85-9.62-1.4-14.51-.81a37,37,0,0,0-5.1,4.16,38.23,38.23,0,0,0-7.44,10.5c-2.06,4.19-3.18,8.64-4.85,13a.16.16,0,0,1-.3-.08C421.77,392.25,426,382.83,432.25,376.73Z" style="fill:#263238"></path><path d="M447.15,365a5.49,5.49,0,0,1,1.27-1.53,4.81,4.81,0,0,1,1.45-1.09c.05,0,.08.05.05.08-.4.46-1,.8-1.4,1.24s-.81,1-1.25,1.39A.08.08,0,0,1,447.15,365Z" style="fill:#263238"></path><path d="M455.3,367.67c.73-.19,1.51-.17,2.25-.33a20.43,20.43,0,0,0,2.19-.65c.09,0,.15.11.06.16a7.31,7.31,0,0,1-4.5,1A.12.12,0,0,1,455.3,367.67Z" style="fill:#263238"></path><polygon points="411.89 390.27 412.54 397.63 414.74 422.5 434.21 422.5 436.96 397.63 437.78 390.27 411.89 390.27" style="fill:#455a64"></polygon><polygon points="411.89 390.27 412.54 397.63 436.96 397.63 437.78 390.27 411.89 390.27" style="fill:#263238"></polygon><rect x="409.96" y="388.26" width="29.74" height="5.97" transform="translate(849.67 782.49) rotate(180)" style="fill:#455a64"></rect></g><g id="freepik--Character--inject-289"><path d="M154.38,396.32s-2.86,39.71-2.86,39.74c0,7.78.06,14.6.45,18.13a0,0,0,0,0,0,.05,5.68,5.68,0,0,0,.56,2.41s0,0,.05.05c2.31,1.58,64.46,3.71,66.65,3.05s.5-7-1.84-9-25.79-13.47-25.79-13.47l2.47-39.7Z" style="fill: rgb(235, 148, 129);"></path><path d="M151.52,427.71v8.35c0,7.78.06,14.6.45,18.13a0,0,0,0,0,0,.05,10.67,10.67,0,0,0,.56,2.41s0,0,.05.05c2.31,1.58,64.46,3.71,66.65,3.05s.5-7-1.84-9-25.79-13.47-25.79-13.47l.11-8.47Z" style="fill:#fff"></path><path d="M219.24,459.75c-2.2.66-64.35-1.47-66.66-3.05-.89-.59-1.11-9.66-1.06-20.64,0-.11,0-.23,0-.34l40.11.92,0,.68s23.42,11.46,25.79,13.47S221.43,459.1,219.24,459.75Z" style="fill:#2463EB"></path><path d="M218.61,457.32c-10.46-.62-52.74-2.11-63.14-1.93-.08,0-.08.06,0,.07,10.36.84,52.65,2,63.14,2C218.83,457.49,218.84,457.33,218.61,457.32Z" style="fill:#263238"></path><path d="M195,437.56c-4.09-.91-9.16-.45-12.41,2.38-.12.11,0,.29.17.25a58,58,0,0,1,12.21-2.11A.26.26,0,0,0,195,437.56Z" style="fill:#263238"></path><path d="M197.88,439.46c-4.1-.91-9.16-.45-12.41,2.38-.13.1,0,.28.16.24a58.12,58.12,0,0,1,12.21-2.1A.26.26,0,0,0,197.88,439.46Z" style="fill:#263238"></path><path d="M200.79,441.35c-4.09-.91-9.16-.45-12.41,2.38-.12.11,0,.29.17.25a58,58,0,0,1,12.21-2.11A.26.26,0,0,0,200.79,441.35Z" style="fill:#263238"></path><path d="M149.12,437.78l43.51-.87s5.31-78.29,4.32-104.39c-1.08-28.35-13.25-112.71-13.25-112.71H147s9.39,84.69,9.59,113.05C156.73,359.15,149.12,437.78,149.12,437.78Z" style="fill:#263238"></path><path d="M176.48,219.81l-22.07,76.36C151.79,260,147,219.81,147,219.81Z" style="fill:#37474f"></path><path d="M153.93,224l2.33,25.18,2.16,25.19c1.39,16.81,2.7,33.61,3.7,50.46.24,4.2.39,8.43.33,12.66s-.26,8.44-.47,12.65q-.64,12.64-1.63,25.25t-2,25.21L156,425.75l1.88-25.22q.94-12.61,1.77-25.22c.53-8.42,1.1-16.82,1.49-25.24q.3-6.31.43-12.62c0-4.2-.12-8.4-.38-12.6-.91-16.83-2.24-33.64-3.47-50.45Z" style="fill:#37474f"></path><path d="M190.81,429.65c-6.79-.06-4.84-.14-11.63-.12-3.33,0-25.17.08-28.27.64a.07.07,0,0,0,0,.13c3.11.48,25,0,28.28-.05,6.79-.15,4.84-.18,11.63-.4C190.94,429.85,190.94,429.65,190.81,429.65Z" style="fill:#37474f"></path><path d="M83.66,375s-21,34.11-21,34.14c-3.41,7-6.27,13.18-7.46,16.52a.11.11,0,0,0,0,.06,5.32,5.32,0,0,0-.54,2.41s0,0,0,.06c1.39,2.42,56.48,31.3,58.74,31.66s3.46-6.06,2.22-8.88-17.4-23.32-17.4-23.32l20.63-34.26Z" style="fill: rgb(235, 148, 129);"></path><path d="M54.65,428.14a.13.13,0,0,0,0,.06c1.4,2.43,56.49,31.3,58.75,31.66s3.46-6.06,2.22-8.88-17.4-23.32-17.4-23.32l3.68-6.12c-9-4.8-25.37-13.22-35.53-18.45l-3.72,6.06c-3.41,7-6.28,13.18-7.45,16.52a.14.14,0,0,0,0,.06A5.16,5.16,0,0,0,54.65,428.14Z" style="fill:#fff"></path><path d="M113.41,459.86c-2.27-.36-57.35-29.23-58.74-31.66-.55-.92,3.19-9.19,8-19.05.05-.1.1-.21.16-.31l35.74,18.23-.33.59s16.14,20.48,17.4,23.32S115.67,460.23,113.41,459.86Z" style="fill:#2463EB"></path><path d="M113.9,457.39c-9.16-5.09-46.61-24.77-56.06-29.11-.07,0-.1,0,0,.06,9,5.25,46.58,24.62,56,29.21C114,457.64,114.1,457.5,113.9,457.39Z" style="fill:#263238"></path><path d="M101.16,429.34c-3.3-2.6-8.06-4.38-12.22-3.24-.16,0-.09.27,0,.29a58.24,58.24,0,0,1,11.91,3.4A.26.26,0,0,0,101.16,429.34Z" style="fill:#263238"></path><path d="M103,432.31c-3.29-2.6-8.06-4.38-12.21-3.24-.16,0-.1.27,0,.3a57.68,57.68,0,0,1,11.92,3.39A.26.26,0,0,0,103,432.31Z" style="fill:#263238"></path><path d="M104.77,435.28c-3.3-2.6-8.06-4.38-12.22-3.24-.16,0-.09.27,0,.3a58.31,58.31,0,0,1,11.92,3.39A.26.26,0,0,0,104.77,435.28Z" style="fill:#263238"></path><path d="M179.94,219.77v0c-.16.76-2.73,12.68-5.4,22.92-1.93,7.48-3.93,14-5.07,14.73-1.29.77-7.6,3.56-9.72,4.44,0,0-14.19,70.84-21.68,92.81-6.91,20.27-35.52,74.45-35.52,74.45l-41.5-21s32.41-55,35.82-64.86c5.28-15.29,25.07-90,25.07-90s-.15-23.38,7.73-33.59Z" style="fill:#263238"></path><path d="M101.93,421.06c-5.93-3.31-4.18-2.44-10.15-5.69-2.92-1.59-22.12-12-25.1-13-.06,0-.12.08-.06.12,2.5,1.91,21.87,12,24.82,13.53,6,3.13,4.33,2.17,10.4,5.23C102,421.3,102,421.13,101.93,421.06Z" style="fill:#37474f"></path><path d="M132.58,246.86c1.14-.29,2.36-.39,3.51-.57.94-.15,1.87-.31,2.8-.52a12.11,12.11,0,0,0,4.93-2.07c1.61-1.25,2.42-3.15,3.2-5,.46-1.08.94-2.16,1.42-3.23.23-.52.47-1,.71-1.56a16.52,16.52,0,0,0,.87-1.86c0-.1.18-.05.14,0a12.12,12.12,0,0,0-.39,1.34c-.16.52-.31,1-.47,1.57-.29.93-.57,1.86-.87,2.78a21.89,21.89,0,0,1-2,4.89c-1.71,2.73-4.78,3.83-7.84,4.21-.88.12-1.76.18-2.65.23a18.63,18.63,0,0,1-3.34,0C132.45,247.14,132.4,246.9,132.58,246.86Z" style="fill:#37474f"></path><path d="M172.82,255.79a82.63,82.63,0,0,0-13,6.06.15.15,0,0,0,.12.27c4.39-1.89,8.85-3.69,13.13-5.81A.29.29,0,0,0,172.82,255.79Z" style="fill:#37474f"></path><path d="M174.14,225.78c0-.15-.28-.19-.28,0a144.5,144.5,0,0,1-.73,14.64c-.21,2.25-2,14.73-5.94,13.82-.65-.16-1-.8-1.09-1.79a16.12,16.12,0,0,1,.52-3.82q.66-3.92,1-7.87a71.39,71.39,0,0,0-.16-14.76.13.13,0,0,0-.25,0A136,136,0,0,1,166,246.37c-.49,3.24-2.13,8.13,1.27,8.62s5.69-7.67,6.11-9.91A74.69,74.69,0,0,0,174.14,225.78Z" style="fill:#37474f"></path><path d="M167.3,254.55a19.74,19.74,0,0,0-.88,2.59,6,6,0,0,0-.37,2.12.15.15,0,0,0,.27.06,7.25,7.25,0,0,0,.91-2.07c.3-.8.62-1.59.89-2.4A.44.44,0,0,0,167.3,254.55Z" style="fill:#37474f"></path><path d="M72.24,401.3c5.91-11.12,12-22.14,18.11-33.15,3-5.43,6.16-10.79,9-16.29a98.61,98.61,0,0,0,6.56-17q5.49-17.82,10.39-35.81t9.2-36.13c.72-3,1.51-6,2.09-9.1a27.71,27.71,0,0,0,0-9.31,30,30,0,0,1-.07-8.67,57.19,57.19,0,0,1,2-8.48c.46-1.46,1-2.91,1.46-4.36a.13.13,0,0,1,.25.08c-1.79,5.86-3.62,11.78-3.23,18,.18,3,1,5.9.92,8.9a42.43,42.43,0,0,1-1.51,8.8q-4.23,18.25-9.09,36.34t-10.27,36c-1.76,5.81-3.41,11.71-5.91,17.26s-5.67,10.8-8.66,16.11Q84.3,381,74.81,397.26l-2.43,4.12A.08.08,0,0,1,72.24,401.3Z" style="fill:#37474f"></path><path d="M158.19,162c5.59,10.49,30.54,33.79,39.7,34.78,6.63.72,30.62-16.33,37.14-22.42,6.28-5.88-14.53-23.8-18.46-20.6-5.55,4.51-17.86,17.69-20.45,18-1.81.21-12.64-5.55-29.34-16.24C157.53,149.65,154.85,155.78,158.19,162Z" style="fill: rgb(235, 148, 129);"></path><path d="M224.82,144.52c3.81-1.89,8-4.37,12.45-4.83s8.82,4.92,9,6.59-.18,12.3-4.6,12.84-2.73-7.79-3-8.69-.59-2-1.42-1.86-14.56,8.91-14.56,8.91Z" style="fill: rgb(235, 148, 129);"></path><path d="M225.18,145.1c.25,0,11.52-6.16,15.95-6.62s8.81,4.92,9,6.59-.18,12.3-4.6,12.84-2.74-7.79-3-8.68-.59-2-1.41-1.86-14.56,8.9-14.56,8.9Z" style="fill: rgb(235, 148, 129);"></path><path d="M244,157.54a5.25,5.25,0,0,1-1-2.52,8.77,8.77,0,0,1-.19-2.84,16.27,16.27,0,0,0,.24-2.5,4.92,4.92,0,0,0-.91-2.26c-.42-.58-1-.29-1.57,0a21.79,21.79,0,0,0-2.27,1.38c-.79.52-1.58,1.06-2.36,1.6a22.62,22.62,0,0,0-2.39,1.72.07.07,0,0,0,.07.12,23.78,23.78,0,0,0,2.11-1.29l2.39-1.47c.75-.45,1.47-.93,2.23-1.37.26-.16.79-.53,1.12-.49s.61.84.72,1.1a4.21,4.21,0,0,1,.14,2.41,13.61,13.61,0,0,0-.16,2.47,6.54,6.54,0,0,0,.47,2.28,9.72,9.72,0,0,0,1.29,1.78C243.92,157.72,244.05,157.61,244,157.54Z" style="fill:#263238"></path><path d="M212.59,158.42s10.87-12.66,13.15-15.2c4.57-5.07,25-16.52,28-17.21s4.8,5.33-9,13.53c-7.29,4.31-8.12,8.9-7.67,11.32s3.34,6.7,7.44,6.08,6-6.95,9.73-8.08,2.05,6.11-.12,10.44a25.47,25.47,0,0,1-10,10c-3.39,1.77-13.82,7.87-13.82,7.87Z" style="fill: rgb(235, 148, 129);"></path><path d="M249.22,153.42c-1.4,1.39-3,3.16-5,3.49s-3.64-.86-4.83-2.46a7.86,7.86,0,0,1-1.78-5.55,9.6,9.6,0,0,1,2.25-5,23.43,23.43,0,0,1,5.12-4.4c.08,0,0-.17-.1-.12-1.79,1.08-7.38,4.21-7.92,9.56a8.06,8.06,0,0,0,1.86,5.66c1.12,1.52,2.64,2.94,4.65,2.85,2.46-.1,4.3-2.33,5.87-4C249.42,153.39,249.29,153.35,249.22,153.42Z" style="fill:#263238"></path><path d="M216.12,154.15l15.24,31.16s-25.88,13.53-34,12.31S166.66,176,158.05,163c-5.24-7.93-.94-14.19,9.74-7.91,11,6.46,26.39,15.37,27.51,15.62S216.12,154.15,216.12,154.15Z" style="fill:#c7c7c7"></path><path d="M216.8,173.82c-1-2.35-4.84-11.81-5.62-14.23,0,0,0-.07.07,0,1.2,2.16,5.28,11.38,6.27,13.74A140.31,140.31,0,0,1,223,187.59c0,.09-.11.17-.15.08C220.53,183.2,218.74,178.47,216.8,173.82Z" style="fill:#263238"></path><path d="M158.05,163c7,10.56,23.2,26,33.39,32.07l-30.05-42.46h0C155.62,151.8,154,156.89,158.05,163Z" style="fill:#a6a6a6"></path><path d="M129.66,219.77c.15.17,53.46.72,54,0,.8-1-11.69-54.57-16.34-64.51-2-4.24-12.43-5.36-16.77-1.68C139.71,162.85,129.11,219.17,129.66,219.77Z" style="fill:#fff"></path><path d="M151.51,152.5s5.88,27.57,6.43,29.56,2.65,52.35,2.65,52.35L124,230s7.8-28,8.67-29.32,7.82-31,13.49-41.81C148.73,154,151.51,152.5,151.51,152.5Z" style="fill:#c7c7c7"></path><path d="M166.07,153.7s2.89,22.06,3,23.37,10,55.86,10,55.86l9.46-5.06S178.45,192,178,190.29s-8.18-29.84-9.45-32.92S166.07,153.7,166.07,153.7Z" style="fill:#c7c7c7"></path><path d="M192.25,199.85l-13,29.83a1.13,1.13,0,0,0,.75,1.82l16.06,2.65a2.66,2.66,0,0,0,2.5-1.29l13-29.83a1.12,1.12,0,0,0-.75-1.82l-16.05-2.64A2.61,2.61,0,0,0,192.25,199.85Z" style="fill:#37474f"></path><path d="M194.16,200.15l-13,29.82a1.13,1.13,0,0,0,.75,1.83L198,234.44a2.63,2.63,0,0,0,2.49-1.28l13-29.83a1.12,1.12,0,0,0-.75-1.82l-16.05-2.65A2.64,2.64,0,0,0,194.16,200.15Z" style="fill:#455a64"></path><path d="M198.32,202.3a1.38,1.38,0,1,1-1.1-1.62A1.39,1.39,0,0,1,198.32,202.3Z" style="fill:#263238"></path><path d="M144.74,159.81c-10.41,13-32.88,42.84-27.08,50.29,9.54,12.25,33.76,23.79,41.39,26.5,3.3,1.18,16.51-22.52,13.46-24.68-3.66-2.6-27.42-13.36-27.48-14.54s5.33-17.69,7.49-30.74C155.2,150.44,149.08,154.37,144.74,159.81Z" style="fill: rgb(235, 148, 129);"></path><path d="M160.41,209.59s10.35-2.47,17.19-3.76c3.82-.73,10.47-1.38,13.52-.63,4.56,1.12,22.91,8.73,21.16,13.22-1.59,4.07-16.52-4.48-16.52-4.48s15.83,7.29,13,11.83-18.39-7.35-18.39-7.35,16.1,7.85,12.46,12.08c-2.75,3.19-17.47-6.79-17.47-6.79s13.79,6.85,11.1,10.25c-3,3.76-17.13-4.59-17.13-4.59-8.28,7.51-15.17,8.21-20.3,7.23C157.86,236.38,160.41,209.59,160.41,209.59Z" style="fill: rgb(235, 148, 129);"></path><path d="M191.19,211.44c12.06,4.48,16.61,10.37,16.46,10.24-3.6-3.12-10-6.64-11.86-7.59s-2.83-1.63-4.64-2.58C191.1,211.48,191.14,211.42,191.19,211.44Z" style="fill:#263238"></path><path d="M186.88,217.56a44.09,44.09,0,0,1,13.71,7.27c.15.14.06.16-.12.07-2.27-1.28-11.29-6.12-13.62-7.29C186.82,217.6,186.85,217.55,186.88,217.56Z" style="fill:#263238"></path><path d="M182.82,222.58a32.49,32.49,0,0,1,10.45,5.94c.15.12,0,.17-.17.07-3.43-2.05-6.11-3.67-10.33-5.88C182.7,222.67,182.74,222.55,182.82,222.58Z" style="fill:#263238"></path><path d="M165.24,207.77l-15.13,28.41S118.48,217,116.44,208.62s21.94-43.46,29-50.51,9.13-3.91,8.51,4.51-8.59,34.37-8.46,34.87S165.24,207.77,165.24,207.77Z" style="fill:#c7c7c7"></path><path d="M148.58,185.2q.81-2.92,1.59-5.85c.27-1,.53-2,.82-3,.13-.46.25-.93.39-1.4.06-.23.15-.46.2-.69a4,4,0,0,1,.28-.93c0-.05.11,0,.1,0-.08.54,0,.33-.09.74a9.4,9.4,0,0,0-.2.92l-.3,1.42c-.21,1-.43,1.94-.67,2.9l-.09.38a.42.42,0,0,1,0-.1c.41-1,.84-2.07,1.26-3.1a0,0,0,0,1,.08,0c-.31,1.08-.65,2.13-1.06,3.18-.23.6-.5,1.19-.77,1.77-.33,1.29-.64,2.58-1,3.86-1.05,4-2.13,8-3.5,11.82,1.66.86,3.37,1.65,5,2.52s3.32,1.77,5,2.67,3.31,1.78,4.95,2.7l2.33,1.34c.85.48,1.64,1.07,2.49,1.53.09,0,0,.18-.08.13-.89-.47-1.85-.82-2.75-1.26s-1.59-.78-2.38-1.19c-1.68-.85-3.34-1.74-5-2.62s-3.33-1.76-5-2.66-3.25-1.89-4.89-2.79a.18.18,0,0,1-.1-.13.21.21,0,0,1-.08-.23C146.24,193.13,147.47,189.18,148.58,185.2Z" style="fill:#263238"></path><path d="M151.09,218.56c1.13-2.05,5.68-10.25,7-12.2,0,0,.08,0,.07,0-.87,2.1-5.12,10.32-6.24,12.38a128.91,128.91,0,0,1-7.08,12.14c-.05.07-.18,0-.14-.06C146.53,226.61,148.88,222.62,151.09,218.56Z" style="fill:#263238"></path><path d="M126.24,219.62c1.78,1.08,17.37,12.56,21,14.72.21.12-.06.18-.26.06-3.71-2.24-17.64-11.6-20.84-14.62C126,219.66,126.09,219.53,126.24,219.62Z" style="fill:#263238"></path><path d="M162.8,162.69c-3.33.38-9-5.71-10.69-10-.12-.29.65-3.14,1.41-6.64.45-2.13.9-4.51,1.16-6.71l13.41,5a35.7,35.7,0,0,0-2.32,8.3,4.64,4.64,0,0,0,0,.91v.15C165.84,155.45,166,162.31,162.8,162.69Z" style="fill: rgb(235, 148, 129);"></path><path d="M165.76,153.55a.74.74,0,0,0,0,.15,9,9,0,0,1-1.43-.08c-8-1.12-8.7-11.12-8.74-13.91l3.35,1.24,9.15,3.39a35.16,35.16,0,0,0-2.32,8.3A4.64,4.64,0,0,0,165.76,153.55Z" style="fill:#263238"></path><path d="M152.85,125.86c-1.13,5,2.52,19,6.26,21.93,5.41,4.21,13.74,4,17.18-2.35,3.34-6.19-1.75-24.36-5.87-26.94C164.35,114.69,154.52,118.43,152.85,125.86Z" style="fill: rgb(235, 148, 129);"></path><path d="M167.52,134s-.06.06-.05.1c.27.94.42,2.05-.35,2.59,0,0,0,.06,0,.05C168.15,136.35,167.93,134.87,167.52,134Z" style="fill:#263238"></path><path d="M166.42,133.26c-1.55.27-.88,3.35.55,3.09S167.72,133,166.42,133.26Z" style="fill:#263238"></path><path d="M172.89,132.69s.08,0,.09.07c.17,1,.54,2,1.47,2.16a0,0,0,0,1,0,.05C173.37,135.05,172.9,133.63,172.89,132.69Z" style="fill:#263238"></path><path d="M173.53,131.51c1.5-.45,2.28,2.6.89,3S172.26,131.88,173.53,131.51Z" style="fill:#263238"></path><path d="M164.91,132.11a12.42,12.42,0,0,0,1.1-.67c.42-.27.78-.44,1-.91a.67.67,0,0,0-.27-.76,1.66,1.66,0,0,0-1.67.18,2.39,2.39,0,0,0-1.14,1.32A.71.71,0,0,0,164.91,132.11Z" style="fill:#263238"></path><path d="M174.38,129.71c-.44,0-.85,0-1.29-.06a2.1,2.1,0,0,1-1.3-.31.65.65,0,0,1-.14-.8,1.67,1.67,0,0,1,1.54-.65,2.44,2.44,0,0,1,1.65.6A.71.71,0,0,1,174.38,129.71Z" style="fill:#263238"></path><path d="M168.09,142.78c.28.17.57.43.92.39a2.76,2.76,0,0,0,1-.46,0,0,0,0,1,0,0,1.32,1.32,0,0,1-1.1.78,1,1,0,0,1-.93-.69C168,142.79,168.05,142.75,168.09,142.78Z" style="fill:#263238"></path><path d="M168.48,139.71a3.32,3.32,0,0,0,2.48,1,4.06,4.06,0,0,0,1.18-.2l.21-.07.21-.08a.23.23,0,0,0,.14-.25h0a.32.32,0,0,0,0-.09h0l0-.08c-.14-.74-.45-1.84-.45-1.84.3.07,1.8.39,1.69,0a50.5,50.5,0,0,0-3.36-9.56.09.09,0,0,0-.17.07c.71,3,2,5.94,2.73,9a5.87,5.87,0,0,0-1.63-.13c-.1.05.64,2.12.67,2.45a.1.1,0,0,1,0,0,4.63,4.63,0,0,1-3.59-.32C168.47,139.57,168.41,139.65,168.48,139.71Z" style="fill:#263238"></path><path d="M171.62,140.21a4,4,0,0,1-1.28,1.53,1.76,1.76,0,0,1-1,.29c-.8,0-1-.73-1-1.36a4.65,4.65,0,0,1,.14-1A5,5,0,0,0,171.62,140.21Z" style="fill:#263238"></path><path d="M170.34,141.74a1.76,1.76,0,0,1-1,.29c-.8,0-1-.73-1-1.36A1.83,1.83,0,0,1,170.34,141.74Z" style="fill:#ff98b9"></path><path d="M157.91,133c.71-2.85-1.27-7.36,0-8.72,2.76-2.94,9.33,1.7,13.54,1.37s5.22-3,4.2-6.3-4-5.23-8.64-5.53a17.21,17.21,0,0,0-11.17,3.67s.89-1.74.46-2.22-2.29,1.27-2.85,2a6.19,6.19,0,0,0-.83,2,6.61,6.61,0,0,0-1.88,0,3.9,3.9,0,0,0-2.32,1.29c-.06.25,1.44.32,2.49.28,0,0-1.72,2.74-1.5,4.94s4.55,12.39,5.38,12.43C155.87,138.23,157.62,134.1,157.91,133Z" style="fill:#263238"></path><path d="M151.3,120.5s.09,0,0,0a7.14,7.14,0,0,0-1.94,3.31,8.7,8.7,0,0,0,.34,4.55,41.86,41.86,0,0,0,4,7.91c.05.08-.08.15-.13.08a31,31,0,0,1-4.3-8.53C148.6,125.27,149,122.18,151.3,120.5Z" style="fill:#263238"></path><path d="M157.66,123.18a9.91,9.91,0,0,1,3.72-.07,14.24,14.24,0,0,1,3.31,1.3,14.22,14.22,0,0,0,7.71,1.43,0,0,0,0,1,0,.06,12.43,12.43,0,0,1-7.14-.92,34.43,34.43,0,0,0-3.44-1.46,13.06,13.06,0,0,0-4.14-.12A.11.11,0,0,1,157.66,123.18Z" style="fill:#263238"></path><path d="M158.26,116.06a19.92,19.92,0,0,1,5.09-2.17,15.34,15.34,0,0,1,5.26-.62c3.06.23,6,1.92,7,5a6.58,6.58,0,0,1-.22,4.76.08.08,0,1,1-.15-.07,6.83,6.83,0,0,0-2.23-7.88c-2.66-1.94-6.15-1.81-9.2-1.06a28.66,28.66,0,0,0-5.51,2.09S158.25,116.07,158.26,116.06Z" style="fill:#263238"></path><path d="M166.3,139.1a4.1,4.1,0,1,1,3.56-5.41h0a4.1,4.1,0,0,1-2.56,5.2A3.88,3.88,0,0,1,166.3,139.1Zm-.61-7.63a3.3,3.3,0,0,0-.86.18,3.55,3.55,0,1,0,.86-.18Z" style="fill:#2463EB"></path><path d="M175.53,137.22c-1.57.12-3.12-1.37-3.53-3.47a4.88,4.88,0,0,1,.29-3,2.71,2.71,0,0,1,1.9-1.64,2.75,2.75,0,0,1,2.39.78,4.92,4.92,0,0,1,1.41,2.65c.44,2.22-.55,4.29-2.2,4.62Zm-1-7.58-.2,0a2.21,2.21,0,0,0-1.52,1.33,4.48,4.48,0,0,0-.25,2.64c.39,1.93,1.8,3.27,3.16,3s2.14-2,1.76-4a4.33,4.33,0,0,0-1.25-2.35A2.23,2.23,0,0,0,174.5,129.64Z" style="fill:#2463EB"></path><path d="M169.82,134.18l-.43-.34c.51-.64,1.78-1.61,3-.75l-.32.44C171,132.76,169.86,134.12,169.82,134.18Z" style="fill:#2463EB"></path><path d="M152.1,138.78l-.53-.15c.07-.25.72-2.41,1.89-2.85s8.43-1.16,8.74-1.19l.06.54c-2.11.22-7.77.85-8.61,1.17S152.27,138.19,152.1,138.78Z" style="fill:#2463EB"></path><path d="M156.75,137.2s-3.64-4.28-5.61-2.94,1.07,7.76,3.6,8.43a2.5,2.5,0,0,0,3.2-1.65Z" style="fill: rgb(235, 148, 129);"></path><path d="M152.06,136.08s-.05,0,0,.06a6.36,6.36,0,0,1,3.62,3.62,1.39,1.39,0,0,0-2.09-.18s0,.11,0,.09a1.55,1.55,0,0,1,1.74.37,7.42,7.42,0,0,1,.93,1.29c.1.14.36,0,.29-.14l0,0C156.41,139,154.42,136.08,152.06,136.08Z" style="fill:#263238"></path><path d="M165.83,153.47l-3.8,8-9.52-11-3.08,3.14s8.91,17.06,9,16.32l3.81-6.84,4.56,5.21.37-12.34Z" style="fill:#fff"></path><path d="M167.35,162.2c0-2,0-4.09-.06-6.13,0-.07-.11-.11-.13,0-.53,1.93-.47,9.73-.59,11.59l0,0c-.19-.23-4.24-4.6-4.29-4.54-.8,1.08-3.6,6.06-3.79,6.51-1.41-2.71-6.84-12.58-8.55-15.16a.07.07,0,0,0-.13.06c1.22,2.84,8.39,16.13,8.52,16.1a79.06,79.06,0,0,0,4-7.23c.67.93,4.73,5.84,4.76,5.54A62.34,62.34,0,0,0,167.35,162.2Z" style="fill:#263238"></path></g></svg>