<?xml version="1.0" encoding="UTF-8"?>
<svg id="Layer_1" xmlns="http://www.w3.org/2000/svg" version="1.1" viewBox="0 0 500 500">
  <!-- Generator: Adobe Illustrator 29.6.1, SVG Export Plug-In . SVG Version: 2.1.1 Build 9)  -->
  <defs>
    <style>
      .st0, .st1 {
        isolation: isolate;
      }

      .st0, .st1, .st2 {
        opacity: .1;
      }

      .st3 {
        fill: #ebebeb;
      }

      .st4 {
        fill: #dbdbdb;
      }

      .st5 {
        fill: #eb9481;
      }

      .st6 {
        fill: #37474f;
      }

      .st1 {
        fill: #030402;
      }

      .st7 {
        fill: #263238;
      }

      .st8 {
        fill: #ff9bbc;
      }

      .st9 {
        fill: #c7c7c7;
      }

      .st10 {
        fill: #a6a6a6;
      }

      .st11 {
        fill: #2563eb;
      }

      .st12 {
        fill: #fff;
      }

      .st13 {
        opacity: .2;
      }

      .st14 {
        fill: #455a64;
      }
    </style>
  </defs>
  <g id="freepik--background-complete--inject-35">
    <path class="st3" d="M319.21,92.29l7.27-11.73-3.62-2.22c-1.04-.67-1.62-1.87-1.49-3.1.06-.67.08-1.34.06-2.02-.03-1.26.65-2.42,1.76-3.02l3.73-1.99-6.53-12.17-3.72,1.99c-1.07.58-2.38.52-3.38-.18-.6-.43-1.22-.81-1.87-1.16-1.08-.57-1.75-1.71-1.72-2.93l.13-4.22-13.8-.43-.11,4.22c-.04,1.22-.76,2.32-1.87,2.83-.32.15-.65.31-.97.47l-.93.54c-1.04.64-2.34.64-3.38,0l-3.62-2.25-7.28,11.73,3.62,2.25c1.04.66,1.62,1.86,1.5,3.09-.06.67-.08,1.34-.07,2.01.04,1.25-.62,2.41-1.71,3.01l-3.73,2,6.53,12.17,3.73-2c1.11-.58,2.44-.48,3.46.25.56.37,1.13.73,1.71,1.05,1.1.57,1.78,1.71,1.76,2.95l-.13,4.26,13.8.43.13-4.24c.05-1.23.79-2.33,1.91-2.84.31-.15.61-.3.88-.47s.59-.32.88-.5c1.06-.65,2.39-.65,3.45,0l3.61,2.2ZM308.78,82.8c-5.07,3.64-12.14,2.48-15.79-2.59-3.64-5.07-2.48-12.14,2.59-15.79,5.07-3.64,12.14-2.48,15.79,2.59.58.81,1.05,1.69,1.4,2.62,1.8,4.79.16,10.18-3.99,13.16Z"/>
    <path class="st3" d="M143.5,383.81c.75.44,1.19,1.26,1.13,2.13v1.43c.06.86-.38,1.69-1.12,2.12l-2.57,1.48,4.84,8.38,2.57-1.48c.75-.43,1.69-.4,2.4.09.4.25.82.5,1.25.72.78.39,1.27,1.18,1.28,2.04v2.96h9.65v-2.96c0-.87.49-1.66,1.26-2.04.43-.22.88-.47,1.25-.72.72-.49,1.66-.52,2.41-.09l2.57,1.48,4.84-8.38-2.58-1.49c-.75-.44-1.18-1.26-1.12-2.12v-1.42c-.06-.87.38-1.69,1.13-2.13l2.57-1.48-4.84-8.38-2.56,1.48c-.76.43-1.69.4-2.41-.08-.4-.26-.82-.51-1.25-.73-.78-.39-1.27-1.18-1.27-2.04v-2.97h-9.65v2.96c0,.87-.5,1.66-1.27,2.04-.43.22-.85.46-1.25.73-.72.48-1.65.51-2.4.08l-2.56-1.48-4.84,8.38,2.55,1.49ZM158.11,378.73c4.36,0,7.9,3.54,7.9,7.9s-3.54,7.9-7.9,7.9-7.9-3.54-7.9-7.9h0c0-4.36,3.54-7.9,7.9-7.9Z"/>
    <path class="st3" d="M43.26,34.03c.58.35.92.99.88,1.67v1.12c.04.68-.3,1.32-.88,1.67l-2.01,1.16,3.78,6.54,2.01-1.15c.59-.34,1.32-.31,1.89.06.31.21.64.4.97.56.6.3.99.92.99,1.6v2.32h7.55v-2.32c0-.68.39-1.29.99-1.6.34-.17.66-.36.97-.56.56-.38,1.29-.4,1.88-.06l2.01,1.15,3.78-6.54-2.02-1.17c-.58-.34-.92-.99-.88-1.66v-1.12c-.04-.68.3-1.32.88-1.67l2.01-1.16-3.78-6.54-2,1.15c-.59.34-1.32.31-1.88-.06-.32-.2-.64-.39-.98-.56-.61-.3-.99-.92-.99-1.6v-2.32h-7.53v2.32c0,.68-.39,1.3-.99,1.6-.33.17-.66.36-.97.56-.57.38-1.3.4-1.89.06l-2-1.15-3.78,6.54,2,1.16ZM54.67,30.05c3.41,0,6.17,2.76,6.17,6.17s-2.76,6.17-6.17,6.17-6.17-2.76-6.17-6.17h0c0-3.41,2.76-6.17,6.17-6.17h0Z"/>
    <polygon class="st3" points="478.24 80.33 476.95 80.33 476.95 79.48 477.38 79.48 477.38 79.05 478.24 79.05 478.24 80.33"/>
    <path class="st3" d="M475.24,80.33h-1.68v-.88h1.71l-.03.88ZM471.81,80.33h-1.71v-.88h1.69l.02.88ZM468.4,80.33h-1.76v-.88h1.76v.88ZM464.98,80.33h-1.76v-.88h1.76v.88ZM461.56,80.33h-1.76v-.88h1.76v.88ZM458.13,80.33h-1.71v-.88h1.71v.88ZM454.71,80.33h-1.71v-.88h1.71v.88ZM451.29,80.33h-1.76v-.88h1.76v.88ZM447.87,80.33h-1.76v-.88h1.76v.88ZM444.44,80.33h-1.76v-.88h1.76v.88ZM441.02,80.33h-1.69v-.88h1.71l-.02.88ZM437.6,80.33h-1.71v-.88h1.69l.03.88ZM434.18,80.33h-1.76v-.88h1.76v.88ZM430.75,80.33h-1.76v-.88h1.76v.88ZM427.33,80.33h-1.76v-.88h1.76v.88ZM423.91,80.33h-1.7v-.88h1.7v.88ZM420.49,80.33h-1.71v-.88h1.71v.88Z"/>
    <polygon class="st3" points="417.07 80.33 415.78 80.33 415.78 79.05 416.64 79.05 416.64 79.48 417.07 79.48 417.07 80.33"/>
    <path class="st3" d="M416.64,77.31h-.88v-1.76h.88v1.76ZM416.64,73.89h-.88v-1.71h.88v1.71ZM416.64,70.47h-.88v-1.76h.88v1.76ZM416.64,67.04h-.88v-1.76h.88v1.76ZM416.64,63.62h-.88v-1.76h.88v1.76ZM416.64,60.2h-.88v-1.76h.88v1.76ZM416.64,56.78h-.88v-1.68h.88v1.68ZM416.64,53.36h-.88v-1.68h.88v1.68ZM416.64,49.94h-.88v-1.76h.88v1.76ZM416.64,46.52h-.88v-1.68h.88v1.68ZM416.64,43.1h-.88v-1.76h.88v1.76ZM416.64,39.67h-.88v-1.76h.88v1.76ZM416.64,36.25h-.88v-1.68h.88v1.68ZM416.64,32.83h-.88v-1.76h.88v1.76ZM416.64,29.41h-.88v-1.68h.88v1.68ZM416.64,25.98h-.88v-1.68h.88v1.68ZM416.64,22.56h-.88v-1.76h.88v1.76Z"/>
    <polygon class="st3" points="416.64 19.17 415.78 19.17 415.78 17.88 417.07 17.88 417.07 18.74 416.64 18.74 416.64 19.17"/>
    <path class="st3" d="M475.24,18.74h-1.68v-.88h1.71l-.03.88ZM471.81,18.74h-1.71v-.88h1.69l.02.88ZM468.4,18.74h-1.76v-.88h1.76v.88ZM464.98,18.74h-1.76v-.88h1.76v.88ZM461.56,18.74h-1.76v-.88h1.76v.88ZM458.13,18.74h-1.71v-.88h1.71v.88ZM454.71,18.74h-1.71v-.88h1.71v.88ZM451.29,18.74h-1.76v-.88h1.76v.88ZM447.87,18.74h-1.76v-.88h1.76v.88ZM444.44,18.74h-1.76v-.88h1.76v.88ZM441.02,18.74h-1.69v-.88h1.71l-.02.88ZM437.6,18.74h-1.71v-.88h1.69l.03.88ZM434.18,18.74h-1.76v-.88h1.76v.88ZM430.75,18.74h-1.76v-.88h1.76v.88ZM427.33,18.74h-1.76v-.88h1.76v.88ZM423.91,18.74h-1.7v-.88h1.7v.88ZM420.49,18.74h-1.71v-.88h1.71v.88Z"/>
    <polygon class="st3" points="478.24 19.17 477.38 19.17 477.38 18.74 476.95 18.74 476.95 17.88 478.24 17.88 478.24 19.17"/>
    <path class="st3" d="M478.24,77.31h-.88v-1.76h.88v1.76ZM478.24,73.89h-.88v-1.71h.88v1.71ZM478.24,70.47h-.88v-1.76h.88v1.76ZM478.24,67.04h-.88v-1.76h.88v1.76ZM478.24,63.62h-.88v-1.76h.88v1.76ZM478.24,60.2h-.88v-1.76h.88v1.76ZM478.24,56.78h-.88v-1.68h.88v1.68ZM478.24,53.36h-.88v-1.68h.88v1.68ZM478.24,49.94h-.88v-1.76h.88v1.76ZM478.24,46.52h-.88v-1.68h.88v1.68ZM478.24,43.1h-.88v-1.76h.88v1.76ZM478.24,39.67h-.88v-1.76h.88v1.76ZM478.24,36.25h-.88v-1.68h.88v1.68ZM478.24,32.83h-.88v-1.76h.88v1.76ZM478.24,29.41h-.88v-1.68h.88v1.68ZM478.24,25.98h-.88v-1.68h.88v1.68ZM478.24,22.56h-.88v-1.76h.88v1.76Z"/>
    <rect class="st12" x="412.38" y="76.07" width="7.68" height="7.68"/>
    <path class="st3" d="M420.48,84.17h-8.53v-8.54h8.53v8.54ZM412.81,83.3h6.82v-6.82h-6.82v6.82Z"/>
    <rect class="st12" x="412.4" y="45.27" width="7.68" height="7.68"/>
    <path class="st3" d="M420.48,53.37h-8.53v-8.53h8.53v8.53ZM412.81,52.5h6.82v-6.77h-6.82v6.77Z"/>
    <rect class="st12" x="412.4" y="14.47" width="7.68" height="7.68"/>
    <path class="st3" d="M420.48,22.58h-8.53v-8.53h8.53v8.53ZM412.81,21.7h6.82v-6.8h-6.82v6.8Z"/>
    <rect class="st12" x="474" y="76.07" width="7.68" height="7.68"/>
    <path class="st3" d="M482.07,84.17h-8.52v-8.54h8.53v8.54ZM474.39,83.3h6.82v-6.82h-6.78l-.04,6.82Z"/>
    <rect class="st12" x="474" y="45.27" width="7.68" height="7.68"/>
    <path class="st3" d="M482.07,53.37h-8.52v-8.53h8.53v8.53ZM474.39,52.5h6.82v-6.77h-6.78l-.04,6.77Z"/>
    <rect class="st12" x="474" y="14.47" width="7.68" height="7.68"/>
    <path class="st3" d="M482.07,22.58h-8.52v-8.53h8.53v8.53ZM474.39,21.7h6.82v-6.8h-6.78l-.04,6.8Z"/>
    <rect class="st12" x="443.21" y="14.47" width="7.68" height="7.68"/>
    <path class="st3" d="M451.28,22.58h-8.54v-8.53h8.54v8.53ZM443.6,21.7h6.82v-6.8h-6.82v6.8Z"/>
    <rect class="st12" x="443.17" y="76.07" width="7.68" height="7.68"/>
    <path class="st3" d="M451.28,84.17h-8.54v-8.54h8.54v8.54ZM443.6,83.3h6.82v-6.82h-6.82v6.82Z"/>
    <path class="st3" d="M463.21,43.86h-1.01c-2.86-8.67-4.5-12.18-9.32-12.18h-.64v34.87h4.5v1.11h-19.31v-1.11h4.5V31.68h-.68c-4.83,0-6.63,3.98-9.34,12.19h-1l.53-13.3h31.28l.49,13.29Z"/>
    <path class="st3" d="M23.8,101.75c.86.85.87,2.23.02,3.09-.41.41-.96.65-1.54.65-.59,0-1.17-.22-1.6-.62l-9.73-9.88c-.09-.03-.16-.11-.18-.2-.03-.03-.07-.05-.11-.07-.04-.09-.08-.18-.1-.28-.06-.03-.1-.08-.11-.14,0-.07,0-.17-.07-.2s-.07-.14-.07-.18v-.87c0-.07.07-.11.07-.14s0-.17.07-.27,0,0,0-.07.11-.25.17-.32c0-.04.03-.07.07-.07.05-.1.12-.18.21-.24l9.74-9.88c.87-.83,2.25-.83,3.12,0,.86.86.86,2.25,0,3.12,0,0,0,0,0,0l-8.22,8.28,8.25,8.29Z"/>
    <path class="st3" d="M32.63,102.86l8.49-20.18c.42-.98,1.55-1.43,2.52-1.01,0,0,0,0,0,0,.95.41,1.38,1.52.97,2.47l-8.49,20.25c-.31.69-1,1.14-1.76,1.14-.24,0-.47-.04-.69-.13-.97-.36-1.46-1.45-1.1-2.42.01-.04.03-.07.04-.11Z"/>
    <path class="st3" d="M61.41,94.71h0c-.07.09-.16.17-.25.24l-9.74,9.88c-.86.86-2.26.86-3.12,0s-.86-2.26,0-3.12l8.22-8.29-8.22-8.28c-.86-.86-.86-2.25,0-3.12,0,0,0,0,0,0,.87-.83,2.25-.83,3.12,0l9.74,9.88c.09.07.17.15.25.24v.07c.07.1.12.21.17.32v.07c.02.11.06.21.11.31v1.04c0,.07-.07.24-.11.31s0,0,0,.11-.1.21-.17.35Z"/>
  </g>
  <g id="freepik--Floor--inject-35">
    <polygon class="st7" points="10 485.77 70 485.7 130 485.66 250 485.6 370 485.66 430 485.69 490 485.77 430 485.86 370 485.89 250 485.95 130 485.89 70 485.86 10 485.77"/>
  </g>
  <g id="freepik--Window--inject-35">
    <rect class="st12" x="23.76" y="95.53" width="450.72" height="272.6"/>
    <path class="st9" d="M474.48,368.13l-450.72.33h-.32v-.33l-.11-272.59v-.44h.44l450.72.18h.25v.26l-.25,272.59ZM474.48,368.13l-.25-272.59.25.25-450.72.18.44-.43-.11,272.59-.32-.32,450.72.32Z"/>
    <rect class="st11" x="23.76" y="95.53" width="450.72" height="44.41"/>
    <rect class="st12" x="42.46" y="124.39" width="9.27" height="1.54"/>
    <rect class="st12" x="42.46" y="131.33" width="9.27" height="1.54"/>
    <rect class="st12" x="42.46" y="127.9" width="9.27" height="1.54"/>
    <rect class="st0" x="368.88" y="124.26" width="86.89" height="8.75"/>
    <rect class="st12" x="447.02" y="124.26" width="8.75" height="8.75"/>
    <path class="st11" d="M454.17,131.09l-.81.61-1.53-1.98-.55-.72c.11-.04.22-.1.32-.18.19-.14.33-.33.42-.54l.58.77,1.57,2.04Z"/>
    <path class="st11" d="M452.57,126.43c-.74-.96-2.13-1.14-3.09-.4s-1.14,2.13-.4,3.09c.66.85,1.83,1.1,2.78.6.11-.06.21-.12.31-.19.17-.14.33-.3.46-.47.56-.79.54-1.86-.05-2.62ZM451.63,128.82c-.1.07-.2.13-.32.18-.67.28-1.44-.04-1.72-.71-.23-.56-.05-1.2.43-1.56.57-.43,1.37-.33,1.82.22.44.57.34,1.39-.22,1.84,0,0-.01.01-.02.02l.04.03Z"/>
    <rect class="st12" x="370.72" y="125.98" width=".47" height="5.31"/>
    <path class="st12" d="M128.58,133.31h-42.51v-9.35h42.51v9.35ZM86.95,132.43h40.75v-7.6h-40.75v7.6Z"/>
    <path class="st12" d="M179.36,133.31h-42.51v-9.35h42.51v9.35ZM137.73,132.43h40.75v-7.6h-40.75v7.6Z"/>
    <rect class="st0" x="188.06" y="124.39" width="41.63" height="8.49"/>
    <path class="st12" d="M280.91,133.31h-42.51v-9.35h42.51v9.35ZM239.28,132.43h40.75v-7.6h-40.75v7.6Z"/>
    <path class="st12" d="M331.68,133.31h-42.51v-9.35h42.51v9.35ZM290.05,132.43h40.75v-7.6h-40.75v7.6Z"/>
    <rect class="st6" x="23.76" y="95.53" width="450.72" height="7.06"/>
    <path class="st9" d="M29.37,99.06c0,.97-.79,1.76-1.76,1.76s-1.76-.79-1.76-1.76.79-1.76,1.76-1.76,1.76.79,1.76,1.76Z"/>
    <path class="st12" d="M36.51,99.06c0,.97-.79,1.76-1.76,1.76s-1.76-.79-1.76-1.76.79-1.76,1.76-1.76,1.76.79,1.76,1.76Z"/>
    <path class="st11" d="M43.65,99.06c0,.97-.79,1.76-1.76,1.76s-1.76-.79-1.76-1.76.79-1.76,1.76-1.76,1.76.79,1.76,1.76Z"/>
    <rect class="st4" x="466.73" y="139.95" width="7.74" height="228.19"/>
    <path class="st10" d="M470.6,219.09h0c-1.03.07-1.92-.7-2-1.73,0,0,0-.02,0-.03v-74.33c.07-1.04.96-1.82,1.99-1.76,0,0,0,0,0,0h0c1.03-.07,1.93.71,2,1.75,0,0,0,0,0,0v74.33c-.06,1.03-.94,1.82-1.98,1.76,0,0-.02,0-.03,0Z"/>
    <path class="st3" d="M42.63,150.97v33.44h33.44v-33.44h-33.44ZM45.15,181.88v-28.39h28.39v28.39h-28.39Z"/>
    <rect class="st11" x="189.63" y="156.59" width="16.56" height="16.55"/>
    <rect class="st11" x="334.24" y="156.59" width="16.56" height="16.55"/>
    <rect class="st11" x="41.32" y="241.28" width="16.56" height="16.55"/>
    <path class="st3" d="M430.29,326.63v33.44h33.44v-33.44h-33.44ZM432.82,357.55v-28.39h28.39v28.39h-28.39Z"/>
    <rect class="st14" x="49.6" y="249.56" width="58.01" height="10.85"/>
    <rect class="st4" x="49.6" y="265.76" width="159.42" height="4.05"/>
    <rect class="st4" x="49.6" y="274.67" width="159.42" height="4.05"/>
    <rect class="st4" x="49.6" y="283.59" width="159.42" height="4.05"/>
    <rect class="st4" x="49.6" y="292.51" width="159.42" height="4.05"/>
    <rect class="st4" x="49.6" y="301.43" width="159.42" height="4.05"/>
    <rect class="st14" x="197.91" y="164.87" width="58.01" height="10.85"/>
    <rect class="st4" x="197.91" y="183.19" width="119.2" height="4.05"/>
    <rect class="st4" x="197.91" y="192.1" width="119.2" height="4.05"/>
    <rect class="st4" x="197.91" y="201.02" width="119.2" height="4.05"/>
    <rect class="st4" x="197.91" y="209.95" width="119.2" height="4.05"/>
    <rect class="st4" x="197.91" y="221.8" width="119.2" height="4.05"/>
    <rect class="st4" x="197.91" y="230.73" width="119.2" height="4.05"/>
    <rect class="st14" x="342.51" y="164.87" width="106.1" height="11.04"/>
    <rect class="st12" x="342.81" y="176" width="105.53" height="173.08"/>
    <path class="st4" d="M448.63,349.36h-106.12v-173.65h106.12v173.65ZM343.1,348.79h104.95v-172.51h-104.95v172.51Z"/>
    <polygon class="st4" points="343.08 349.19 342.53 348.97 448.06 175.9 448.61 176.11 343.08 349.19"/>
    <polygon class="st4" points="448.06 349.19 342.53 176.11 343.08 175.9 448.61 348.97 448.06 349.19"/>
    <rect class="st12" x="12.56" y="165.06" width="126.45" height="69.53"/>
    <path class="st4" d="M12.36,234.78v-69.88h126.82v69.88H12.36ZM12.76,165.25v69.17h126.02v-69.18H12.76Z"/>
    <path class="st4" d="M12.76,165.25c10.64,5.57,21.2,11.28,31.76,16.98l31.59,17.19,31.43,17.38,15.66,8.78,15.59,8.85-15.91-8.44-15.85-8.56-31.59-17.19-31.43-17.38c-10.43-5.83-20.89-11.66-31.27-17.59Z"/>
    <path class="st4" d="M138.8,165.25c-10.36,5.93-20.81,11.77-31.26,17.55l-31.43,17.38-31.59,17.19-15.8,8.53-15.92,8.44,15.52-8.8,15.66-8.78,31.43-17.38,31.59-17.19c10.58-5.68,21.15-11.38,31.78-16.95Z"/>
    <rect class="st12" x="64.45" y="333.81" width="258.01" height="48.89"/>
    <path class="st11" d="M322.88,333.67v49.14H64v-49.14h258.88ZM322,382.57v-48.63H64.84v48.63h257.17Z"/>
    <polygon class="st11" points="322.62 382.58 322.29 382.82 64.29 333.93 64.61 333.68 322.62 382.58"/>
    <polygon class="st11" points="322.62 333.93 64.61 382.82 64.29 382.58 322.29 333.68 322.62 333.93"/>
  </g>
  <g id="freepik--Plant--inject-35">
    <path class="st11" d="M66.05,413.94c6.05-12.43,16.62-18.81,28.55-15.28s13.76,20.18,4.86,24.34-17.8-8.06-22.49-10.53-10.92,1.47-10.92,1.47Z"/>
    <path class="st7" d="M60.2,447c0-1.49.1-2.99.15-4.48.11-2.99.2-5.98.32-8.98.2-5.47.79-10.84,3.05-15.87,2-4.57,5.35-8.42,9.59-11.05,1.57-.95,3.27-1.68,5.04-2.18,1.61-1.62,3.65-2.75,5.88-3.23,2.76-.57,5.6-.64,8.39-.21.1,0,.1.17,0,.16-2.64-.34-5.33-.15-7.9.56-1.11.3-2.18.72-3.2,1.25-.64.34-1.26.73-1.84,1.17,2.41-.49,4.89-.47,7.28.07.86.21,1.71.49,2.53.83.65-.14,1.32-.2,1.98-.17.87.03,1.74.15,2.58.37,1.73.48,3.38,1.2,4.91,2.14.04.01.06.06.05.1-.01.04-.06.06-.1.05-.01,0-.02-.01-.03-.02-1.51-.82-3.12-1.43-4.79-1.8-.81-.19-1.63-.31-2.46-.36-.46-.03-.91-.03-1.37,0,3.4,1.57,6.13,4.29,7.7,7.68.04.1-.1.18-.13.08-1.9-3.99-5.52-6.9-9.83-7.9-.26-.07-.53-.11-.79-.16.09.39.07.82.12,1.2.08.61.18,1.2.31,1.81.25,1.23.57,2.44.97,3.63.4,1.2.89,2.37,1.45,3.51.54,1.21,1.21,2.35,2.01,3.4.08.08-.06.18-.12.09-.72-1.12-1.55-2.16-2.2-3.32-.63-1.13-1.17-2.3-1.61-3.51-.46-1.21-.81-2.45-1.06-3.72-.13-.67-.24-1.34-.32-2.02-.08-.41-.11-.82-.08-1.24-1.4-.21-2.82-.24-4.23-.09.53,2.97,1.1,6.06,2.76,8.63.05.09-.09.17-.14.08-.77-1.37-1.46-2.78-2.04-4.24-.55-1.41-.89-2.88-1.02-4.39-2.47.33-4.85,1.12-7.02,2.34-4.07,2.37-7.32,5.93-9.32,10.2-2.12,4.61-3.29,9.6-3.47,14.67-.39,6.34-.48,12.73-1.11,19.07,0,.41-.7.55-.78.09-.16-1.41-.19-2.84-.09-4.26Z"/>
    <path class="st7" d="M74.17,405.62c.4-.48.86-.91,1.38-1.26.49-.42,1-.81,1.54-1.17,1.05-.72,2.21-1.26,3.43-1.6.04,0,.08.04.08.08,0,.04-.04.08-.08.08-1.23.31-2.39.87-3.39,1.66-.51.38-.99.77-1.47,1.18-.42.44-.89.83-1.39,1.18-.06,0-.11-.04-.11-.1,0-.02,0-.04,0-.05Z"/>
    <path class="st7" d="M93.46,410.12c1,1.16,1.93,2.39,2.77,3.67.83,1.29,1.52,2.66,2.06,4.09,0,.04-.05.07-.07,0-1.38-2.7-3.02-5.27-4.88-7.67-.06-.05.05-.17.11-.09Z"/>
    <path class="st7" d="M80.46,408.89c.13.78.35,1.53.68,2.25.34.69.72,1.36,1.16,1.99,0,.04,0,.09-.07.05-1.05-1.2-1.72-2.68-1.92-4.26-.02-.1.14-.13.16-.04Z"/>
    <path class="st11" d="M61.04,414.25s-8.51-10.76-25.07-6.95c-15.7,3.62-22.95,32.42-7.08,35.87,15.87,3.45,13.11-23.2,18.85-27.72,4.24-3.32,10.35-2.61,13.3-1.19Z"/>
    <path class="st7" d="M23.21,423.02c1.08-.95,2.21-1.83,3.4-2.63,1.12-.76,2.34-1.38,3.62-1.82.65-.98,1.37-1.9,2.16-2.76,1.45-1.57,3.14-2.91,4.99-3.98h-.49c-.88-.04-1.76-.04-2.63,0-1.76.11-3.49.55-5.1,1.27-.09.04-.16-.11-.06-.15,1.63-.7,3.34-1.21,5.09-1.53.85-.15,1.72-.23,2.58-.23.46,0,.88,0,1.39.09h.26c1.52-.77,3.11-1.35,4.77-1.76l-.47-.12c-.81-.18-1.62-.3-2.45-.4-1.64-.18-3.3-.16-4.94.08-.04,0-.08-.04-.08-.08,0-.04.04-.08.08-.08,1.66-.2,3.33-.27,4.99-.2,1.4.04,2.79.22,4.16.54.99-.19,2-.3,3.01-.34,5.73-.21,12.05,1.94,15.56,6.7s4.24,11.06,4.86,16.77c.97,7.97,1.18,16,.63,24.01,0,.47-.7.39-.71-.06-.22-6.78-.46-13.58-1.11-20.34-.3-3.13-.63-6.27-1.16-9.38-.38-2.67-1.15-5.27-2.27-7.72-1.23-2.5-3.17-4.59-5.58-5.99-2.42-1.39-5.12-2.22-7.9-2.43-2.49-.21-5,.03-7.41.69.07.49.07.98,0,1.47-.05.61-.18,1.22-.37,1.8-.18.55-.41,1.09-.68,1.61-.31.56-.69,1.07-1.04,1.61-.05.09-.19,0-.12-.09.67-.97,1.11-2.09,1.28-3.26.1-.56.16-1.12.19-1.68v-1.28c-2.62.8-5.07,2.1-7.21,3.81-.4.32-.79.66-1.17,1.01.54.52,1.01,1.11,1.4,1.76.57.83,1.06,1.71,1.47,2.63.76,1.84,1.28,3.77,1.53,5.75,0,.04-.04.08-.08.08s-.08-.04-.08-.08c-.3-1.91-.94-3.75-1.88-5.44-.44-.84-.93-1.65-1.47-2.42-.28-.39-.57-.79-.88-1.17-.16-.21-.33-.41-.49-.63-1.94,1.9-3.53,4.13-4.69,6.59h0c.78.82,1.43,1.76,1.93,2.78.6,1.06,1.11,2.17,1.55,3.31.79,2.2,1.45,4.45,1.97,6.73,0,.1-.13.13-.15,0-.5-2.3-1.29-4.52-2.34-6.63-.5-1.04-1.02-2.06-1.57-3.06-.57-.93-1.09-1.89-1.54-2.89-1.07,2.41-1.67,5.01-1.78,7.64,0,.04-.04.08-.08.08s-.08-.04-.08-.08c.29-4.15,1.55-8.18,3.67-11.76-1.01.43-2.02.88-2.99,1.37-1.24.66-2.39,1.47-3.43,2.41-.05.07-.16-.05-.08-.12Z"/>
    <path class="st7" d="M35.33,423.64c.49,1.63,1.11,3.21,1.56,4.86.46,1.58.7,3.21.73,4.85,0,.04-.07.04-.08,0-.45-3.29-1.24-6.53-2.36-9.65-.02-.04,0-.09.04-.11.04-.02.09,0,.11.04Z"/>
    <path class="st7" d="M24.86,419.59c.66-.63,1.41-1.16,2.22-1.56.82-.36,1.67-.66,2.54-.88.1,0,.13.14,0,.16-.85.21-1.68.53-2.45.96-.78.4-1.53.87-2.24,1.39-.05.05-.11-.02-.07-.06Z"/>
    <path class="st11" d="M52.92,399.88s-1.58-19.31-15.95-25.59c-12-5.27-18.86,8.25-10.38,16.5,6.86,6.68,17.87,3.67,26.34,9.09Z"/>
    <path class="st7" d="M29.24,378.03c2.19.88,4.32,1.9,6.39,3.03,1.72.99,3.38,2.09,4.96,3.29-.24-.48-.44-1-.68-1.47-.38-.75-.77-1.47-1.22-2.19-.88-1.46-1.95-2.81-3.17-4-.07-.07,0-.18.11-.11,1.22,1.2,2.33,2.5,3.33,3.88.5.7.95,1.43,1.37,2.19.42.7.75,1.45.97,2.23l.16.11c2.51,2,4.81,4.25,6.86,6.71-.05-.19-.09-.38-.13-.55-.27-.95-.56-1.88-.88-2.81-.63-1.98-1.51-3.88-2.63-5.63-.05-.09.09-.17.14-.08,1.13,1.76,2.13,3.59,3,5.49.4.93.73,1.88.99,2.86.21.63.37,1.28.47,1.94.62.79,1.24,1.6,1.82,2.42,6.14,8.78,9.27,19.39,10,30.02.22,3.17.28,6.35.17,9.52-.04,3.2-.33,6.39-.88,9.55,0,.2-.35.14-.35-.05.07-2.79.36-5.57.41-8.36.05-2.8-.04-5.6-.26-8.39-.46-5.58-1.51-11.09-3.13-16.45-1.67-5.48-4.14-10.68-7.31-15.45-.61-.12-1.2-.29-1.76-.44s-1.44-.37-2.15-.57c-1.38-.36-2.72-.85-4-1.47-.04-.02-.05-.07-.03-.11s.07-.05.11-.03h0c1.27.69,2.64,1.17,4.06,1.4,1.12.23,2.29.37,3.42.63-1.04-1.52-2.16-2.99-3.34-4.39-2.74.25-5.5.05-8.18-.61-1.42-.34-2.81-.78-4.18-1.31-1.44-.55-2.8-1.26-4.22-1.86-.11,0,0-.2.06-.14,2.57,1.4,5.38,2.32,8.28,2.71,2.56.41,5.15.62,7.75.64-1.02-1.17-2.07-2.31-3.19-3.38-3.77-3.6-8.26-6.9-13.22-8.62-.06-.04,0-.2.08-.17Z"/>
    <path class="st7" d="M40.93,378.09c.65.82,1.23,1.68,1.76,2.58.54.94.96,1.95,1.26,2.99M43.9,383.66c-.48-.95-.88-1.93-1.37-2.88-.49-.94-1.07-1.82-1.76-2.63-.02-.03.1-.14.16-.06l2.97,5.57Z"/>
    <path class="st7" d="M27.57,384.52c.93.52,1.92.93,2.95,1.23.98.33,1.98.6,2.99.81.05,0,0,.09,0,.09-1.06-.11-2.1-.34-3.11-.68-.99-.38-1.96-.81-2.9-1.3-.11-.04-.02-.19.07-.14Z"/>
    <path class="st11" d="M64.08,396.4c.09.83,2.18-7.02,14.32-13.98,11.03-6.34,24.19-22.82,13.38-33.2-8.73-8.39-31.73,9.91-27.7,47.18Z"/>
    <path class="st7" d="M55.72,441.41c.18-8.17.83-16.32,1.93-24.42.96-7.44,2.68-14.77,5.13-21.86.88-2.55,1.93-5.07,3.05-7.55-.06-.96-.04-1.93.05-2.89.06-1.24.17-2.47.28-3.7s.25-2.47.39-3.69.41-2.46.47-3.69c0-.11.18-.09.15,0-.24,1.29-.39,2.59-.44,3.91-.09,1.19-.16,2.39-.19,3.58s0,2.4,0,3.59v1.35c1.14-2.41,2.37-4.79,3.69-7.11-.82-5.04.24-10.3,1.27-15.23,0-.1.17-.05.15,0-.51,2.57-.77,5.19-.8,7.81-.05,2.06,0,4.13.05,6.2l.88-1.48c1.57-2.57,3.26-5.09,5.05-7.54-.15-1.2-.11-2.41.11-3.59.2-1.33.49-2.64.88-3.92.39-1.29.88-2.55,1.35-3.79s1.23-2.48,1.76-3.76c.02-.04.06-.06.11-.04.04.02.06.06.04.11-.65,1.21-1.16,2.49-1.53,3.81-.4,1.24-.73,2.5-.99,3.78-.25,1.27-.47,2.55-.65,3.85-.11.88-.19,1.76-.34,2.63,2.6-3.49,5.45-6.8,8.51-9.89.07-.08.18,0,.11.11-4.63,5.2-8.77,10.82-12.35,16.8l-.39.68c.67-.42,1.44-.75,2.07-1.11,1.17-.65,2.34-1.3,3.51-1.94,1.16-.62,2.3-1.25,3.45-1.89.59-.32,1.17-.67,1.76-.97.72-.32,1.41-.7,2.06-1.14.04-.02.09-.01.11.02s.01.09-.02.11c-1.17.64-2.2,1.6-3.33,2.32-1.12.72-2.29,1.42-3.51,2.08-2.16,1.2-4.5,2.07-6.63,3.32-1.47,2.58-2.83,5.27-4.09,7.9,1.29-.82,2.6-1.61,3.95-2.36.88-.48,1.76-.96,2.63-1.42.87-.4,1.69-.89,2.44-1.47.08-.06.18.04.11.11-1.42,1.27-2.99,2.36-4.67,3.25-1.56.88-3.13,1.76-4.76,2.59-1.3,2.84-2.47,5.74-3.51,8.7-5.12,14.47-7.02,29.84-7.9,45.11-.26,4.55-.4,9.1-.47,13.65-.06,4.55.18,9.1.18,13.65,0,.13-.22.17-.24,0-.54-4.04-.64-8.14-.82-12.21s-.16-8.2-.07-12.34Z"/>
    <path class="st7" d="M77.79,375.87c2.22-.98,4.38-2.1,6.46-3.34,2.12-1.18,4.17-2.48,6.14-3.89,0,0,.07,0,0,.06-1.86,1.5-3.83,2.88-5.89,4.11-2.15,1.21-4.37,2.28-6.66,3.2-.07.04-.14-.11-.05-.14Z"/>
    <path class="st7" d="M74.27,359.47c.18-.71.4-1.4.64-2.09-.02-.02-.02-.06,0-.08.15-.39.32-.78.47-1.17.01-.05.03-.09.05-.14l.1-.23h0s-.08.26-.11.4,0,.14-.07.22c-.79,2.73-1.38,5.52-1.76,8.35,0,.09-.15.09-.14,0,.1-1.78.38-3.54.82-5.27Z"/>
    <polygon class="st14" points="42.89 444.35 43.76 454.62 46.41 485.95 74.83 485.95 77.48 454.62 78.35 444.35 42.89 444.35"/>
    <polygon class="st7" points="42.89 444.35 43.76 454.62 77.48 454.62 78.35 444.35 42.89 444.35"/>
    <rect class="st14" x="40.1" y="440.22" width="41.04" height="9.85"/>
  </g>
  <g id="freepik--Image--inject-35">
    <rect class="st11" x="227.89" y="251.47" width="85.23" height="54.29"/>
    <polygon class="st7" points="224.26 310.77 222.73 310.77 222.73 309.23 223.16 309.23 223.16 310.33 224.26 310.33 224.26 310.77"/>
    <path class="st7" d="M314.06,310.77h-2.63v-.41h2.63v.41ZM308.8,310.77h-2.63v-.41h2.63v.41ZM303.53,310.77h-2.63v-.41h2.63v.41ZM298.27,310.77h-2.63v-.41h2.63v.41ZM293,310.77h-2.63v-.41h2.63v.41ZM287.73,310.77h-2.63v-.41h2.63v.41ZM282.47,310.77h-2.63v-.41h2.63v.41ZM277.2,310.77h-2.63v-.41h2.63v.41ZM271.94,310.77h-2.63v-.41h2.63v.41ZM266.67,310.77h-2.63v-.41h2.63v.41ZM261.41,310.77h-2.63v-.41h2.63v.41ZM256.14,310.77h-2.63v-.41h2.63v.41ZM250.88,310.77h-2.63v-.41h2.63v.41ZM245.61,310.77h-2.63v-.41h2.63v.41ZM240.35,310.77h-2.63v-.41h2.63v.41ZM235.08,310.77h-2.63v-.41h2.63v.41ZM229.82,310.77h-2.63v-.41h2.63v.41Z"/>
    <polygon class="st7" points="318.27 310.77 316.74 310.77 316.74 310.33 317.83 310.33 317.83 309.23 318.27 309.23 318.27 310.77"/>
    <path class="st7" d="M318.27,306.57h-.44v-2.63h.44v2.63ZM318.27,301.25h-.44v-2.63h.44v2.63ZM318.27,295.92h-.44v-2.63h.44v2.63ZM318.27,290.6h-.44v-2.63h.44v2.63ZM318.27,285.27h-.44v-2.63h.44v2.63ZM318.27,279.95h-.44v-2.63h.44v2.63ZM318.27,274.62h-.44v-2.63h.44v2.63ZM318.27,269.29h-.44v-2.63h.44v2.63ZM318.27,263.98h-.44v-2.63h.44v2.63ZM318.27,258.65h-.44v-2.63h.44v2.63ZM318.27,253.32h-.44v-2.63h.44v2.63Z"/>
    <polygon class="st7" points="318.27 248 317.83 248 317.83 246.9 316.74 246.9 316.74 246.46 318.27 246.46 318.27 248"/>
    <path class="st7" d="M314.06,246.9h-2.63v-.44h2.63v.44ZM308.8,246.9h-2.63v-.44h2.63v.44ZM303.53,246.9h-2.63v-.44h2.63v.44ZM298.27,246.9h-2.63v-.44h2.63v.44ZM293,246.9h-2.63v-.44h2.63v.44ZM287.73,246.9h-2.63v-.44h2.63v.44ZM282.47,246.9h-2.63v-.44h2.63v.44ZM277.2,246.9h-2.63v-.44h2.63v.44ZM271.94,246.9h-2.63v-.44h2.63v.44ZM266.67,246.9h-2.63v-.44h2.63v.44ZM261.41,246.9h-2.63v-.44h2.63v.44ZM256.14,246.9h-2.63v-.44h2.63v.44ZM250.88,246.9h-2.63v-.44h2.63v.44ZM245.61,246.9h-2.63v-.44h2.63v.44ZM240.35,246.9h-2.63v-.44h2.63v.44ZM235.08,246.9h-2.63v-.44h2.63v.44ZM229.82,246.9h-2.63v-.44h2.63v.44Z"/>
    <polygon class="st7" points="223.16 248 222.73 248 222.73 246.46 224.26 246.46 224.26 246.9 223.16 246.9 223.16 248"/>
    <path class="st7" d="M223.16,306.57h-.44v-2.63h.44v2.63ZM223.16,301.25h-.44v-2.63h.44v2.63ZM223.16,295.92h-.44v-2.63h.44v2.63ZM223.16,290.6h-.44v-2.63h.44v2.63ZM223.16,285.27h-.44v-2.63h.44v2.63ZM223.16,279.95h-.44v-2.63h.44v2.63ZM223.16,274.62h-.44v-2.63h.44v2.63ZM223.16,269.29h-.44v-2.63h.44v2.63ZM223.16,263.98h-.44v-2.63h.44v2.63ZM223.16,258.65h-.44v-2.63h.44v2.63ZM223.16,253.32h-.44v-2.63h.44v2.63Z"/>
    <g class="st2">
      <polygon points="256 294.07 313.11 294.07 284.56 270.44 256 294.07"/>
    </g>
    <polygon class="st11" points="227.89 294.09 278.53 294.09 253.21 278.7 227.89 294.09"/>
    <g class="st13">
      <polygon points="227.89 294.09 278.53 294.09 253.21 278.7 227.89 294.09"/>
    </g>
    <rect class="st11" x="227.89" y="294.07" width="85.23" height="11.7"/>
    <g class="st13">
      <rect x="227.89" y="294.07" width="85.23" height="11.7"/>
    </g>
    <circle class="st0" cx="243.08" cy="266.32" r="7.86"/>
    <rect class="st7" x="220.17" y="243.92" width="5.54" height="5.54"/>
    <rect class="st7" x="220.17" y="307.78" width="5.54" height="5.54"/>
    <rect class="st7" x="220.96" y="276.64" width="3.96" height="3.96"/>
    <rect class="st7" x="268.53" y="244.71" width="3.96" height="3.96"/>
    <rect class="st7" x="268.53" y="308.57" width="3.96" height="3.96"/>
    <rect class="st7" x="316.08" y="276.64" width="3.96" height="3.96"/>
    <rect class="st7" x="315.28" y="243.92" width="5.54" height="5.54"/>
    <rect class="st7" x="315.28" y="307.78" width="5.54" height="5.54"/>
  </g>
  <g id="freepik--Cursor--inject-35">
    <polygon class="st7" points="328.87 341.01 333.02 351.03 328.87 352.74 324.71 342.66 317.86 347.97 317.86 319.77 337.61 339.71 328.87 341.01"/>
    <path class="st7" d="M318.11,316.02c-.3-.58-.45-1.22-.44-1.87-.02-.65.13-1.29.44-1.87.58,1.18.58,2.56,0,3.74Z"/>
    <path class="st7" d="M314.89,317.35c-.62-.19-1.18-.54-1.63-1.01-.47-.45-.82-1.01-1.02-1.63.62.19,1.18.54,1.63,1.01.47.45.82,1.01,1.02,1.63Z"/>
    <path class="st7" d="M313.55,320.57c-.58.3-1.22.45-1.87.44-.65.02-1.29-.13-1.87-.44.58-.3,1.22-.45,1.87-.44.65-.01,1.29.14,1.87.44Z"/>
    <path class="st7" d="M314.89,323.79c-.2.62-.55,1.18-1.02,1.63-.45.47-1.01.82-1.63,1.01.2-.62.55-1.18,1.02-1.63.45-.47,1.01-.82,1.63-1.01Z"/>
    <path class="st7" d="M322.66,320.57c.58-.3,1.22-.45,1.87-.44.65-.01,1.29.14,1.87.44-.57.31-1.22.46-1.87.44-.65.01-1.29-.14-1.87-.44Z"/>
    <path class="st7" d="M321.33,317.35c.42-1.24,1.39-2.22,2.63-2.63-.42,1.24-1.39,2.22-2.63,2.63Z"/>
  </g>
  <g id="freepik--Character--inject-35">
    <rect class="st11" x="389.73" y="345.8" width="52.93" height="10.96"/>
    <polygon class="st11" points="403.93 356.67 402.45 370.68 384.16 485.95 378.92 485.95 393.36 370.68 394.53 356.67 403.93 356.67"/>
    <polygon class="st11" points="453.47 485.95 448.23 485.95 429.93 370.68 428.45 356.67 437.85 356.67 439.02 370.68 453.47 485.95"/>
    <rect class="st11" x="386.26" y="449.55" width="58.37" height="3.29"/>
    <polygon class="st0" points="393.36 370.18 402.45 370.18 403.93 356.67 394.53 356.67 393.36 370.18"/>
    <polygon class="st0" points="439.02 370.18 429.93 370.18 428.45 356.67 437.85 356.67 439.02 370.18"/>
    <path class="st5" d="M333.73,364.46c.58-1.76,31.59-42.71,33.7-43.5.24-.11,14.09,9.76,14.09,9.76.57.76,26.91-4.81,26.91-4.81l.26,31.78-47.97-1.03s-6.48,3.81-12.41,6.92h0c-2.52,1.42-5.12,2.69-7.8,3.78-2.4.63-7.36-1.16-6.79-2.9Z"/>
    <path class="st12" d="M340.51,367.37c2.67-1.1,5.28-2.36,7.79-3.78h0c5.92-3.1,12.41-6.92,12.41-6.92l10.68.23,16.67-26.98c-3.67.65-6.41,1.04-6.59.8,0,0-13.85-9.86-14.09-9.76-2.12.79-33.12,41.75-33.7,43.5-.58,1.76,4.44,3.53,6.83,2.9Z"/>
    <path class="st10" d="M333.46,364.56c.61-1.76,31.75-42.73,33.93-43.54.82-.31,7.6,3.88,14.15,9.75l-20.1,26.37s-18.55,9.82-21.06,10.46-7.52-1.28-6.92-3.04Z"/>
    <path class="st7" d="M335.55,365.17c5.39-6.73,26.48-34.4,31.3-41.47,0-.05,0-.08,0,0-5.48,6.56-26.33,34.39-31.37,41.41-.15.12-.04.2.07.06Z"/>
    <path class="st7" d="M343.88,366.03c1.22-1.51,1.74-3.46,1.45-5.38-.24-1.71-1.14-3.25-2.49-4.32,0,0-.11.04-.06.08,2.43,2.6,2.85,6.5,1.03,9.56-.02.02-.03.05-.01.07.02.02.05.03.07.01,0,0,.02-.02.02-.03Z"/>
    <path class="st7" d="M359.11,358.71c2.12-2.72,3.58-6.63,2.63-10.06,0-.13-.23-.08-.25,0-.56,3.36-1.49,6.65-2.76,9.81-.07.1-.04.24.07.31.1.07.24.04.31-.07Z"/>
    <path class="st7" d="M356.67,360.17c2.12-2.72,3.58-6.63,2.63-10.06,0-.13-.23-.08-.25,0-.56,3.36-1.49,6.65-2.76,9.81-.07.1-.04.24.07.31.1.07.24.04.31-.07Z"/>
    <path class="st7" d="M354.23,361.7c2.12-2.72,3.58-6.63,2.63-10.06,0-.13-.23-.08-.25,0-.56,3.36-1.49,6.65-2.76,9.81-.07.1-.04.24.07.31.1.07.24.04.31-.07Z"/>
    <path class="st7" d="M351.79,363.19c2.12-2.72,3.58-6.64,2.63-10.06,0-.13-.23-.08-.25,0-.56,3.36-1.49,6.65-2.76,9.81-.07.1-.04.24.07.31.1.07.24.04.31-.07Z"/>
    <path class="st7" d="M372.04,330.41c2.33-3.09-2.46-6.72-4.8-3.63-2.34,3.09,2.47,6.72,4.8,3.63Z"/>
    <path class="st7" d="M364.19,367.26c2.21-.52,2.41-3.12,1.87-4.89-.99-3.02-2.76-5.72-5.12-7.85-.03-.04-.08-.05-.12-.02,0,0-.01.01-.02.02-.22-.1-.47,0-.57.21-.02.04-.03.08-.03.11-.13,2.98-.64,6.14.14,9.1.46,1.74,1.77,3.79,3.86,3.31ZM360.91,359.45c0-1.47.13-2.93.11-4.39,1.04,1.5,2.01,3.05,2.9,4.65.42.78.78,1.58,1.09,2.41.46,1.28.69,5.72-2.5,3.73-1.76-1.12-1.63-4.66-1.56-6.41h-.03Z"/>
    <path class="st7" d="M365.1,346.93c-2.19,2.11-3.38,5.1-4.8,7.73-.09.21,0,.45.21.54.04.02.09.03.13.03,0,.06,0,.11.11.1,3.12-.59,6.03-2,8.43-4.07,1.38-1.24,2.54-3.57.88-5.15s-3.69-.41-4.97.82ZM367.92,346.46c3.77-.07,1.27,3.62.22,4.48-.69.55-1.42,1.05-2.18,1.5-1.58.91-3.21,1.74-4.87,2.49.78-1.25,1.44-2.55,2.18-3.83.87-1.47,2.57-4.62,4.69-4.65h-.04Z"/>
    <path class="st6" d="M409.91,316.17h21.54s22.53-10.83,40.67-6.47c20.8,5,23.46,31.14,7.9,40.37-19.7,11.7-107.37,9.43-107.37,9.43l18.96-32.12s29.15-6.14,55.59-5.27l-37.3,5.08v-11.03Z"/>
    <path class="st7" d="M390.35,329.46c.02-.05.03-.11.04-.17v-.13c0-.11.06-.21.09-.32s.14-.41.22-.62.17-.41.26-.61c.11-.2.23-.39.36-.57h.15c3.21-.6,24.99-3.71,28.23-4.08s6.55-.68,9.82-.95c6.54-.57,13.1-.81,19.66-.71l1.84.05c.13-.04.27-.06.4-.1.32-.08.62-.15.95-.21.59-.11,1.18-.2,1.76-.3,1.24-.18,2.48-.32,3.72-.55.07,0,.11.11,0,.12-1.24.27-2.46.63-3.7.88l-1.07.23c2.4.12,4.8.31,7.2.53.07,0,.07.12,0,.12-3.26-.19-6.56-.22-9.83-.17s-6.49.13-9.74.32c-6.56.38-13.11.97-19.64,1.65-3.67.38-25.88,3.62-29.56,3.77h-.04c-.03.08-.06.17-.11.25-.1.2-.2.4-.31.6s-.21.38-.33.55-.11.18-.18.26l-.1.14s-.07.08-.1.13c.09.03-.04-.04,0-.11Z"/>
    <path class="st7" d="M379.5,357.54c1.18-1.88,2.18-3.89,3.25-5.82l3.24-5.83c2.16-3.87,9.9-16.88,10.66-17.79.02-.03.06-.05.1-.03.03.02.05.06.03.1h0c-.36,1.01-5.2,9.65-6.31,11.55-2.22,3.84-4.55,7.61-6.86,11.41-.66,1.09-1.33,2.16-2,3.23s-1.38,2.14-1.99,3.25c-.04.08-.14.02-.11-.07Z"/>
    <path class="st7" d="M396.87,331.37c1.93-.47,3.91-.76,5.87-1.14l5.88-1.1c3.92-.73,7.85-1.43,11.79-2.09,7.84-1.33,15.72-2.42,23.64-3.18,4.47-.43,8.95-.71,13.43-1.04.1,0,.09.15,0,.15-7.98.36-15.95,1.44-23.84,2.58-7.9,1.14-15.63,2.35-23.42,3.67-2.19.37-4.39.75-6.59,1.13s-4.47.88-6.71,1.15c-.09,0-.12-.11-.04-.13Z"/>
    <path class="st5" d="M374.58,468.99c1.89-.19,48.85-21.3,50.13-23.24.49-.73-2.19-7.75-5.66-16.14-.75-1.82-1.54-3.69-2.34-5.57-5.27-12.29-11.07-25.19-11.07-25.19l-31.45,14.04,11.93,24.81,2.63,5.45s-14.37,16.12-15.54,18.43-.52,7.6,1.37,7.42Z"/>
    <path class="st12" d="M374.58,468.99c1.89-.19,48.85-21.3,50.13-23.24.6-.88-3.51-11.07-8-21.71l-30.59,13.65,2.63,5.45s-14.37,16.12-15.54,18.43c-1.18,2.31-.52,7.61,1.37,7.42Z"/>
    <path class="st10" d="M374.58,468.99c1.89-.19,48.85-21.3,50.13-23.24.49-.73-2.19-7.75-5.66-16.14l-30.32,13.52s-14.37,16.12-15.54,18.43c-1.18,2.31-.5,7.61,1.39,7.42Z"/>
    <path class="st7" d="M374.42,466.8c7.78-3.73,39.49-18.05,47.52-21.15.06,0,.08,0,0,.05-7.63,3.87-39.49,17.93-47.48,21.23-.15.07-.2-.05-.04-.13Z"/>
    <path class="st7" d="M375.46,458.46c1.75-.84,3.77-.91,5.57-.19,1.61.63,2.92,1.85,3.65,3.41,0,.04-.07.09-.1.04-1.99-2.96-5.69-4.25-9.08-3.17-.03.01-.06,0-.07-.03-.01-.03,0-.06.03-.07h0Z"/>
    <path class="st7" d="M386.04,445.29c3.13-1.46,7.29-1.99,10.41-.29.11.06,0,.24-.1.23-3.4-.2-6.82-.04-10.19.47-.12.01-.23-.08-.24-.2,0-.09.04-.17.12-.21Z"/>
    <path class="st7" d="M384.04,447.33c3.13-1.47,7.28-1.99,10.4-.3.12.07,0,.24-.09.24-3.41-.21-6.83-.05-10.2.47-.12,0-.22-.09-.23-.21,0-.08.04-.16.12-.2Z"/>
    <path class="st7" d="M382,449.37c3.13-1.46,7.28-1.98,10.4-.29.12.07,0,.24-.09.23-3.4-.2-6.82-.04-10.19.47-.12.01-.23-.08-.24-.2,0-.09.04-.17.12-.21Z"/>
    <path class="st7" d="M380.03,451.44c3.12-1.46,7.28-1.99,10.4-.29.12.06,0,.24-.09.23-3.41-.2-6.82-.04-10.2.47-.12,0-.22-.09-.23-.21,0-.08.04-.16.12-.2Z"/>
    <path class="st7" d="M416.57,439.08c3.51-1.58,6,3.92,2.46,5.5-3.55,1.58-6-3.92-2.46-5.5Z"/>
    <path class="st7" d="M381.18,442.92c2.69,1.43,5.9,1.64,8.84,2.19.31.06.49-.25.46-.51.05-.01.08-.06.06-.11,0,0,0-.02-.01-.02-1.53-2.79-3.77-5.12-6.49-6.77-1.6-.93-4.19-1.32-5.19.72s.75,3.68,2.33,4.51ZM379.87,440.37c-1.23-3.57,3.05-2.33,4.19-1.6.74.49,1.44,1.03,2.11,1.61,1.36,1.22,2.65,2.51,3.88,3.87-1.43-.36-2.88-.59-4.32-.88-1.71-.38-5.19-1.04-5.86-3.01Z"/>
    <path class="st7" d="M400.81,437.4c-1.17-1.95-3.71-1.33-5.27-.27-2.57,1.88-4.59,4.39-5.88,7.3-.02.05,0,.11.05.13,0,0,.01,0,.02,0-.03.23.14.44.37.47.04,0,.08,0,.12,0,2.89-.79,6.06-1.28,8.62-2.94,1.53-.94,3.08-2.82,1.97-4.69ZM394.39,442.92c-1.4.43-2.83.78-4.22,1.25,1.1-1.45,2.27-2.85,3.51-4.19.61-.63,1.27-1.22,1.97-1.76,1.08-.83,5.27-2.44,4.32,1.22-.48,2.02-3.92,2.98-5.57,3.49v-.03Z"/>
    <path class="st6" d="M416,421.15l-35.37,16s-42.12-80.82-43.21-105.56c-.94-21.06,13.72-29.19,61.1-15.57l11.61.15v8.02c-5.1.67-18.69,2.81-18.69,2.81-9.89,3.73-13.08,5.27-12.92,5.59,24.67,49.8,37.48,88.56,37.48,88.56Z"/>
    <path class="st7" d="M372.72,323.7c1.43,1.9,2.75,3.89,4.01,5.91,7.68-3.29,15.8-5.43,24.11-6.35,2.33-.29,4.67-.49,7.02-.62.1,0,.1.14,0,.15-8.35.58-16.59,2.15-24.57,4.67-2.2.68-4.39,1.47-6.54,2.24,1.52,2.43,2.95,4.92,4.33,7.42,2.57,4.69,4.87,9.51,6.92,14.44,1.14,2.73,2.25,5.48,3.22,8.28,0,.08-.11.13-.13.05-4.3-9.64-9.01-19.07-14.12-28.29-1.45-2.63-2.96-5.18-4.39-7.8-.02-.07.1-.16.15-.09Z"/>
    <path class="st7" d="M379.85,428.62c2.06-.81,4.06-1.81,6.08-2.72l6.07-2.73c4.05-1.81,18.03-7.6,19.19-7.9.07,0,.11.09.05.13-.88.59-9.92,4.6-11.96,5.48-4.08,1.76-8.21,3.37-12.29,5.03-1.18.47-2.36.92-3.51,1.39s-2.39.88-3.51,1.4c-.16.04-.2-.08-.13-.08Z"/>
    <path class="st7" d="M372.9,327.35c2.79,5.27,5.17,10.86,7.59,16.33s4.77,10.95,7.02,16.46c4.54,10.99,8.77,22.1,12.68,33.35,2.23,6.35,4.3,12.75,6.33,19.17,0,.09-.11.12-.14,0-3.75-11.34-7.81-22.58-12.05-33.75-4.24-11.17-8.72-22.18-13.48-33.11-1.33-3.07-2.69-6.13-4.07-9.18-1.38-3.05-2.81-6.08-4.1-9.17-.03-.11.15-.22.22-.1Z"/>
    <path class="st5" d="M395.3,260.29c-15.8,12.22-30.22,26.19-31.92,34.42-1.07,5.17,2.9,13.47,5.79,18.38,1.4,2.39,23.76-11.92,21.37-13.68-5.91-4.39-7.07-6.32-6.74-7.47.22-.75,16.33-20.76,20.34-29.2,5.59-11.76-1.92-7.78-8.85-2.44Z"/>
    <path class="st11" d="M372.54,278.43l15.04,10.22s14.12-17.91,17.55-26.89c3.43-8.98-.33-9.08-9.21-2.72-8.87,6.36-23.39,19.39-23.39,19.39Z"/>
    <path class="st11" d="M372.54,278.43l15.04,10.22s14.12-17.91,17.55-26.89c3.43-8.98-.33-9.08-9.21-2.72-8.87,6.36-23.39,19.39-23.39,19.39Z"/>
    <path class="st1" d="M399.02,264.25l-1.63-.42.4-1.63c.04-.17-.06-.34-.23-.39-.17-.04-.34.07-.39.24l-.48,1.94h0v.07h0l1.94.5c.08.03.17.03.25,0,.07-.05.12-.11.14-.19,0-.04,0-.08,0-.11ZM400.29,260.53c-.02-.15-.15-.26-.3-.24,0,0,0,0,0,0-.15.02-.26.16-.24.32l.45,3.12c.02.15.15.26.3.24,0,0,0,0,0,0h.1c.09-.06.15-.16.13-.27l-.44-3.17ZM403.14,260.53s0-.03,0-.04h-.04l-1.94-.5c-.17-.04-.34.06-.39.23-.04.17.06.34.23.39,0,0,0,0,0,0l1.63.42-.4,1.63c-.05.16.05.33.21.38,0,0,.01,0,.02,0,.08.03.16.03.24,0,.07-.04.13-.11.15-.19l.47-1.95h0v-.07l-.18-.3ZM388.69,268.33c-.05-.16-.23-.25-.39-.2l-1.9.64h0l.61,1.9c.04.08.09.14.17.18.16.08.35.01.42-.14.04-.08.04-.16.02-.24l-.52-1.6,1.59-.54s0,0,0,0h0ZM391.32,269.56c-.11-.11-.28-.11-.38,0,0,0,0,0,0,0l-2.4,2.05c-.11.11-.11.28,0,.38,0,0,0,0,0,0,.02.03.05.05.08.06.09.06.21.06.3,0l2.4-2.05c.12-.1.13-.28.02-.4-.02-.02-.04-.04-.06-.05h.04ZM392.92,272.07h0s0-.04,0-.05l-.61-1.9c-.06-.17-.24-.25-.4-.2-.16.05-.25.22-.21.38,0,0,0,0,0,.01l.52,1.61-1.59.54c-.16.04-.26.21-.22.38,0,0,0,.01,0,.02.06.17.24.25.4.2l1.9-.64h.05s0-.04,0-.05h0s.11-.26.11-.29h.04ZM379.62,279.97l1.18-1.19c.12-.13.12-.33,0-.46-.13-.11-.32-.11-.45,0l-1.4,1.43h0v.04h0v.04h0v.12h0l1.4,1.42c.06.06.14.09.23.09.17,0,.31-.15.31-.32,0-.08-.03-.15-.09-.21l-1.18-.97ZM383.67,278.22c-.14-.06-.3.01-.36.15l-1.23,2.91c-.06.14,0,.3.14.36,0,0,0,0,0,0,.03,0,.07,0,.11,0,.11,0,.21-.06.25-.16l1.22-2.92c0-.12-.07-.23-.18-.26l.04-.08ZM386.3,279.9v-.1h0v-.04h0l-1.4-1.43c-.13-.11-.32-.11-.45,0-.12.13-.12.33,0,.46l1.18,1.19-1.34,1.21c-.12.12-.12.32,0,.45,0,0,0,0,0,0,.06.06.14.09.23.09.08,0,.16-.03.22-.09l1.4-1.42h0v-.04h0c.05.02.12,0,.14-.05.02-.05,0-.12-.05-.14l.07-.08Z"/>
    <path class="st7" d="M389.64,284.9c-4.62-2.79-9.06-5.86-13.29-9.21-.05,0,0-.12.07-.08,1.14.88,8.03,5.27,13.3,9.19.06.04,0,.13-.08.1Z"/>
    <path class="st0" d="M406.3,257.5c-.22,1.48-.62,2.92-1.19,4.3-3.4,8.98-17.55,26.89-17.55,26.89l-6-4.08,24.75-27.11Z"/>
    <path class="st11" d="M440.48,315.95c-.11.14-50.7,1.21-51.22.73-.71-.68,3.98-48.27,11.3-60.06,1.83-2.95,10.45-5.13,14.31-1.13,14.94,15.46,25.98,59.93,25.61,60.46Z"/>
    <path class="st1" d="M399.02,264.25l-1.5-.39c-.07.2-.13.4-.19.61l1.54.39c.08.03.17.03.25,0,.07-.05.12-.11.14-.19.06-.16-.02-.35-.18-.41-.01,0-.03-.01-.05-.01ZM400.29,260.53c-.02-.15-.15-.26-.3-.24,0,0,0,0,0,0-.15.02-.26.16-.24.32l.45,3.12c.02.15.15.26.3.24,0,0,0,0,0,0h.1c.09-.06.15-.16.13-.27l-.44-3.17ZM403.14,260.53s0-.03,0-.04h-.04l-1.94-.5c-.17-.04-.34.06-.39.23-.04.17.06.34.23.39,0,0,0,0,0,0l1.63.42-.4,1.63c-.05.16.05.33.21.38,0,0,.01,0,.02,0,.08.03.16.03.24,0,.07-.04.13-.11.15-.19l.47-1.95h0v-.07l-.18-.3ZM420.21,280.31l-1.63-.42.4-1.63c.04-.17-.06-.34-.23-.39,0,0,0,0,0,0-.17-.04-.34.06-.39.23l-.47,1.94s0,.04,0,.05h0v.05h0l1.94.5c.08.03.17.03.25,0,.07-.04.12-.11.14-.18,0-.05,0-.1,0-.15ZM421.48,276.58c-.02-.14-.15-.25-.29-.23,0,0,0,0,0,0-.15.01-.26.15-.25.29,0,0,0,0,0,.01l.45,3.13c.02.14.15.25.29.23,0,0,0,0,.01,0,.03,0,.06,0,.1,0,.1-.05.15-.16.14-.27l-.45-3.17ZM424.33,276.58h-.04l-1.94-.51c-.17-.03-.34.07-.39.24-.04.17.06.34.23.39l1.63.41-.58,1.36c-.04.17.06.34.23.39,0,0,0,0,0,0,.08.03.17.03.25,0,.07-.04.12-.11.14-.19l.47-1.94v-.11s0-.05,0-.05v.02ZM396.8,299.22l-1.63-.47.4-1.63c.04-.17-.06-.34-.23-.39-.17-.03-.34.07-.39.24l-.47,1.94s0,.03,0,.04h0v.05h.05l1.94.5c.08.03.16.03.24,0,.07-.04.13-.11.15-.19-.01-.04-.03-.07-.05-.11v.02ZM398.08,295.5c0-.15-.13-.27-.28-.26,0,0,0,0,0,0-.15.03-.25.16-.24.32l.44,3.12c.02.15.16.26.32.24.03,0,.06,0,.1,0,.09-.06.15-.16.13-.27l-.47-3.14ZM400.93,295.5h0s0-.03,0-.04h-.05l-1.93-.5c-.17-.03-.34.06-.39.23-.05.16.05.33.21.38,0,0,.01,0,.02,0l1.63.42-.4,1.63c-.05.16.05.33.21.38,0,0,.01,0,.02,0,.08.03.16.03.24,0,.07-.05.12-.11.15-.19l.47-1.95h0s-.17-.35-.18-.37ZM420.52,312.34l-1.66-.43.4-1.63c.04-.17-.06-.34-.23-.39s-.34.06-.39.23h0l-.48,1.95s0,.03,0,.04h0v.05h0l1.94.5c.08.02.17,0,.24-.04.15-.08.2-.27.12-.42-.04-.08-.12-.14-.21-.15l.26.29ZM421.8,308.61c-.03-.14-.17-.23-.31-.21-.15.02-.26.15-.24.3,0,0,0,0,0,0l.44,3.13c.02.15.16.25.31.23,0,0,0,0,0,0,.03,0,.06,0,.1,0,.09-.06.14-.16.13-.27l-.44-3.19ZM424.65,308.61h0s0-.03,0-.04h-.11l-1.93-.5c-.17-.04-.34.06-.39.23-.04.17.06.34.23.39h0l1.63.42-.4,1.63c-.05.16.05.33.21.38,0,0,.01,0,.02,0,.08.02.17,0,.24-.04.08-.04.13-.11.15-.19l.47-1.94h0s-.11-.3-.12-.31v-.03ZM414.38,256.23c-.06-.17-.24-.25-.4-.2l-1.9.64h-.04v.04h0l.61,1.9c.03.08.09.15.17.18.08.03.16.03.24,0,.17-.06.25-.24.2-.4l-.53-1.6,1.6-.54s.04,0,.05,0v-.03ZM416.6,257.41h0l-2.4,2.06c-.11.11-.11.28,0,.38,0,0,0,0,0,0,.02.03.05.05.08.06.09.06.21.06.31,0l2.4-2.05h0c-.12-.15-.25-.29-.39-.43v-.03ZM417.38,258.37l.47,1.45-1.6.54c-.16.05-.25.22-.21.38,0,0,0,0,0,.01.03.08.08.15.16.18.08.03.17.03.25,0l1.9-.64h.04v-.13c-.23-.73-.62-1.25-1.02-1.78h0ZM407.83,285.1c-.06-.16-.24-.25-.4-.2l-1.9.64h0v.04h0l.61,1.9c.03.08.09.15.17.18.16.08.35.01.42-.14.04-.08.04-.16.02-.24l-.52-1.6,1.6-.54s0-.02,0-.03v-.03ZM410.41,286.33c-.11-.11-.28-.11-.38,0,0,0,0,0,0,0l-2.4,2.05c-.11.11-.11.28,0,.38,0,0,0,0,0,0,.02.03.05.05.08.06.09.06.21.06.3,0l2.4-2.06c.12-.09.14-.25.05-.37-.01-.02-.03-.03-.04-.04v-.03ZM412,288.84h0s0-.03,0-.04l-.61-1.9c-.06-.17-.24-.25-.4-.2-.17.05-.26.23-.2.4,0,0,0,0,0,0l.52,1.6-1.59.54c-.16.05-.26.22-.21.38,0,0,0,.02,0,.02.02.08.08.14.16.18.08.03.16.03.24,0l1.9-.64h.05s.15-.27.15-.3v-.03ZM430.49,299.3c-.06-.17-.24-.25-.4-.2l-1.9.64h-.04v.07h0s0,.03,0,.04l.61,1.9c.03.08.09.14.17.18.08.03.16.03.24,0,.17-.06.25-.24.2-.4l-.53-1.6,1.6-.54s.04-.05.05-.08v-.03ZM433.13,300.52c-.11-.1-.28-.1-.39,0l-2.47,2.04c-.11.11-.11.29,0,.39.02.03.05.05.08.06.09.06.21.06.31,0l2.4-2.06c.12-.08.15-.25.07-.37-.01-.02-.03-.03-.04-.05l.04-.03ZM434.71,302.98l-.61-1.9c-.06-.16-.24-.25-.4-.2-.17.06-.25.24-.2.4l.53,1.6-1.6.54c-.17.06-.25.24-.2.4.03.08.09.14.16.18.08.03.17.03.25,0l1.9-.64h.04v-.04h0v-.06s.1-.23.1-.25l.05-.03ZM407.55,270.22l1.18-1.19c.12-.12.12-.32,0-.45-.12-.12-.32-.12-.45,0h0l-1.4,1.42h0v.05h0v.12h0v.04h0l1.4,1.43c.06.06.14.09.23.09.08,0,.16-.03.22-.09.12-.12.12-.32,0-.45,0,0,0,0,0,0l-1.18-.98ZM411.6,268.52c-.14-.06-.3,0-.36.14,0,0,0,0,0,0l-1.23,2.91c-.06.14,0,.3.14.36,0,0,0,0,0,0h.11c.11,0,.21-.06.25-.17l1.22-2.91c.03-.14-.05-.28-.18-.32l.04-.03ZM414.23,270.15h0s0-.04,0-.05h0l-1.4-1.42c-.12-.12-.32-.12-.45,0-.12.12-.12.32,0,.45l1.18,1.19-1.18,1.2c-.12.12-.12.32,0,.45,0,0,0,0,0,0,.06.06.14.09.23.09.08,0,.16-.03.22-.09l1.4-1.43h0v-.04h0v-.12l-.07-.19.07-.03ZM421.46,290.56l1.18-1.19c.12-.12.12-.32,0-.45-.12-.12-.32-.12-.45,0l-1.4,1.42h0v.05h0v.05h0l1.4,1.43c.06.06.14.09.23.09.08,0,.16-.03.22-.09.12-.13.12-.33,0-.46l-1.18-.86ZM425.51,288.86c-.14-.06-.3,0-.36.14,0,0,0,0,0,0l-1.23,2.91c-.06.14,0,.3.14.36,0,0,0,0,0,0h.11c.11,0,.21-.06.25-.17l1.22-2.91c.03-.14-.06-.28-.2-.31,0,0,0,0-.01,0l.07-.03ZM428.14,290.49h0s0-.04,0-.05h0l-1.4-1.42c-.12-.12-.32-.12-.45,0-.12.12-.12.32,0,.45l1.18,1.19-1.18,1.19c-.12.13-.12.33,0,.46.06.06.14.09.23.09.08,0,.16-.03.22-.09l1.4-1.43h0v-.12l-.1-.24.1-.03ZM398.89,310.38l1.18-1.19c.12-.13.12-.33,0-.46-.13-.11-.32-.11-.45,0l-1.51,1.42h0v.14h0l1.41,1.42c.06.06.14.09.23.09.17,0,.31-.15.31-.32,0-.08-.03-.15-.09-.21l-1.09-.89ZM402.94,308.68c-.13-.06-.29,0-.35.12,0,0,0,.01,0,.02l-1.23,2.91c-.06.14,0,.3.14.36,0,0,0,0,0,0,.03,0,.06,0,.1,0,.11,0,.21-.06.26-.16l1.22-2.92c.02-.14-.07-.28-.21-.3,0,0-.01,0-.02,0l.1-.03ZM405.57,310.35v-.05h0l-1.4-1.43c-.13-.11-.32-.11-.45,0-.12.13-.12.33,0,.46l1.18,1.19-1.18,1.19c-.12.12-.12.32,0,.45,0,0,0,0,0,0,.06.06.14.09.22.09.08,0,.17-.03.23-.09l1.4-1.42h0v-.04h0v-.06s-.12-.25-.12-.25l.12-.03ZM435.21,314.06c-.13-.11-.32-.11-.45,0l-1.4,1.43h0v.04h0v.06h0l.21.21h.88l-.41-.41,1.05-.85c.13-.12.13-.32,0-.45,0,0,0,0,0,0l.12-.03ZM438.08,313.99c-.14-.06-.3,0-.37.15l-.81,1.91h.6l.71-1.68c.04-.14-.04-.3-.18-.34-.02,0-.05-.01-.07-.01l.12-.03ZM440.72,315.63s0-.03,0-.04h0v-.04h0v-.04l-1.68-1.41c-.13-.11-.32-.11-.46,0-.12.12-.12.32,0,.45,0,0,0,0,0,0l1.18,1.2-.26.26h.94v-.04h0s0-.03,0-.04h0v-.14l.27-.14ZM399.21,282.07c-.03-.17-.2-.28-.37-.25,0,0,0,0,0,0l-1.64.36-.38-1.64c-.03-.17-.2-.27-.36-.24,0,0-.01,0-.02,0-.17.04-.27.21-.25.38l.45,1.95s0,.03,0,.04h0v.04h.12l1.96-.42c.08-.02.15-.08.19-.15.11.03.22,0,.3-.08ZM400.09,280.52l-1.81-2.63c-.09-.12-.25-.15-.38-.07-.12.09-.16.26-.07.39l1.8,2.63c.09.12.26.15.38.07,0,0,0,0,0,0,.03-.02.05-.04.07-.07.07-.09.07-.22.02-.32h-.02ZM401.32,278.71l-.45-1.95s0-.03,0-.04h-.18l-1.96.42c-.16.05-.27.21-.24.38.03.17.2.28.37.25,0,0,0,0,0,0l1.64-.36.38,1.64c.03.17.2.28.37.25,0,0,0,0,0,0,.08-.02.15-.07.19-.15.09-.12.08-.29-.04-.38-.03-.03-.08-.05-.12-.06h.02ZM413.82,303.72l-1.64.36-.34-1.65c-.04-.17-.21-.28-.38-.24-.17.04-.28.21-.24.38h0l.45,1.95h0v.05h.11l1.96-.42c.08-.02.16-.08.2-.15.09-.15.05-.34-.1-.44-.07-.04-.16-.06-.24-.04l.23.19ZM415.09,302.42l-1.81-2.63c-.08-.12-.24-.15-.37-.07,0,0,0,0,0,0-.13.08-.16.25-.08.38,0,0,0,0,0,0l1.81,2.63c.07.12.23.16.35.09.01,0,.02-.01.03-.02.03-.01.06-.04.07-.07.07-.09.08-.22.02-.32h-.02ZM416.34,300.6l-.45-1.95h0v-.04h-.18l-1.96.42c-.17.04-.27.21-.25.38.04.17.21.28.38.25l1.65-.36.37,1.64c.03.17.2.27.36.24,0,0,.01,0,.02,0,.09-.01.16-.07.2-.14.09-.14.04-.33-.1-.42,0,0-.02-.01-.03-.02h-.02ZM390.01,315.38l-.79-1.14v.88l.39.55c.09.12.25.15.38.07.03-.02.06-.04.07-.08.04-.08.03-.17-.02-.25l-.03-.04ZM391.26,313.56l-.45-1.95v-.05h0s0-.03,0-.04h-.17l-1.04.22c0,.23-.02.45-.05.66l.88-.19.37,1.63c.04.17.21.28.38.25.08-.02.15-.07.2-.14.06-.14.02-.29-.1-.39h-.03Z"/>
    <path class="st5" d="M403.94,321.44c-2.05,1.69-5.79-3.71-5.79-3.71.12,1.14-.17,2.28-.81,3.23-1.2,1.62-4.27.45-4.27.45-.12,1.21-.61,2.35-1.4,3.27-1.31,1.43-4.57.68-4.57.68-.73,1.05-1.81,1.8-3.05,2.11-3.33.71-6.93-3.03-9.26-5.38-2.33-2.35-6.7-11.21-7.71-12.81l14.98-15.01s13.4,7.59,15.73,10.74c1.97,2.67,9.27,13.86,6.14,16.44Z"/>
    <path class="st7" d="M398.16,317.63c-1.54-3.28-3.49-6.36-5.78-9.16-.04-.06-.14,0-.1.08,2.19,2.81,3.67,6.27,5.73,9.17.05.08.18,0,.15-.09Z"/>
    <path class="st7" d="M393.21,321.16c-.39-.72-.88-1.39-1.45-1.99-.56-.68-1.13-1.33-1.76-1.98-1.17-1.3-2.36-2.57-3.6-3.82-.05-.05-.15,0-.1.08,1.17,1.3,2.31,2.63,3.4,3.97.55.67,1.11,1.35,1.65,2.04.47.67,1.01,1.3,1.61,1.85.04.06.12.08.18.04.06-.04.08-.12.04-.18Z"/>
    <path class="st7" d="M387.05,325.31c-.36-.66-.84-1.25-1.4-1.76-.54-.58-1.09-1.17-1.62-1.76-1.07-1.18-2.15-2.35-3.19-3.56,0-.06-.15,0-.1.08,1.04,1.24,2.07,2.48,3.12,3.71l1.56,1.81c.43.59.96,1.1,1.56,1.5.02.01.05,0,.06-.02,0,0,0,0,0,0Z"/>
    <path class="st5" d="M417.98,256.76c24.41,12.29,47.05,31.36,46.51,38.79-.54,7.85-13.88,18.93-26.7,23.01-2.63.83-14.5-17.38-11.9-18.79,2.02-1.09,11.27-5.63,12.2-7.17.64-1.08-18.33-19.65-25.26-29.88-7.2-10.71-1.37-9.25,5.16-5.96Z"/>
    <path class="st5" d="M431.36,298.17s-8.06,2.33-13.26,4.08c-2.9.97-7.72,3.1-9.52,4.79-2.69,2.54-12.35,14.85-9.42,17.25,2.63,2.18,5.27-2.49,5.27-2.49,0,0-3.3,4.84,0,6.19,3.3,1.35,6.14-5.05,6.14-5.05,0,0-3.86,4.9-.2,5.99,3.18.97,7.17-6.07,7.17-6.07,0,0-4.62,4.69-1.46,5.99,3.51,1.44,10.79-8.35,10.79-8.35,7.17-.48,11.41-1.76,16.1-4.02.79-.44-11.62-18.31-11.62-18.31Z"/>
    <path class="st7" d="M409.51,324.53l.74-1.47c.45-.97.96-1.91,1.52-2.82.59-.88,1.17-1.73,1.76-2.55.66-.88,1.41-1.7,2.05-2.63.01-.03.05-.05.08-.03.03.01.05.05.03.08,0,0,0,.02-.02.02-.64.88-1.22,1.79-1.76,2.74-.56.88-1.11,1.82-1.66,2.73-.55.91-1.12,1.76-1.68,2.63-.28.44-.54.88-.8,1.33-.22.44-.48.87-.76,1.27,0,0-.09,0-.08-.05.15-.43.35-.85.58-1.25Z"/>
    <path class="st7" d="M403.74,322.81c.78-1.82,1.68-3.57,2.7-5.27,1.05-1.7,2.27-3.3,3.64-4.76,0-.05.13,0,.1.07-1.04,1.69-2.11,3.38-3.19,5.05-.52.82-2.77,4.62-3.05,4.99-.09.1-.23,0-.2-.1Z"/>
    <path class="st7" d="M414.9,326.28c.77-1.7,1.65-3.35,2.63-4.93,1.15-1.52,2.41-2.96,3.77-4.29.05-.04.14,0,.1.08-1.14,1.52-2.32,3.01-3.39,4.59-.52.76-2.42,3.94-2.98,4.62-.04.07-.15,0-.13-.07Z"/>
    <path class="st11" d="M445.49,272.42l-14.46,13.57s-15.54-16.66-20.3-24.98c-4.76-8.31-1.09-9.03,8.67-4.12,9.76,4.91,26.09,15.53,26.09,15.53Z"/>
    <path class="st1" d="M424.33,276.57h-.04l-1.94-.51c-.05-.01-.11-.01-.17,0,.23.26.45.53.68.78l.97.25-.17.68c.17.2.34.39.51.59l.34-1.41v-.11s-.17-.26-.18-.26ZM414.38,256.25c-.06-.17-.24-.25-.4-.2l-1.9.64h-.04v.04h0l.61,1.9c.03.08.09.15.17.18.08.03.16.03.24,0,.17-.06.25-.24.2-.4l-.53-1.6,1.6-.54s.04-.02.05-.04ZM417.01,257.48c-.11-.1-.28-.1-.39,0l-2.4,2.06c-.11.11-.11.28,0,.38,0,0,0,0,0,0,.02.03.05.05.08.06.09.06.21.06.31,0l2.4-2.05c.11-.11.11-.3,0-.41-.01-.01-.02-.02-.03-.03l.04-.02ZM418.59,259.94l-.61-1.9c-.06-.17-.24-.25-.4-.2-.16.05-.25.22-.21.38,0,0,0,0,0,.01l.53,1.61-1.6.54c-.16.05-.25.22-.21.38,0,0,0,0,0,.01.03.08.08.15.16.18.08.03.17.03.25,0l1.9-.64h.04v-.12l.15-.25ZM436.55,274.07c-.06-.17-.24-.25-.4-.2l-1.9.64h0v.04l.4,2.26c.03.08.09.15.17.18.16.08.35,0,.42-.15.03-.07.04-.15.02-.23l-.53-1.61,1.6-.54c.16-.06.24-.24.18-.4,0,0,0,0,0,0h.04ZM439.14,275.29c-.11-.1-.28-.1-.39,0l-2.4,2.05c-.11.11-.11.28,0,.38,0,0,0,0,0,0,.02.03.05.05.08.07.09.06.21.06.31,0l2.4-2.06c.12-.09.14-.27.04-.38-.02-.03-.05-.05-.08-.07h.04ZM440.1,275.85c-.06-.16-.24-.25-.4-.2-.17.06-.25.24-.2.4l.5,1.52.51-.47-.4-1.25ZM438.16,278.56c.03.08.09.14.16.18.08.03.17.03.25,0h.11l1.11-1.04-1.42.47c-.16.06-.24.22-.2.39ZM428.4,268.91c-.03-.17-.2-.27-.36-.24,0,0-.01,0-.02,0l-1.64.35-.37-1.64c-.05-.17-.22-.27-.39-.24-.17.04-.28.21-.24.38l.45,1.95s0,.03,0,.04h0v.04h.15l1.96-.42c.08-.02.15-.07.2-.14.1.02.2-.02.27-.09h-.02ZM429.27,267.36l-1.81-2.63c-.08-.12-.24-.15-.37-.07,0,0,0,0,0,0-.13.09-.16.26-.08.39l1.81,2.63c.08.12.25.15.37.07,0,0,0,0,.01,0,.03-.01.06-.04.07-.07.08-.09.09-.21.04-.32h-.04ZM430.52,265.55l-.45-1.96v-.04h-.18l-1.96.41c-.17.05-.27.21-.25.39.04.17.21.28.38.24l1.65-.36.37,1.64c.04.17.21.28.38.25.08-.02.15-.07.2-.14.08-.15.03-.34-.11-.43h-.04Z"/>
    <path class="st7" d="M441.35,270.66c-3.74,4.14-7.74,8.04-11.96,11.69-.05.05-.12,0-.07-.08,1.11-.98,6.9-7.1,11.97-11.66.04-.05.11.05.06.05Z"/>
    <path class="st7" d="M431.95,285.03c-.31.21-.6.44-.88.69-2.39-2.81-1.92-2.15-4.34-4.94l-3.51-4.11c-1.23-1.42-2.39-2.93-3.69-4.29,0,0-.1,0-.06.05.88,1.41,1.99,2.73,3.04,4.05-.21-.19-.41-.39-.63-.58-.49-.41-.97-.82-1.43-1.26-.07-.07-.18,0-.11.1.43.43.88.88,1.24,1.33s.88.88,1.26,1.32.88.79,1.31,1.18l.16.14c.67.82,1.33,1.66,2,2.47,1.45,1.76,3.03,3.41,4.72,4.93.37-.3.72-.64,1.04-1,.02-.03.01-.08-.02-.1-.03-.02-.08-.01-.1.02h0Z"/>
    <path class="st5" d="M404.64,264.33c2.15-.28,5.89-5.04,7.02-8.7.07-.25-.75-2.56-1.61-5.42-.53-1.76-1.06-3.68-1.42-5.49l-10.83,5.04c1.1,2.13,1.94,4.39,2.49,6.73.04.25.07.51.07.76,0,.04,0,.08,0,.12.07,1.47.95,7.39,4.28,6.96Z"/>
    <path class="st7" d="M400.43,257.24s0,.09,0,.13c.4-.03.8-.09,1.19-.18,6.55-1.47,6.56-9.9,6.44-12.2l-10.27,4.75c1.1,2.13,1.94,4.39,2.49,6.73.07.25.11.51.14.76Z"/>
    <path class="st5" d="M409.6,232.52c1.36,4.07-.48,15.99-3.33,18.72-4.12,3.95-11.05,4.5-14.44-.5-3.29-4.84-.61-20.34,2.58-22.82,4.71-3.69,13.18-1.42,15.2,4.6Z"/>
    <path class="st7" d="M398.92,239.95s.06.05.05.09c-.18.79-.25,1.76.41,2.13M399.38,242.21c-.87-.25-.76-1.5-.47-2.26l.47,2.26Z"/>
    <path class="st7" d="M399.8,239.29c1.3.16.88,2.75-.31,2.63s-.82-2.76.31-2.63Z"/>
    <path class="st7" d="M394.43,239.14s-.07,0-.08.06c-.1.81-.34,1.76-1.11,1.87v.05c.91,0,1.23-1.18,1.19-1.98Z"/>
    <path class="st7" d="M393.85,238.19c-1.28-.3-1.76,2.28-.6,2.55s1.67-2.3.6-2.55Z"/>
    <path class="st7" d="M401,238.26c-.33-.14-.62-.33-.95-.51-.36-.13-.67-.38-.88-.7-.09-.24-.01-.5.19-.65.44-.23.98-.2,1.4.07.45.21.81.58,1.01,1.04.11.31-.05.64-.35.75-.14.05-.29.05-.42,0Z"/>
    <path class="st7" d="M393,235.6c.37,0,.71-.07,1.07-.11.38.02.76-.09,1.07-.32.18-.18.2-.46.07-.68-.32-.38-.82-.56-1.31-.47-.5.02-.98.23-1.34.58-.22.25-.19.62.05.84.11.09.24.15.39.15Z"/>
    <path class="st7" d="M398.51,247.61c-.22.16-.46.39-.75.37-.31-.05-.61-.16-.88-.33h0c.19.36.55.58.96.59.35-.04.64-.28.74-.61.02,0-.04-.04-.07,0Z"/>
    <path class="st7" d="M398.03,245.07c-.51.58-1.24.92-2.01.94-.33.01-.67-.03-.99-.11l-.18-.04-.18-.06c-.09-.03-.14-.11-.13-.2h0v-.09h0v-.07c.08-.62.28-1.55.28-1.55-.24.08-1.47.41-1.4.1.5-2.78,1.29-5.49,2.34-8.11,0-.09.16,0,.14,0-.45,2.57-1.35,5.05-1.84,7.62.44-.12.89-.19,1.35-.19.09,0-.43,1.76-.44,2.07h0c1.01.26,2.08.1,2.97-.44.1.03.16.1.1.15Z"/>
    <path class="st7" d="M395.44,245.64c.27.5.66.91,1.14,1.21.27.15.57.22.88.19.67-.07.78-.66.74-1.18-.03-.27-.08-.55-.17-.81-.78.47-1.69.67-2.59.59Z"/>
    <path class="st8" d="M396.58,246.85c.27.15.57.22.88.19.67-.07.78-.66.74-1.18-.7-.08-1.37.33-1.61.99Z"/>
    <path class="st7" d="M409.12,243.32s4.32-7.12,3.92-11.23c-.18-1.86-2.72-3.12-2.72-3.12.4-1.55-.11-3.19-1.33-4.23-2.19-2.07-7.52-1.61-7.52-1.61,0,0-3.46-4.99-8.35-3.02-4.89,1.97-1.7,7.52-1.7,7.52,0,0-1.76,2.54,2.58,4.54s12.99,0,12.99,0c-.41,3-.37,6.04.12,9.03.21,1.03.99,1.85,2,2.12Z"/>
    <path class="st7" d="M400.63,223.19c1.09-.45,2.26-.66,3.44-.63,1.05-.01,2.1.15,3.1.49,1.83.52,3.22,2.01,3.62,3.86.14.96-.1,1.93-.68,2.7,0,0-.07,0,0,0,1.13-1.4.54-3.57-.63-4.75-1.42-1.25-3.26-1.92-5.15-1.9-1.21-.02-2.42.11-3.61.38-.04.02-.09,0-.11-.04s0-.09.04-.11Z"/>
    <path class="st7" d="M389.64,222.47c.47-1.3,1.55-2.29,2.9-2.63,1.52-.46,3.14-.4,4.62.17,1.49.58,2.79,1.55,3.78,2.81,0,0,0,.06-.04,0-1.82-2.25-4.71-3.32-7.56-2.81-2.12.18-3.69,2.04-3.52,4.16.05.56.22,1.11.5,1.6.73,1.32,1.81,2.42,3.13,3.15M393.46,228.96c-1.24-.6-2.32-1.51-3.12-2.63-.79-1.12-1.04-2.53-.69-3.86l3.82,6.49Z"/>
    <path class="st14" d="M398.84,244.71c-1.84-.61-2.84-2.59-2.23-4.43,0-.01,0-.03.01-.04h0c.63-1.83,2.63-2.8,4.47-2.17,1.83.63,2.8,2.63,2.17,4.47-.52,1.5-1.97,2.46-3.55,2.35-.29-.02-.58-.08-.86-.18ZM397.08,240.39c-.54,1.6.32,3.33,1.92,3.87,1.6.54,3.33-.32,3.87-1.92.54-1.6-.32-3.33-1.92-3.87-.24-.08-.49-.13-.75-.15-1.4-.12-2.7.74-3.14,2.07h.02Z"/>
    <path class="st14" d="M391.52,243.26c-1.42-.27-2.27-2.05-1.9-3.97.15-.87.57-1.66,1.2-2.28.81-.9,2.2-.98,3.1-.17.27.24.47.55.6.88.36.81.45,1.7.26,2.56-.35,1.81-1.68,3.1-3.03,3l-.23-.04ZM391.14,237.36c-.56.55-.93,1.26-1.06,2.03-.32,1.66.36,3.19,1.53,3.41s2.38-.93,2.7-2.59c.16-.76.08-1.56-.23-2.27-.22-.57-.71-1-1.31-1.14h-.18c-.54-.03-1.07.18-1.46.56Z"/>
    <path class="st14" d="M396.65,240.66l.37-.3c-.44-.54-1.54-1.37-2.56-.63l.27.39c.92-.67,1.88.5,1.92.54Z"/>
    <path class="st14" d="M411.92,244.55l.46-.13c-.06-.21-.64-2.08-1.64-2.45s-7.26-.97-7.53-.99v.47c1.82.18,6.69.69,7.42.97s1.15,1.62,1.3,2.13Z"/>
    <path class="st5" d="M407.33,242.25s2.63-3.85,4.39-2.91-.24,6.53-2.27,7.3c-1.04.48-2.28.02-2.76-1.02-.01-.02-.02-.05-.03-.07l.68-3.29Z"/>
    <path class="st7" d="M411.12,240.93s.04,0,0,.05c-1.32.67-2.3,1.87-2.69,3.31.3-.56.99-.77,1.54-.47.08.04.15.09.21.15,0,0,0,.09,0,.08-.52-.16-1.08.02-1.4.46-.26.36-.49.74-.67,1.14-.07.13-.3.06-.25-.09h0c-.11-1.86,1.34-4.42,3.26-4.62Z"/>
    <path class="st7" d="M412.71,256.86c-.84,1.85-1.83,3.63-2.95,5.33-1.05,1.6-2.59,2.81-4.39,3.46-1.76.5-3.62.47-4.69-1.61-.79-1.81-1.18-3.77-1.13-5.75,0-.04-.03-.07-.07-.07-.04,0-.07.03-.07.07h0c.14,2.95.54,7.49,3.33,8,3.12.56,5.7-1.48,7.37-3.89,1.1-1.74,2.01-3.59,2.71-5.52,0,0-.06-.05-.11-.02Z"/>
    <rect class="st9" x="377.88" y="326.96" width="56.11" height="2.51"/>
    <polygon class="st10" points="377.88 326.96 377.88 329.47 416.02 329.47 414.1 326.96 377.88 326.96"/>
    <polygon class="st9" points="411.68 329.47 357 329.47 352.44 292.34 407.12 292.34 411.68 329.47"/>
    <path class="st12" d="M385.39,310.91c.04,1.8-1.38,3.29-3.18,3.33-.03,0-.06,0-.09,0-1.85,0-3.35-1.49-3.39-3.33-.04-1.8,1.39-3.29,3.18-3.33.03,0,.05,0,.08,0,1.85,0,3.35,1.48,3.39,3.33Z"/>
  </g>
</svg>