<?xml version="1.0" encoding="utf-8"?>
<!-- Generator: Adobe Illustrator 26.0.0, SVG Export Plug-In . SVG Version: 6.00 Build 0)  -->
<svg version="1.1" id="Layer_1" xmlns="http://www.w3.org/2000/svg" xmlns:xlink="http://www.w3.org/1999/xlink" x="0px" y="0px"
	 viewBox="0 0 1000 1000" style="enable-background:new 0 0 1000 1000;" xml:space="preserve">
<style type="text/css">
	.st0{fill:url(#SVGID_1_);}
</style>
<radialGradient id="SVGID_1_" cx="805.8419" cy="201.0309" r="923.5645" gradientUnits="userSpaceOnUse">
	<stop  offset="8.524463e-08" style="stop-color:#FFFFFF"/>
	<stop  offset="1" style="stop-color:#BFDBFE"/>
</radialGradient>
<path class="st0" d="M364.9,708.7c-17.5,0-206.4,0-319.4,0C16.3,645.1,0,574.5,0,500C0,223.9,223.9,0,500,0s500,223.9,500,500
	c0,71.4-15,139.2-41.9,200.7h-210c-12.4,0-22.4-10-22.4-22.4v-341c0-49.6-40.2-89.7-89.7-89.7H350.5c-44.2,0-82.1,6.7-113.5,20
	s-55.3,31.8-71.5,55.5c-16.3,23.7-24.4,51.8-24.4,84.3c0,28.2,6,51.7,18,70.3c12,18.7,28.2,33.8,48.8,45.6
	c20.5,11.7,43.4,21.3,68.7,28.8s51,14.1,77.1,20c23.4,5.3,44.4,10.9,62.7,16.8c18.4,5.9,32.9,13.1,43.6,21.6s16,19.7,16,33.6
	c0,11.7-4.3,22.5-12.8,32.4s-21.1,17.7-37.6,23.6C409.1,705.7,388.9,708.7,364.9,708.7z M610.6,707.6v-349c0-12.4-10-22.4-22.4-22.4
	H349.7c-20.8,0-38.8,2.7-53.9,8c-15.2,5.3-26.6,12.5-34.4,21.6c-7.7,9.1-11.6,19.7-11.6,32c0,14.4,6,26.3,18,35.6
	c12,9.3,28,16.9,48,22.8s42,11.5,65.9,16.8c22.9,4.8,46.2,10.8,69.9,18c23.7,7.2,45.8,16.5,66.3,28c20.5,11.5,37,26.9,49.6,46.4
	c12.5,19.5,18.8,43.8,18.8,73.1c0,32-8.5,59.9-25.6,83.9s-42.5,42.5-76.3,55.5c-33.8,13.1-75.5,19.6-125.1,19.6
	c-20.4,0-154.4,0-261.2,0C189.1,920.3,335.2,1000,500,1000s310.9-79.7,402-202.6H700.3C650.7,797.4,610.6,757.2,610.6,707.6z"/>
</svg>
