<svg width="150" height="150" viewBox="0 0 150 150" fill="none" xmlns="http://www.w3.org/2000/svg">
<g clip-path="url(#clip0_14_43)">
<path fill-rule="evenodd" clip-rule="evenodd" d="M0 75C0 33.5156 33.5156 0 75 0C116.484 0 150 33.5156 150 75C150 116.484 116.484 150 75 150H68.9062V149.766C30.4688 146.719 0 114.375 0 75ZM76.875 137.812C110.625 136.875 137.812 108.984 137.812 75C137.812 40.3125 109.688 12.1875 75 12.1875C40.3125 12.1875 12.1875 40.3125 12.1875 75C12.1875 109.688 40.3125 137.812 75 137.812H76.875Z" fill="white"/>
<path fill-rule="evenodd" clip-rule="evenodd" d="M44.5312 20.1562C43.5938 19.9219 42.8906 19.6875 41.9531 19.2188L45.9375 7.73438C46.4062 7.96875 46.875 7.96875 47.8125 8.20312C49.2188 8.67188 50.8594 9.14062 51.7969 9.60938C52.0312 9.60938 52.2656 9.84375 52.7344 9.84375C54.375 10.5469 56.25 11.25 57.8906 11.9531L58.125 12.1875C58.8281 12.6562 60 13.125 60.9375 13.5938C61.4062 13.8281 61.875 14.0625 62.3438 14.2969H62.8125C63.0469 14.5312 63.75 14.7656 64.4531 15.2344H64.6875C64.6875 15.2344 64.9219 15.2344 64.9219 15.4688C64.9219 15.4688 65.1562 15.4688 65.1562 15.7031C65.1562 15.7031 65.1562 15.7031 65.3906 15.7031C65.3906 15.7031 65.3906 15.7031 65.625 15.7031C65.625 15.7031 65.8594 15.7031 65.8594 15.9375C66.3281 16.1719 67.0312 16.6406 67.5 16.875C68.2031 17.3438 69.1406 17.8125 69.8438 18.2812C70.5469 18.75 71.4844 19.4531 72.1875 19.6875L72.4219 19.9219C72.8906 20.1562 73.3594 20.3906 73.5938 20.625C74.0625 20.8594 74.5312 21.3281 75 21.5625C75.2344 21.7969 75.4688 21.7969 75.4688 22.0312C75.7031 22.2656 75.9375 22.2656 76.1719 22.5C76.4062 22.7344 76.4062 22.7344 76.6406 22.7344C76.6406 22.7344 76.6406 22.7344 76.875 22.7344H77.3438C84.1406 27.8906 90 33.75 95.1562 40.5469C100.781 48.0469 105.234 56.25 108.281 65.1562C117.422 90.9375 114.844 120.469 100.312 143.906L90 137.578C102.422 117.422 104.766 91.6406 96.7969 69.1406C94.2188 61.6406 90.2344 54.375 85.3125 48.0469C80.8594 42.1875 75.7031 37.0312 69.8438 32.5781C69.6094 32.3438 69.1406 32.1094 68.9062 31.875C68.6719 31.6406 68.4375 31.4062 68.2031 31.4062C67.9688 31.1719 67.9688 31.1719 67.7344 30.9375C67.2656 30.7031 67.0312 30.2344 66.5625 30C66.3281 29.7656 66.0938 29.7656 66.0938 29.7656H65.8594V30.4688C65.625 30.2344 65.1562 30 64.9219 30C64.4531 29.5312 63.9844 29.2969 63.5156 29.0625L63.0469 28.5938C63.0469 28.5938 62.8125 28.5938 62.5781 28.3594C62.3438 28.125 61.875 27.8906 61.4063 27.6562C60.9375 27.4219 60.2344 26.9531 60 26.7187C59.7656 26.7187 59.5312 26.4844 59.5312 26.4844L59.2969 26.25C59.0625 26.25 59.0625 26.0156 58.8281 26.0156C58.8281 26.0156 58.5938 25.7812 58.3594 25.7812C58.125 25.5469 57.8906 25.5469 57.4219 25.3125C56.9531 25.0781 56.4844 24.8438 56.0156 24.6094C55.0781 24.1406 54.1406 23.6719 53.2031 23.4375L52.9688 23.2031C51.7969 22.7344 50.3906 22.2656 48.9844 21.5625C48.2812 21.3281 48.0469 21.0938 47.5781 21.0938C46.6406 20.625 45.7031 20.3906 44.5312 20.1562Z" fill="white"/>
<path fill-rule="evenodd" clip-rule="evenodd" d="M70.3125 48.9844C88.5938 45.7031 105.703 35.3906 117.188 20.625L126.797 28.125C113.203 45.2344 93.75 57.1875 72.4219 60.9375C61.875 62.8125 50.8594 62.8125 40.3125 60.9375C29.7656 59.0625 19.4531 55.3125 10.0781 49.6875L16.4062 39.375C24.375 44.0625 33.2812 47.5781 42.4219 49.2188C51.5625 50.625 60.9375 50.625 70.3125 48.9844Z" fill="white"/>
<path fill-rule="evenodd" clip-rule="evenodd" d="M37.7344 136.641C48.0469 83.6719 102.188 54.3751 146.25 66.3282L142.969 78.0469C105.469 67.7344 58.5938 93.0469 49.4531 138.984L37.7344 136.641Z" fill="white"/>
</g>
<defs>
<clipPath id="clip0_14_43">
<rect width="150" height="150" fill="white"/>
</clipPath>
</defs>
</svg>
