<svg width="160" height="200" viewBox="0 0 160 200" fill="none" xmlns="http://www.w3.org/2000/svg">
<path fill-rule="evenodd" clip-rule="evenodd" d="M41.0332 1.81616C32.6152 6.27615 25.9145 12.7668 20.5126 21.693C13.7648 32.8431 10.112 48.2789 11.3155 60.5558C13.4099 81.9161 23.0288 94.6519 47.189 108.053C52.3468 110.914 67.3445 118.487 76.883 123.046C98.3205 133.294 109.288 142.554 116.946 156.873C123.243 168.647 128.904 186.838 130.231 199.565C130.321 200.427 130.79 200.032 135.022 195.522C144.078 185.871 149.396 177.463 152.595 167.737C162.474 137.703 150.345 104.629 122.839 86.5968C117.918 83.3708 113.902 81.4441 98.3534 74.851C65.8563 61.0709 63.2323 59.7333 57.1094 53.8245C53.5425 50.3825 51.4894 47.6282 49.4757 43.5826C45.3964 35.3881 44.3852 28.3259 44.7868 10.8448C44.9243 4.87618 44.9042 -0.00364561 44.7423 2.04363e-06C44.5804 0.00401447 42.9113 0.82108 41.0332 1.81616ZM112.606 0.849901C112.606 0.919936 113.919 3.70966 115.524 7.04909C117.129 10.3885 118.675 13.6772 118.96 14.3568L119.477 15.593L115.768 16.9503C107.221 20.0774 103.473 23.4172 101.075 30.0425C98.1166 38.2158 101.079 46.3176 108.86 51.3375C115.216 55.4374 122.009 55.4685 128.276 51.4258C134.64 47.3203 137.215 42.2165 137.203 33.7339C137.184 20.5308 128.437 7.23221 116.289 1.93837C113.782 0.845527 112.606 0.498267 112.606 0.849901ZM122.474 28.4627C125.166 29.82 127.205 33.1076 127.213 36.1049C127.219 38.0688 125.93 40.9825 124.438 42.3777C121.029 45.568 115.416 45.2725 112.299 41.7383C109.361 38.4069 109.303 33.9451 112.154 30.621C114.806 27.5281 118.915 26.6687 122.474 28.4627ZM26.9023 124.749C22.1075 125.7 16.5817 128.742 12.6666 132.585C7.00631 138.141 4.95719 143.796 5.00068 153.742C5.03247 160.978 6.29952 166.445 9.60365 173.599C14.0217 183.167 23.1502 192.755 32.0224 197.148C35.6668 198.953 39.5144 200.372 39.5144 199.913C39.5144 199.749 37.3764 195.134 34.7634 189.657C32.1503 184.18 30.0139 179.522 30.0161 179.305C30.0179 179.088 32.3455 178.093 35.188 177.094C45.7235 173.39 50.6744 169.521 54.3312 162.131C56.3186 158.115 57.0352 155.469 57.2951 151.188C57.768 143.399 54.4105 136.349 47.6378 130.911C41.2295 125.766 33.4415 123.451 26.9023 124.749ZM35.9241 139.242C38.316 140.301 40.7818 142.695 41.9739 145.118C43.3184 147.851 43.4189 152.422 42.1928 155.083C41.0811 157.495 38.6848 159.941 36.2771 161.121C34.5152 161.984 33.7635 162.131 31.1088 162.131C28.4541 162.131 27.7023 161.984 25.9404 161.121C17.7929 157.127 16.7122 146.439 23.8745 140.685C26.9615 138.205 32.1708 137.581 35.9241 139.242Z" fill="#250101"/>
</svg>
