<svg width="500" height="500" viewBox="0 0 500 500" fill="none" xmlns="http://www.w3.org/2000/svg">
<rect width="500" height="500" fill="white"/>
<path fill-rule="evenodd" clip-rule="evenodd" d="M231.858 1.73116C222.616 4.69107 215.822 10.339 210.214 19.7235C207.586 24.1228 204.645 33.6812 204.645 37.8286C204.645 40.679 204.439 40.798 199.509 40.798C179.51 40.798 149.2 51.5271 126.444 66.6617C91.6533 89.8015 65.1455 130.733 59.973 169.308L58.7654 178.309L51.0731 178.401C44.6064 178.477 42.2512 179.048 36.2845 181.981C23.6181 188.212 16.834 197.269 14.5578 210.989C10.7312 234.059 27.0154 257.286 50.4213 262.143C78.0577 267.877 104.444 246.601 104.444 218.582C104.444 195.704 87.581 177.782 66.0547 177.782H61.0277L63.3714 173.831C69.5754 163.369 88.1695 136.249 94.594 128.29C115.384 102.538 140.138 81.2779 168.264 65.019C176.795 60.0875 203.995 46.0667 205.032 46.0667C205.262 46.0667 206.016 48.3195 206.709 51.0719C209.941 63.9073 219.419 75.6152 230.469 80.4244L237.027 83.279L233.959 95.4937C215.92 167.33 178.642 232.583 132.012 273.948C126 279.281 120.667 284.733 120.161 286.063C119.519 287.751 119.837 289.982 121.217 293.457C125.229 303.566 168.708 395.79 181.395 421.102L189.985 438.24L173.319 437.356C149.304 436.082 145.843 436.296 139.637 439.437C129.284 444.678 124.324 452.627 123.646 465.063C122.848 479.68 127.716 489.081 139.4 495.485C144.934 498.517 145.48 498.597 165.619 499.31C191.435 500.223 295.068 500.232 328.05 499.325C355.738 498.562 358.381 497.928 366.428 490.121C373.247 483.505 374.98 478.934 374.983 467.557C374.986 458.6 374.691 457.048 372.175 452.805C368.371 446.386 363.38 441.802 357.056 438.914C351.233 436.257 342.613 435.906 320.361 437.423L308.979 438.199L317.86 420.476C328.414 399.413 364.713 323.192 373.524 303.592C376.939 295.997 379.733 288.801 379.733 287.601C379.733 286.144 375.61 281.743 367.339 274.37C319.868 232.048 286.516 173.733 265.55 96.3957L261.986 83.2484L268.51 80.4097C279.523 75.6163 289.007 63.8883 292.234 51.0719C292.927 48.3195 293.749 46.0667 294.059 46.0667C294.37 46.0667 302.485 50.1246 312.092 55.0834C363.866 81.8111 397.583 113.127 428.577 163.276L437.868 178.309L430.159 178.896C420.737 179.613 415.57 181.967 408.942 188.562C401.439 196.028 397.254 205.61 396.778 216.407C396.298 227.319 398.327 234.542 404.342 243.334C417.458 262.505 441.568 268.427 462.983 257.737C474.109 252.182 483.462 239.205 486.347 225.315C489.733 209.022 479.583 188.728 464.317 181.266C459.551 178.937 456.961 178.393 450.445 178.356L442.432 178.309L440.677 167.613C435.817 138.003 421.781 112.171 397.208 87.6108C377.665 68.0779 359.58 56.5733 336.002 48.6778C325.695 45.2258 308.697 41.8518 301.611 41.8518C298.289 41.8518 296.209 41.3649 295.985 40.5346C295.789 39.8107 295.108 36.4514 294.473 33.0711C291.887 19.3084 283.836 8.3907 272.355 3.07571C266.92 0.559417 264.99 0.270695 252.108 0.0504668C240.72 -0.145526 236.666 0.191665 231.858 1.73116ZM259.145 5.05882C268.159 9.41809 276.108 20.1229 277.974 30.4167C278.358 32.5305 278.132 36.8571 277.472 40.032C275.038 51.7494 266.509 60.3878 254.792 63.0085C243.644 65.5005 231.014 58.9864 225.282 47.7906C218.259 34.071 222.756 17.8363 236.347 7.84593C244.82 1.61841 250.576 0.914522 259.145 5.05882ZM257.713 132.245C264.306 152.379 271.45 168.609 284.784 193.74C296.773 216.334 303.792 227.624 314.17 241.006C323.191 252.638 341.888 271.88 353.891 281.884C359.112 286.235 363.531 290.163 363.71 290.613C363.889 291.062 360.165 301.304 355.434 313.373C350.704 325.44 338.071 358.062 327.362 385.865C316.653 413.667 307.719 436.587 307.509 436.796C307.3 437.006 300.089 437.614 291.484 438.148C282.88 438.683 270.773 439.6 264.582 440.188C255.443 441.056 248.292 440.854 226.611 439.121C211.919 437.947 198.424 436.744 196.621 436.447C193.36 435.908 193.287 435.75 180.403 400.89C173.284 381.63 161.072 349.513 153.265 329.519C145.459 309.524 138.992 292.207 138.898 291.037C138.775 289.539 142.032 286.046 149.906 279.234C189.044 245.371 218.981 202.095 239.767 149.332C243.534 139.769 247.708 128.508 249.042 124.306C250.377 120.104 251.732 116.682 252.053 116.702C252.373 116.722 254.92 123.716 257.713 132.245ZM67.3035 182.504C78.8941 187.895 87.5683 200.693 87.5683 212.407C87.5683 232.701 66.2994 247.291 48.4489 239.242C38.1736 234.609 32.5317 226.017 31.8651 213.985C31.5055 207.508 31.8504 205.561 34.3374 200.025C37.7242 192.485 44.1139 186.14 52.0287 182.459C58.8655 179.279 60.3791 179.284 67.3035 182.504ZM450.144 183.089C470.006 193.004 475.778 217.678 461.679 232.406C456.248 238.081 448.817 241.362 441.435 241.346C433.827 241.33 428.912 239.388 423.017 234.067C417.213 228.829 414.376 223.029 413.739 215.102C413.006 205.969 415.46 199.272 422.269 191.828C427.467 186.147 437.834 179.893 442.057 179.891C442.98 179.89 446.619 181.329 450.144 183.089ZM249.154 341.9C243.142 350.425 242.125 353.806 242.106 365.345C242.09 375.325 242.372 376.978 244.987 382.205C246.581 385.393 248.836 389.186 249.997 390.635L252.108 393.269L254.168 390.635C255.3 389.186 257.555 385.393 259.178 382.205C261.853 376.95 262.129 375.377 262.129 365.345C262.129 355.22 261.872 353.789 259.108 348.486C255.938 342.405 253.394 339.002 252.017 339.002C251.566 339.002 250.277 340.307 249.154 341.9ZM280.059 444.867C290.501 445.742 309.487 446.894 322.249 447.43C335.011 447.966 346.877 448.95 348.618 449.617C358.742 453.501 362.412 464.572 356.381 473.033C351.849 479.389 355.997 479.15 250.824 479.125C158.462 479.102 154.364 479.02 150.124 477.096C146.994 475.677 145.069 473.85 143.532 470.839C140.773 465.438 140.817 462.772 143.75 457.639C147.92 450.345 149.626 449.944 186.785 447.516C205.075 446.321 226.424 444.685 234.228 443.881C249.183 442.338 250.062 442.357 280.059 444.867Z" fill="#2563EB"/>
</svg>
