<svg width="160" height="160" viewBox="0 0 160 160" fill="none" xmlns="http://www.w3.org/2000/svg">
<path fill-rule="evenodd" clip-rule="evenodd" d="M79.9418 33C58.6473 33 45.3818 43.5427 40.0291 64.628C48.0582 54.0854 57.3673 50.1463 68.0727 52.6951C74.1236 54.2012 78.5455 58.6037 83.3164 63.3537C91.1127 71.3476 100.189 80.5 119.971 80.5C141.265 80.5 154.647 69.9573 160 48.872C151.971 59.4146 142.662 63.3537 132.073 60.689C126.022 59.1829 121.6 54.7805 116.829 50.0305C108.916 42.1524 99.84 33 79.9418 33ZM40.0291 80.5C18.6182 80.5 5.35273 91.0427 0 112.128C8.02909 101.585 17.3382 97.6463 28.0436 100.195C34.0945 101.701 38.5164 106.104 43.2873 110.854C51.0836 118.848 60.16 128 79.9418 128C101.236 128 114.618 117.457 119.971 96.372C111.942 106.915 102.633 110.854 91.9273 108.189C85.8764 106.683 81.4545 102.28 76.6836 97.5305C68.8873 89.6524 59.8109 80.5 40.0291 80.5Z" fill="#38BDF8"/>
</svg>
