<svg width="160" height="160" viewBox="0 0 160 160" fill="none" xmlns="http://www.w3.org/2000/svg">
<g clip-path="url(#clip0_23_176)">
<rect width="160" height="160" fill="white"/>
<path d="M143.115 45.4914C148.73 55.7356 151.925 67.4917 151.925 79.997C151.925 106.532 137.544 129.699 116.161 142.166L138.129 78.6493C142.232 68.3882 143.599 60.1834 143.599 52.8878C143.599 50.2397 143.424 47.7822 143.115 45.4914ZM89.912 46.2745C94.2422 46.0467 98.144 45.5913 98.144 45.5913C102.02 45.1325 101.562 39.4368 97.6852 39.6637C97.6852 39.6637 86.0347 40.578 78.5139 40.578C71.4467 40.578 59.5711 39.6637 59.5711 39.6637C55.6922 39.4368 55.2375 45.3619 59.1148 45.5913C59.1148 45.5913 62.7838 46.0467 66.6594 46.2745L77.8645 76.9782L62.1218 124.185L35.9308 46.2745C40.2643 46.0467 44.1619 45.5913 44.1619 45.5913C48.035 45.1325 47.5778 39.4368 43.7022 39.6637C43.7022 39.6637 32.0544 40.578 24.5326 40.578C23.1832 40.578 21.5925 40.545 19.9036 40.4908C32.7646 20.9658 54.8701 8.07192 79.9996 8.07192C98.7239 8.07192 115.774 15.2312 128.57 26.956C128.26 26.9374 127.958 26.8985 127.638 26.8985C120.573 26.8985 115.56 33.0529 115.56 39.6637C115.56 45.5913 118.98 50.6063 122.625 56.533C125.36 61.3237 128.555 67.4773 128.555 76.3695C128.555 82.5249 126.187 89.669 123.082 99.6211L115.906 123.591L89.912 46.2745ZM79.9996 151.928C72.9392 151.928 66.1252 150.893 59.6795 148.997L81.2627 86.2886L103.37 146.859C103.515 147.214 103.694 147.542 103.885 147.85C96.4086 150.482 88.3755 151.928 79.9996 151.928ZM8.0737 79.997C8.0737 69.5692 10.3103 59.6704 14.3019 50.7257L48.6123 144.729C24.6164 133.072 8.0737 108.467 8.0737 79.997ZM79.9996 0C35.8876 0 0 35.8864 0 79.997C0 124.109 35.8876 160 79.9996 160C124.111 160 160 124.109 160 79.997C160 35.8864 124.111 0 79.9996 0Z" fill="#1579C5"/>
</g>
<defs>
<clipPath id="clip0_23_176">
<rect width="160" height="160" fill="white"/>
</clipPath>
</defs>
</svg>
