<?xml version="1.0" encoding="UTF-8"?>
<svg id="Layer_1" xmlns="http://www.w3.org/2000/svg" version="1.1" viewBox="0 0 500 500">
  <!-- Generator: Adobe Illustrator 29.6.1, SVG Export Plug-In . SVG Version: 2.1.1 Build 9)  -->
  <defs>
    <style>
      .st0 {
        opacity: .1;
      }

      .st0, .st1 {
        isolation: isolate;
      }

      .st2 {
        fill: #ebebeb;
      }

      .st3 {
        fill: #dbdbdb;
      }

      .st4 {
        fill: #eb9481;
      }

      .st5 {
        fill: #37474f;
      }

      .st6, .st1 {
        fill: #263238;
      }

      .st7 {
        fill: #c7c7c7;
      }

      .st8 {
        fill: #a6a6a6;
      }

      .st9 {
        fill: #ec2829;
      }

      .st10 {
        fill: #fff;
      }

      .st1 {
        opacity: .2;
      }

      .st11 {
        fill: #ff97b8;
      }

      .st12 {
        fill: #455a64;
      }
    </style>
  </defs>
  <g id="freepik--background-complete--inject-83">
    <path class="st3" d="M249.35,367.19h206.65v-207l-206.65,207ZM418,329.35h-75.23l75.36-75.35-.13,75.35Z"/>
    <path class="st2" d="M449.67,166.59l-.92.92-199.4,199.68h206.65v-207l-6.33,6.4ZM418,329.36h-75.23l75.37-75.36-.14,75.36Z"/>
    <rect class="st7" x="448.93" y="168.95" width="7.1" height=".99"/>
    <rect class="st7" x="451.84" y="173.55" width="4.19" height=".99"/>
    <rect class="st7" x="451.84" y="178.14" width="4.19" height=".99"/>
    <rect class="st7" x="451.84" y="182.74" width="4.19" height=".99"/>
    <rect class="st7" x="451.84" y="187.34" width="4.19" height=".99"/>
    <rect class="st7" x="451.84" y="191.93" width="4.19" height="1"/>
    <rect class="st7" x="451.84" y="196.53" width="4.19" height=".99"/>
    <rect class="st7" x="448.93" y="201.13" width="7.1" height=".99"/>
    <rect class="st7" x="451.84" y="205.74" width="4.19" height=".99"/>
    <rect class="st7" x="451.84" y="210.32" width="4.19" height=".99"/>
    <rect class="st7" x="451.84" y="214.93" width="4.19" height=".99"/>
    <rect class="st7" x="451.84" y="219.53" width="4.19" height=".99"/>
    <rect class="st7" x="451.84" y="224.12" width="4.19" height=".99"/>
    <rect class="st7" x="451.84" y="228.72" width="4.19" height=".99"/>
    <rect class="st7" x="448.93" y="233.32" width="7.1" height=".99"/>
    <rect class="st7" x="451.84" y="237.91" width="4.19" height=".99"/>
    <rect class="st7" x="451.84" y="242.51" width="4.19" height=".99"/>
    <rect class="st7" x="451.84" y="247.11" width="4.19" height=".99"/>
    <rect class="st7" x="451.84" y="251.7" width="4.19" height="1"/>
    <rect class="st7" x="451.84" y="256.3" width="4.19" height=".99"/>
    <rect class="st7" x="451.84" y="260.91" width="4.19" height=".99"/>
    <rect class="st7" x="448.93" y="265.51" width="7.1" height=".99"/>
    <rect class="st7" x="451.84" y="270.09" width="4.19" height=".99"/>
    <rect class="st7" x="451.84" y="274.7" width="4.19" height=".99"/>
    <rect class="st7" x="451.84" y="279.3" width="4.19" height=".99"/>
    <rect class="st7" x="451.84" y="283.89" width="4.19" height=".99"/>
    <rect class="st7" x="451.84" y="288.49" width="4.19" height=".99"/>
    <rect class="st7" x="451.84" y="293.09" width="4.19" height=".99"/>
    <rect class="st7" x="448.93" y="297.68" width="7.1" height="1"/>
    <rect class="st7" x="451.84" y="302.28" width="4.19" height=".99"/>
    <rect class="st7" x="451.84" y="306.88" width="4.19" height=".99"/>
    <rect class="st7" x="451.84" y="311.49" width="4.19" height=".99"/>
    <rect class="st7" x="451.84" y="316.07" width="4.19" height=".99"/>
    <rect class="st7" x="451.84" y="320.68" width="4.19" height=".99"/>
    <rect class="st7" x="451.84" y="325.28" width="4.19" height=".99"/>
    <rect class="st7" x="448.93" y="329.87" width="7.1" height=".99"/>
    <rect class="st7" x="451.84" y="334.47" width="4.19" height=".99"/>
    <rect class="st7" x="451.84" y="339.07" width="4.19" height=".99"/>
    <rect class="st7" x="451.84" y="343.66" width="4.19" height=".99"/>
    <rect class="st7" x="451.84" y="348.26" width="4.19" height=".99"/>
    <rect class="st7" x="451.84" y="352.86" width="4.19" height=".99"/>
    <rect class="st7" x="451.84" y="357.45" width="4.19" height="1"/>
    <path class="st3" d="M433.81,205.37l5.51-8.87-2.72-1.68c-.79-.5-1.24-1.41-1.15-2.34.03-.52.03-1.04,0-1.56-.03-.94.48-1.81,1.3-2.25l2.82-1.51-4.9-9.16-2.82,1.51c-.83.44-1.83.37-2.59-.17-.43-.3-.87-.57-1.33-.82-.83-.44-1.33-1.31-1.31-2.25l.1-3.2-10.43-.32-.1,3.21c-.04.94-.6,1.77-1.45,2.16-.24.1-.46.22-.69.34s-.45.25-.67.38c-.79.49-1.8.49-2.59,0l-2.74-1.69-5.5,8.87,2.72,1.69c.79.5,1.24,1.41,1.15,2.34-.05.52-.06,1.03-.05,1.55.03.94-.48,1.81-1.3,2.25l-2.82,1.51,4.94,9.21,2.81-1.57c.83-.44,1.83-.37,2.59.17.43.29.87.56,1.32.81.83.44,1.34,1.31,1.31,2.25l-.09,3.21,10.43.32.1-3.2c.04-.93.6-1.77,1.45-2.16l.7-.34c.22-.13.45-.25.67-.39.8-.49,1.8-.49,2.6,0l2.73,1.7ZM425,198.78c-4.16,2.23-9.34.66-11.57-3.5-2.23-4.16-.66-9.34,3.5-11.57,4.16-2.23,9.34-.66,11.57,3.5,2.23,4.15.68,9.33-3.48,11.57,0,0-.02,0-.02.01Z"/>
    <path class="st3" d="M158.81,122.21l-3.66-6.34-1.94,1.13c-.57.33-1.27.3-1.82-.06-.3-.2-.62-.38-.95-.54-.6-.28-.99-.89-1-1.55v-2.25h-7.32v2.24c0,.67-.4,1.27-1,1.55-.33.16-.64.34-.95.54-.55.36-1.25.39-1.82.06l-1.94-1.12-3.66,6.34,1.95,1.12c.57.34.9.96.85,1.62v1.07c.05.65-.28,1.28-.84,1.61l-2,1.13,3.66,6.34,1.95-1.13c.57-.32,1.27-.29,1.82.07.3.2.62.38.94.54.6.28.99.88,1,1.55v2.24h7.32v-2.24c.01-.66.4-1.27,1-1.55.33-.16.64-.34.94-.54.55-.36,1.25-.39,1.83-.07l1.94,1.13,3.66-6.34-1.95-1.12c-.56-.35-.88-.98-.82-1.64v-1.08c-.05-.66.28-1.28.85-1.62l1.96-1.09ZM151.81,125.49c0,3.31-2.69,6-6,6s-6-2.69-6-6,2.69-6,6-6h0c3.31,0,6,2.69,6,6Z"/>
    <path class="st2" d="M101.08,251.59c-15.74,0-28.5,12.75-28.51,28.49,0,15.74,12.75,28.5,28.49,28.51,15.74,0,28.5-12.75,28.51-28.49v-.02c0-15.73-12.76-28.49-28.49-28.49ZM101.08,293.39c-7.35,0-13.31-5.96-13.31-13.31s5.96-13.31,13.31-13.31,13.31,5.96,13.31,13.31h0c0,7.35-5.94,13.3-13.29,13.31h-.02Z"/>
    <polygon class="st2" points="106.56 252.77 95.6 252.77 96.21 245.02 105.95 245.02 106.56 252.77"/>
    <polygon class="st2" points="85.7 256.47 77.95 264.21 72.9 258.3 79.79 251.41 85.7 256.47"/>
    <polygon class="st2" points="73.57 273.82 73.57 284.78 65.81 284.17 65.81 274.43 73.57 273.82"/>
    <polygon class="st2" points="77.26 294.68 85.01 302.43 79.09 307.48 72.2 300.59 77.26 294.68"/>
    <polygon class="st2" points="94.61 306.81 105.57 306.81 104.97 314.57 95.22 314.57 94.61 306.81"/>
    <polygon class="st2" points="115.47 303.12 123.22 295.38 128.27 301.29 121.38 308.18 115.47 303.12"/>
    <polygon class="st2" points="127.61 285.76 127.61 274.81 135.36 275.41 135.36 285.16 127.61 285.76"/>
    <polygon class="st2" points="123.92 264.91 116.17 257.16 122.08 252.11 128.97 259 123.92 264.91"/>
    <path class="st2" d="M372.31,67.29c-15.73,0-28.49,12.76-28.49,28.49,0,15.73,12.76,28.49,28.49,28.49,15.73,0,28.49-12.76,28.49-28.49h0c0-15.73-12.74-28.48-28.47-28.49h-.02ZM372.31,109.08c-7.35,0-13.31-5.96-13.31-13.31s5.96-13.31,13.31-13.31,13.31,5.96,13.31,13.31h0c0,7.36-5.95,13.31-13.3,13.31,0,0,0,0-.01,0Z"/>
    <polygon class="st2" points="377.79 68.47 366.83 68.47 367.44 60.71 377.18 60.71 377.79 68.47"/>
    <polygon class="st2" points="356.93 72.16 349.19 79.91 344.13 73.99 351.02 67.1 356.93 72.16"/>
    <polygon class="st2" points="344.8 89.52 344.8 100.47 337.04 99.87 337.04 90.12 344.8 89.52"/>
    <polygon class="st2" points="348.49 110.37 356.24 118.12 350.32 123.17 343.43 116.28 348.49 110.37"/>
    <polygon class="st2" points="365.85 122.51 376.8 122.51 376.2 130.26 366.45 130.26 365.85 122.51"/>
    <polygon class="st2" points="386.7 118.81 394.45 111.07 399.5 116.98 392.61 123.87 386.7 118.81"/>
    <polygon class="st2" points="398.84 101.46 398.84 90.5 406.59 91.11 406.59 100.85 398.84 101.46"/>
    <polygon class="st2" points="395.14 80.6 387.4 72.86 393.31 67.8 400.2 74.69 395.14 80.6"/>
    <rect class="st7" x="59.98" width="1" height="91.87"/>
    <rect class="st3" x="55.79" y="86.56" width="9.39" height="10.16"/>
    <path class="st3" d="M79.69,129.16h-38.42c.77-14.62,7.74-38,19.21-38s18.45,23.38,19.21,38Z"/>
    <rect class="st7" x="111.75" width="1" height="66.77"/>
    <rect class="st3" x="107.56" y="61.47" width="9.39" height="10.16"/>
    <path class="st3" d="M131.47,104.06h-38.47c.78-14.61,7.75-38,19.21-38s18.49,23.39,19.26,38Z"/>
  </g>
  <g id="freepik--Shadow--inject-83">
    <ellipse class="st2" cx="250" cy="437.76" rx="195.98" ry="21.13"/>
  </g>
  <g id="freepik--Floor--inject-83">
    <polygon class="st6" points="38.37 367.14 91.28 366.9 144.18 366.81 250 366.64 355.82 366.81 408.73 366.9 461.63 367.14 408.73 367.39 355.82 367.48 250 367.64 144.18 367.47 91.28 367.38 38.37 367.14"/>
  </g>
  <g id="freepik--light-bulb--inject-83">
    <path class="st6" d="M288.11,338.9l.06,12.81-.06-.06h12.46v.11l.07,15.73v.18h-.19l-12.35.06.24-.24v12.82l-.26-.27h6.54v16.3h-9.36l.28-.18c-3.05,6.5-8.28,11.73-14.78,14.77-3.23,1.51-6.69,2.45-10.24,2.78-1.77.17-3.55.16-5.3.16h-10.49c-1.77.04-3.54-.01-5.31-.15-3.55-.33-7.02-1.26-10.26-2.75-3.23-1.52-6.18-3.58-8.73-6.08-2.53-2.53-4.6-5.46-6.14-8.69l.4.25h-9.52v-16.65h6.75l-.49.49v-12.85l.49.49h-12.82v-16.65h12.8l-.42.43v-12.81l.4.41h-12.74v-16.49h.37l50.46.08,50.46.16h.13v.13l-.07,15.73v.08h-.06l-12.32-.1ZM288.11,338.9l12.35-.06v.06l-.07-15.73.12.12-50.46.16-50.46.08.36-.36v15.73l-.38-.39h12.76v13.64h-12.78l.44-.44v15.73l-.47-.47h12.84v13.8h-6.75l.48-.48v15.72l-.45-.46h9.36l.12.25c1.49,3.14,3.5,6,5.94,8.47,2.48,2.43,5.35,4.44,8.48,5.94,3.16,1.46,6.54,2.38,10,2.71,1.72.17,3.46.16,5.23.16h10.54c1.77,0,3.51,0,5.24-.14,3.46-.32,6.84-1.23,10-2.69,6.35-2.96,11.47-8.06,14.45-14.4l.08-.18h9.26l-.3.3v-15.72l.27.27h-6.53v-13.32h.24l12.35.06-.18.18.07-15.73.11.11-12.35-.05h-.06v-.05l.15-12.82Z"/>
    <circle class="st10" cx="250" cy="216.56" r="112.49"/>
    <path class="st6" d="M250,329.55c-62.41,0-113-50.59-113-113s50.59-113,113-113,113,50.59,113,113c-.07,62.38-50.62,112.93-113,113ZM250,104.55c-61.86,0-112,50.14-112,112s50.14,112,112,112,112-50.14,112-112c-.08-61.82-50.18-111.91-112-111.99h0Z"/>
    <path class="st9" d="M362.49,216.56c.02,40.42-21.66,77.75-56.79,97.75-8.33-2.68-14.53-8.95-20.74-15.22-4.47-4.52,6.43-6.37-.18-8.76,6.43-6.37,14.92-19.24,4-17.39-6.61-2.4-10.72,10.61-19.56,6s-11.22-15.72-20.11-20.37l-8.58,8.49c-6.62-2.41-11.28-15.68-13.42-13.56-10.9,1.84-17.24,12.59-25.81,21.07-4.48-4.51-11.09-6.9-9-13.41,40.36-45.06,80-92.29,121.78-137.1,30.35,21.01,48.45,55.59,48.41,92.5Z"/>
    <path class="st6" d="M261.65,336h-2v-71.39c-2.7,0-7.24.05-9.27.05h-.76c-2,0-6.56,0-9.27-.05v71.39h-2v-73.42h1c2.2,0,7.46.06,10.25.06h.76c2.79,0,8.05,0,10.25-.06h1l.04,73.42Z"/>
    <path class="st6" d="M259.65,264.62v-23.42c0-8.65,4.78-14.87,12.18-15.85,7-.92,16,3.57,19.21,15.59,2.08,7.72,1.78,13-.92,16.57-4.23,5.6-14,6.84-29.46,7.09l-1.01.02ZM273.65,227.24c-.52,0-1.03.03-1.54.1-6.34.83-10.44,6.27-10.44,13.86v21.38c13.9-.27,23.24-1.47,26.87-6.27,2.3-3.06,2.49-7.77.59-14.85-2.69-9.97-9.62-14.22-15.5-14.22h.02Z"/>
    <path class="st6" d="M240.35,264.62h-1c-15.45-.25-25.22-1.49-29.44-7.09-2.71-3.58-3-8.85-.94-16.57,3.23-12,12.23-16.51,19.23-15.59,7.39,1,12.17,7.2,12.17,15.85l-.02,23.4ZM226.35,227.24c-5.88,0-12.81,4.25-15.49,14.22-1.89,7.08-1.7,11.79.6,14.85,3.63,4.8,13,6,26.87,6.27v-21.38c0-7.59-4.1-13-10.44-13.86-.5-.07-1.01-.1-1.52-.1h-.02Z"/>
    <rect class="st8" x="226.41" y="306.46" width="47.18" height="24.69" rx="9.42" ry="9.42"/>
    <path class="st6" d="M169.25,136.81c10.56-10.57,23.12-18.94,36.94-24.63,13.83-5.69,28.61-8.67,43.56-8.8,14.96-.14,29.8,2.63,43.71,8.15,13.91,5.53,26.56,13.83,37.18,24.39,10.58,10.59,18.93,23.2,24.56,37.08,11.31,28.05,11.44,59.36.38,87.51-11.07,28.24-33.28,50.66-61.41,62-13.9,5.64-28.75,8.52-43.75,8.49-14.98-.02-29.82-2.92-43.71-8.54-28.06-11.33-50.37-33.48-61.9-61.46-11.46-27.93-11.51-59.25-.14-87.22,5.65-13.84,14-26.41,24.58-36.97ZM169.25,136.81c-10.54,10.58-18.86,23.16-24.47,37-11.25,27.93-11.12,59.17.38,87,11.56,27.81,33.83,49.79,61.78,61,13.83,5.54,28.59,8.38,43.48,8.37,14.89.01,29.63-2.87,43.42-8.48,27.82-11.39,49.81-33.61,60.92-61.54,11.09-27.95,11.04-59.09-.14-87-11.17-27.99-33.33-50.17-61.3-61.38-13.85-5.54-28.64-8.34-43.56-8.24-14.93.08-29.7,3.02-43.52,8.66-13.84,5.68-26.41,14.04-36.99,24.61Z"/>
    <path class="st6" d="M363.49,217.56c-.03-14.94-3.03-29.72-8.82-43.49-5.79-13.76-14.16-26.29-24.67-36.9-10.48-10.62-22.92-19.12-36.63-25-13.71-5.85-28.46-8.86-43.37-8.86-14.91.05-29.65,3.09-43.36,8.94-27.62,11.84-49.65,33.81-61.58,61.39-11.9,27.61-12.06,58.86-.44,86.59,5.78,13.72,14.17,26.18,24.7,36.7,10.53,10.54,22.98,18.97,36.68,24.82,27.69,11.86,58.98,12.06,86.82.56,27.83-11.56,50.02-33.57,61.8-61.31,5.82-13.74,8.84-28.51,8.87-43.44ZM363.49,217.56c.01,14.95-2.97,29.74-8.76,43.52-11.74,27.81-33.89,49.91-61.73,61.58-27.93,11.62-59.37,11.5-87.21-.33-13.81-5.84-26.37-14.29-37-24.87-10.64-10.56-19.14-23.09-25-36.89-11.88-27.91-11.71-59.49.45-87.28,12.08-27.73,34.31-49.77,62.14-61.61,27.85-11.87,59.34-11.81,87.14.17,13.74,5.93,26.2,14.47,36.68,25.15,10.48,10.65,18.83,23.21,24.59,37,5.75,13.8,8.71,28.61,8.7,43.56Z"/>
    <path class="st6" d="M249,332.67c15.15-.04,30.14-3.08,44.11-8.94,13.96-5.87,26.66-14.35,37.42-25,10.78-10.63,19.38-23.25,25.34-37.16,5.94-13.91,9-28.88,9-44-.05-15.13-3.13-30.09-9.07-44-12-28.01-34.28-50.37-62.26-62.46-28-12.07-59.71-12.23-87.83-.45-13.91,5.87-26.55,14.38-37.22,25.06-10.69,10.68-19.24,23.3-25.18,37.19-12.02,28.08-12.22,59.82-.56,88.05,11.72,28.22,34.03,50.73,62.15,62.69,13.95,5.92,28.95,8.99,44.1,9.02ZM249,332.67c-15.16,0-30.16-3.01-44.14-8.88-28.21-11.92-50.62-34.41-62.44-62.66-11.8-28.33-11.68-60.21.33-88.45,5.94-13.99,14.51-26.71,25.25-37.47,10.71-10.79,23.42-19.4,37.41-25.34,28.31-12.04,60.33-11.87,88.52.46,28.11,12.25,50.47,34.79,62.48,63,12.05,28.24,11.98,60.18-.17,88.37-6.01,13.93-14.67,26.56-25.5,37.19-10.81,10.63-23.56,19.09-37.55,24.93-14,5.84-29.02,8.85-44.19,8.85Z"/>
    <path class="st12" d="M213.08,323.87h73.84v59.13c0,16.3-13.22,29.52-29.52,29.52h-14.8c-16.3,0-29.52-13.22-29.52-29.52v-59.13h0Z"/>
    <rect class="st5" x="201.11" y="323.87" width="97.79" height="15.45"/>
    <rect class="st5" x="201.11" y="351.9" width="97.79" height="15.45"/>
    <rect class="st5" x="207.01" y="379.94" width="85.98" height="15.45"/>
    <path class="st10" d="M343.43,218.91c-2.76,0-5-2.24-5-5,0-52.54-51.67-82.89-52.19-83.19-2.39-1.38-3.22-4.44-1.83-6.83s4.44-3.22,6.83-1.83c10.58,6.5,20.19,14.46,28.55,23.64,18.76,20.38,28.67,44,28.67,68.22,0,2.76-2.24,5-5,5-.01,0-.02,0-.03,0Z"/>
    <circle class="st10" cx="342.21" cy="238.09" r="5.97"/>
  </g>
  <g id="freepik--Measures--inject-83">
    <path class="st6" d="M202.19,420.52l11.95-.23,12-.13,23.9-.11,23.9.11c8,.08,15.94.17,23.91.36v.06c-8,.19-15.94.28-23.91.36l-23.9.11-23.9-.11-12-.14-11.95-.22v-.06Z"/>
    <polygon class="st6" points="205.5 424.64 206.19 423.91 202.57 420.55 206.19 417.19 205.5 416.46 201.11 420.55 205.5 424.64"/>
    <polygon class="st6" points="294.5 424.64 293.81 423.91 297.43 420.55 293.81 417.19 294.5 416.46 298.89 420.55 294.5 424.64"/>
    <polygon class="st6" points="138.59 89.2 166.44 88.96 194.29 88.83 250 88.71 305.7 88.83 333.56 88.96 361.41 89.2 361.41 89.22 333.56 89.46 305.7 89.6 250 89.71 194.29 89.6 166.44 89.46 138.59 89.22 138.59 89.2"/>
    <polygon class="st6" points="141.9 93.3 142.59 92.57 138.97 89.21 142.59 85.86 141.9 85.12 137.5 89.21 141.9 93.3"/>
    <polygon class="st6" points="358.1 93.3 357.42 92.57 361.03 89.21 357.42 85.86 358.1 85.12 362.5 89.21 358.1 93.3"/>
    <path class="st6" d="M178.51,411.45c-.19-7.2-.28-14.41-.36-21.62l-.15-21.63.11-21.62c.08-7.21.17-14.42.36-21.63h.06c.19,7.21.28,14.42.36,21.63l.11,21.62-.11,21.63c-.08,7.21-.17,14.42-.36,21.62h-.02Z"/>
    <polygon class="st6" points="182.63 408.14 181.9 407.46 178.54 411.07 175.18 407.46 174.45 408.14 178.54 412.54 182.63 408.14"/>
    <polygon class="st6" points="182.63 328.27 181.9 328.95 178.54 325.34 175.18 328.95 174.45 328.27 178.54 323.87 182.63 328.27"/>
    <polygon class="st6" points="368.83 411.45 368.59 373.17 368.5 334.88 368.34 258.3 368.5 181.72 368.59 143.44 368.83 105.15 368.84 105.15 369.09 143.44 369.17 181.72 369.33 258.3 369.17 334.88 369.08 373.17 368.84 411.45 368.83 411.45"/>
    <polygon class="st6" points="372.93 408.14 372.19 407.46 368.84 411.07 365.48 407.46 364.75 408.14 368.84 412.54 372.93 408.14"/>
    <polygon class="st6" points="372.93 108.46 372.19 109.14 368.84 105.53 365.48 109.14 364.75 108.46 368.84 104.06 372.93 108.46"/>
    <path class="st6" d="M222.65,323.87c-5.19.2-10.38.3-15.57.38s-10.38.08-15.57.12-10.39,0-15.58-.12l-7.78-.14c-2.6-.08-5.19-.13-7.79-.24,2.6-.12,5.19-.16,7.79-.25l7.78-.14c5.19-.08,10.39-.07,15.58-.11s10.38,0,15.57.12,10.38.17,15.57.38Z"/>
    <path class="st6" d="M241.85,412.54c-6.79.21-13.58.3-20.37.38s-13.58.08-20.37.12l-20.38-.12-10.18-.14c-3.4-.08-6.79-.13-10.19-.24,3.4-.11,6.79-.16,10.19-.25l10.18-.14,20.38-.11c6.79,0,13.58,0,20.37.12s13.58.17,20.37.38Z"/>
    <path class="st6" d="M201.11,323.87c.2,9.21.3,18.43.38,27.64l.12,27.65-.12,27.64-.14,13.83-.24,13.82-.25-13.82-.14-13.83-.11-27.64.11-27.65c.08-9.21.18-18.43.39-27.64Z"/>
    <path class="st6" d="M298.89,323.87c.21,9.21.31,18.43.39,27.64l.11,27.65-.11,27.64-.14,13.83-.25,13.82-.24-13.82-.14-13.83-.12-27.64.12-27.65c.08-9.21.18-18.43.38-27.64Z"/>
    <path class="st6" d="M255,412.54c11.14-.21,22.28-.3,33.42-.38l33.43-.12,33.42.11,16.72.14,16.71.25-16.71.24-16.72.14-33.42.12-33.43-.12c-11.11-.08-22.25-.17-33.42-.38Z"/>
    <path class="st6" d="M255,104.06c11.14-.2,22.28-.3,33.42-.38l33.43-.11,33.42.11,16.72.14,16.71.24-16.71.25-16.72.14-33.42.11-33.43-.11c-11.11-.08-22.25-.18-33.42-.39Z"/>
    <polygon class="st6" points="137.5 412.54 137.26 370.77 137.17 329.01 137.01 245.47 137.17 161.94 137.26 120.17 137.5 78.41 137.75 120.17 137.84 161.94 138 245.47 137.84 329.01 137.75 370.77 137.5 412.54"/>
    <polygon class="st6" points="362.5 412.54 362.25 370.77 362.16 329.01 362 245.47 362.16 161.94 362.25 120.17 362.5 78.41 362.74 120.17 362.83 161.94 362.99 245.47 362.83 329.01 362.74 370.77 362.5 412.54"/>
  </g>
  <g id="freepik--Character--inject-83">
    <path class="st4" d="M47.49,383.06s-1,39.61-1,39.64c0,7.32.17,13.74.56,17.05,0,.02,0,.04,0,.06,0,.79.2,1.56.55,2.26h0c2.18,1.47,60.7,3,62.76,2.36s.42-6.56-1.81-8.43-24.38-12.47-24.38-12.47l.69-39.53-37.37-.94Z"/>
    <path class="st10" d="M46.42,414.84s.07,7.83.07,7.86c0,7.32.17,13.74.56,17.05,0,.02,0,.04,0,.06.09.77.28,1.53.55,2.26h0c2.18,1.47,60.7,3,62.76,2.36s.42-6.56-1.81-8.43-24.38-12.47-24.38-12.47v-8l-37.75-.69Z"/>
    <path class="st6" d="M87.81,423.59c-3.9-.64-8.63.06-11.54,2.89-.11.11,0,.26.17.22,3.69-1.28,7.5-2.16,11.37-2.62.14-.03.22-.16.2-.29-.02-.1-.1-.18-.2-.2Z"/>
    <path class="st6" d="M90.65,425.22c-3.9-.64-8.63.06-11.54,2.88-.11.11,0,.27.17.23,3.68-1.28,7.49-2.16,11.36-2.62.14-.02.23-.15.2-.29-.02-.1-.09-.18-.19-.2Z"/>
    <path class="st6" d="M93.49,426.85c-3.9-.64-8.64,0-11.54,2.88-.12.11,0,.27.17.23,3.68-1.28,7.49-2.16,11.36-2.62.14-.02.23-.15.2-.29-.02-.1-.09-.18-.19-.2Z"/>
    <path class="st5" d="M110.41,444.47c-2.06.63-60.57-.89-62.76-2.36-.84-.55-1.12-9.08-1.16-19.41v-.33l37.76.56v.64s22.13,10.6,24.37,12.48,3.86,7.79,1.79,8.42Z"/>
    <path class="st9" d="M46.49,422.37v.33c0,10.33.31,18.87,1.16,19.41s13.67,1.35,27.35,1.89c16.4.58,34.26.87,35.39.52,2.06-.63.4-6.56-1.82-8.43s-24.37-12.47-24.37-12.47v-.63l-12.59-.19-25.12-.43Z"/>
    <path class="st6" d="M109.81,442.18c-9.86-.5-49.66-1.58-59.44-1.32-.08,0-.09.06,0,.06,9.76.71,49.58,1.47,59.45,1.42.18,0,.18-.15-.01-.16Z"/>
    <path class="st0" d="M71.67,422.75c.92,6.32,2.33,15.64,3.33,21.25,16.4.58,34.26.87,35.39.52,2.06-.63.4-6.56-1.82-8.43s-24.37-12.47-24.37-12.47v-.63l-12.53-.24Z"/>
    <path class="st5" d="M43.09,422.91l42.34.41s2.41-68.95,2.59-91.94c.21-26.27-1.28-105-1.28-105h-31.66s-8.5,17.36-3.64,36.9l1.34,70.29-9.69,89.34Z"/>
    <path class="st6" d="M46.23,415.5c1.12-.15,2.24-.24,3.37-.27,1.25-.09,2.5-.18,3.75-.24,2.41-.1,4.82-.14,7.23-.15,4.86,0,9.73,0,14.59.17,2.76.09,5.53.2,8.29.36.11,0,.1.17,0,.17-4.82.18-9.64.25-14.46.34s-9.65.19-14.46.1c-1.38,0-2.76,0-4.14-.12s-2.8,0-4.15-.2c-.09-.01-.12-.14-.02-.16Z"/>
    <path class="st6" d="M82.38,377.44c.5-11.4.86-22.81,1.17-34.21.63-22.82.8-45.64.5-68.47-.16-12.8-.51-25.6-.89-38.4,0-.15.22-.14.23,0,1.21,22.91,1.67,45.87,1.7,68.81s-.45,45.65-1.58,68.45c-.63,12.79-1.41,25.6-2.62,38.35-.02.05-.07.07-.11.06-.03,0-.05-.03-.06-.06.52-11.51,1.17-22.97,1.66-34.53Z"/>
    <path class="st4" d="M92.79,389.35s.33,38.29.33,38.31c0,7.33.17,13.75.56,17.06h0c0,.78.19,1.56.54,2.26v.05c2.18,1.47,60.7,3,62.76,2.35s.41-6.55-1.81-8.42-24.38-12.47-24.38-12.47l-.69-38.27-37.31-.87Z"/>
    <path class="st10" d="M93.05,419.8s.07,7.84.07,7.86c0,7.33.17,13.75.56,17.06h0c.09.77.27,1.53.54,2.26v.05c2.18,1.47,60.7,3,62.76,2.35s.41-6.55-1.81-8.42-24.38-12.47-24.38-12.47v-8l-37.74-.69Z"/>
    <path class="st6" d="M134.44,428.56c-3.9-.64-8.64.05-11.54,2.88-.12.11,0,.27.17.23,3.68-1.28,7.49-2.16,11.36-2.62.14-.02.23-.15.2-.29-.02-.1-.09-.18-.19-.2Z"/>
    <path class="st6" d="M137.27,430.19c-3.89-.64-8.63.05-11.54,2.88-.11.11,0,.27.17.23,3.69-1.28,7.5-2.15,11.37-2.62.14-.03.22-.16.2-.29-.02-.1-.1-.18-.2-.2Z"/>
    <path class="st6" d="M140.11,431.82c-3.89-.65-8.63.05-11.54,2.88-.11.11.05.27.17.23,3.69-1.28,7.5-2.15,11.37-2.62.14-.03.22-.16.2-.29-.02-.1-.1-.18-.2-.2Z"/>
    <path class="st9" d="M157,449.43c-2.06.64-60.58-.88-62.77-2.35-.84-.55-1.11-9.09-1.15-19.41v-.33l37.76.56v.64s22.16,10.6,24.39,12.46,3.87,7.81,1.77,8.43Z"/>
    <path class="st6" d="M156.44,447.15c-9.86-.5-49.67-1.58-59.45-1.32-.08,0-.08.05,0,.06,9.76.71,49.57,1.46,59.44,1.42.21,0,.22-.15,0-.16Z"/>
    <path class="st5" d="M73.45,266.86s17.37,54.76,17.68,64.82c.27,8.58-.83,96.62-.83,96.62l44,.26s-3.72-89.78-4.4-98.72c-1.29-16.72-15.93-62.62-26.41-103.51h-47.43s.41,21.42,10.15,36.9c0,0,4.41,2.04,7.24,3.63Z"/>
    <path class="st6" d="M92.64,420.19c5.08-.15,10.35-.3,15.43-.17s10.09.2,15.12.5c2.86.17,5.71.27,8.56.55.04.02.06.06.05.1,0,.02-.03.04-.05.05-5.07.3-10.17.24-15.26.19s-10.08-.1-15.12-.33c-2.86-.13-5.71-.27-8.56-.47-.32-.02-.48-.41-.17-.42Z"/>
    <path class="st6" d="M102.26,252.13c1.56,5.23,2.89,10.54,4.29,15.82s2.82,10.64,4.22,16c2.71,10.3,5.39,20.61,7.43,31.07,2.07,10.5,3.25,21.15,3.51,31.85.24,10.9,0,21.82-.07,32.72s-.16,21.93-.35,32.89c0,1.36-.06,2.72-.11,4.09,0,.13-.2.12-.2,0-.29-10.9-.14-21.83-.1-32.73s.18-21.82.09-32.72c-.05-10.83-.98-21.63-2.8-32.31-1.84-10.49-4.42-20.83-7.1-31.14-1.53-5.88-3.08-11.75-4.6-17.63s-3.18-11.83-4.53-17.79c-.03-.09.01-.19.1-.22.09-.03.19.01.22.1Z"/>
    <path class="st6" d="M84.32,267.92c-2.19-.02-4.37-.21-6.53-.59-2.14-.48-4.25-1.06-6.33-1.76-2.04-.46-4.11-.8-6.2-1-2.1-.3-4.15-.91-6.08-1.81-.09-.05-.17.09-.08.13,1.87,1,3.82,1.85,5.83,2.53,2.09.66,4.27.75,6.38,1.27,2.14.63,4.31,1.13,6.51,1.49,2.17.27,4.37.24,6.53-.11.08-.02.05-.15-.03-.15Z"/>
    <path class="st6" d="M87.1,311.48c-.42-1.63-.81-3.25-1.25-4.87-.89-3.27-1.8-6.54-2.78-9.78-2-6.44-3.82-12.92-5.9-19.32-1.17-3.64-2.23-7.32-3.61-10.88-.01-.04-.06-.06-.09-.05-.04.01-.06.06-.05.1.69,3.32,1.68,6.57,2.56,9.84s1.82,6.53,2.76,9.79c1.88,6.46,3.71,12.94,5.76,19.36.58,1.8,1.17,3.59,1.79,5.38s1.13,3.7,1.89,5.47c0,.04.04.08.08.08s.08-.04.08-.08c-.34-1.73-.82-3.38-1.24-5.04Z"/>
    <path class="st4" d="M90.93,177.72c9.48,14,23.76,32.94,28.63,30.17,12.46-7.08,26.82-28.37,29.35-33.73,1.47-3.11-18.89-18.45-20.9-15.36-2.35,3.61-12.17,22.73-13.79,23.18-1.23.34-13.1-9.71-17-11.79-9.7-5.13-10.69,1.05-6.29,7.53Z"/>
    <path class="st9" d="M124.2,163.54l24.29,15.57s-21.1,29.28-30.35,29.32c-5.4,0-20.85-18-27.57-29.63-7.33-12.73,1.27-12.9,8.26-8.11,5.56,3.81,14.6,10.76,15,10.41s10.37-17.56,10.37-17.56Z"/>
    <path class="st0" d="M119.14,180.82c-.39.8-.65,1.65-.78,2.53.57-.68,1.04-1.44,1.4-2.25.38-.8.64-1.65.79-2.53-.57.68-1.05,1.44-1.41,2.25ZM112.76,205.66l.53.4c.28-.64.47-1.31.58-2-.43.49-.8,1.03-1.11,1.6ZM129.11,175.22c-.8-.38-1.65-.64-2.52-.78,1.37,1.13,3.02,1.88,4.77,2.18-.68-.57-1.44-1.04-2.25-1.4ZM108.94,192.16c-.8-.39-1.65-.65-2.52-.79.67.58,1.43,1.05,2.24,1.41.8.38,1.65.64,2.53.78-.68-.58-1.44-1.05-2.25-1.4ZM91.78,171.82c-.3-.84-.71-1.62-1.23-2.34.07.88.27,1.75.59,2.57.3.84.71,1.63,1.23,2.35-.07-.88-.27-1.75-.59-2.58ZM141.45,182.68c-.3-.84-.71-1.63-1.23-2.35.07.88.27,1.75.59,2.58.3.84.71,1.63,1.23,2.35-.07-.88-.27-1.75-.59-2.58h0ZM122.89,198c-.3-.84-.72-1.63-1.23-2.35.17,1.77.79,3.47,1.82,4.93-.07-.88-.27-1.75-.59-2.58ZM131.24,188.95c-.84.3-1.63.71-2.35,1.23,1.78-.16,3.48-.79,4.93-1.82-.89.09-1.76.3-2.58.64v-.05ZM103.24,179.7c-.83.3-1.62.72-2.34,1.23,1.78-.16,3.48-.79,4.93-1.82-.9.08-1.78.28-2.62.61l.03-.02Z"/>
    <path class="st6" d="M133,176.41c-1.75-1.15-3.54-2.24-5.32-3.34-.85-.53-1.7-1.07-2.58-1.57s-1.86-1.16-2.83-1.63c-.07,0-.12,0-.06.09.82.7,1.77,1.28,2.65,1.91s1.65,1.15,2.48,1.71c1.73,1.18,3.47,2.35,5.23,3.48,3.52,2.27,7.1,4.44,10.72,6.56.04.01.09-.02.1-.06,0-.03,0-.05-.02-.07-3.37-2.43-6.81-4.8-10.37-7.08Z"/>
    <path class="st0" d="M135,195.79c-6,6.59-12.63,12.62-16.82,12.64-5.4,0-20.85-18-27.57-29.63-3.81-6.61-3.32-9.83-1-10.74l45.39,27.73Z"/>
    <path class="st12" d="M206.77,203s-27-14-54.32-29.67-92.7-37.33-94.78-35.73,59,36.53,87.53,48.65,58.28,22.55,58.28,22.55l3.29-5.8Z"/>
    <polygon class="st3" points="207.52 203.01 189.35 192.53 184.74 202.94 204.14 209.96 207.52 203.01"/>
    <path class="st6" d="M207.52,203c4.32-.41,9.24.33,14.11,5.31,5.88,6,11.38,5.6,11.38,5.6,0,0-17.82,9.35-28.87-4l3.38-6.91Z"/>
    <path class="st9" d="M233.81,214c-.88-.81-6-.45-9.42-3.47-3.22-2.83-11.2,7.18-5.27,7.34,6.74.13,16.29-2.44,14.69-3.87Z"/>
    <path class="st4" d="M99.83,177.58c-3.2.06-8-6.27-9.26-10.5-.08-.29.91-2.93,2-6.2.63-2,1.29-4.21,1.74-6.29l12.32,6c-1.31,2.43-2.31,5.01-3,7.69-.06.29-.09.58-.09.87,0,.05,0,.09,0,.14-.13,1.71-.61,8.23-3.71,8.29Z"/>
    <path class="st6" d="M103.51,169.15s0,.1,0,.15c-.46-.04-.91-.11-1.36-.23-7.59-2-7.73-11-7.51-14.3l12,5.82c-1.31,2.43-2.32,5.01-3,7.69-.07.29-.11.58-.13.87Z"/>
    <path class="st4" d="M94.12,138.91c-2.13,4.46-1.68,18.32,1.19,21.82,4.17,5.08,12,6.68,16.56,1.44,4.43-5.07,3.52-23.12.22-26.41-4.86-4.84-14.84-3.43-17.97,3.15Z"/>
    <path class="st6" d="M106.57,149.1s-.08.05-.08.08c.05.94-.06,2-.9,2.34h0c1.04-.11,1.17-1.52.98-2.42Z"/>
    <path class="st6" d="M105.72,148.14c-1.51-.1-1.58,2.92-.19,3s1.47-2.93.19-3Z"/>
    <path class="st6" d="M111.81,149.22s.07,0,.07.08c0,.93,0,2,.88,2.34,0,0,0,.06,0,.05-1.04-.17-1.15-1.6-.95-2.47Z"/>
    <path class="st6" d="M112.67,148.26c1.5-.07,1.54,2.94.15,3s-1.41-2.93-.15-3Z"/>
    <path class="st6" d="M104.56,146.73c.4-.11.79-.23,1.18-.38.43-.08.83-.29,1.13-.62.15-.25.11-.57-.09-.78-.46-.35-1.06-.42-1.59-.2-.56.15-1.05.51-1.36,1-.17.33-.04.74.29.92.13.07.29.09.44.06Z"/>
    <path class="st6" d="M113.87,146.77c-.4-.09-.8-.2-1.19-.34-.44-.06-.84-.27-1.15-.58-.16-.24-.13-.56.06-.77.44-.37,1.05-.47,1.58-.26.57.12,1.06.45,1.4.92.2.32.1.74-.21.94-.14.09-.32.12-.49.09Z"/>
    <path class="st6" d="M105.37,157.56c.21.22.43.53.77.57.34,0,.68-.07,1-.21M107.14,157.97c-.28.37-.74.55-1.2.47-.38-.11-.66-.44-.71-.84,0,0,.1-.07.14-.04l1.77.41Z"/>
    <path class="st6" d="M106.42,154.79c.46.76,1.21,1.29,2.08,1.47.38.08.76.1,1.15.08h.42c.1-.01.18-.1.19-.2h0v-.14h0v-1.9c.26.14,1.59.78,1.57.4,0-3.24-.33-6.48-1-9.65,0-.1-.18-.08-.17,0,0,3,.5,6,.53,9-.47-.23-.97-.4-1.49-.49-.1,0,.12,2.12.08,2.44h0c-1.19.09-2.37-.31-3.26-1.1-.08-.05-.16.01-.1.09Z"/>
    <path class="st6" d="M109.23,156c-.41.5-.94.89-1.54,1.13-.33.1-.67.1-1,0-.74-.21-.74-.9-.59-1.48.08-.31.2-.61.36-.89.77.7,1.74,1.13,2.77,1.24Z"/>
    <path class="st11" d="M107.69,157.09c-.33.1-.67.1-1,0-.74-.21-.74-.9-.59-1.48.81.06,1.47.68,1.59,1.48Z"/>
    <path class="st1" d="M97.42,135.07c0,1.85-.24,7.57-1.08,8.77s-2.61,4-3.55,4.43c0-3.81.42-7.45,1.33-9.36.74-1.55,1.88-2.87,3.3-3.84Z"/>
    <path class="st6" d="M108.71,139.93c-1.03,1.2-2.6,1.79-4.16,1.55-1.6-.24-2.96-1.29-3.59-2.77M100.89,138.71c.53,1.62,1.91,2.82,3.59,3.12,1.66.2,3.31-.51,4.31-1.85.02-.02.03-.05,0-.07-.02-.02-.05-.03-.07,0,0,0-.02.02-.02.03l-7.82-1.22Z"/>
    <path class="st6" d="M104,128.68c-2.43.01-4.69,1.27-6,3.32-.54,1.02-.72,2.2-.5,3.33h.1c-.11-2.05.9-3.99,2.64-5.08,1.9-1.24,4.27-1.53,6.41-.77,1.03.35,1.91,1.06,2.46,2,0,.09.25,0,.2-.07-.76-1.68-2.94-2.79-5.31-2.73Z"/>
    <path class="st6" d="M119.33,134.39c-.44-1.3-1.32-2.41-2.49-3.13-1.62-1-3.45-.85-5.27-.66,0,0,0,.08,0,.07,1.53-.28,3.12-.1,4.55.51,1.18.6,2.12,1.58,2.65,2.79,1.07,2.56.08,5.51-2.3,6.93-1.37.76-2.99.93-4.48.46,0,0-.1.07,0,.09,2.96,1.06,6.23-.47,7.29-3.44.42-1.17.45-2.44.08-3.62h-.03Z"/>
    <path class="st6" d="M93.13,141.59s-2.49-4.74-.39-7.47c1.2-1.54,5.14-1.33,5.14-1.33,1.06-1.56,2.7-2.64,4.55-3,3.3-.74,7.22,1.2,7.22,1.2,0,0,3.14-1.78,6.07-.09,4.09,2.35,3.55,8.59-.57,10.58-2.9,1.39-6.82-1.18-6.82-1.18-.38,0-4.26,2.37-7.17-1.1,0,0-2.39,2.11-4.52.62-.68,1.27-2.08,1.97-3.51,1.77Z"/>
    <g id="freepik--Glasses--inject-3">
      <path class="st9" d="M104.52,154.64c-2.5-.19-4.39-2.58-4.22-5.34.17-2.76,2.34-4.84,4.84-4.65,2.07.16,3.78,1.84,4.15,4.1h0c.45,2.72-1.19,5.33-3.65,5.83-.37.08-.75.1-1.13.07h0ZM105.1,145.3c-.33-.02-.65,0-.97.06-2.14.43-3.55,2.69-3.16,5.05s2.44,3.92,4.58,3.49,3.55-2.69,3.16-5.05c-.32-1.95-1.81-3.42-3.6-3.55h0Z"/>
      <path class="st9" d="M114.14,153.71c-1.56-.11-2.86-1.8-2.96-3.93-.07-1.02.18-2.03.72-2.89.54-.82,1.29-1.29,2.11-1.33s1.62.36,2.23,1.12c.61.81.96,1.79.99,2.81.11,2.24-1.17,4.14-2.84,4.22-.09,0-.17,0-.26,0h0ZM114.25,146.11c-.07,0-.14,0-.21,0-.65.03-1.25.41-1.68,1.08-.47.77-.7,1.66-.64,2.56.1,1.95,1.28,3.48,2.66,3.41s2.41-1.7,2.32-3.65c-.02-.9-.33-1.77-.88-2.49-.37-.52-.94-.85-1.57-.92h0Z"/>
      <path class="st9" d="M109.3,149.7l-.33-.43c.53-.59,1.77-1.42,2.7-.32l-.34.42c-.83-.98-1.98.28-2.03.33h0Z"/>
      <path class="st9" d="M90.18,149.88l-.47-.35c.16-.22,1.61-2.16,2.94-2.17,1.24,0,7.63,1.7,7.95,1.78l-.14.57c-2.2-.55-6.86-1.78-7.81-1.77-.88,0-2.08,1.39-2.47,1.93Z"/>
    </g>
    <path class="st4" d="M95.36,150.34s-2.5-4.77-4.62-3.94-.65,7.48,1.57,8.64c1.12.69,2.6.35,3.29-.78.02-.03.03-.06.05-.08l-.29-3.84Z"/>
    <path class="st6" d="M91.21,148.3v.06c1.42.95,2.37,2.45,2.61,4.14-.29-.67-1.07-.98-1.75-.69-.06.02-.11.05-.16.08-.03,0-.05.02-.05.05s.02.05.05.05c.61-.11,1.23.17,1.54.71.25.44.45.91.6,1.4.06.15.33.11.3-.06h0c.31-2.12-.93-5.25-3.14-5.74Z"/>
    <path class="st9" d="M48.43,236.13c.11.18,60,12.45,60.67,11.94.93-.71,4.12-61.64-5.28-75.22-2.32-3.34-11.29-8.06-14.6-6.5-8.58,4-14.78,14.64-18.68,20.78-2.89,4.54-6.85,12.48-10.6,20.67-6.2,13.5-11.89,27.66-11.51,28.33Z"/>
    <path class="st0" d="M90.06,190c-.39.8-.65,1.65-.79,2.53.58-.67,1.05-1.43,1.4-2.24.38-.8.65-1.65.79-2.53-.58.67-1.05,1.43-1.4,2.24ZM64,202.94c-.38.8-.64,1.65-.78,2.53.58-.67,1.05-1.43,1.4-2.24.38-.8.65-1.65.78-2.53-.57.68-1.04,1.43-1.4,2.24ZM95.33,242.49c-.38.8-.64,1.65-.78,2.53.57-.68,1.05-1.43,1.41-2.24.37-.8.63-1.66.78-2.53-.59.67-1.08,1.43-1.45,2.24h.04ZM65.1,239.49v.11l.69.13c.37-.79.62-1.62.76-2.48-.61.67-1.11,1.44-1.49,2.26l.04-.02ZM49.89,232.81c-.38.8-.64,1.65-.79,2.53.58-.67,1.06-1.43,1.41-2.25.38-.8.65-1.65.78-2.53-.58.69-1.07,1.45-1.44,2.27l.04-.02ZM82.49,221c-.38.8-.64,1.65-.79,2.53.58-.67,1.06-1.43,1.41-2.24.38-.8.64-1.65.78-2.53-.57.68-1.04,1.43-1.4,2.24ZM78.15,177.76c-.38.8-.65,1.65-.78,2.53.57-.68,1.04-1.44,1.4-2.25.38-.8.65-1.65.79-2.52-.57.67-1.05,1.42-1.41,2.23h0ZM109,192.18h0c-.8-.39-1.65-.65-2.52-.79.67.58,1.43,1.05,2.24,1.41l.42.17c-.09-.28-.14-.54-.14-.79ZM65.51,221.71c-.8-.38-1.65-.64-2.53-.79.67.58,1.43,1.06,2.25,1.41.8.38,1.65.65,2.52.79-.67-.58-1.43-1.05-2.24-1.41ZM109.37,245.16c-.8-.38-1.65-.64-2.53-.78.68.57,1.44,1.04,2.25,1.4l.36.16c0-.22,0-.45.07-.7l-.15-.08ZM87.91,233.75c-.8-.38-1.65-.64-2.53-.78.68.57,1.44,1.04,2.25,1.4.8.39,1.65.65,2.53.79-.68-.57-1.44-1.05-2.25-1.41ZM106.37,217.34c-.8-.38-1.65-.64-2.52-.78.68.57,1.43,1.04,2.24,1.4.8.38,1.65.65,2.53.79-.68-.57-1.44-1.05-2.25-1.41ZM83.44,200.93c-.8-.38-1.65-.64-2.53-.78.68.57,1.44,1.04,2.25,1.4.8.39,1.65.65,2.53.79-.68-.57-1.44-1.05-2.25-1.41ZM59.15,231.88c-.29-.84-.71-1.62-1.23-2.34.07.88.27,1.75.59,2.58.3.83.72,1.62,1.23,2.34-.07-.88-.27-1.75-.59-2.58ZM91.78,171.82c-.3-.84-.71-1.62-1.23-2.34.07.88.27,1.75.59,2.57.3.84.71,1.63,1.23,2.35-.07-.88-.27-1.75-.59-2.58ZM101.33,201.65c-.3-.83-.71-1.62-1.23-2.34.07.88.27,1.75.59,2.58.3.84.71,1.62,1.24,2.34-.08-.88-.28-1.75-.6-2.58h0ZM79.71,241.28c-.3-.83-.71-1.62-1.23-2.34.07.88.27,1.75.59,2.58.14.35.28.7.45,1l.61.12c-.11-.46-.25-.92-.42-1.36ZM96.41,224.88c-.3-.83-.72-1.62-1.23-2.34.07.88.27,1.75.59,2.58.3.84.71,1.63,1.23,2.35-.07-.89-.27-1.76-.59-2.59ZM74.24,211.4c-.3-.84-.72-1.63-1.24-2.35.07.89.27,1.76.59,2.59.3.84.72,1.64,1.25,2.36-.07-.89-.28-1.77-.6-2.6ZM56.93,214.49l-.37.84.25-.08c.84-.3,1.62-.72,2.34-1.25-.76.06-1.51.22-2.22.49h0ZM73.81,229.85c-.84.3-1.63.71-2.35,1.23.89-.07,1.76-.27,2.59-.59.83-.3,1.62-.71,2.33-1.23-.88.07-1.75.27-2.57.59h0ZM73.29,192.15c-.82.3-1.59.71-2.29,1.23.88-.07,1.75-.27,2.58-.59.83-.3,1.62-.72,2.34-1.24-.9.07-1.79.27-2.63.6ZM103.79,234.84c-.84.3-1.63.71-2.35,1.23.88-.07,1.75-.27,2.58-.59.84-.29,1.63-.71,2.34-1.23-.88.07-1.75.27-2.57.59ZM93.52,211.31c-.84.3-1.63.71-2.35,1.23.88-.07,1.75-.27,2.58-.59.84-.29,1.63-.71,2.34-1.23-.88.07-1.75.27-2.57.59ZM103.21,179.72c-.83.3-1.62.72-2.34,1.23,1.78-.16,3.48-.79,4.93-1.82-.89.07-1.76.27-2.59.59Z"/>
    <path class="st4" d="M98.14,184.3c7.49,14.19,22.73,40,34,42,11.92,2.08,29.08-9.37,36.29-12.72,3-1.42-11.29-21.42-14.83-20.73s-14.75,8.43-17.44,8.44-17.89-16.5-28.67-25.47c-12.69-10.59-15.43-3.04-9.35,8.48Z"/>
    <path class="st4" d="M170.34,174c1.56.54,2.62,1.99,2.68,3.64,1.33-.36,2.75-.25,4,.32,2.15,1.11,1.36,5,1.36,5,1.45-.09,2.89.26,4.14,1,1.95,1.26,1.71,5.27,1.71,5.27,1.38.66,2.47,1.79,3.08,3.19,1.49,3.79-2.23,8.79-4.55,12s-14.76,10.24-16.6,10.24l-17.5-17.48s2.83-9.69,9.4-16.64c2.72-2.88,9.31-7.41,12.28-6.54Z"/>
    <path class="st6" d="M172.58,177.56c-3.66,2.32-6.43,5.6-9.38,8.71-.07.07,0,.17.11.1,2.9-3.13,6.38-5.64,9.4-8.65.09-.08-.03-.22-.13-.16Z"/>
    <path class="st6" d="M178,182.82c-.78.61-1.47,1.31-2.07,2.1-.69.8-1.35,1.6-2,2.42-1.33,1.63-2.6,3.29-3.81,5-.05.07,0,.18.11.1,1.31-1.63,2.64-3.23,4-4.8.69-.79,1.39-1.57,2.09-2.34.71-.69,1.34-1.45,1.88-2.28.04-.07,0-.16-.07-.2-.04-.02-.09-.02-.13,0Z"/>
    <path class="st6" d="M184.15,189.3c-.69.56-1.29,1.24-1.76,2l-1.76,2.26c-1.18,1.5-2.36,3-3.6,4.46-.06.07.05.18.11.1,1.26-1.47,2.54-2.93,3.79-4.42.61-.73,1.22-1.46,1.82-2.2.62-.61,1.12-1.34,1.48-2.13.02-.02.02-.06,0-.07-.02-.02-.06-.02-.07,0h0Z"/>
    <path class="st9" d="M148.21,194.45l13.77,26s-22.59,11.21-33.82,5.83-26.89-32.09-31.74-44.06.64-15.89,10.68-7.38,27.72,24.84,28.44,25.2,12.67-5.59,12.67-5.59Z"/>
    <path class="st0" d="M103.21,179.72c-.83.3-1.62.72-2.34,1.23,1.78-.16,3.48-.79,4.93-1.82-.89.07-1.76.27-2.59.59ZM135.27,216.92c-.84.3-1.63.71-2.35,1.23,1.78-.16,3.48-.8,4.93-1.83-.88.08-1.75.28-2.58.6ZM149.58,197c-.36.09-.7.21-1,.33-.84.3-1.63.71-2.35,1.23.89-.07,1.76-.27,2.59-.59.36-.14.72-.29,1.07-.47l-.31-.5ZM122.89,198c-.3-.84-.72-1.63-1.23-2.35.17,1.77.79,3.47,1.82,4.93-.07-.88-.27-1.75-.59-2.58ZM127.17,224.86c-.3-.83-.72-1.62-1.23-2.34.07.88.27,1.75.59,2.58l.15.37c.28.17.56.33.83.47-.1-.35-.22-.7-.34-1.06v-.02ZM146.17,209.46c-.3-.83-.71-1.62-1.23-2.34.07.88.27,1.75.59,2.58.3.83.71,1.62,1.23,2.34-.08-.88-.29-1.74-.62-2.56l.03-.02ZM122.17,212.28c-.8-.38-1.65-.64-2.53-.78.68.57,1.44,1.04,2.25,1.4.8.38,1.65.65,2.53.79-.71-.57-1.49-1.04-2.33-1.39l.08-.02ZM160.17,216.82c-.36-.22-.73-.41-1.11-.6-.8-.38-1.65-.64-2.53-.77.68.57,1.44,1.04,2.25,1.4.56.26,1.14.47,1.74.63l-.35-.66ZM109.05,192.14c-.8-.39-1.65-.65-2.52-.79.67.58,1.43,1.05,2.24,1.41.8.38,1.65.64,2.53.78-.71-.58-1.51-1.04-2.36-1.38l.11-.02ZM112.57,206.25c-.38.8-.64,1.65-.78,2.53.57-.68,1.05-1.43,1.41-2.24.38-.8.64-1.65.78-2.53-.62.67-1.13,1.44-1.52,2.26l.11-.02ZM135.31,205.31c-.39.8-.65,1.65-.79,2.53,1.14-1.37,1.89-3.01,2.19-4.77-.62.67-1.12,1.43-1.51,2.26l.11-.02ZM144.71,222.74c-.38.8-.64,1.66-.79,2.53.58-.67,1.06-1.43,1.41-2.24.38-.8.65-1.65.78-2.53-.6.68-1.11,1.44-1.51,2.26l.11-.02Z"/>
    <path class="st6" d="M149.3,209.42c-.92-1.88-1.89-3.74-2.85-5.59-.47-.9-.92-1.79-1.42-2.67s-1-1.95-1.59-2.85c0-.07-.13,0-.11.05.36,1,.88,2,1.3,3s.83,1.83,1.26,2.74c.88,1.89,1.77,3.79,2.7,5.66,1.87,3.76,3.83,7.45,5.85,11.12.01.04.05.07.1.06s.07-.05.06-.1c0-.01,0-.02-.01-.03-1.69-3.81-3.43-7.63-5.28-11.39Z"/>
    <path class="st6" d="M110.11,207c-1.31-2.17-6.21-10.88-7.09-12.5-1.77-3.28-3.51-6.58-5.28-9.85M97.68,184.65c.81,2.09,1.71,4.14,2.68,6.16l-.27-.38c-.57-.77-1.17-1.52-1.77-2.27,0-.05-.11,0-.08.06.54.82,1.06,1.64,1.63,2.44.36.5.75,1,1.12,1.47.44.88.89,1.74,1.35,2.61.89,1.66,5.73,10.38,7.64,12.31.07.11.18.04.13-.05l-12.43-22.35Z"/>
    <path class="st4" d="M124.2,156.93c4-.7,9.54-3.72,12.52-3.27,1.51.17,2.73,1.32,3,2.82,0,0,2.23-2.49,4.87-1.63,1.36.44,1.85,3,1.85,3,1.09-1.09,2.7-1.47,4.17-1,1.83.72,2,3.17,2,3.17,0,0,2.65-1,4.28.33,3.31,2.7-1.17,19-7.86,19.86-3.12.4-1.81-3.52-1.81-3.52,0,0-3.25,5.18-6.63,4.34s-1.37-5.83-1.37-5.83c0,0-3.19,5-6.61,3.77s-.61-5.97-.61-5.97c0,0-3.45,2.94-5.86,1.41-4-2.54,3.38-7.9,3.51-11.71l-5.36-3.6-.09-2.17Z"/>
    <path class="st4" d="M130.23,155.08c-3.84.33-7-5.16-10.68-5.37-5-.28-1.84,6.35,4.72,9.43l5.52,1.5.44-5.56Z"/>
    <path class="st6" d="M152.85,160.38c-.16,5.94-2.12,11.7-5.62,16.5-.11.15-.41,0-.31-.16,2.73-5.14,4.69-10.64,5.84-16.34h.09Z"/>
    <path class="st6" d="M146.5,157.77c0-.07.12-.05.12,0-.24,6.55-2.81,12.8-7.25,17.62-.16.16-.46.15-.29,0,2.86-3.39,6.43-12.25,7.42-17.62Z"/>
    <path class="st6" d="M131.53,173.28c4.3-4.76,6.64-10.41,8.21-16.56,0-.08.13,0,.13,0,0,3.22-1.36,7-2.71,9.91-1.2,2.69-3.08,5.03-5.46,6.77-.1.1-.26-.02-.17-.12Z"/>
    <path class="st9" d="M100.59,169.92c-4.16-3.78-17.08-8.2-23.29-6-7.84,2.83-20.53,27.39-18.18,29.62,4.2,4,24.9-7,30.14-12.28s11.33-11.34,11.33-11.34Z"/>
    <path class="st0" d="M81.48,163.35c-.4.2-.78.43-1.14.7.88-.07,1.75-.27,2.57-.59h.11c-.52-.09-1.02-.11-1.54-.11ZM72.05,169.35c-.12-.3-.24-.6-.38-.89l-.46.53c.06.2.13.4.2.6.3.83.71,1.62,1.23,2.34-.07-.88-.27-1.75-.59-2.57h0ZM91.78,171.81c-.3-.84-.71-1.62-1.23-2.34.07.88.27,1.75.59,2.57.3.84.71,1.63,1.23,2.35-.07-.88-.27-1.75-.59-2.57h0ZM65.51,183c-.8-.38-1.65-.64-2.53-.78.68.57,1.43,1.05,2.24,1.41.8.38,1.65.64,2.53.78-.68-.57-1.43-1.05-2.24-1.41ZM78.15,177.79c-.38.8-.65,1.65-.78,2.53.57-.68,1.04-1.44,1.4-2.25.38-.8.65-1.65.79-2.52-.57.66-1.05,1.4-1.41,2.2v.04Z"/>
    <path class="st6" d="M95.22,176.87c-1.09.69-2.2,1.36-3.28,2.06,1.59-1.52,3.19-3,4.73-4.6,0-.06,0-.15-.09-.1-1.97,1.5-3.85,3.1-5.64,4.8-1.9,1.66-3.8,3.33-5.77,4.9-1.95,1.59-4.01,3.03-6.17,4.31-2.31,1.3-4.71,2.42-7.18,3.37-1.4.54-2.8,1.06-4.21,1.55-1.52.52-3.07.92-4.65,1.2-.3,0-.14.17,0,.16,1.33-.14,2.64-.41,3.92-.79,1.33-.38,2.67-.76,4-1.16,2.55-.73,5.03-1.67,7.42-2.81,4.65-2.31,8.49-5.72,12.16-9.34l.21-.21c.65-.42,1.29-.86,1.91-1.32.91-.67,1.83-1.29,2.79-1.89.02,0-.06-.18-.15-.13Z"/>
  </g>
  <g id="freepik--Tools--inject-83">
    <path class="st9" d="M389,351.1s4.41,14.7,9.64,29.71,9.89,49.49,8.91,50.38-12.55-32.63-15.95-47.94-5.75-31-5.75-31l3.15-1.15Z"/>
    <polygon class="st3" points="389.07 350.73 392.57 360.71 387.01 362.06 385.34 351.78 389.07 350.73"/>
    <path class="st12" d="M389.08,350.73c.79-2.57.3-5.36-1.32-7.5-2.43-3.47-1.72-6.17-1.72-6.17,0,0-6.26,8-.7,14.72l3.74-1.05Z"/>
    <path class="st9" d="M386.09,336.66c.32.51-.33,3,.84,5s-4.57,4.92-4.1,1.95c.54-3.36,2.68-7.88,3.26-6.95Z"/>
    <path class="st8" d="M416.42,359.7s-4.26,11.9-9.21,24-10.27,40.27-9.51,41,11.77-26.29,15.19-38.74,6.11-25.21,6.11-25.21l-2.58-1.05Z"/>
    <polygon class="st3" points="416.38 359.39 413.07 367.45 417.58 368.81 419.4 360.42 416.38 359.39"/>
    <path class="st12" d="M416.37,359.4c.48-6.64,5.75-12,5.75-12,0,0,2.14,7.79-2.72,13.06l-3.03-1.06Z"/>
    <path class="st5" d="M403.32,344.1s1.68,12.53,4,25.41,1.63,41.53.72,42.13-6-28.17-6.76-41.06-.66-26-.66-26l2.7-.48Z"/>
    <polygon class="st3" points="403.42 343.81 404.98 352.38 400.28 352.76 400.25 344.18 403.42 343.81"/>
    <path class="st12" d="M400.25,344.18s3-.3,3.17-.37c.93-2.93,1.68-5.92,2.23-8.94-.18-.24-10.12,1.16-10.07,2.09s4.67,7.22,4.67,7.22Z"/>
    <rect class="st12" x="383.64" y="391.54" width="35.05" height="44.13" rx="4.38" ry="4.38"/>
    <rect class="st12" x="388.06" y="384.57" width="26.2" height="6.97"/>
    <path class="st6" d="M389.67,391.38c6.09-.3,21-.31,23,0M412.67,391.47c-7.66.55-15.34.55-23,0-.02-.03-.02-.06,0-.09l23,.09Z"/>
  </g>
</svg>