<?xml version="1.0" encoding="UTF-8"?>
<svg id="Layer_1" xmlns="http://www.w3.org/2000/svg" version="1.1" viewBox="0 0 500 500">
  <!-- Generator: Adobe Illustrator 29.6.1, SVG Export Plug-In . SVG Version: 2.1.1 Build 9)  -->
  <defs>
    <style>
      .st0, .st1, .st2, .st3, .st4 {
        isolation: isolate;
      }

      .st0, .st2 {
        opacity: .1;
      }

      .st0, .st5 {
        fill: #a6a6a6;
      }

      .st1 {
        opacity: .3;
      }

      .st6 {
        fill: #ebebeb;
      }

      .st7 {
        fill: #dbdbdb;
      }

      .st8 {
        fill: #eb9481;
      }

      .st9 {
        fill: #37474f;
      }

      .st10 {
        fill: #263238;
      }

      .st11 {
        fill: #c7c7c7;
      }

      .st12 {
        fill: #ec2829;
      }

      .st13, .st3, .st4 {
        fill: #fff;
      }

      .st14 {
        fill: #ff99ba;
      }

      .st15 {
        fill: #ffc727;
      }

      .st16 {
        fill: #f5f5f5;
      }

      .st17 {
        fill: #455a64;
      }

      .st3 {
        opacity: .2;
      }

      .st4 {
        opacity: .4;
      }
    </style>
  </defs>
  <g id="freepik--background-complete--inject-77">
    <path class="st6" d="M379.18,260.54h-151.7V42.28h151.7v218.26ZM231.48,256.54h143.7V46.28h-143.7v210.26Z"/>
    <rect class="st6" x="299.77" y="47.33" width="4" height="211.21"/>
    <rect class="st6" x="223.86" y="50.37" width="158.95" height="5.57"/>
    <rect class="st6" x="223.86" y="56.63" width="158.95" height="5.57"/>
    <rect class="st6" x="223.86" y="62.9" width="158.95" height="5.57"/>
    <rect class="st6" x="223.86" y="69.17" width="158.95" height="5.57"/>
    <rect class="st6" x="223.86" y="75.43" width="158.95" height="5.57"/>
    <rect class="st6" x="223.86" y="81.7" width="158.95" height="5.57"/>
    <rect class="st6" x="223.86" y="87.97" width="158.95" height="5.57"/>
    <rect class="st6" x="223.86" y="94.23" width="158.95" height="5.57"/>
    <rect class="st6" x="223.86" y="100.5" width="158.95" height="5.57"/>
    <rect class="st10" x="369.92" y="49.24" width="1" height="108.39"/>
    <polygon class="st10" points="372.2 162.28 368.65 162.28 369.54 157.18 371.31 157.18 372.2 162.28"/>
    <rect class="st10" x="373.53" y="49.24" width="1" height="165.73"/>
    <polygon class="st10" points="375.8 218.72 372.25 218.72 373.14 213.62 374.91 213.62 375.8 218.72"/>
    <rect class="st7" x="217.65" y="41.5" width="171.36" height="11.65"/>
    <polygon class="st6" points="150.71 177.77 149.21 177.77 149.21 176.77 149.71 176.77 149.71 176.27 150.71 176.27 150.71 177.77"/>
    <path class="st6" d="M147.19,177.77h-2v-1h2v1ZM143.14,177.77h-2v-1h2v1ZM139.14,177.77h-2v-1h2v1ZM135.14,177.77h-2v-1h2v1ZM131.09,177.77h-2v-1h2v1ZM127.09,177.77h-2v-1h2v1ZM123.09,177.77h-2v-1h2v1ZM119.09,177.77h-2v-1h2v1ZM115.09,177.77h-2v-1h2v1ZM111.09,177.77h-2v-1h2v1ZM107.09,177.77h-2v-1h2v1ZM103.09,177.77h-2v-1h2v1ZM99.09,177.77h-2v-1h2v1Z"/>
    <polygon class="st6" points="94.58 177.77 93.08 177.77 93.08 176.27 94.08 176.27 94.08 176.77 94.58 176.77 94.58 177.77"/>
    <path class="st6" d="M94.08,174.25h-1v-2h1v2ZM94.08,170.2h-1v-2h1v2ZM94.08,166.2h-1v-2h1v2ZM94.08,162.2h-1v-2h1v2ZM94.08,158.15h-1v-2h1v2ZM94.08,154.1h-1v-2h1v2ZM94.08,150.1h-1v-2h1v2ZM94.08,146.1h-1v-2h1v2ZM94.08,142.1h-1v-2h1v2ZM94.08,138.05h-1v-2h1v2ZM94.08,134.05h-1v-2h1v2ZM94.08,130h-1v-2h1v2ZM94.08,126h-1v-2h1v2Z"/>
    <polygon class="st6" points="94.08 121.64 93.08 121.64 93.08 120.14 94.58 120.14 94.58 121.14 94.08 121.14 94.08 121.64"/>
    <path class="st6" d="M147.19,121.14h-2v-1h2v1ZM143.14,121.14h-2v-1h2v1ZM139.14,121.14h-2v-1h2v1ZM135.14,121.14h-2v-1h2v1ZM131.09,121.14h-2v-1h2v1ZM127.09,121.14h-2v-1h2v1ZM123.09,121.14h-2v-1h2v1ZM119.09,121.14h-2v-1h2v1ZM115.09,121.14h-2v-1h2v1ZM111.09,121.14h-2v-1h2v1ZM107.09,121.14h-2v-1h2v1ZM103.09,121.14h-2v-1h2v1ZM99.09,121.14h-2v-1h2v1Z"/>
    <polygon class="st6" points="150.71 121.64 149.71 121.64 149.71 121.14 149.21 121.14 149.21 120.14 150.71 120.14 150.71 121.64"/>
    <path class="st6" d="M150.71,174.25h-1v-2h1v2ZM150.71,170.2h-1v-2h1v2ZM150.71,166.2h-1v-2h1v2ZM150.71,162.2h-1v-2h1v2ZM150.71,158.15h-1v-2h1v2ZM150.71,154.1h-1v-2h1v2ZM150.71,150.1h-1v-2h1v2ZM150.71,146.1h-1v-2h1v2ZM150.71,142.1h-1v-2h1v2ZM150.71,138.05h-1v-2h1v2ZM150.71,134.05h-1v-2h1v2ZM150.71,130h-1v-2h1v2ZM150.71,126h-1v-2h1v2Z"/>
    <rect class="st13" x="90.05" y="173.74" width="7.06" height="7.06"/>
    <path class="st6" d="M97.61,181.3h-8.06v-8.06h8.06v8.06ZM90.55,180.3h6.06v-6.06h-6.06v6.06Z"/>
    <rect class="st13" x="90.05" y="145.42" width="7.06" height="7.06"/>
    <path class="st6" d="M97.61,153h-8.06v-8.06h8.06v8.06ZM90.55,152h6.06v-6.06h-6.06v6.06Z"/>
    <rect class="st13" x="90.05" y="117.11" width="7.06" height="7.06"/>
    <path class="st6" d="M97.61,124.66h-8.06v-8h8.06v8ZM90.55,123.66h6.06v-6h-6.06v6Z"/>
    <rect class="st13" x="146.69" y="173.74" width="7.06" height="7.06"/>
    <path class="st6" d="M154.24,181.3h-8.05v-8.06h8.05v8.06ZM147.19,180.3h6.05v-6.06h-6.05v6.06Z"/>
    <rect class="st13" x="146.69" y="145.42" width="7.06" height="7.06"/>
    <path class="st6" d="M154.24,153h-8.05v-8.06h8.05v8.06ZM147.19,152h6.05v-6.06h-6.05v6.06Z"/>
    <rect class="st13" x="146.69" y="117.11" width="7.06" height="7.06"/>
    <path class="st6" d="M154.24,124.66h-8.05v-8h8.05v8ZM147.19,123.66h6.05v-6h-6.05v6Z"/>
    <rect class="st13" x="118.37" y="117.11" width="7.06" height="7.06"/>
    <path class="st6" d="M125.93,124.66h-8.06v-8h8.06v8ZM118.87,123.66h6.06v-6h-6.06v6Z"/>
    <rect class="st13" x="118.37" y="173.74" width="7.06" height="7.06"/>
    <path class="st6" d="M125.93,181.3h-8.06v-8.06h8.06v8.06ZM118.87,180.3h6.06v-6.06h-6.06v6.06Z"/>
    <path class="st7" d="M122.58,155.69h-11.3l-4.39,12.31h4.28v1.08h-8.73v-1.08h2.68l14.55-39.21h4.68l14.38,39.21h2.63v1.08h-18.66v-1.08h4l-4.12-12.31ZM111.8,154.43h10.33l-5-15-5.33,15Z"/>
    <path class="st6" d="M428.78,193.83s-.2,11.12-7.32,23.74h-10c-7.12-12.62-7.32-23.74-7.32-23.74,10.31-5.76,10.58-18.66,10.58-18.66h1v20.42c-1.69.4-2.74,2.09-2.35,3.79.4,1.69,2.09,2.74,3.79,2.35s2.74-2.09,2.35-3.79c-.27-1.16-1.18-2.07-2.35-2.35v-20.42h1s.31,12.9,10.62,18.66Z"/>
    <rect class="st11" x="409.03" y="216.35" width="14.83" height="6.24"/>
    <path class="st6" d="M450.86,208.55h-1c0-18.46-14.96-33.42-33.42-33.42s-33.42,14.96-33.42,33.42h-1c0-19.01,15.42-34.42,34.43-34.41,19,0,34.41,15.41,34.41,34.41Z"/>
    <rect class="st6" x="381.74" y="173.72" width="68.62" height="1"/>
    <rect class="st13" x="378.99" y="205.02" width="7.06" height="7.06"/>
    <path class="st6" d="M386.55,212.58h-8.06v-8.06h8.06v8.06ZM379.49,211.58h6.06v-6.06h-6.06v6.06Z"/>
    <rect class="st13" x="378.99" y="170.69" width="7.06" height="7.06"/>
    <path class="st6" d="M386.55,178.24h-8.06v-8.05h8.06v8.05ZM379.49,177.24h6.06v-6.05h-6.06v6.05Z"/>
    <rect class="st13" x="446.83" y="205.02" width="7.06" height="7.06"/>
    <path class="st6" d="M454.39,212.58h-8.06v-8.06h8.06v8.06ZM447.33,211.58h6.06v-6.06h-6.06v6.06Z"/>
    <rect class="st13" x="446.83" y="170.69" width="7.06" height="7.06"/>
    <path class="st6" d="M454.39,178.24h-8.06v-8.05h8.06v8.05ZM447.33,177.24h6.06v-6.05h-6.06v6.05Z"/>
    <rect class="st6" x="38.73" y="274.42" width="26.48" height="11.19"/>
    <rect class="st6" x="23.96" y="288.53" width="26.48" height="11.19"/>
    <rect class="st6" x="434.79" y="288.53" width="26.48" height="11.19"/>
    <rect class="st6" x="420.02" y="70.06" width="26.48" height="11.19"/>
    <rect class="st6" x="434.79" y="84.17" width="26.48" height="11.19"/>
    <rect class="st6" x="38.73" y="70.06" width="26.48" height="11.19"/>
    <path class="st7" d="M384.06,358.25s16.92-3.83,26.2-12.38,14.46-23.87,14.46-23.87c-6.44,1.24-12.79,2.91-19,5-2.33,2.39-4.26,5.13-5.74,8.12-.16-1.93-.18-3.87-.05-5.8-2.16.94-4.18,2.17-6,3.66-7.7,6.72-9.87,25.27-9.87,25.27Z"/>
    <path class="st5" d="M414.15,329.45c2.31-1.6,4.66-3.14,7-4.75.06-.04.08-.12.05-.19-.04-.06-.12-.08-.19-.04h0c-4.36,2.61-8.66,5.39-12.82,8.31-1.46,1-2.88,2.08-4.29,3.15l.3-.5c.51-.85,1-1.68,1.58-2.52,1.06-1.69,2.26-3.3,3.59-4.79.05-.06,0-.14-.08-.08-1.32,1.52-2.64,3-3.84,4.64-.57.76-1.1,1.56-1.61,2.37-.26.42-.52.84-.76,1.28l-.25.43c-2.19,1.72-4.32,3.51-6.36,5.41-1.25,1.17-2.46,2.38-3.63,3.63.65-2.05,1.22-4.12,2-6.14,0-.06-.09-.09-.11,0-.74,2.11-1.54,4.24-2.11,6.41-1.3,1.4-2.54,2.85-3.71,4.37l.06-.28c.19-.8.39-1.59.61-2.39.41-1.53.86-3.05,1.38-4.55.97-3.12,2.51-6.03,4.54-8.59.05-.05,0-.13-.08-.08-3.17,3.95-5.39,8.59-6.48,13.54-.18.72-.36,1.44-.52,2.17-.09.38-.19.77-.25,1.17-.51.69-1,1.39-1.5,2.1-2.88,4.41-5.28,9.12-7.16,14.05-2.15,5.52-3.98,11.16-5.51,16.89,0,.12.14.15.18,0,3.31-9.91,6.69-20,12.36-28.81,1.2-1.87,2.48-3.67,3.86-5.41,2.8-.18,5.57-.73,8.23-1.64,2.91-.98,5.68-2.33,8.25-4,1.47-.99,2.88-2.06,4.23-3.2.07-.05,0-.14-.07-.08-2.36,1.9-4.97,3.48-7.76,4.69-2.73,1.26-5.6,2.22-8.54,2.86-1.25.28-2.51.48-3.78.65,1.57-1.93,3.24-3.78,5-5.53.57-.57,1.16-1.12,1.75-1.67,1.97-1.38,4.07-2.58,6.26-3.58,2.77-1.34,5.5-2.76,8.25-4.16,1.54-.79,3.08-1.59,4.64-2.36.07,0,0-.13-.06-.09-2.78,1.34-5.6,2.6-8.41,3.88-2.65,1.21-5.32,2.43-7.86,3.85l-.32.2c2.3-2,4.67-3.9,7.1-5.74,2.25-1.62,4.53-3.28,6.84-4.88Z"/>
    <path class="st5" d="M413.19,338.18c-1.38.6-2.78,1.13-4.14,1.77s-2.73,1.42-4.06,2.21c-.06,0,0,.12.05.09,1.35-.65,2.72-1.25,4.06-1.92s2.72-1.43,4.12-2c.07-.07.04-.18-.03-.15Z"/>
    <path class="st7" d="M329.07,273c3.12,4.02,4.88,8.92,5.05,14,.06,1.51-.18,3.63-.36,6.12,4.23,2.45,7.97,5.65,11.05,9.44-3.38-1.97-7.26-2.9-11.16-2.67.09,1.7.3,3.39.64,5.05,2.46,0,4.9.49,7.18,1.42-2.22-.02-4.43.42-6.47,1.29,3,9.6,12,19.46,36.76,23.65,2.62-11.77,1.07-24.09-4.39-34.85-7.37-14.59-38.3-23.45-38.3-23.45Z"/>
    <path class="st5" d="M380.33,372.39c-.43-4.1-.97-8.19-1.61-12.27-1.26-8.16-2.92-16.25-5-24.24-.97-3.75-2.16-7.44-3.58-11.05.07-.66.11-1.33.1-2v-2.38c0-1.59-.09-3.17-.23-4.75-.25-3.13-.76-6.24-1.52-9.29-.45-1.76-1-3.5-1.5-5.25,0-.07-.13,0-.11,0,.82,3.04,1.44,6.14,1.83,9.27.44,3.08.72,6.18.83,9.29,0,.85.05,1.7.05,2.55v1.1c-1.22-2.96-2.61-5.85-4.17-8.64-2.52-4.43-5.35-8.66-8.48-12.68,0-.47-.07-.94-.2-1.39l-.36-1.66c-.26-1.13-.54-2.25-.85-3.37-.61-2.24-1.43-4.41-2.13-6.63-.01-.03-.05-.04-.08-.03-.01,0-.02.02-.03.03.66,2.2,1.09,4.47,1.59,6.7.25,1.11.49,2.21.74,3.32.12.55.23,1.1.35,1.66v.12c-1-1.26-2-2.51-3.07-3.73-4.73-5.55-9.91-10.66-15.13-15.74-.64-.63-1.3-1.24-1.95-1.85-.05-.05-.13,0-.08.08,5,5.2,9.9,10.47,14.55,16,1.11,1.31,2.19,2.63,3.26,4l-1.69-1.12c-1.44-.94-2.9-1.86-4.4-2.7s-3-1.66-4.56-2.43-3.29-1.43-4.82-2.32c-.07,0-.12.07-.06.1,1.57.73,3.08,1.56,4.52,2.51,1.51.89,3,1.79,4.5,2.73s2.92,1.83,4.36,2.77c1.21.78,2.39,1.64,3.64,2.36,2.88,3.7,5.54,7.57,7.96,11.59,1.5,2.52,2.87,5.12,4.1,7.78l-.89-.39-2.27-1c-1.45-.65-2.92-1.28-4.38-1.92-2.78-1.2-5.6-2.31-8.32-3.64-1.54-.72-3.02-1.55-4.45-2.47-.06,0-.11.06,0,.1,5.07,3.5,10.77,6,16.39,8.46l2.44,1.08c.66.29,1.34.62,2,.88,1.66,3.72,3.06,7.56,4.19,11.48,2.22,7.9,4.02,15.91,5.39,24,1.42,8.09,2.38,16.23,3.13,24.41.09,1,.18,2,.3,3.06,0,.18.14.32.32.32s.32-.14.32-.32c-.08-4.21-.51-8.36-.94-12.49Z"/>
    <path class="st5" d="M365.26,304c-.45-2.52-1.13-5-1.8-7.45,0-.07-.13,0-.11,0,.62,2.42,1.07,4.88,1.53,7.34s.87,5,1.22,7.54h.07c-.16-2.49-.46-4.97-.91-7.43Z"/>
    <path class="st5" d="M354.59,310.82c-1.73-1.12-3.53-2.13-5.39-3-.9-.47-1.82-.91-2.73-1.36s-1.92-.83-2.86-1.3c-.03,0-.07,0-.08.04,0,.02,0,.04.02.06.91.45,1.77,1,2.66,1.49s1.83,1,2.75,1.5c1.81,1,3.59,2,5.49,2.84.07.04.17,0,.21-.07s0-.17-.07-.21h0Z"/>
    <path class="st0" d="M384.36,328.93s15.67-3.74,22.86-14.25c6.87-10,9.09-27.14,9.27-28.64-.29,1.38-3.52,16.33-14.18,23.29-8.17,5.34-16.06,9.72-17.95,19.6Z"/>
    <path class="st5" d="M398.82,301.87c-2.79,2.56-4.79,5.86-5.77,9.51M393.1,311.38c1.14-3.57,3.13-6.81,5.8-9.45.1-.03-.03-.11-.08-.06l-5.72,9.51Z"/>
    <path class="st7" d="M384.36,328.93s15.67-3.74,22.86-14.25c6.87-10,9.09-27.14,9.27-28.64,0-.04,0-.07,0-.11,0,0-7.51,10.68-15.41,13.4s-18.98,12.15-16.72,29.6Z"/>
    <path class="st5" d="M413.73,291.82c-1.41,2.88-3.03,5.65-4.85,8.28-1.82,2.5-3.99,4.73-6.44,6.63-2.13,1.69-4.38,3.22-6.53,4.88v-.08c.4-.6.83-1.18,1.28-1.75.9-1.15,1.88-2.23,2.86-3.3,1.95-2.11,3.94-4.18,5.68-6.47.97-1.24,1.81-2.58,2.51-4,0-.07-.07-.11-.1,0-2.54,5.29-7.62,8.68-11.24,13.15-.52.64-1,1.31-1.45,2-.36.49-.66,1.03-.9,1.59-1.98,1.59-3.77,3.4-5.34,5.4.14-1.01.35-2.02.63-3,.35-1.41.91-2.76,1.66-4,0-.07-.06-.13-.1-.07-.76,1.24-1.37,2.56-1.83,3.94-.33,1.1-.52,2.24-.57,3.39h0c-.77,1.05-1.48,2.15-2.11,3.29.06-.34.13-.67.19-1,.31-1.56.66-3.11,1.06-4.65.74-3.14,2.01-6.13,3.77-8.83,0-.06-.05-.12-.1-.06-1.79,2.66-3.2,5.57-4.17,8.63-.5,1.54-.9,3.1-1.25,4.68-.17.77-.33,1.54-.48,2.32-.07.4-.16.81-.22,1.22-1.55,3.41-2.77,6.97-3.62,10.62-1.53,6.53-2.65,13.14-3.34,19.81-.8,6.97-1.16,13.98-1.08,21,0,.88.07,1.76.12,2.64,0,.23.35.26.36,0,.15-3.48.24-6.95.45-10.43s.51-6.94.88-10.4c.71-6.81,1.8-13.57,3.26-20.26,1.27-5.72,2.92-11.49,6.05-16.5,1.56-2.5,3.46-4.76,5.65-6.73,2.2-2,4.6-3.69,6.92-5.52,2.34-1.78,4.47-3.83,6.34-6.1,1.92-2.53,3.59-5.23,5-8.08l1.12-2.13c.06-.11-.04-.18-.07-.11Z"/>
    <path class="st5" d="M411,294.12c-1.02,2.11-2.19,4.15-3.49,6.1,0,0,0,.09.08,0,1.34-1.94,2.52-3.99,3.52-6.12.05-.01-.06-.05-.11.02Z"/>
    <path class="st7" d="M326.88,322s-.25,22.26,13.06,28.69,20.45,1.07,29.49,3.23h0c-.35-.53-6.81-9.8-17.07-12.36-10.58-2.65-22.28-10.28-25.48-19.56Z"/>
    <path class="st0" d="M326.88,322s-.25,22.26,13.06,28.69,20.45,1.07,29.49,3.23h0c-4.78-2.27-9.88-3.77-15.13-4.46-8.41-1.03-24.44-6.46-27.42-27.46Z"/>
    <path class="st5" d="M370.31,354.31c-1.58-1.44-3.37-2.64-5.29-3.58-.29-.14-.58-.25-.87-.37-.14-.18-.29-.35-.45-.51-.4-.42-.82-.82-1.25-1.19-.83-.72-1.73-1.37-2.68-1.94-2.21-1.29-4.62-2.2-6.88-3.4-.06,0-.12.06-.05.1,1.11.58,2.19,1.21,3.28,1.85s2.13,1.2,3.16,1.86c.92.6,1.8,1.27,2.63,2,.23.2.46.42.68.65-1.47-.5-2.98-.89-4.5-1.19-2.43-.5-4.9-.85-7.33-1.36-1.19-.27-2.37-.61-3.53-1-1.1-.89-2.21-1.77-3.25-2.73-1.27-1.16-2.42-2.44-3.44-3.82-.05-.06-.15,0-.1.06,1.61,2.18,3.44,4.19,5.46,6-.58-.22-1.15-.45-1.71-.7-4.57-2.06-8.49-5.32-11.34-9.44,0-.06-.14,0-.1.06,2.42,3.54,5.55,6.54,9.18,8.81,1.82,1.13,3.77,2.05,5.8,2.74,2.36.74,4.76,1.31,7.2,1.71,2.39.39,4.75.95,7.06,1.68,2.12.71,4.12,1.76,5.91,3.11,3.4,2.63,6.14,6.01,8,9.89,2.38,5.13,3.87,10.64,4.39,16.27,0,.24.4.24.38,0-.67-9.32-3.15-19.06-10.36-25.56Z"/>
    <path class="st5" d="M354.86,347.05c-.69-1.04-1.63-1.89-2.73-2.48-1.27-.65-2.38-1.57-3.26-2.69,0-.06-.14,0-.09.06.8,1.02,1.77,1.89,2.87,2.58,1.21.64,2.28,1.52,3.13,2.59.02.02.05.03.07.01.02-.02.03-.05.01-.07,0,0,0,0,0,0Z"/>
    <polygon class="st6" points="361.93 370.74 362.53 382.98 364.39 420.38 392.31 420.38 394.17 382.98 394.77 370.74 361.93 370.74"/>
    <polygon class="st7" points="361.93 370.74 362.53 382.98 394.17 382.98 394.77 370.74 361.93 370.74"/>
    <rect class="st6" x="359.97" y="365.63" width="36.76" height="11.68"/>
  </g>
  <g id="freepik--Floor--inject-77">
    <polygon class="st10" points="66.73 420.76 112.55 420.51 158.37 420.43 250 420.26 341.63 420.43 387.45 420.51 433.27 420.76 387.45 421 341.63 421.09 250 421.26 158.37 421.09 112.55 421 66.73 420.76"/>
  </g>
  <g id="freepik--Shadows--inject-77">
    <ellipse class="st6" cx="86.08" cy="456.14" rx="44.28" ry="8.5"/>
    <ellipse class="st6" cx="250" cy="455.47" rx="160.45" ry="15.73"/>
  </g>
  <g id="freepik--Character--inject-77">
    <polygon class="st11" points="237.66 324.43 240.25 339.94 257.76 434.55 260.59 434.55 247.85 339.94 245.97 324.43 237.66 324.43"/>
    <polygon class="st5" points="245.97 324.43 237.66 324.43 240.25 339.94 247.85 339.94 245.97 324.43"/>
    <polygon class="st11" points="182.64 434.55 185.47 434.55 202.99 339.94 205.57 324.43 197.27 324.43 195.38 339.94 182.64 434.55"/>
    <polygon class="st5" points="197.27 324.43 195.38 339.94 202.99 339.94 205.57 324.43 197.27 324.43"/>
    <polygon class="st11" points="130.1 434.55 132.92 434.55 150.44 339.94 153.03 324.43 144.72 324.43 142.84 339.94 130.1 434.55"/>
    <polygon class="st5" points="142.84 339.94 150.44 339.94 153.03 324.43 144.72 324.43 142.84 339.94"/>
    <polygon class="st11" points="134.58 331.72 262.95 331.72 262.95 318.19 214.89 318.19 198.74 204.22 139.47 204.22 134.58 331.72"/>
    <polygon class="st7" points="142.06 318.19 262.95 318.19 262.95 331.72 141.57 331.72 142.06 318.19"/>
    <polygon class="st7" points="134.58 331.72 141.57 331.72 146.13 204.22 139.47 204.22 134.58 331.72"/>
    <path class="st8" d="M256.35,452.57c-2.49.24-70.46-15.95-72.6-18.15-.27-.25,1.07-6.43,3-14.85v-.17c1.23-5.34,21-48.54,21-48.54l44.05,12.29-20,40.08s8.29,6,15.4,11.67h0c4.39,3.49,8.18,6.63,9,7.64,2.16,2.67,2.65,9.81.15,10.03Z"/>
    <path class="st6" d="M256.35,452.57c-2.49.24-70.46-15.95-72.61-18.15-.26-.25,1.08-6.42,3-14.85v-.16c.45-2,3.5-9.25,7.13-17.57,7.25,2,33.24,9,42.68,11.89l-4.74,9.5s8.29,6,15.4,11.67h0c4.39,3.49,8.18,6.63,9,7.64,2.15,2.68,2.64,9.82.14,10.03Z"/>
    <path class="st12" d="M256.58,452.89c-2.57.23-70.59-16.15-72.79-18.41-.84-.86.67-11.59,4.39-23l43.82,10.65s22.39,17.72,24.54,20.46c2.15,2.74,2.6,10.08.04,10.3Z"/>
    <path class="st10" d="M256.26,449.94c-11.34-3-57.34-14.16-68.77-16.29-.1,0-.11.05,0,.08,11.17,3.24,57.26,14,68.74,16.4.22.05.27-.13.03-.19Z"/>
    <path class="st10" d="M252.77,439.09c-2.55-.68-5.27-.27-7.49,1.15-1.99,1.24-3.42,3.2-4,5.47,0,.07.12.1.14,0,1.92-4.44,6.54-7.09,11.34-6.5.04-.03.04-.08.02-.11,0,0,0,0,0,0Z"/>
    <path class="st10" d="M235.32,424.13c-4.55-1.16-10.23-.82-14,2.23-.14.12,0,.32.18.28,4.5-1.13,9.1-1.77,13.73-1.93.16.02.31-.08.34-.24.02-.16-.08-.31-.25-.34h0Z"/>
    <path class="st10" d="M238.51,426.35c-4.54-1.16-10.22-.82-14,2.23-.14.12,0,.32.18.28,4.5-1.13,9.1-1.77,13.73-1.93.16.02.31-.08.34-.24.02-.16-.08-.31-.25-.34Z"/>
    <path class="st10" d="M241.71,428.58c-4.55-1.17-10.23-.83-14,2.22-.14.12,0,.32.18.29,4.49-1.14,9.1-1.78,13.73-1.93.17,0,.29-.15.28-.32,0-.12-.08-.22-.19-.26Z"/>
    <path class="st10" d="M244.9,430.8c-4.55-1.16-10.23-.83-14,2.22-.15.12,0,.32.17.29,4.49-1.14,9.1-1.78,13.73-1.93.17,0,.3-.14.29-.31,0-.12-.08-.23-.19-.27Z"/>
    <path class="st10" d="M193,423.52c-5.13-1.21-7,6.75-1.9,8s7.03-6.78,1.9-8Z"/>
    <path class="st10" d="M243.19,413.14c-1.85-2.47-5.21-1.3-7.12.35-3.21,2.89-5.61,6.57-6.95,10.67-.02.06.01.13.07.15.01,0,.02,0,.04,0,0,.35.34.72.73.57,3.79-1.47,8-2.56,11.25-5.15,1.89-1.51,3.72-4.26,1.98-6.6ZM235.25,421.49c-1.85.77-3.72,1.44-5.54,2.27,1.37-2.07,2.63-4.2,4.2-6.14.74-.94,1.55-1.84,2.41-2.68,1.36-1.26,6.75-4,6,1.07-.4,2.8-4.87,4.57-7.07,5.48h0Z"/>
    <path class="st10" d="M217.37,423.12c3.83,1.57,8.2,1.42,12.25,1.76.31,0,.57-.26.57-.57,0-.06,0-.12-.03-.18.07,0,.12-.11.06-.19-2.45-3.56-5.79-6.41-9.69-8.27-2.29-1-5.84-1.22-6.92,1.68-1.02,2.73,1.53,4.86,3.76,5.77ZM215.24,419.86c-2.14-4.66,3.81-3.56,5.46-2.72,1.07.55,2.09,1.18,3.07,1.88,2.06,1.42,3.87,3.1,5.77,4.71-2-.29-4-.4-6-.61-2.33-.26-7.12-.69-8.3-3.26h0Z"/>
    <path class="st9" d="M235.78,418l-46.78-12.52s41.11-85.26,37.79-90c-1.66-2.34-45.5-4.32-59.1-16.57-17.66-15.91-4.81-39-4.81-39h49s-.89,10.23,1,11.83c1.23,1.06,59.45,7.71,65.28,27.6,7.14,24.39-42.38,118.66-42.38,118.66Z"/>
    <path class="st10" d="M236.6,411.14c-1.25-.57-2.53-1.05-3.84-1.45-1.36-.47-2.71-.94-4.08-1.39-2.69-.88-5.39-1.72-8.1-2.5-5.48-1.58-11-3.13-16.47-4.56-2.87-.75-9-2.37-9.41-2.32-.19,0-.23.34-.06.4,5.32,1.93,10.73,3.6,16.13,5.28s10.81,3.33,16.28,4.74c1.52.39,3,.74,4.57,1.11,1.59.47,3.2.83,4.84,1.07.16.01.31-.29.14-.38Z"/>
    <path class="st10" d="M235.29,311.72c-1-.87-2.43-1-3.66-1.26l-21.11-4.19c-6.58-1.31-13.2-2.5-19.75-4-5.42-1.22-10.93-2.8-15.56-5.9-4.5-3.06-7.77-7.62-9.21-12.87-1.34-5.29-1.59-10.8-.76-16.2.16-1.31.44-2.62.73-3.91,0-.1-.14-.14-.16,0-2.09,10-2.6,21.65,4.69,29.88,3.55,4,8.52,6.45,13.62,8.09,5.75,1.85,11.79,2.82,17.71,4l21.11,4.17c3.39.67,6.83,1.21,10.18,2,.68.11,1.31.41,1.82.87.48.73.57,1.65.23,2.46-.39,1.66-.89,3.3-1.42,4.92-4.25,13.07-34.08,75-34.89,76.42-.08.15.15.27.24.13,6.83-11.38,29.06-59.19,33.72-71.53,1.23-3.14,2.25-6.36,3.07-9.63.23-1.17.41-2.54-.6-3.45Z"/>
    <path class="st10" d="M250.57,388l-31-49.8c5-12,8.21-21.19,7.18-22.64-.81-1.14-11.57-2.2-24-4.39l-31.75-51.25h40.95s-.89,10.23,1,11.83c1.23,1.07,59.45,7.71,65.28,27.6,4.45,15.43-13.71,58.82-27.66,88.65Z"/>
    <path class="st8" d="M326.34,457.62c-2.4.73-72.23-1.6-74.77-3.33-.31-.19-.23-6.51,0-15.16v-.13c.14-5.47-.15-52.33-.15-52.33l43.72.94,1.36,46.17s9.31,4.21,17.41,8.37h0c5,2.54,9.33,4.86,10.32,5.7,2.61,2.15,4.51,9.06,2.11,9.77Z"/>
    <path class="st6" d="M326.34,457.62c-2.4.73-72.23-1.6-74.77-3.34-.31-.18-.23-6.5,0-15.14v-19.39l44.54,1,.38,13s9.31,4.22,17.41,8.37h0c5,2.55,9.34,4.86,10.32,5.7,2.61,2.18,4.52,9.09,2.12,9.8Z"/>
    <path class="st12" d="M326.62,457.9c-2.47.73-72.39-1.78-75-3.56-1-.67-1.66-11.49-.27-23.37l45.07,1.67s25.47,12.91,28.12,15.17,4.55,9.36,2.08,10.09Z"/>
    <path class="st10" d="M325.72,455.06c-11.71-.7-59-2.45-70.64-2.26-.09,0-.09.06,0,.07,11.59,1,58.9,2.32,70.63,2.39.29,0,.29-.18.01-.2Z"/>
    <path class="st10" d="M320.14,445.13c-2.63-.16-5.21.78-7.11,2.61-1.71,1.61-2.73,3.82-2.85,6.16,0,.07.13.08.15,0,.99-4.74,4.98-8.26,9.81-8.63.04-.02.05-.07.03-.11,0-.01-.02-.02-.03-.03Z"/>
    <path class="st10" d="M300.06,433.94c-4.68-.23-10.18,1.23-13.24,5-.11.15.09.31.24.25,4.17-2.01,8.55-3.56,13.06-4.63.17-.02.3-.17.28-.34s-.17-.3-.34-.28Z"/>
    <path class="st10" d="M303.63,435.48c-4.68-.23-10.18,1.23-13.23,5-.12.15.08.31.23.25,4.18-2.01,8.55-3.56,13.06-4.63.17-.02.3-.17.28-.34s-.17-.3-.34-.28Z"/>
    <path class="st10" d="M307.21,437c-4.69-.23-10.19,1.23-13.24,5-.12.15.09.32.23.25,4.18-2.01,8.56-3.56,13.07-4.62.17-.02.3-.17.29-.35-.02-.17-.17-.3-.35-.28h0Z"/>
    <path class="st10" d="M310.78,438.57c-4.69-.24-10.19,1.22-13.24,5-.12.14.09.31.23.24,4.18-2,8.56-3.55,13.07-4.62.17-.02.3-.17.28-.34-.02-.17-.17-.3-.34-.28Z"/>
    <path class="st10" d="M258.47,441.77c-5.27-.17-5.55,8-.27,8.18,5.28.18,5.54-7.95.27-8.18Z"/>
    <path class="st10" d="M305.58,421.61c-2.3-2.06-5.36-.24-6.9,1.75-2.57,3.47-4.19,7.55-4.68,11.84-.01.07.03.13.1.14.01,0,.03,0,.04,0,.05.31.35.52.66.47.06-.01.12-.03.17-.06,3.42-2.19,7.35-4.11,10-7.28,1.54-1.86,2.79-4.92.61-6.86ZM299.47,431.37c-1.66,1.12-3.36,2.15-5,3.33.85-2.33,1.82-4.62,2.9-6.86.54-1.07,1.14-2.11,1.82-3.1,1.08-1.51,5.82-5.27,6.11-.15.17,2.82-3.86,5.41-5.83,6.78Z"/>
    <path class="st10" d="M282.27,436.53c4.06.77,8.32-.24,12.35-.72.31-.07.5-.38.43-.68-.01-.04-.03-.09-.05-.13.06-.04.07-.11.03-.17,0-.01-.02-.02-.03-.03-3.11-3-6.96-5.13-11.15-6.18-2.45-.56-6,0-6.44,3-.41,2.88,2.49,4.45,4.86,4.91ZM279.53,433.75c-3-4.13,3-4.24,4.82-3.75,1.15.34,2.28.75,3.38,1.23,2.25,1.05,4.45,2.2,6.58,3.47-2,.11-4,.4-5.95.58-2.36.23-7.16.72-8.83-1.53Z"/>
    <path class="st9" d="M299.14,427.2l-49.3-1.45s3.13-84-.59-89.08c-5-6.74-77-8.73-91.86-30.67-13.31-19.71-.78-46.67-.78-46.67h54.63c-1.4,5.81-3.26,11.49-5.57,17,0,0,65.39,14.09,83.22,34.81,12.02,14.02,10.25,116.06,10.25,116.06Z"/>
    <path class="st10" d="M215.38,272.92c-1.59.3-3.16.75-4.67,1.34-1.58.55-3.15,1.19-4.67,1.88-3.01,1.38-5.95,2.92-8.79,4.63-.08.05,0,.17.09.13,3-1.45,6.09-2.74,9.18-4l4.47-1.77c1.53-.54,3.04-1.15,4.51-1.84.19-.06.1-.41-.12-.37Z"/>
    <path class="st10" d="M212.51,259.35c-.7,2.47-1.32,5-2.11,7.41-.36,1.12-.71,2.27-1.17,3.35-.39.92-1,2-2,2.14-1.25.2-1.57-.87-1.44-1.89s.47-2.27.73-3.38c.3-1.29.6-2.57.88-3.87.13-.64.27-1.29.4-1.93,0-.17.19-1.41.29-1.76,0,0,0,.06.07.05h0s.08,0,.08-.06,0-.12-.06-.19c-.03-.03-.08-.03-.11,0-.24.12-.27.44-.35.68-.22.62-.44,1.25-.65,1.88-.38,1.18-.75,2.36-1.08,3.55s-.67,2.39-1,3.58c-.34.88-.45,1.83-.33,2.76.2.91.98,1.58,1.91,1.65,0,.08-.1.16-.14.24-.11.24-.2.5-.3.75s-.2.51-.28.77c-.04.12-.06.25-.08.38v.43c-.02.11.06.22.18.24.08.01.16-.02.2-.09.07-.12.17-.22.25-.34.08-.13.14-.27.19-.41.09-.25.17-.49.24-.75s.16-.5.21-.75,0-.31.06-.46c.52-.03,1.02-.2,1.45-.5.72-.58,1.26-1.35,1.56-2.23.41-1,.73-2.1,1-3.15.84-2.61,1.46-5.28,1.83-8,0-.13-.12-.22-.24-.22-.08,0-.15.05-.19.12Z"/>
    <path class="st10" d="M179.87,264.48c-.26,1.23-.44,2.47-.77,3.69s-.67,2.38-1.1,3.54c-.39,1.12-.93,2.19-1.62,3.16-.71.92-1.55,1.73-2.49,2.4-1.8,1.35-3.81,2.39-5.95,3.08-1.07.35-2.16.64-3.27.86-.58.11-1.17.19-1.75.25-.48,0-.96.1-1.41.28-.14.09-.18.26-.09.4.02.04.05.07.09.09.83.28,1.73.34,2.59.16.94-.07,1.86-.2,2.78-.41,1.85-.41,3.63-1.09,5.29-2,1.68-.88,3.19-2.05,4.47-3.45,1.21-1.47,2.06-3.2,2.49-5.05.65-2.25.99-4.58,1-6.93.02-.07-.02-.15-.1-.16s-.15.02-.16.1h0Z"/>
    <path class="st10" d="M258.62,369.19c-.25-7.76-.66-15.52-1.24-23.27-.14-1.91-.27-3.82-.45-5.73-.1-1.49-.37-2.95-.83-4.37-1.05-2.94-3.42-4.48-6.32-5.3-3.43-1-7-1.6-10.47-2.28s-7.15-1.31-10.73-1.92c-7.26-1.23-14.54-2.39-21.76-3.82-7.2-1.39-14.32-3.22-21.29-5.5-6.39-2.14-12.93-4.74-18-9.37-10.82-10-10.75-26.11-9-39.57.25-1.9.54-3.8.83-5.69,0-.1-.14-.14-.15,0-1.11,7.58-2.36,15.2-1.83,22.88.32,6.35,2.25,12.52,5.62,17.92,3.6,5.51,9.06,9.16,15,11.77,6.55,2.76,13.34,4.93,20.27,6.5,14.32,3.44,29,5.16,43.4,8.07,1.78.36,3.56.74,5.33,1.14,1.65.29,3.25.77,4.79,1.43,3.24,1.57,4,4.81,4.36,8.13.72,7.72,1.13,15.48,1.46,23.22.66,15.61.79,31.28.3,46.9-.06,1.93-.13,3.85-.21,5.78,0,.17.26.16.27,0,.91-15.63,1.17-31.27.65-46.92Z"/>
    <path class="st10" d="M297,421.21c-1.35-.25-2.71-.41-4.08-.47-1.43-.12-2.87-.25-4.3-.35-2.82-.19-5.65-.35-8.47-.44-5.69-.19-11.39-.35-17.08-.39-3,0-9.34-.09-9.7.06-.17.07-.13.38,0,.4,5.64.57,11.29.86,16.94,1.16s11.29.59,16.95.62h4.69c1.67.07,3.34.02,5-.15.18-.07.25-.4.05-.44Z"/>
    <path class="st8" d="M210,213.28c4.93,21.08,6.23,36.34,12.21,40.28,4.83,3.17,11.61,5.4,18.58,6.95,7.45,1.57,15,2.65,22.6,3.23,2.34.2,4.29.32,5.67.42,3.42.22,9-22.36,6.59-25.11-.56-.63-2.81-1.12-6-1.52-10.64-1.34-31.59-1.65-32.84-2.84s-10-15.6-17.67-29.06c-7.24-12.89-12.24-5.75-9.14,7.65Z"/>
    <path class="st8" d="M262.24,261.88c3.3,1.47,6.7,2.73,10.17,3.75,2.76.69,10.77,2.47,11.84-.5.73-2-3.86-3.63-7.08-4.83-1.7-.64-3.82-2.31-3.37-3.4.79-1.91,5.16-.18,8.05,1.36,5.59,3,13.08,8.42,16.32,5.53,1.23-1.1-.31-3-2.53-4.75,3.57,2.06,7.34,3.71,8.75,2.55.76-.62.9-1.72.32-2.51.91.39,1.97.18,2.67-.52,1.09-1.22.47-2.95-.84-4.7.43-.06.8-.33,1-.71,2.26-3.74-10.12-13.79-14.3-14.62-12.31-2.45-25.25-.91-25.25-.91-4.64,4.01-5.76,24.25-5.75,24.26Z"/>
    <path class="st10" d="M279.76,249.84c2.93.33,5.75,1.3,8.26,2.84,2.92,1.85,5.28,4.43,8,6.55.07.06,0,.17-.09.11-1.28-1.1-2.68-2.07-4-3.12s-2.57-2.09-3.93-3c-2.46-1.72-5.28-2.85-8.24-3.31,0,0-.03-.07,0-.07Z"/>
    <path class="st10" d="M281.84,244.58c3.29.65,6.5,1.63,9.59,2.93,3.32,1.54,6,4.16,8.57,6.67,1.57,1.51,3.1,3.05,4.59,4.62.06.07,0,.18-.09.12-2.67-2.6-5.39-5.12-8.16-7.55-2.58-2.27-5.58-4.01-8.84-5.12-1.86-.64-3.76-1.12-5.67-1.61-.03,0-.02-.07.01-.06Z"/>
    <path class="st10" d="M285.1,239.93c3.14.52,5.88,1,8.7,2.54,3.17,1.94,6.09,4.27,8.68,6.94,1.43,1.41,2.8,2.86,4.15,4.34.05.06-.05.16-.11.1-3.08-3.23-6.37-6.26-9.85-9.06-1.63-1.36-3.47-2.46-5.44-3.26-2-.68-4.05-1.2-6.13-1.53,0,0-.01-.07,0-.07Z"/>
    <path class="st12" d="M257.88,264.61l9.88-27.88s-28.54-1.2-30.38-2.39-11.27-18.51-18.38-30.15c-5.62-9.14-12.58-8.48-9.4,9.93,3.36,19.4,6.16,34.68,11,39.13,8.19,7.53,37.28,11.36,37.28,11.36Z"/>
    <path class="st10" d="M257.34,250.07c.79-2.19,1.55-4.38,2.29-6.59s1.34-4.61,2.17-6.86c0-.1-.12-.13-.15,0-.8,2.25-1.84,4.42-2.69,6.65s-1.64,4.33-2.43,6.52c-1.58,4.4-3.19,8.82-4.46,13.32,0,.13.17.22.23.09,1.88-4.31,3.46-8.74,5.04-13.13Z"/>
    <path class="st10" d="M235.15,259.91c-6-1.73-11.62-4-14.56-6.65-4.86-4.46-7.66-19.73-11-39.14-2.59-14.73,1.41-18.12,5.95-14.12l19.61,59.91Z"/>
    <path class="st12" d="M217.14,271.72c-1.69,1.26-66.57-.56-66.83-1-.7-1.28,19.22-59.83,47.59-77.15,5-3,12.33-.52,15.45,2.13,1.56,1.32,5.87,11.1,6.2,19s-1.35,56.22-2.41,57.02Z"/>
    <path class="st12" d="M219.11,173.39c0,3.9,2.77,7.06,6.19,7.06s6.19-3.16,6.19-7.06-2.77-7-6.19-7-6.19,3.1-6.19,7Z"/>
    <ellipse class="st11" cx="223.99" cy="173.64" rx="6.89" ry="7.85"/>
    <path class="st8" d="M212,205.15c-3.76.67-9.79-5.36-12-10.09-.15-.32,1.88-12.82,2-15.34,0-.52,15.58,4.74,15.58,4.74-1.08,3.1-1.78,6.32-2.08,9.59,0,.36.14,10.46-3.5,11.1Z"/>
    <path class="st10" d="M215.55,195.08v.17h-.08c-.52.05-1.03.05-1.55,0-8.58-.69-10.87-11.41-11.44-15.52,2.65.52,15.09,4.73,15.09,4.73-1.08,3.08-1.77,6.29-2.07,9.54v.35c0,.24.01.49.05.73Z"/>
    <path class="st8" d="M204.3,159.87c-2.9,5.1-3.55,21.56-.45,26,4.5,6.38,13.63,8.94,19.49,3.13,5.69-5.63,6.16-27.1,2.53-31.28-5.34-6.2-17.29-5.38-21.57,2.15Z"/>
    <path class="st10" d="M217.86,173s-.09.05-.09.09c0,1.11-.22,2.38-1.24,2.71M216.53,175.86c1.24-.15,1.47-1.86,1.33-2.86l-1.33,2.86Z"/>
    <path class="st10" d="M216.92,171.77c-1.78-.22-2.08,3.35-.43,3.55s1.92-3.32.43-3.55Z"/>
    <path class="st10" d="M224,173.65s.08.06.08.1c-.13,1.11-.09,2.39.88,2.84,0,0,0,.07,0,.06-1.27-.27-1.31-1.98-.96-3Z"/>
    <path class="st10" d="M225,172.58c1.79,0,1.63,3.59,0,3.58s-1.46-3.6,0-3.58Z"/>
    <path class="st10" d="M215.65,170c.49-.09.94-.24,1.42-.37.52-.06,1-.29,1.38-.66.21-.27.21-.65,0-.92-.51-.45-1.23-.59-1.87-.36-.67.13-1.28.51-1.69,1.06-.25.37-.14.88.23,1.12.16.1.34.15.53.13Z"/>
    <path class="st10" d="M226.57,170.89c-.47-.13-.94-.29-1.39-.48-.51-.11-.97-.38-1.32-.77-.17-.3-.12-.68.12-.92.55-.4,1.27-.47,1.89-.19.66.18,1.23.61,1.59,1.19.22.38.08.87-.3,1.09-.18.1-.39.13-.59.08Z"/>
    <path class="st10" d="M215.68,183.11c.24.28.48.66.88.72.41.03.82-.03,1.21-.17,0,0,.07,0,0,.06-.36.41-.92.6-1.45.48-.44-.15-.74-.54-.79-1,.03-.12.12-.13.15-.09Z"/>
    <path class="st10" d="M217.12,179.89c.49.93,1.35,1.62,2.37,1.89.44.12.89.18,1.35.18h.51c.12-.02.22-.11.24-.23h0s0-.07,0-.11h0v-.1c.09-.84.12-2.15.12-2.15.3.19,1.82,1,1.84.59.22-3.85.05-7.71-.51-11.52,0-.06-.05-.1-.1-.1-.05,0-.1.04-.1.1-.23,3.55.17,7.12,0,10.69-.54-.31-1.12-.54-1.73-.68-.13,0,0,2.51-.08,2.89h0c-1.42.02-2.79-.53-3.8-1.54-.07-.07-.17,0-.11.09Z"/>
    <path class="st10" d="M220.38,181.48c-.52.57-1.18,1-1.91,1.24-.4.13-.82.13-1.22,0-.87-.3-.82-1.12-.6-1.8.12-.35.28-.69.48-1,.89.85,2.03,1.4,3.25,1.56Z"/>
    <path class="st14" d="M218.47,182.72c-.4.13-.82.13-1.22,0-.87-.3-.82-1.12-.6-1.8.95.11,1.7.85,1.82,1.8Z"/>
    <path class="st10" d="M203.2,172c3.82,0,4.64-6.9,4.64-6.9,0,0,6.57-1,7.57-5.94,0,0,6.18,4,11.1,2.32s4.29-7.82,3.75-9c-1.25-2.72-5.35.71-5.35.71,0,0-6.13-3.79-13.14-3.17-5.7.51-8.62,5.84-8.62,5.84,0,0-3.06.62-4.07,2.75s1.69,13.39,4.12,13.39Z"/>
    <path class="st10" d="M206.29,165.15c5.07.73,8.47-2.61,9.25-7.46,0-.03.02-.05.05-.05s.05.02.05.05c-.19,4.52-4.47,9.52-9.4,7.68-.12-.04-.08-.24.05-.22Z"/>
    <path class="st10" d="M203.29,155.79c.06,0,.09.08,0,.1-1.43.65-3.06,1.12-4.07,2.41-1.22,1.55-1,3.6-.55,5.38.66,2.76,2,6.35,4.49,8,.14.1,0,.3-.15.22-2.93-1.77-4.6-6.43-5-9.67-.36-3.65,1.92-5.69,5.28-6.44Z"/>
    <path class="st10" d="M221,160.56c2.37,1.52,5.43,1.48,7.75-.12,2.7-2,2.19-5.37,1.08-8.16-.06-.14.13-.29.21-.15,1.54,2.46,1.61,6.19-.61,8.29s-6.21,2.09-8.65.47c-.24-.13-.02-.47.22-.33Z"/>
    <path class="st12" d="M214.86,177.86c-2.57-.55-4.2-3.07-3.65-5.64.55-2.57,3.07-4.2,5.64-3.65,2.11.45,3.65,2.27,3.75,4.43h0c.13,2.63-1.89,4.86-4.51,5-.03,0-.06,0-.09,0-.38,0-.77-.05-1.14-.14ZM216.7,169.19c-.33-.07-.66-.1-1-.09-2.28.07-4.07,1.98-4,4.26.07,2.28,1.98,4.07,4.26,4,2.28-.07,4.07-1.98,4-4.26-.06-1.9-1.41-3.51-3.26-3.91Z"/>
    <path class="st12" d="M225.72,178.81c-1.78-.38-3-2.54-2.77-5,.09-1.18.54-2.3,1.3-3.21,1.01-1.31,2.89-1.56,4.21-.55.35.27.64.62.84,1.01.57,1.04.82,2.22.69,3.4-.24,2.61-2,4.59-4,4.41l-.27-.06ZM227.09,170.07h-.24c-.83-.03-1.62.34-2.12,1-.67.81-1.08,1.8-1.15,2.85-.21,2.26.91,4.22,2.51,4.36s3.06-1.57,3.27-3.82c.11-1.04-.1-2.09-.61-3-.32-.68-.93-1.19-1.66-1.39h0Z"/>
    <path class="st12" d="M220.39,173.56l-.39-.56c.78-.54,2.51-1.2,3.55.15l-.5.38c-.91-1.16-2.59-.02-2.66.03Z"/>
    <path class="st12" d="M199.2,172.82l-.53-.34c.16-.25,1.6-2.44,3-2.54s9.74,1.49,10.1,1.56l-.12.62c-2.41-.45-8.9-1.62-9.94-1.54s-2.12,1.64-2.51,2.24Z"/>
    <path class="st8" d="M204.79,173.52s-2.55-5.87-5.14-5.06-1.4,8.8,1.13,10.37c1.27.91,3.04.62,3.95-.66.02-.02.03-.05.05-.07v-4.58Z"/>
    <path class="st10" d="M200.05,170.74s-.07,0,0,.07c1.76,1.17,2.41,3.15,2.74,5.14-.28-.82-1.17-1.26-1.99-.98-.08.03-.15.06-.22.09-.03,0-.06.03-.06.06,0,.03.03.06.06.06.74-.08,1.45.32,1.76,1,.26.54.46,1.11.59,1.7.06.19.39.17.36-.05h0c.54-2.5-.66-6.31-3.24-7.09Z"/>
    <path class="st11" d="M201.07,169.26s-.48-8.51,2.06-13.18c2.83-5.2,14-8.56,21.78-2.87,0,0-12.39-3.91-18.42,3.28-2.54,3-2.58,13-2.58,13l-2.84-.23Z"/>
    <ellipse class="st11" cx="202.11" cy="173.64" rx="6.89" ry="7.85"/>
    <path class="st12" d="M207,173.39c0,3.9-2.77,7.06-6.19,7.06s-6.19-3.16-6.19-7.06,2.77-7,6.19-7,6.19,3.1,6.19,7Z"/>
    <path class="st10" d="M308.35,226.68c.54.65,1,1.35.66,1.61h0c-.31.24-.92-.31-1.45-1l.79-.61Z"/>
    <path class="st9" d="M308.11,219.66c.56.68.65,5.48.41,7.23-.08.37-.41.65-.79.67-1.74-.11-6.47-1.12-7-1.8-.38-.46-1.24-2.53-2.28-4.55-1.35-2.65-24.16-31.83-24.25-32.29s.66-1.21,1.11-1.57,1.34-1,1.77-.8,24.69,28.16,27,30c1.79,1.45,3.65,2.65,4.03,3.11Z"/>
    <path class="st5" d="M308.12,219.66c.06.08.1.17.12.26-1.06,1.4-2.28,2.68-3.63,3.81-1.09.92-2.31,1.69-3.61,2.27-.12-.04-.22-.12-.31-.21-.08-.11-.15-.22-.22-.33,1.22-.48,4.21-2,7.31-6.08.12.08.24.18.34.28Z"/>
    <rect class="st10" x="296.97" y="208.81" width="1.98" height="12.1" rx=".73" ry=".73" transform="translate(-68.63 238.4) rotate(-39.47)"/>
    <rect class="st5" x="298.44" y="212.35" width="1.15" height="7.68" rx=".43" ry=".43" transform="translate(-69.24 239.38) rotate(-39.47)"/>
    <rect class="st10" x="299.19" y="216.9" width="1.15" height=".34" transform="translate(-69.63 239.99) rotate(-39.46)"/>
    <path class="st8" d="M191.13,209.09c6.18,17.32,18.71,34.95,29.12,36.66s37.21-9.86,45.41-13.76c3.16-1.5-7.44-28.64-10.81-27-5.71,2.78-30.48,17-32.48,16.44-1.25-.34-12.18-8.62-21.37-17.28-12-11.27-11.8-.45-9.87,4.94Z"/>
    <path class="st8" d="M299.82,200.17c.44,3.46-8.19,3.83-8.19,3.83,1.34.68,2.4,1.8,3,3.17,1,2.47-2.5,5.06-2.5,5.06,1.25.99,2.18,2.33,2.66,3.85.68,2.46-2.44,5.57-2.44,5.57.65,1.54.72,3.27.21,4.86-1.55,4.2-8.24,5.59-12.48,6.52s-17.16-.41-19.64-.42l-6.2-27.19s17.85-9.58,23-10c4.36-.28,21.91-.54,22.58,4.75Z"/>
    <path class="st10" d="M291.55,203.91c-4.69-.76-9.56-.4-14.25,0-.04,0-.08.04-.08.08s.04.08.08.08c4.66-.45,9.55.33,14.22.07.07,0,.11-.07.1-.13,0-.04-.03-.08-.07-.1Z"/>
    <path class="st10" d="M292,211.89c-1.08-.07-2.17,0-3.23.22-1.14.15-2.28.33-3.41.52-2.26.38-4.52.82-6.76,1.32-.1,0-.09.18,0,.17,2.26-.38,4.53-.73,6.8-1,1.14-.15,2.27-.28,3.41-.4,1.08-.05,2.16-.22,3.21-.5.09-.03.14-.12.11-.21-.02-.06-.07-.11-.13-.12Z"/>
    <path class="st10" d="M292.28,221.66c-.98-.05-1.96.07-2.9.35-1.03.2-2.06.39-3.09.57-2.06.37-4.12.74-6.19,1-.11,0-.09.18,0,.16,2.11-.29,4.22-.55,6.33-.86l3.1-.48c.95-.06,1.89-.29,2.76-.67.01-.02,0-.05-.01-.07Z"/>
    <path class="st12" d="M246.87,207.79l12.28,29.59s-30.8,12.06-40.31,9.23-22.63-22-26.89-33.42-3.16-21.07,11.39-8.21,18.53,15.61,19.45,15.44,24.08-12.63,24.08-12.63Z"/>
    <path class="st10" d="M258.82,237.37c-4.65,1.71-9.3,3.37-14.06,4.76s-16.93,4.45-21.93,4.63c-2.33,0-4.62-.67-6.59-1.91-2-1.22-3.82-2.69-5.43-4.39-1.7-1.7-3.31-3.49-4.9-5.29-1.82-2-3.57-4.15-5.32-6.26s-3.68-4.45-5.36-6.78c-.06-.08-.19,0-.14.08,1.47,2.08,2.87,4.2,4.38,6.25.62.84,1.26,1.67,1.91,2.49-.34-.25-.68-.51-1-.75-1.3-.9-2.64-1.76-3.89-2.73-.09-.07-.19.06-.1.12,1.28.91,2.46,1.94,3.65,2.94.59.49,1.18,1,1.78,1.44l.86.64.12.09,1.33,1.65c1.6,2,3.24,3.87,4.93,5.73,1.56,1.79,3.31,3.39,5.23,4.78,1.84,1.42,4.01,2.36,6.31,2.74,4.67.54,17.26-2.57,22.17-4,5.53-1.53,10.95-3.44,16.23-5.7.3-.14.16-.66-.18-.53Z"/>
    <path class="st10" d="M227.12,218.21c-.69.32-3.12,1.81-4,1.88-.8,0-1.57-.32-2.15-.87-.66-.52-1.32-1.06-2-1.57l-2.51-1.91-.12-.17c-.12-.18-.25-.36-.38-.53l-.81-1c-.54-.66-1.1-1.3-1.65-1.95-.07-.07-.18,0-.11.12.55.67,1.06,1.38,1.57,2.09l.49.7-.4-.3c-.66-.5-2.75-2-4-3-.09-.07-.19,0-.09.12,1.17.91,3.76,3.18,4.48,3.79,1.4,1.2,2.81,2.38,4.25,3.53,1.09.86,2.26,2,3.77,1.63,1.35-.61,2.62-1.38,3.78-2.3.15-.17-.01-.31-.12-.26Z"/>
    <path class="st10" d="M248.29,224.74c-.86-2.16-1.74-4.31-2.65-6.45-.93-2.2-2-4.35-2.92-6.58,0-.09-.18,0-.14.07.9,2.21,1.56,4.53,2.39,6.76s1.64,4.34,2.5,6.49c1.74,4.34,3.46,8.73,5.49,12.94.05.06.13.06.18.02.03-.03.05-.07.05-.11-1.42-4.44-3.19-8.8-4.9-13.14Z"/>
  </g>
  <g id="freepik--Table--inject-77">
    <rect class="st9" x="70.73" y="260.2" width="358.54" height="12.75"/>
    <rect class="st17" x="70.73" y="267.97" width="358.54" height="4.98"/>
    <polygon class="st17" points="83.59 451.85 78.44 451.85 93.44 272.95 106.59 272.95 83.59 451.85"/>
    <polygon class="st10" points="106.59 272.95 105.05 284.92 92.44 284.92 93.44 272.95 106.59 272.95"/>
    <polygon class="st17" points="416.41 451.85 421.56 451.85 406.56 272.95 393.41 272.95 416.41 451.85"/>
    <polygon class="st10" points="393.41 272.95 394.95 284.92 407.56 284.92 406.56 272.95 393.41 272.95"/>
  </g>
  <g id="freepik--Device--inject-77">
    <polygon class="st10" points="370.81 260.2 281.75 260.2 303.38 200.77 392.44 200.77 370.81 260.2"/>
    <polygon class="st9" points="373.96 260.2 284.91 260.2 306.54 200.77 395.59 200.77 373.96 260.2"/>
    <polygon class="st10" points="395.6 200.77 373.96 260.2 337.94 260.2 387.26 200.77 395.6 200.77"/>
    <polygon class="st17" points="389.83 260.2 378.99 260.2 369.26 243.35 380.1 243.35 389.83 260.2"/>
    <polygon class="st9" points="369.26 243.35 369.26 260.2 378.99 260.2 369.26 243.35"/>
    <polygon class="st17" points="329.03 260.2 318.19 260.2 308.47 243.35 319.31 243.35 329.03 260.2"/>
    <polygon class="st10" points="308.47 243.35 308.47 260.2 318.19 260.2 308.47 243.35"/>
  </g>
  <g id="freepik--Lamp--inject-77">
    <polygon class="st10" points="95.27 254.05 93.47 253.82 102.73 183.34 136.37 164.88 137.24 166.47 104.41 184.49 95.27 254.05"/>
    <path class="st12" d="M101,183.91c0,1.41,1.15,2.56,2.56,2.56s2.56-1.15,2.56-2.56c0-1.41-1.15-2.56-2.56-2.56h0c-1.41,0-2.56,1.15-2.56,2.56Z"/>
    <path class="st12" d="M133.88,165.67c0,1.41,1.15,2.56,2.56,2.56s2.56-1.15,2.56-2.56-1.15-2.56-2.56-2.56h0c-1.41,0-2.56,1.15-2.56,2.56Z"/>
    <polygon class="st12" points="153.65 168.02 141.62 181.45 136.07 174.59 132.69 170.41 141.71 160.35 146.23 163.25 153.65 168.02"/>
    <polygon class="st2" points="153.65 168.02 141.62 181.45 136.07 174.59 146.23 163.25 153.65 168.02"/>
    <polygon class="st12" points="171.09 174.65 150.11 198.06 136.18 180.28 151.9 162.74 171.09 174.65"/>
    <polygon class="st12" points="110.84 260.2 79.8 260.2 81.7 250.45 108.94 250.45 110.84 260.2"/>
  </g>
  <g id="freepik--Coffee--inject-77">
    <polygon class="st12" points="290.75 232.39 288.54 260.2 273.24 260.2 271.03 232.39 290.75 232.39"/>
    <rect class="st17" x="269.58" y="229.88" width="22.49" height="4.05"/>
    <polygon class="st9" points="290.53 229.88 271.12 229.88 272.26 225.32 289.39 225.32 290.53 229.88"/>
    <path class="st13" d="M286.2,246.54c0,3.61-2.38,6.54-5.31,6.54s-5.31-2.93-5.31-6.54,2.42-6.54,5.31-6.54,5.31,2.93,5.31,6.54Z"/>
  </g>
  <g id="freepik--Camera--inject-77">
    <path class="st5" d="M140.7,315.26c-6.54,0-11.72-2-15.41-5.88-7.85-8.31-7-23-6.56-30.91.07-1.33.14-2.47.14-3.27,0-4.14-1.13-7.41-2.32-10.88-.93-2.47-1.64-5.03-2.1-7.63-.69-4.43,1.13-10.4,3.2-13.39,1.59-2.3,5.06-1.86,5.21-1.84l-.27,2,.13-1-.13,1c-.66-.09-2.56-.08-3.3,1-1.82,2.64-3.45,8.19-2.87,12,.45,2.48,1.12,4.92,2,7.28,1.19,3.47,2.43,7.06,2.43,11.53,0,.85-.07,2-.15,3.38-.43,7.6-1.24,21.74,6,29.43,3.3,3.49,8,5.25,14,5.25,4.53,0,8-1.33,10.7-4.08,6.83-7,6.4-22,6.12-31.85-.09-3.05-.16-5.68,0-7.63.34-3.45,1.12-6.85,2.32-10.11,1.57-4.83,2.93-9,1-14.34-.51-1.31-1.84-2.11-3.23-1.95l-.25-2c2.33-.29,4.54,1.06,5.36,3.26,2.14,6,.62,10.67-1,15.63-1.15,3.1-1.89,6.34-2.22,9.63-.13,1.85-.06,4.43,0,7.43.29,10.22.74,25.66-6.69,33.31-3,3.06-7.08,4.63-12.11,4.63Z"/>
    <rect class="st10" x="121.86" y="238.4" width="35.88" height="21.8"/>
    <rect class="st10" x="125.89" y="237.46" width="6.32" height=".94"/>
    <rect class="st10" x="127.06" y="236.54" width="3.99" height=".94"/>
    <polygon class="st10" points="150.86 238.4 141.32 238.4 142.32 235.46 149.86 235.46 150.86 238.4"/>
    <rect class="st13" x="143.68" y="236.64" width="4.82" height="1.76"/>
    <polygon class="st10" points="120.94 241.29 120.94 243.03 121.86 243.34 121.86 244.08 120.37 243.57 120.37 240.75 121.86 240.24 121.86 240.98 120.94 241.29"/>
    <polygon class="st10" points="158.66 241.29 158.66 243.03 157.74 243.34 157.74 244.08 159.24 243.57 159.24 240.75 157.74 240.24 157.74 240.98 158.66 241.29"/>
    <path class="st17" d="M132.21,241.88c.67,5.19.67,10.44,0,15.63-.67-5.19-.67-10.44,0-15.63Z"/>
    <path class="st9" d="M146.09,258.59c-4.92,0-8.9-3.98-8.9-8.9s3.98-8.9,8.9-8.9,8.9,3.98,8.9,8.9h0c0,4.92-3.98,8.9-8.9,8.9ZM146.09,241.3c-4.64,0-8.4,3.76-8.4,8.4s3.76,8.4,8.4,8.4,8.4-3.76,8.4-8.4h0c0-4.64-3.76-8.4-8.39-8.4h0Z"/>
    <path class="st17" d="M152.94,249.69c0,3.78-3.06,6.85-6.84,6.86-3.78,0-6.85-3.06-6.86-6.84s3.06-6.85,6.84-6.86h0c3.78,0,6.84,3.06,6.85,6.84Z"/>
    <circle class="st15" cx="155.56" cy="240.24" r=".72"/>
  </g>
  <g id="freepik--Tools--inject-77">
    <path class="st6" d="M355.45,166.46l-19.82,19.68c-1.41,1.28-3.58,1.17-4.86-.24-1.2-1.32-1.19-3.33.02-4.64l19.81-19.68,4.85,4.88Z"/>
    <polygon class="st11" points="355.45 166.46 349.81 172.06 346.07 166.08 350.6 161.58 355.45 166.46"/>
    <path class="st6" d="M329.48,187.4h0c-.34-.34-.34-.89,0-1.23l4.48-4.45,1.23,1.24-4.48,4.45c-.34.34-.89.33-1.23-.01Z"/>
    <path class="st6" d="M335.19,183l-4.48,4.46c-.33.34-.88.35-1.22.01,0,0,0,0-.01-.01-.34-.34-.34-.89,0-1.23l.76-.75,3.72-3.7,1.23,1.22Z"/>
    <rect class="st12" x="349.13" y="160.37" width="4.85" height="10.29" transform="translate(-14.52 295.79) rotate(-44.8)"/>
    <path class="st12" d="M353.74,168.16l-4.85-4.88,4.1-4.07c1.34-1.34,3.52-1.34,4.86,0h0c1.34,1.34,1.35,3.51,0,4.85,0,0,0,0,0,0l-4.11,4.09Z"/>
    <path class="st12" d="M343,178.83l-7.36,7.31c-1.11,1.1-2.82,1.31-4.16.51l-.76.76c-.33.34-.88.35-1.22.01,0,0,0,0-.01-.01-.34-.34-.34-.89,0-1.23l.76-.75c-.79-1.35-.57-3.06.54-4.16l2.49-2.47,9.72.03Z"/>
    <path class="st12" d="M329.77,195.83c-2.49,0-1.64-4.92,0-6.56,1.69,1.73,2.49,6.56,0,6.56Z"/>
    <polygon class="st7" points="291.95 183.36 250.11 183.36 250.11 129.65 281.17 129.65 291.95 139.88 291.95 183.36"/>
    <rect class="st6" x="250.11" y="167.64" width="41.84" height="15.72"/>
    <polygon class="st12" points="250.11 167.64 263.34 154.96 275.34 167.64 250.11 167.64"/>
    <polygon class="st12" points="267.11 167.64 282.82 147.78 291.95 159.31 291.95 167.64 267.11 167.64"/>
    <path class="st13" d="M263.81,146.6c0,2.59-2.1,4.69-4.69,4.69s-4.69-2.1-4.69-4.69,2.1-4.69,4.69-4.69,4.69,2.1,4.69,4.69h0Z"/>
    <polygon class="st6" points="281.17 129.65 291.95 139.88 281.17 139.88 281.17 129.65"/>
    <path class="st5" d="M259.83,177.24c.15-.05.31.03.36.18.37,1.19,1.63,1.86,2.82,1.5.95-.29,1.6-1.18,1.6-2.18v-5.27c0-.16.13-.29.29-.29.16,0,.29.13.29.29h0v5.27c0,1.57-1.29,2.84-2.86,2.84-1.23,0-2.32-.8-2.7-1.97-.04-.16.05-.32.2-.37Z"/>
    <path class="st5" d="M267.46,171.47c0-.16.13-.28.29-.29h2.37c1.32.09,2.33,1.23,2.24,2.55-.08,1.2-1.04,2.16-2.24,2.24h-2.07v3.3c0,.16-.14.29-.3.29-.16,0-.29-.13-.29-.29h0v-7.8ZM270.12,175.41c1-.02,1.8-.83,1.81-1.83,0-1-.81-1.8-1.81-1.81h-2.07v3.64h2.07Z"/>
    <path class="st5" d="M278.38,175.8c-.16,0-.29-.12-.3-.28,0,0,0,0,0-.01,0-.17.13-.3.3-.3h2.62c.15.02.27.15.27.3v2.93c-.01.08-.05.16-.11.22-.78.6-1.73.92-2.71.92-2.35,0-4.26-1.91-4.26-4.26s1.91-4.26,4.26-4.26c.99,0,1.95.34,2.72.95.1.12.1.29,0,.41-.11.12-.29.14-.42.05-.66-.54-1.49-.83-2.34-.82-2.03,0-3.67,1.64-3.67,3.67s1.64,3.67,3.67,3.67h0c.8,0,1.57-.25,2.22-.72v-2.47h-2.25Z"/>
    <rect class="st11" x="138.78" y="69.86" width="18.16" height="57.11"/>
    <rect class="st12" x="140.8" y="71.67" width="14.13" height="7.9"/>
    <rect class="st12" x="140.8" y="81.25" width="14.13" height="7.9"/>
    <rect class="st12" x="140.8" y="90.82" width="14.13" height="7.9"/>
    <rect class="st12" x="140.8" y="100.39" width="14.13" height="7.9"/>
    <rect class="st12" x="140.8" y="109.97" width="14.13" height="7.9"/>
    <rect class="st1" x="140.8" y="71.67" width="14.13" height="7.9"/>
    <rect class="st2" x="140.8" y="81.25" width="14.13" height="7.9"/>
    <rect class="st3" x="140.8" y="100.39" width="14.13" height="7.9"/>
    <rect class="st4" x="140.8" y="109.97" width="14.13" height="7.9"/>
    <path class="st10" d="M149,123.41c0,.92-.75,1.67-1.67,1.67-.92,0-1.67-.75-1.67-1.67s.75-1.67,1.67-1.67h0c.92,0,1.66.73,1.67,1.65,0,0,0,.01,0,.02Z"/>
    <rect class="st7" x="136.96" y="97.21" width="57.11" height="18.16" transform="translate(-26.68 148.17) rotate(-45)"/>
    <rect class="st12" x="177.69" y="83.1" width="7.9" height="14.13" transform="translate(-10.56 154.84) rotate(-45)"/>
    <rect class="st12" x="170.92" y="89.87" width="7.9" height="14.13" transform="translate(-17.32 152.04) rotate(-45)"/>
    <rect class="st12" x="164.15" y="96.64" width="7.9" height="14.13" transform="translate(-24.1 149.24) rotate(-45)"/>
    <rect class="st12" x="157.38" y="103.41" width="7.9" height="14.13" transform="translate(-30.86 146.44) rotate(-45)"/>
    <rect class="st12" x="150.61" y="110.18" width="7.9" height="14.13" transform="translate(-37.64 143.63) rotate(-45)"/>
    <rect class="st1" x="177.69" y="83.1" width="7.9" height="14.13" transform="translate(-10.56 154.84) rotate(-45)"/>
    <rect class="st2" x="170.92" y="89.87" width="7.9" height="14.13" transform="translate(-17.32 152.04) rotate(-45)"/>
    <rect class="st3" x="157.38" y="103.41" width="7.9" height="14.13" transform="translate(-30.86 146.44) rotate(-45)"/>
    <rect class="st4" x="150.61" y="110.18" width="7.9" height="14.13" transform="translate(-37.64 143.63) rotate(-45)"/>
    <path class="st10" d="M148.65,124.76c-.65.65-1.71.65-2.36,0-.65-.65-.65-1.71,0-2.36.65-.65,1.71-.65,2.36,0,0,0,0,0,0,0,.65.65.65,1.71,0,2.36Z"/>
    <rect class="st6" x="143.88" y="115.26" width="57.11" height="18.16"/>
    <rect class="st12" x="191.27" y="117.28" width="7.9" height="14.13"/>
    <rect class="st12" x="181.7" y="117.28" width="7.9" height="14.13"/>
    <rect class="st12" x="172.12" y="117.29" width="7.9" height="14.13"/>
    <rect class="st12" x="162.55" y="117.28" width="7.9" height="14.13"/>
    <rect class="st12" x="152.98" y="117.28" width="7.9" height="14.13"/>
    <rect class="st1" x="191.27" y="117.28" width="7.9" height="14.13"/>
    <rect class="st2" x="181.7" y="117.28" width="7.9" height="14.13"/>
    <rect class="st3" x="162.55" y="117.28" width="7.9" height="14.13"/>
    <rect class="st4" x="152.98" y="117.28" width="7.9" height="14.13"/>
    <path class="st10" d="M147.44,125.48c-.92,0-1.67-.75-1.67-1.67s.75-1.67,1.67-1.67c.92,0,1.67.75,1.67,1.67h0c0,.92-.75,1.67-1.67,1.67Z"/>
  </g>
  <g id="freepik--trash-can--inject-77">
    <path class="st6" d="M79,449.81c1.35.44,2.56,1.43,3.33.11s2.83-.93,3.6-1.21,1.85-2.51,1.8-3.2-.63-1.41-.63-2.07,0-1.63-.13-2.54c.1-1.19-.51-2.33-1.57-2.9-.99-.4-2.05-.57-3.11-.5-.89-.09-1.54-1.51-3.3-2.05s-4.08,1.43-4.28,2.22-.37,3.19-1,4.08-1.57.6-1.73,1.71-.1,2.95.23,3.28,1.18-.16,1.57.5.75,2.44,1.55,2.84,2.67-.61,3.67-.27Z"/>
    <polygon class="st9" points="64.35 395.83 62.63 397.56 62.57 396.93 62.57 396.92 63.67 395.83 64.35 395.83"/>
    <polygon class="st9" points="70.87 395.83 65.02 401.72 63.13 403.59 63.1 403.2 63.1 403.19 63.08 402.97 64.67 401.37 70.24 395.83 70.87 395.83"/>
    <polygon class="st9" points="77.4 395.83 68.29 405 63.65 409.61 63.64 409.52 63.6 409.01 67.94 404.64 76.81 395.83 77.4 395.83"/>
    <polygon class="st9" points="83.93 395.83 71.57 408.27 64.16 415.63 64.11 415.06 71.21 407.92 83.37 395.83 83.93 395.83"/>
    <path class="st9" d="M90.43,395.83c-.88.91-1.77,1.81-2.66,2.71l-12.93,13-10.17,10.12v-.54l9.86-9.93,13-12.92c.82-.82,1.65-1.63,2.48-2.44h.42Z"/>
    <path class="st9" d="M96.93,395.83c-1.96,2-3.92,4-5.89,6l-12.92,13-12.94,12.84v-.5l12.62-12.7,13-12.93,5.8-5.71h.33Z"/>
    <path class="st9" d="M103.39,395.83c-3.01,3.1-6.04,6.19-9.08,9.26l-12.92,13-13.01,12.91c-.89.89-1.79,1.77-2.69,2.65v-.42c.81-.84,1.64-1.67,2.46-2.5l12.93-13,13-12.92c3.04-3.01,6.09-6.01,9.16-9l.15.02Z"/>
    <path class="st9" d="M109.76,395.9h0c-4.04,4.16-8.1,8.3-12.17,12.42l-12.93,13-13,12.92-5.46,5.37v-.33c1.73-1.77,3.47-3.54,5.22-5.31l12.92-13,13-12.92c4.11-4.03,8.25-8.08,12.42-12.15Z"/>
    <path class="st9" d="M109.17,403h0v.22h0c-2.76,2.82-5.52,5.63-8.29,8.44l-12.92,13-13,12.93c-2.73,2.7-5.47,5.39-8.23,8.08h0v-.2c2.67-2.72,5.33-5.43,8-8.13l12.92-13,13-12.93c2.81-2.84,5.65-5.64,8.52-8.41Z"/>
    <path class="st9" d="M108.57,410v.44l-4.39,4.46-12.93,13-13,12.92c-3.54,3.5-7.1,6.99-10.67,10.46h-.12c3.48-3.6,6.98-7.18,10.51-10.73l12.93-13,13-12.92,4.67-4.63Z"/>
    <path class="st9" d="M108,417.09v.57l-.51.52-12.92,13-13,12.92c-2.43,2.41-4.87,4.8-7.31,7.19h-.29c2.44-2.49,4.88-4.98,7.33-7.46l12.92-13,13-12.93.78-.81Z"/>
    <path class="st9" d="M107.36,424.22v.63l-9.55,9.61-13,12.93-4,3.91h-.42c1.37-1.4,2.75-2.79,4.12-4.18l12.93-13,9.92-9.9Z"/>
    <path class="st9" d="M106.76,431.34l-.06.69-5.7,5.71-13,12.92-.65.64h-.52l.9-.91,12.92-13,6.11-6.05Z"/>
    <polygon class="st9" points="106.15 438.47 106.09 439.22 104.31 441.01 93.95 451.3 93.38 451.3 103.95 440.66 106.15 438.47"/>
    <polygon class="st9" points="105.55 445.62 105.55 445.65 105.49 446.37 100.53 451.3 99.91 451.3 105.55 445.62"/>
    <polygon class="st9" points="109.68 396.92 109.62 397.57 107.9 395.83 108.58 395.83 109.68 396.92"/>
    <polygon class="st9" points="109.17 402.97 109.11 403.59 107.23 401.72 101.37 395.83 102.01 395.83 107.58 401.37 109.17 402.97"/>
    <polygon class="st9" points="108.65 409.01 108.61 409.52 108.6 409.62 103.95 405 94.84 395.83 95.44 395.83 104.31 404.64 108.65 409.01"/>
    <polygon class="st9" points="108.14 415.07 108.09 415.64 100.68 408.27 88.32 395.83 88.87 395.83 101.03 407.92 108.14 415.07"/>
    <path class="st9" d="M107.63,421.13v.53l-10.22-10.11-12.93-13c-.89-.9-1.78-1.8-2.66-2.71h.45c.83.81,1.66,1.62,2.48,2.44l13,12.92,9.88,9.93Z"/>
    <path class="st9" d="M107.11,427.17v.5l-12.98-12.85-12.92-13c-2-2-3.96-4-5.89-6h.36l5.8,5.71,13,12.93,12.63,12.71Z"/>
    <path class="st9" d="M106.6,433.25v.43l-2.7-2.66-13-12.93-12.93-13c-3.03-3.08-6.06-6.17-9.07-9.26h.19c3.06,2.98,6.11,5.98,9.16,9l13,12.92,12.93,13,2.42,2.5Z"/>
    <path class="st9" d="M106.08,439.33v.33c-1.83-1.77-3.65-3.57-5.47-5.37l-13-12.92-12.92-13c-4.08-4.12-8.14-8.26-12.17-12.42h0c4.17,4.05,8.31,8.12,12.44,12.19l13,12.92,12.92,13c1.74,1.75,3.47,3.5,5.2,5.27Z"/>
    <path class="st9" d="M105.57,445.42v.23c-2.76-2.67-5.5-5.36-8.23-8.08l-13-12.93-12.92-13c-2.77-2.8-5.53-5.61-8.29-8.44h0v-.24c2.87,2.79,5.73,5.6,8.58,8.41l13,12.93,12.93,13c2.64,2.69,5.28,5.4,7.93,8.12Z"/>
    <path class="st9" d="M104.83,451.3h-.12c-3.57-3.47-7.14-6.95-10.71-10.46l-13-12.92-12.93-13-4.39-4.46v-.44c1.57,1.54,3.13,3.08,4.7,4.63l13,12.92,12.92,13c3.53,3.56,7.05,7.13,10.53,10.73Z"/>
    <path class="st9" d="M98.37,451.3h-.29c-2.45-2.39-4.88-4.78-7.31-7.19l-13-12.92-12.92-13-.51-.52v-.56c.28.26.55.54.83.81l13,12.93,12.92,13c2.41,2.47,4.84,4.96,7.28,7.45Z"/>
    <path class="st9" d="M91.88,451.3h-.41c-1.33-1.3-2.67-2.6-4-3.91l-13-12.93-9.55-9.6v-.64l10,9.89,12.93,13c1.29,1.4,2.67,2.79,4.03,4.19Z"/>
    <path class="st9" d="M85.39,451.3h-.52l-.65-.64-13-12.92-5.67-5.74-.06-.7,6.08,6,12.92,13,.9,1Z"/>
    <polygon class="st9" points="78.87 451.3 78.3 451.3 67.94 441.01 66.16 439.22 66.16 439.21 66.09 438.48 68.29 440.66 78.87 451.3"/>
    <polygon class="st9" points="72.34 451.3 71.72 451.3 66.76 446.37 66.7 445.62 72.34 451.3"/>
    <rect class="st9" x="64.41" y="397.52" width="1" height="55.81" transform="translate(-37.87 7.53) rotate(-5.14)"/>
    <rect class="st9" x="79.57" y="423.16" width="55.59" height="1" transform="translate(-324.36 491.66) rotate(-84.73)"/>
    <rect class="st10" x="59.56" y="389.77" width="53.04" height="8.98"/>
    <rect class="st10" x="65.03" y="446.49" width="42.1" height="8.98"/>
    <path class="st16" d="M103.43,443.11c1.6-.22,3.65-.22,3.76.69s-.61,1.4-.38,1.86c.66.68,1.37,1.31,2.13,1.89.5.54.87,1.19,1.06,1.9,0,.23.38.61,0,1.06s-.59,1.14-.9,1.49-.45.72,0,1.32c.36,1.04.12,2.19-.62,3-.68.61-2.66-.83-3.26-.68s-.69.45-1.22.83c-.91.74-2.02,1.19-3.19,1.3-1.36,0-2-1.22-2.88-1.75-.75-.39-1.53-.7-2.35-.91-.68-.28-1.28-.72-1.75-1.29-.15-.31-.68-.38-.45-1.22s.6-1.06.6-1.74v-1.58c0-.78-.61-2.14-.08-2.75s.91-1.52,1.74-1.52,3.49.46,3.49.46c.28-.31.54-.64.76-1,.39-.64,1.09-1.04,1.84-1.06.58-.01,1.15-.11,1.7-.3Z"/>
    <path class="st11" d="M94,450.82c1.09.5,2.19.95,3.3,1.38s2.21.91,3.32,1.32c1.09.42,2.21.78,3.34,1.08.23.06.46.09.69.08l.67-.34c.51-.26,1-.55,1.46-.89.44-.3.81-.69,1.1-1.13.05-.1.09-.21.12-.32v-.25h0c-.05-.19-.15-.37-.29-.51-.78-.85-1.66-1.61-2.6-2.27-1-.7-1.93-1.37-2.94-2-.5-.33-1-.64-1.52-.93-.26-.15-.52-.29-.79-.42-.13-.07-.26-.13-.4-.18-.13,0-.3-.15-.41,0,.1-.14.3-.06.43-.05s.29.08.44.12c.29.09.57.2.84.32.56.23,1.11.48,1.65.74,1.07.55,2.11,1.14,3.14,1.79,1.06.64,2.03,1.41,2.89,2.3.28.29.46.65.53,1.05,0,.08,0,.15,0,.23v.14l-.08.26c-.06.17-.14.33-.23.48-.35.57-.8,1.06-1.35,1.44-.5.38-1.04.71-1.6,1l-.41.2-.2.1-.12.05-.22.07c-.36.03-.73,0-1.08-.11-1.17-.34-2.31-.77-3.41-1.3-2.18-.98-4.28-2.13-6.27-3.45Z"/>
    <path class="st11" d="M98.51,452.88c.59-.93,1.26-1.81,2-2.63.36-.42.75-.8,1.14-1.2.19-.19.41-.37.63-.56.24-.21.51-.39.8-.52.05-.03.1-.05.15-.06.11-.02.21-.02.32,0,.15.03.3.11.41.22.12.12.23.25.32.39.17.23.32.47.45.72.27.48.52.97.74,1.48.46.99.8,2.04,1,3.12l-1.72-2.76c-.29-.45-.56-.91-.86-1.35-.14-.22-.28-.44-.43-.63-.06-.09-.13-.18-.21-.25h.08s.08.01.12,0h0c-.2.1-.39.22-.56.36l-.6.49-1.29,1.1c-.78.71-1.6,1.42-2.49,2.08Z"/>
    <path class="st16" d="M78.33,459.46c-.86.2-2,.31-2.1-.19s.26-.8.12-1c-.4-.34-.82-.65-1.27-.93-.3-.28-.53-.62-.68-1,0-.12-.23-.31-.05-.58s.27-.66.42-.86c.18-.21.17-.52-.04-.71,0,0-.02-.02-.03-.02-.25-.54-.18-1.18.19-1.65.34-.37,1.49.32,1.82.21s.35-.29.62-.52c.46-.45,1.05-.75,1.68-.87.75-.07,1.19.56,1.67.8.43.18.88.31,1.34.38.38.12.72.33,1,.62.1.16.39.17.31.64s-.28.62-.24,1,0,.44.08.86.44,1.15.18,1.51-.42.87-.88.92-1.93-.07-1.93-.07c-.14.18-.26.38-.37.58-.19.39-.57.65-1,.67-.29.03-.57.1-.84.21Z"/>
    <path class="st11" d="M75,454.58c.46-.49,1-.93,1.42-1.4l.37-.33.18-.16c.11-.09.23-.15.37-.18.35-.08.7-.13,1.06-.14.69-.02,1.39.02,2.07.12.39.05.76.16,1.11.34.24.16.42.4.49.68.06.21.09.42.08.64-.04.72-.2,1.43-.46,2.1-.13.33-.28.64-.45.95-.09.16-.18.32-.29.47-.14.2-.33.35-.56.43-.69.2-1.42.25-2.13.14-.67-.07-1.34-.18-2-.35.67-.05,1.34-.06,2-.14.62-.02,1.23-.15,1.81-.36.12-.06.09-.06.19-.19.07-.13.14-.26.2-.4.13-.28.24-.57.33-.87.22-.57.34-1.18.36-1.79.02-.18.1-.35.23-.47-.35-.12-.72-.2-1.09-.25-.62-.14-1.25-.23-1.89-.27-.31-.03-.62-.03-.93,0-.06,0-.11,0-.09,0l-.21.14-.43.27c-.56.34-1.12.71-1.74,1.02Z"/>
    <path class="st11" d="M77.09,453.31c0,.63,0,1.25.06,1.81,0,.26.08.58.15.6s0,0,0,0h.06c.11.01.23.01.34,0,.54-.08,1.12-.24,1.71-.37.6-.14,1.21-.24,1.83-.3-.97.83-2.13,1.4-3.38,1.66-.19.02-.37.02-.56,0-.13,0-.27-.04-.39-.09-.15-.07-.27-.18-.36-.32-.19-.36-.25-.78-.16-1.18.1-.65.34-1.26.7-1.81Z"/>
    <path class="st16" d="M71.08,446.44c-.44-1.35-.36-2.91-1.88-2.75s-2.43-1.73-3.11-2.18-3.11,0-3.65.45-.75,1.34-1.29,1.73-1.29,1-2,1.61c-1.01.64-1.55,1.82-1.37,3,.26,1.03.75,1.99,1.45,2.8.45.77-.31,2.14.3,3.88s3.57,2.43,4.33,2.13c.76-.3,2.78-1.6,3.89-1.6s1.42.91,2.41.38,2.43-1.67,2.5-2.12-.83-.86-.53-1.57,1.52-2,1.37-2.93-2.07-1.8-2.42-2.83Z"/>
    <path class="st11" d="M68.27,443.53c-1.87.6-3.7,1.33-5.47,2.19-.2.1-.38.22-.55.36-.07,0-.12.34-.16.55-.08.48-.14,1-.19,1.45-.1,1-.17,2-.18,2.93-.01.47.01.94.08,1.41,0,.13.04.25.1.37.17.09.34.14.53.17.95.13,1.9.18,2.86.14.48,0,1-.05,1.42-.11s1-.21,1.43-.29c1-.2,1.94-.38,2.87-.62.22-.05.44-.12.65-.2h.12s-.06.05-.07.09c-.04.12-.04.24,0,.36.02.06.05.12.1.17,0,0,.06.06.06.05h0l-.13-.05c-.42-.14-.91-.26-1.38-.37l-2.89-.64c-1-.21-1.93-.43-2.9-.67-.49-.13-1-.25-1.46-.42-.3-.09-.58-.24-.82-.43l-.08-.1c-.04-.06-.06-.12-.07-.19,0-.06,0-.12,0-.18,0-.09.03-.18.06-.27.04-.14.1-.28.17-.41.53-.88,1.16-1.68,1.88-2.41.18-.18.36-.36.55-.53.1-.09.2-.17.3-.25l.17-.12c.07-.06.16-.1.25-.13.2-.03.4.02.56.14.11.08.22.16.32.26.19.17.37.36.53.56,1.2,1.58,2.28,3.25,3.23,5-1.1-1.64-2.3-3.2-3.6-4.68-.16-.18-.33-.35-.51-.5-.11-.11-.24-.19-.39-.25.06,0,0,0-.07.06-.05.03-.09.06-.13.1-.09.07-.17.15-.25.24-.17.16-.34.34-.5.52-.66.69-1.23,1.46-1.71,2.29-.04.09-.08.18-.11.27,0,0,0,.1,0,.09h0s0-.07,0-.1h0c.17.08.34.15.52.2.44.14.92.26,1.39.38,1,.22,1.92.42,2.89.62l3.7.71c.49.11.17.1.69.26l.22.08c.05.02.1.05.15.08.05.03.09.07.13.11.05.06.09.13.12.2.05.13.05.28,0,.41-.05.08-.12.16-.2.22-.04.03-.09.06-.14.08l-.23.11c-.25.09-.5.17-.76.23-1,.24-2,.41-2.94.59-.51.09-.91.19-1.48.28s-1,.08-1.53.09c-1.02.04-2.04-.02-3.05-.2-.31-.04-.6-.15-.86-.31-.17-.13-.29-.31-.34-.52-.05-.14-.08-.29-.09-.44-.06-.52-.09-1.04-.08-1.56.06-1,.18-2,.32-3,.08-.49.16-1,.27-1.48.09-.25,0-.48.33-.81.21-.18.45-.32.71-.43.92-.39,1.86-.72,2.82-1,.9-.28,1.85-.55,2.82-.75Z"/>
  </g>
</svg>