<svg width="160" height="160" viewBox="0 0 160 160" fill="none" xmlns="http://www.w3.org/2000/svg">
<g clip-path="url(#clip0_86_8)">
<path d="M28.3333 0H131.667C147.333 0 160 12.9915 160 29.0598V130.94C160 147.009 147.333 160 131.667 160H28.3333C12.6667 160 0 147.009 0 130.94V29.0598C0 12.9915 12.6667 0 28.3333 0Z" fill="#330000"/>
<path d="M77.5333 95.5968H52.7333L47.6667 111.26C47.5333 111.86 47 112.26 46.4 112.193H33.8667C33.1333 112.193 32.9333 111.793 33.1333 110.994L54.6 49.2063C54.8 48.5398 55 47.8066 55.2667 47.0068C55.5333 45.607 55.6667 44.1407 55.6667 42.6743C55.6 42.341 55.8667 42.0078 56.2 41.9411H73.4667C74 41.9411 74.2667 42.1411 74.3333 42.4743L98.6667 111.127C98.8667 111.86 98.6667 112.193 98 112.193H84.0667C83.6 112.26 83.1333 111.927 83 111.46L77.5333 95.5968ZM56.6 82.0662H73.5333C73.1333 80.6665 72.6 79.0002 72 77.2672C71.4 75.4676 70.8 73.5346 70.2 71.5351C69.5333 69.4688 68.9333 67.4692 68.2667 65.403C67.6 63.3367 67 61.4038 66.4667 59.4709C65.9333 57.6046 65.4667 55.8716 65 54.2719H64.8667C64.2667 57.138 63.5333 60.0041 62.6 62.8702C61.6 66.0695 60.6 69.4022 59.5333 72.7348C58.6 76.1341 57.6 79.2668 56.6 82.0662ZM113.2 53.3388C111 53.4054 108.867 52.539 107.267 51.0059C105.733 49.3396 104.933 47.1401 105 44.8739C104.933 42.6077 105.8 40.4748 107.4 38.9417C109 37.4087 111.133 36.6089 113.333 36.6089C115.933 36.6089 117.933 37.4087 119.4 38.9417C120.867 40.5414 121.667 42.6743 121.6 44.8739C121.667 47.1401 120.867 49.3396 119.267 51.0059C117.733 52.6056 115.467 53.4721 113.2 53.3388ZM105.733 111.194V59.8708C105.733 59.2043 106 58.9376 106.6 58.9376H119.8C120.4 58.9376 120.667 59.2709 120.667 59.8708V111.194C120.667 111.927 120.4 112.26 119.8 112.26H106.733C106.067 112.26 105.733 111.86 105.733 111.194Z" fill="#FF9A00"/>
</g>
<defs>
<clipPath id="clip0_86_8">
<rect width="160" height="160" fill="white"/>
</clipPath>
</defs>
</svg>
