<svg width="160" height="160" viewBox="0 0 160 160" fill="none" xmlns="http://www.w3.org/2000/svg">
<path fill-rule="evenodd" clip-rule="evenodd" d="M101.725 0.285569L12.7696 6.92468C5.57095 7.43538 3 12.287 3 17.9047V114.938C3 119.279 4.54257 123.109 8.399 127.961L29.2237 155.028C32.5659 159.369 35.9082 160.39 42.3356 159.88L145.688 153.751C154.429 153.24 157 149.155 157 142.26V32.9704C157 29.3955 155.715 28.3741 151.344 25.3099C151.087 25.0546 150.83 25.0546 150.573 24.7992L122.292 5.13723C115.608 0.0302191 112.78 -0.480482 101.725 0.285569ZM44.6494 31.183C36.1653 31.6937 34.3656 31.949 29.4808 27.8634L17.3973 18.4154C16.1119 17.1387 16.626 15.6066 19.9683 15.3512L105.581 9.22283C112.78 8.71213 116.379 11.0103 119.207 13.3084L133.861 23.7778C134.633 24.0332 136.175 25.8206 134.119 25.8206L45.6778 31.183H44.6494ZM34.8798 141.239V48.5468C34.8798 44.4612 36.1653 42.6737 39.7646 42.4184L141.317 36.5453C144.659 36.29 146.202 38.3328 146.202 42.4184V134.345C146.202 138.43 145.431 141.75 140.032 142.005L42.8497 147.623C37.4507 148.133 34.8798 146.091 34.8798 141.239ZM130.776 53.6538C131.29 56.4627 130.776 59.2715 127.948 59.5269L123.321 60.5483V128.982C119.207 131.28 115.608 132.302 112.523 132.302C107.638 132.302 106.352 130.77 102.496 126.173L71.6444 78.1675V124.386L81.414 126.684C81.414 126.684 81.414 132.302 73.7012 132.302L52.1052 133.578C51.591 132.302 52.1052 129.238 54.1619 128.727L59.818 127.195V65.9106L52.1052 65.1446C51.591 62.3357 53.1336 58.2501 57.5042 57.9948L80.6427 56.4627L112.523 104.979V62.0804L104.295 61.059C103.781 57.7394 106.095 55.1859 109.18 54.9306L130.776 53.6538Z" fill="black"/>
</svg>
