<svg width="160" height="160" viewBox="0 0 160 160" fill="none" xmlns="http://www.w3.org/2000/svg">
<path fill-rule="evenodd" clip-rule="evenodd" d="M29.7761 0L75.4288 41.9772V41.9676V0.0968605H84.3155V42.1651L130.173 0V47.8603H149V116.894H130.23V159.511L84.3155 119.253V159.974H75.4288V119.917L29.8279 160V116.894H11V47.8603H29.7761V0ZM68.7292 56.6208H19.8867V108.134H29.8167V91.8846L68.7292 56.6208ZM38.7142 95.7716V140.452L75.4288 108.18V62.4916L38.7142 95.7716ZM84.5712 107.753V62.4486L121.296 95.7306V116.894H121.344V139.995L84.5712 107.753ZM130.23 108.134H140.113V56.6208H91.6346L130.23 91.5195V108.134ZM121.286 47.8603V20.151L91.1501 47.8603H121.286ZM68.7982 47.8603H38.6629V20.151L68.7982 47.8603Z" fill="black"/>
</svg>
