<svg width="160" height="160" viewBox="0 0 160 160" fill="none" xmlns="http://www.w3.org/2000/svg">
<g clip-path="url(#clip0_129_2)">
<path d="M134.4 0H25.6C11.4615 0 0 11.4615 0 25.6V134.4C0 148.538 11.4615 160 25.6 160H134.4C148.538 160 160 148.538 160 134.4V25.6C160 11.4615 148.538 0 134.4 0Z" fill="#07A081"/>
<path d="M59.7472 107.936H82.4384V86.1918H89.2799C94.081 86.1918 98.6854 84.2846 102.08 80.8897C105.475 77.4949 107.382 72.8905 107.382 68.0894C107.382 63.2884 105.475 58.6839 102.08 55.2891C98.6854 51.8942 94.081 49.987 89.2799 49.987H59.7472V107.936ZM94.1887 119.526H47.9999V38.3998H89.2799C96.7954 38.2931 104.071 41.0429 109.637 46.0937C115.203 51.1446 118.645 58.1198 119.267 65.6102C119.888 73.1007 117.644 80.5479 112.986 86.4472C108.329 92.3465 101.606 96.2581 94.1759 97.3918L94.1887 119.526Z" fill="white"/>
</g>
<defs>
<clipPath id="clip0_129_2">
<rect width="160" height="160" fill="white"/>
</clipPath>
</defs>
</svg>
