<svg width="160" height="160" viewBox="0 0 160 160" fill="none" xmlns="http://www.w3.org/2000/svg">
<g clip-path="url(#clip0_86_12)">
<path d="M28.3333 0H131.667C147.333 0 160 12.9915 160 29.0598V130.94C160 147.009 147.333 160 131.667 160H28.3333C12.6667 160 0 147.009 0 130.94V29.0598C0 12.9915 12.6667 0 28.3333 0Z" fill="#001E36"/>
<path d="M36 111.394V42.8077C36 42.3411 36.2 42.0745 36.6667 42.0745C37.8 42.0745 38.8667 42.0745 40.4 42.0078C42 41.9412 43.6667 41.9412 45.4667 41.8745C47.2667 41.8079 49.2 41.8079 51.2667 41.7412C53.3333 41.6746 55.3333 41.6746 57.3333 41.6746C62.8 41.6746 67.3333 42.3411 71.0667 43.7408C74.4 44.8739 77.4667 46.7402 80 49.2064C82.1333 51.3392 83.8 53.9387 84.8667 56.8048C85.8667 59.6042 86.4 62.4703 86.4 65.4697C86.4 71.2018 85.0667 75.9342 82.4 79.6668C79.7333 83.3993 76 86.1988 71.6667 87.7984C67.1333 89.4648 62.1333 90.0646 56.6667 90.0646C55.0667 90.0646 54 90.0646 53.3333 89.998C52.6667 89.9313 51.7333 89.9313 50.4667 89.9313V111.327C50.5333 111.794 50.2 112.193 49.7333 112.26H36.8C36.2667 112.26 36 111.993 36 111.394ZM50.5333 54.9385V77.3339C51.4667 77.4006 52.3333 77.4672 53.1333 77.4672H56.6667C59.2667 77.4672 61.8667 77.0673 64.3333 76.2675C66.4667 75.6676 68.3333 74.4012 69.8 72.7349C71.2 71.0685 71.8667 68.8023 71.8667 65.8696C71.9333 63.8034 71.4 61.7371 70.3333 59.9375C69.2 58.2045 67.6 56.8714 65.6667 56.1383C63.2 55.1385 60.5333 54.7385 57.8 54.8052C56.0667 54.8052 54.5333 54.8052 53.2667 54.8719C51.9333 54.8052 51 54.8719 50.5333 54.9385ZM128 73.2681C126 72.2016 123.867 71.4684 121.6 71.0019C119.133 70.4687 116.667 70.1354 114.133 70.1354C112.8 70.0687 111.4 70.2687 110.133 70.602C109.267 70.8019 108.533 71.2685 108.067 71.935C107.733 72.4682 107.533 73.1348 107.533 73.7347C107.533 74.3345 107.8 74.9344 108.2 75.4676C108.8 76.2008 109.6 76.8007 110.467 77.2673C112 78.0671 113.6 78.8003 115.2 79.4668C118.8 80.6666 122.267 82.3329 125.467 84.3325C127.667 85.7322 129.467 87.5985 130.733 89.8647C131.8 91.9976 132.333 94.3304 132.267 96.7299C132.333 99.8626 131.4 102.995 129.667 105.595C127.8 108.261 125.2 110.327 122.2 111.527C118.933 112.927 114.933 113.66 110.133 113.66C107.067 113.66 104.067 113.393 101.067 112.793C98.7333 112.393 96.4 111.66 94.2667 110.66C93.8 110.394 93.4667 109.927 93.5333 109.394V97.7964C93.5333 97.5964 93.6 97.3298 93.8 97.1965C94 97.0632 94.2 97.1298 94.4 97.2632C97 98.7962 99.7333 99.8626 102.667 100.529C105.2 101.196 107.867 101.529 110.533 101.529C113.067 101.529 114.867 101.196 116.067 100.596C117.133 100.129 117.867 98.9961 117.867 97.7964C117.867 96.8632 117.333 95.9967 116.267 95.1303C115.2 94.2638 113 93.264 109.733 91.9976C106.333 90.7978 103.2 89.1981 100.267 87.1986C98.2 85.7322 96.4667 83.7993 95.2 81.5331C94.1333 79.4002 93.6 77.0673 93.6667 74.7344C93.6667 71.8684 94.4667 69.1356 95.9333 66.6694C97.6 64.0033 100.067 61.8704 102.933 60.5374C106.067 58.9377 110 58.2045 114.733 58.2045C117.467 58.2045 120.267 58.4045 123 58.8044C125 59.071 126.933 59.6042 128.733 60.3374C129 60.4041 129.267 60.6707 129.4 60.9373C129.467 61.2039 129.533 61.4705 129.533 61.7371V72.6016C129.533 72.8682 129.4 73.1348 129.2 73.2681C128.6 73.4014 128.267 73.4014 128 73.2681Z" fill="#31A8FF"/>
</g>
<defs>
<clipPath id="clip0_86_12">
<rect width="160" height="160" fill="white"/>
</clipPath>
</defs>
</svg>
