<svg width="160" height="160" viewBox="0 0 160 160" fill="none" xmlns="http://www.w3.org/2000/svg">
<path fill-rule="evenodd" clip-rule="evenodd" d="M110.059 158.747L109.696 19.0945C108.755 18.1538 106.921 18.4379 106.204 18.6474L101.427 20.1282C100.837 18.1876 100.072 16.3048 99.1406 14.503C95.751 8.03027 90.7969 4.60764 84.7999 4.59832H84.7813C84.3809 4.59832 83.9851 4.63558 83.5847 4.66817L83.5381 4.67283C83.3647 4.45919 83.1846 4.25109 82.998 4.04884C80.3906 1.25485 77.0382 -0.109549 73.0247 0.00686728C65.2863 0.230386 57.5805 5.82768 51.3274 15.7696C46.9274 22.7686 43.589 31.5557 42.6345 38.359L27.3951 43.0855C22.9113 44.4965 22.7716 44.6362 22.1803 48.8691C21.738 52.0729 10 142.966 10 142.966L108.374 160L110.059 158.747ZM77.8298 6.39113C76.5214 5.52965 74.9895 5.12918 73.1737 5.16643C61.2262 5.51103 50.8059 24.1982 48.1472 36.65L61.6359 32.4684C63.1352 24.5614 66.8973 16.3564 71.8187 11.0757C73.5395 9.18352 75.5709 7.59921 77.8251 6.39113H77.8298ZM67.293 30.7128L83.7197 25.6184C83.7709 21.3343 83.3053 15.0013 81.1635 10.5309C78.882 11.4715 76.9637 13.12 75.5855 14.5961C71.8932 18.5683 68.8808 24.6266 67.2977 30.7128H67.293ZM88.8647 24.0259L96.5006 21.6556C95.2807 17.6882 92.3847 11.0385 86.5133 9.92087C88.3385 14.6381 88.8088 20.1003 88.8647 24.0259Z" fill="#95BF47"/>
<path d="M132.101 29.4835C131.514 29.4369 120.144 29.2599 120.144 29.2599C120.144 29.2599 110.632 20.0118 109.691 19.0665C109.327 18.7304 108.866 18.5185 108.374 18.4612V159.977L151 149.364C151 149.364 133.605 31.5929 133.493 30.7873C133.439 30.4452 133.273 30.1309 133.019 29.8946C132.766 29.6583 132.446 29.5136 132.101 29.4835Z" fill="#5E8E3E"/>
<path d="M84.7487 51.4582L79.7946 70.0103C79.7946 70.0103 74.2725 67.4911 67.7214 67.9055C58.1206 68.5109 58.0181 74.5785 58.1159 76.1012C58.6374 84.3901 80.4325 86.2061 81.657 105.638C82.6208 120.926 73.5601 131.39 60.5045 132.209C44.8368 133.201 36.2091 123.944 36.2091 123.944L39.5288 109.797C39.5288 109.797 48.2124 116.358 55.1593 115.916C59.7036 115.632 61.3239 111.934 61.161 109.317C60.4765 98.4997 42.7276 99.133 41.6055 81.3539C40.6649 66.3828 50.4753 51.2254 72.1307 49.8563C80.4744 49.3255 84.7487 51.4629 84.7487 51.4629" fill="white"/>
</svg>
