<svg width="160" height="160" viewBox="0 0 160 160" fill="none" xmlns="http://www.w3.org/2000/svg">
<path d="M34.9091 12.7411L80 8L125.091 12.7411L160 59.3482L80 152L0 59.3482L34.9091 12.7411Z" fill="#FDB300"/>
<path d="M32.404 59.3482L80 152L0 59.3482L32.404 59.3482Z" fill="#EA6C00"/>
<path d="M127.596 59.3482L80 152L160 59.3482L127.596 59.3482Z" fill="#EA6C00"/>
<path d="M32.404 59.3482H127.596L80 152L32.404 59.3482Z" fill="#FDAD00"/>
<path d="M80 8L34.9091 12.7411L32.404 59.3482L80 8Z" fill="#FDD231"/>
<path d="M80 8L125.091 12.7411L127.596 59.3482L80 8Z" fill="#FDD231"/>
<path d="M160 59.3482L125.091 12.7411L127.596 59.3482L160 59.3482Z" fill="#FDAD00"/>
<path d="M0 59.3482L34.9091 12.7411L32.404 59.3482L0 59.3482Z" fill="#FDAD00"/>
<path d="M80 8L32.404 59.3482H127.596L80 8Z" fill="#FEEEB7"/>
</svg>
